/* XPM */
static char * agent_xpm[] = {
"16 16 7 1",
" 	c None",
".	c #FFFFFF",
"+	c #000000",
"@	c #848284",
"#	c #C6C3C6",
"$	c #FFFF00",
"%	c #848200",
"                ",
"   ++++++++++++ ",
"   +..........+ ",
"   +..........+ ",
"   +..........+ ",
"   +..........+ ",
"   ++@.#.+....+ ",
"  +.++@++$+...+ ",
"  +%++$+$%+...+ ",
" @+%++$++.++..+ ",
" +%$.+++#$%+..+ ",
" +%++.$.$+%+..+ ",
"  +$%%.+%$+...+ ",
" +$%++$++%%+..+ ",
"  ++++%++++++++ ",
"     +++        "};
