/* XPM */
static char *aggregate_xpm[] = {
/* columns rows colors chars-per-pixel */
"16 16 33 1",
"  c #D2E2F2",
". c #D4E3F3",
"X c #E5E9F5",
"o c #DDE6F4",
"O c #AAAAAA",
"+ c #E7EAF5",
"@ c #D6E4F3",
"# c #CFE1F2",
"$ c #C9DFF1",
"% c #CDE0F2",
"& c #E3E9F5",
"* c #D0E1F2",
"= c #CADFF1",
"- c #E8EBF5",
"; c #EBECF6",
": c #EAEBF6",
"> c #CCE0F1",
", c #ECECF6",
"< c #DFE7F4",
"1 c #E1E8F4",
"2 c #DBE5F3",
"3 c #D8E5F3",
"4 c #9CBE44",
"5 c #888888",
"6 c #6F6F6F",
"7 c gray100",
"8 c black",
"9 c black",
"0 c black",
"q c black",
"w c black",
"e c black",
"r c None",
/* pixels */
"rrO6666666666Orr",
"rr6$$=>%#* .@6rr",
"rr6$4444444436rr",
"rr6=4444444426rr",
"rr6>%#* .@32o6rr",
"rr6%55 55355<6rr",
"rr6#55.5525516rr",
"rr6* .@32o<1&6rr",
"rr6 55355<55X6rr",
"rr6.55255155+6rr",
"rr6@32o<1&X+-6rr",
"rr6355<55X55:6rr",
"rr6255155+55;6rr",
"rr6o<1&X+-:;,6rr",
"rrO6666666666Orr",
"rrrrrrrrrrrrrrrr"
};
