/* XPM */
static char *clip_copy_xpm[] = {
/* columns rows colors chars-per-pixel */
"16 16 65 1",
"  c #C1DBE5",
". c #CFE5EE",
"X c #D1E4EB",
"o c #B6D3DE",
"O c #E4F1F7",
"+ c #E6F3F8",
"@ c #E7F3F8",
"# c #E3F0F6",
"$ c #CBE0E7",
"% c #D9E9EF",
"& c #C9DEE5",
"* c #F2F9FC",
"= c #C4DBE2",
"- c #E1EDF1",
"; c #BAD6E1",
": c #E5F1F7",
"> c #E2EFF5",
", c #D5E6ED",
"< c #C5DEE8",
"1 c #D8EBF4",
"2 c #D5E9F2",
"3 c #CCE3EC",
"4 c #DFEDF3",
"5 c #DCEBF1",
"6 c #E8F3F9",
"7 c #C1D9E0",
"8 c #ABCCD7",
"9 c #D9E7EC",
"0 c #C5DEE7",
"q c #CAE1EB",
"w c #BAD6E0",
"e c #C7DCE4",
"r c #C2D9E1",
"t c #E0EEF3",
"y c #B2D0DB",
"u c #B3D1DC",
"i c #C6DCE4",
"p c #AFCED9",
"a c #BDD8E2",
"s c #CADFE6",
"d c #C8E0EA",
"f c #C1D8E0",
"g c #CEE2E8",
"h c #D2E7F0",
"j c #BED9E3",
"k c #8F989B",
"l c #A8C9D5",
"z c #8E8E8E",
"x c #2C66BD",
"c c #606060",
"v c #D0D0D0",
"b c black",
"n c black",
"m c black",
"M c black",
"N c black",
"B c black",
"V c black",
"C c black",
"Z c black",
"A c black",
"S c black",
"D c black",
"F c black",
"G c None",
/* pixels */
"GGGGGGGGGGGGGGGG",
"GzcccccczGGGGGGG",
"Gc*6+O#cczGGGGGG",
"Gc@12kcccccczGGG",
"Gc:xxc*6+O#cczGG",
"Gc>.3c@12h.ctczG",
"Gc4xxc:xxxqccccG",
"Gc5< c>.3d0 aXcG",
"Gc%xxc4xxxxxxgcG",
"Gc,;oc5< jwoyscG",
"GcXxxc%xxxxxxecG",
"Gc-$&c,;oup8l=cG",
"GzccccXxxxxxx7cG",
"GGGGGc-$&i=rf9cG",
"GGGGGzcccccccczG",
"GGGGGGGGGGGGGGGG"
};
