/* XPM */
static char *closedown_xpm[] = {
/* columns rows colors chars-per-pixel */
"11 10 3 1",
"  c black",
". c #9D9DA1",
"X c gray100",
/* pixels */
"          X",
" .........X",
" .XXXXXXXXX",
" .X  XX  XX",
" .XX    XXX",
" .XXX  XXXX",
" .XX    XXX",
" .X  XX  XX",
" .XXXXXXXXX",
"XXXXXXXXXXX"
};
