/* XPM */
static char *column_xpm[] = {
/* columns rows colors chars-per-pixel */
"16 16 65 1",
"  c #90CAF3",
". c #DDDDDD",
"X c gray94",
"o c #F6F6F6",
"O c gray72",
"+ c #ECECEC",
"@ c gray97",
"# c #E6E6E6",
"$ c #B2B2B2",
"% c #E7E7E7",
"& c gray92",
"* c #ACACAC",
"= c #AFAFAF",
"- c gray65",
"; c gray87",
": c gray95",
"> c gray90",
", c #87BFE7",
"< c #B4D6EE",
"1 c gray91",
"2 c #E2E2E2",
"3 c gray88",
"4 c #EEEEEE",
"5 c #DFDFDF",
"6 c #F3F3F3",
"7 c #AEAEAE",
"8 c gray68",
"9 c #B1B1B1",
"0 c gray93",
"q c gray67",
"w c gray69",
"e c gray66",
"r c #EAEAEA",
"t c gray96",
"y c #E9E9E9",
"u c #A9A9A9",
"i c #E1E1E1",
"p c #2195E7",
"a c gray100",
"s c black",
"d c black",
"f c black",
"g c black",
"h c black",
"j c black",
"k c black",
"l c black",
"z c black",
"x c black",
"c c black",
"v c black",
"b c black",
"n c black",
"m c black",
"M c black",
"N c black",
"B c black",
"V c black",
"C c black",
"Z c black",
"A c black",
"S c black",
"D c black",
"F c black",
"G c None",
/* pixels */
"GGG pppppppp GGG",
"GGGp<..;5>#,pGGG",
"GGGp.-#%1+7ypGGG",
"GGGp.-ueu8=rpGGG",
"GGGp;3ii2yiipGGG",
"GGGpiuyyyyuipGGG",
"GGGpiuuuuuuipGGG",
"GGGpiiiiiiiipGGG",
"GGGpiuyyyyuipGGG",
"GGGpiuq**u$XpGGG",
"GGGp#%y&+:6tpGGG",
"GGGp%=XX:oOopGGG",
"GGGpyw9$$OO@pGGG",
"GGGp&+04Xo@@pGGG",
"GGG pppppppp GGG",
"GGGGGGGGGGGGGGGG"
};
