/* XPM */
static char *connect_xpm[] = {
/* columns rows colors chars-per-pixel */
"32 32 129 2",
"   c #EADD4C",
".  c #E1D980",
"X  c #999995",
"o  c #9B9A97",
"O  c #929292",
"+  c #D7D7D7",
"@  c #A2A2A2",
"#  c #E4CA1B",
"$  c #868684",
"%  c #676767",
"&  c #FBFBFB",
"*  c gray73",
"=  c #A5A5A5",
"-  c gray90",
";  c #C8C8C8",
":  c #A4A39F",
">  c #9E9B76",
",  c gray34",
"<  c #F1F1F1",
"1  c #AEAEAE",
"2  c gray100",
"3  c #A4A4A4",
"4  c #747474",
"5  c #B9B9BA",
"6  c gray60",
"7  c #5F5F5F",
"8  c gray74",
"9  c gray35",
"0  c #E9E9E9",
"q  c gray50",
"w  c gray44",
"e  c gray65",
"r  c #9F944C",
"t  c #959591",
"y  c #777777",
"u  c #848483",
"i  c #8E8D8E",
"p  c gray46",
"a  c #A4A4A3",
"s  c gray77",
"d  c #C6C6C6",
"f  c #C8C7BF",
"g  c #5D5D5D",
"h  c gray54",
"j  c gray47",
"k  c #B2B2B2",
"l  c gray58",
"z  c #A0A0A0",
"x  c #858583",
"c  c gray",
"v  c gray62",
"b  c #DFDFDF",
"n  c gray61",
"m  c #A7A7A7",
"M  c gray97",
"N  c #808080",
"B  c gray42",
"V  c gray48",
"C  c #7C7C7C",
"Z  c #8B8B8B",
"A  c #7E7E7E",
"S  c #8D8D8D",
"D  c #979797",
"F  c gray70",
"G  c gray66",
"H  c #626262",
"J  c gray39",
"K  c gray83",
"L  c gray63",
"P  c #A9A9A9",
"I  c #7B7B7B",
"U  c #6F6F6F",
"Y  c #727272",
"T  c #D5D4CB",
"R  c black",
"E  c black",
"W  c black",
"Q  c black",
"!  c black",
"~  c black",
"^  c black",
"/  c black",
"(  c black",
")  c black",
"_  c black",
"`  c black",
"'  c black",
"]  c black",
"[  c black",
"{  c black",
"}  c black",
"|  c black",
" . c black",
".. c black",
"X. c black",
"o. c black",
"O. c black",
"+. c black",
"@. c black",
"#. c black",
"$. c black",
"%. c black",
"&. c black",
"*. c black",
"=. c black",
"-. c black",
";. c black",
":. c black",
">. c black",
",. c black",
"<. c black",
"1. c black",
"2. c black",
"3. c black",
"4. c black",
"5. c black",
"6. c black",
"7. c black",
"8. c black",
"9. c black",
"0. c black",
"q. c black",
"w. c black",
"e. c black",
"r. c black",
"t. c black",
"y. c black",
"u. c black",
"i. c None",
/* pixels */
"i.i.i.i.i.i.i.i.i.i.i.i.i.i.i.i.i.i.i.i.i.i.i.i.i.i.i.i.i.i.i.i.",
"i.i.i.i.i.i.i.i.i.i.i.i.i.i.i.i.i.i.i.i.i.i.i.i.i.i.i.i.i.i.i.i.",
"i.i.i.i.i.i.i.i.i.i.i.i.i.i.i.i.i.i.i..   . i.i.i.i.i.i.i.i.i.i.",
"i.i.i.i.i.i.i.i.i.i.i.i.i.i.i.i.i.i..   #   i.i.i.i.i.i.i.i.i.i.",
"i.i.i.i.i.i.i.i.i.i.i.i.X U U X i..   #   . i.i.i.i.i.i.i.i.i.i.",
"i.i.i.i.i.i.i.i.i.i.i.X U i 3 U >   #   . i.i.i.i.i.i.i.i.i.i.i.",
"i.i.i.i.i.i.i.i.i.i.i.U i 3 5 d U r   . i.i.i..   . i.i.i.i.i.i.",
"i.i.i.i.i.i.i.i.i.i.i.U 3 5 d s 8 U > i.i.i..   #   i.i.i.i.i.i.",
"i.i.i.i.i.i.i.i.i.i.i.$ U v s 8 k a U X i..   #   . i.i.i.i.i.i.",
"i.i.i.i.i.i.i.i.i.i.X U 0 N 6 k a l u U >   #   . i.i.i.i.i.i.i.",
"i.i.i.i.i.i.i.i.i.X q & 2 0 A Z l u 4 % U r   . i.i.i.i.i.i.i.i.",
"i.i.i.i.i.i.i.i.f q & 2 & < + I V 4 % g , U > i.i.i.i.i.i.i.i.i.",
"i.i.i.i.i.i.i.i.: F 2 & < - + c j B g , , 9 U X i.i.i.i.i.i.i.i.",
"i.i.i.i.i.i.i.i.$ b & < - + ; * m p H , 9 7 % U i.i.i.i.i.i.i.i.",
"i.i.i.i.i.i.i.i.Y M < - + ; * 1 = n p J 7 % w U i.i.i.i.i.i.i.i.",
"i.i.i.i.i.i.i.i.$ K - + ; * 1 = @ @ z U % w U X i.i.i.i.i.i.i.i.",
"i.i.i.i.i.i.i.i.: G + ; * 1 = @ @ e U x U U X i.i.i.i.i.i.i.i.i.",
"i.i.i.i.i.i.i.i.t C P * 1 = @ @ e y X i.i.i.i.i.i.i.i.i.i.i.i.i.",
"i.i.i.i.i.i.i.o Y h j S 6 L D h y X i.i.i.i.i.i.i.i.i.i.i.i.i.i.",
"i.i.i.i.i.i.o Y O Y t : $ Y $ : f i.i.i.i.i.i.i.i.i.i.i.i.i.i.i.",
"i.i.i.i.i.i.Y O Y o i.i.i.i.i.i.i.i.i.i.i.i.i.i.i.i.i.i.i.i.i.i.",
"i.i.i.i.i.i.Y O Y i.i.i.i.i.i.i.i.i.i.i.i.i.i.i.i.i.i.i.i.i.i.i.",
"i.i.i.i.i.i.Y O Y o i.i.i.i.i.i.i.i.i.i.i.i.i.i.i.i.i.i.i.i.i.i.",
"i.i.i.i.i.i.o Y O Y i.i.i.i.i.i.i.i.i.i.i.i.i.i.i.i.i.i.i.i.i.i.",
"i.i.i.i.i.i.i.Y O Y i.i.i.i.i.i.i.i.i.i.i.i.i.i.i.i.i.i.i.i.i.i.",
"i.i.i.i.i.i.i.Y O Y i.i.i.i.i.i.i.i.i.i.i.i.i.i.i.i.i.i.i.i.i.i.",
"i.i.i.i.i.i.o Y O Y i.i.i.i.i.i.i.i.i.i.i.i.i.i.i.i.i.i.i.i.i.i.",
"i.i.i.i.i.o Y O Y o i.i.i.i.i.i.i.i.i.i.i.i.i.i.i.i.i.i.i.i.i.i.",
"i.i.i.i.i.Y O Y o i.i.i.i.i.i.i.i.i.i.i.i.i.i.i.i.i.i.i.i.i.i.i.",
"i.i.i.i.i.o Y o i.i.i.i.i.i.i.i.i.i.i.i.i.i.i.i.i.i.i.i.i.i.i.i.",
"i.i.i.i.i.i.i.i.i.i.i.i.i.i.i.i.i.i.i.i.i.i.i.i.i.i.i.i.i.i.i.i.",
"i.i.i.i.i.i.i.i.i.i.i.i.i.i.i.i.i.i.i.i.i.i.i.i.i.i.i.i.i.i.i.i."
};
