/* XPM */
static char * constraints_xpm[] = {
"16 16 12 1",
" 	c None",
".	c #D98C75",
"+	c #BF3C14",
"@	c #E7BC9C",
"#	c #E7A381",
"$	c #E7B291",
"%	c #E6926E",
"&	c #E67F5A",
"*	c #E66D45",
"=	c #E65C32",
"-	c #E64D23",
";	c #E64318",
"                ",
"                ",
"  .             ",
" ++.         +  ",
" +@+.       +#+ ",
" +@$+.     +#%+ ",
" +$#%+.   +#%&+ ",
" +#%&*+  +#%&*+ ",
" +%&*+   .+&*=+ ",
" +&*+     .+=-+ ",
" +*+       .+;+ ",
" .+         .+. ",
"                ",
"                ",
"                ",
"                "};
