/* XPM */
static char * create_xpm[] = {
"32 32 9 1",
" 	c None",
".	c #010000",
"+	c #000000",
"@	c #777777",
"#	c #BB0000",
"$	c #F92504",
"%	c #FF9933",
"&	c #FF3333",
"*	c #FFCC99",
"                                ",
"                                ",
"           ..+++                ",
"          +@@@@#++              ",
"        ++$+@++@@#++            ",
"      ++$$$+@##++@@#++          ",
"    ++$$$$$+@##$$++@@#++        ",
"  ++$$$$$$$##$$$$$$++@##++      ",
"  +$%%$$$$$$$$$$$$$$+@&##$++    ",
"  +$$$%%$$$$$$$$$$$$+@###$$$++  ",
"  +$$$$$%%$$$$$$$$$$+@##$$$$$$++",
"  ++$$$$$$%%$$$$$$$$$$$$$$$$%%$+",
"   +++$$$$$$%%$$$$$$$$$$$$%%$$$+",
"   +##++$$$$$$%%$$$$$$$$%%$$$$$+",
"   +$$##++++$$$$%%$$$$%%$$$$$$++",
"   +$$$$##++++$$$$%%%%$$$$$$+++ ",
"   +$$$$$$++++$$$$$$%$$$$$++##+ ",
"   +$$$$$$++++++$$$$%$$$++##$$+ ",
"   +$$$$$$$#++##++$$%$++##$$$$+ ",
"   +$$$$$$$$###$##++++##$$$$$$+ ",
"   +$$$$$$$$$$$$$$##&#$$$$$$$$+ ",
"    ++$$$$$$$$$$$$$$%$$$$$$$$$+ ",
"     @++$$$$$$**$$$$%$$$$$$$$$+ ",
"    @@@@++$$$$****$$%$$$$$$$$$+ ",
"     @@@@@++$$****$$%$$$$$$$++  ",
"       @@@@@++&***$$%$$$$$++@   ",
"         @@@@@++&*$$%$$$++@@@@  ",
"           @@@@@++$$%$++@@@@@   ",
"             @@@@@++++@@@@@     ",
"               @@@@@@@@@@       ",
"                 @@@@@@         ",
"                   @@           "};
