/* XPM */
static char *create_xpm[] = {
/* columns rows colors chars-per-pixel */
"32 32 129 2",
"   c #2C87B5",
".  c #A9DAF1",
"X  c #FBFCFD",
"o  c #64A7C8",
"O  c #E5EFF1",
"+  c #A9CDDE",
"@  c #5CBAE5",
"#  c #E5F5FB",
"$  c #ECF4F5",
"%  c #62BBE6",
"&  c #CDE5F5",
"*  c #C5E2F5",
"=  c #7AB3CF",
"-  c #F1F7F8",
";  c #D6E9F9",
":  c #47B5E1",
">  c #6CBEE9",
",  c #59B9E5",
"<  c #5E9DBD",
"1  c #6BABCB",
"2  c #A5DBF0",
"3  c #9ED8EF",
"4  c #79C6EA",
"5  c #55B8E5",
"6  c #A2D9F0",
"7  c #B4DAEE",
"8  c #52B7E4",
"9  c #B6D6E6",
"0  c #41B3E0",
"q  c #8CBED7",
"w  c #4EB6E3",
"e  c #83B9D3",
"r  c #CEE2E6",
"t  c #85C9EB",
"y  c #4AB5E2",
"u  c #F9FBFC",
"i  c #B2D3E1",
"p  c #B6D6E8",
"a  c #76C0EB",
"s  c #CAE8F7",
"d  c #B3D6F5",
"f  c #B2D5E7",
"g  c #A0D2F1",
"h  c #99CAF1",
"j  c #4690B5",
"k  c #73C1EA",
"l  c #E2EEF0",
"z  c #E7F1F3",
"x  c #EFF5F7",
"c  c #EAF2F4",
"v  c #85AFC0",
"b  c #DFECEF",
"n  c #F3F8F9",
"m  c #4092BC",
"M  c #F5F9FA",
"N  c #D8E8EB",
"B  c #93B2BF",
"V  c #F7FAFB",
"C  c #D6E6EA",
"Z  c #DDEBEE",
"A  c #D4E5E9",
"S  c #368DB8",
"D  c #3E8EB6",
"F  c #D2E4E8",
"G  c #F4F8F9",
"H  c #E6F0F2",
"J  c #EEF5F6",
"K  c #90C0D8",
"L  c #D0E3E7",
"P  c #6FA5BD",
"I  c #7CABBF",
"U  c #77B1CC",
"Y  c #7FC3EC",
"T  c #C8CEC9",
"R  c #F8FBFB",
"E  c #DBE9EC",
"W  c #EBF3F5",
"Q  c #D3E6F7",
"!  c #E8F1F3",
"~  c #E9F2F4",
"^  c #E3EFF5",
"/  c #9DCDF2",
"(  c #FBFDFD",
")  c #AEDDF2",
"_  c #FDFEFE",
"`  c #E8F2F6",
"'  c #CCE7F8",
"]  c #E5F1F8",
"[  c #7EB5D0",
"{  c #8CCBEC",
"}  c #8ECEED",
"|  c #AED5F4",
" . c #C2DFF7",
".. c #D7E7EC",
"X. c #3EB2E0",
"o. c #EEF5FA",
"O. c #D0E3E9",
"+. c #72AFCE",
"@. c #98B8C3",
"#. c #DEECF9",
"$. c #65BCE8",
"%. c #80B6D0",
"&. c #C3E0F5",
"*. c #A5D6F1",
"=. c #86C7EE",
"-. c #B9D7E8",
";. c #71BFEA",
":. c #5097BB",
">. c #348BB7",
",. c #B3D2DF",
"<. c #7BC2EA",
"1. c #A0D9EF",
"2. c #BADEF1",
"3. c #B3DBF4",
"4. c #D2D2CB",
"5. c gray100",
"6. c #44B3E1",
"7. c #75C4E9",
"8. c #A0CDF2",
"9. c #C0E0F2",
"0. c #BBD8E4",
"q. c #A9C0C5",
"w. c #C5DEEB",
"e. c #51B8E3",
"r. c #F9FCFC",
"t. c #2784B3",
"y. c #649BB7",
"u. c #D5D4CB",
"i. c None",
/* pixels */
"i.i.i.i.i.i.i.i.i.i.i.i.i.i.i.i.i.i.i.i.i.i.i.i.i.i.i.i.i.i.i.i.",
"i.B y.y.y.y.y.y.y.y.y.y.y.y.y.B i.i.i.i.i.i.i.i.i.i.i.i.i.i.i.i.",
"i.y.R O H H z ! ~ c W $ J x ( y.i.i.i.i.i.i.i.i.i.i.i.i.i.i.i.i.",
"i.y.O r r L F A C N E Z b l - y.i.i.i.i.i.i.i.i.i.i.i.i.i.i.i.i.",
"i.y.H r L F A C N O.Z b l O n y.i.i.i.i.i.i.i.i.i.i.i.i.i.i.i.i.",
"i.y.H L F A C N [ >.%.l O z G y.i.i.i.i.i.i.i.i.i.i.i.i.i.i.i.i.",
"i.y.z F A C N U o o.o i z c M y.i.i.i.i.i.i.i.i.i.i.i.i.i.i.i.i.",
"i.y.! A C N U o Q #.o i + $ V y.i.i.i.i.i.i.i.i.i.i.i.i.i.i.i.i.",
"i.y.~ C N U o Q ; o =   1 = ` y.i.i.i.i.i.i.i.i.i.i.i.i.i.i.i.i.",
"i.y.c N ,.< ] ; o =   -.; K [ y.i.i.i.i.i.i.i.i.i.i.i.i.i.i.i.i.",
"i.y.W E ..  w.o =   p d 8.* q j i.i.i.i.i.i.i.i.i.i.i.i.i.i.i.i.",
"i.y.$ Z b + t.+   p d h / & o :.@.i.i.i.i.i.i.v D v i.i.i.i.i.i.",
"i.y.J b l O l 1 9  .h / &.o e   +.P T i.i.i.v m ^ D i.i.i.i.i.i.",
"i.y.x l O z c 0.S & | * o e   9 ' K P T i.v m 7 s t.i.i.i.i.i.i.",
"i.y.( - n G M V q S ] o e   f g =.. K P v m 7 4 ) t.i.i.i.i.i.i.",
"i.B y.y.y.y.y.y.y.j   j   f g Y a <.*.q m 7 4 @ . t.i.i.i.i.i.i.",
"i.i.i.i.i.i.i.i.i.i.4.< 9 3.Y a ;.> k } { 4 @ 5 . t.y.y.y.y.B i.",
"i.i.i.i.i.i.i.i.i.i.i.q.S * { k > > $.% % @ 5 8 2 t.$ J x ( y.i.",
"i.i.i.i.i.i.i.i.i.i.i.i.I S 9.t > $.% @ , 5 8 w 2 t.Z b l - y.i.",
"i.i.i.i.i.i.i.i.i.i.i.i.i.I S 2.4 % @ , 5 8 w y 6 t.b l O n y.i.",
"i.i.i.i.i.i.i.i.i.i.i.i.i.i.I :.t @ , 5 8 w y : 6 t.l O z G y.i.",
"i.i.i.i.i.i.i.i.i.i.i.i.i.v m 7 7., 5 8 w y : 6.1.t.O z c M y.i.",
"i.i.i.i.i.i.i.i.i.i.i.i.v m 7 4 @ 5 e.w y : 6.0 3 t.z c $ V y.i.",
"i.i.i.i.i.i.i.i.i.i.i.v m 7 4 @ 5 8 w y : 6.0 X.3 t.c $ x R y.i.",
"i.i.i.i.i.i.i.i.i.i.i.D ^ s ) . . 2 2 6 6 1.3 3 # t.$ x - u y.i.",
"i.i.i.i.i.i.i.i.i.i.i.v D t.t.t.t.t.t.t.t.t.t.t.t.U x - n r.y.i.",
"i.i.i.i.i.i.i.i.i.i.i.i.i.i.i.i.y.$ Z b l O z c $ x - n M X y.i.",
"i.i.i.i.i.i.i.i.i.i.i.i.i.i.i.i.y.J b l O z c $ x - n M V ( y.i.",
"i.i.i.i.i.i.i.i.i.i.i.i.i.i.i.i.y.x l O z c $ x - n M V r._ y.i.",
"i.i.i.i.i.i.i.i.i.i.i.i.i.i.i.i.y.( - n G M V R u r.X ( _ 5.y.i.",
"i.i.i.i.i.i.i.i.i.i.i.i.i.i.i.i.B y.y.y.y.y.y.y.y.y.y.y.y.y.B i.",
"i.i.i.i.i.i.i.i.i.i.i.i.i.i.i.i.i.i.i.i.i.i.i.i.i.i.i.i.i.i.i.i."
};
