/* XPM */
static char *databases_xpm[] = {
/* columns rows colors chars-per-pixel */
"16 16 129 2",
"   c #E4D7BA",
".  c #E3D983",
"X  c #F2E4C7",
"o  c #FEFEFB",
"O  c #EAE197",
"+  c #F5F2D3",
"@  c #AF9837",
"#  c #FFF8F3",
"$  c #FAF9F4",
"%  c #C3B06A",
"&  c #E6DEC0",
"*  c #D1C38D",
"=  c #D3C591",
"-  c #B7A04B",
";  c #FEF4D3",
":  c #CBBC82",
">  c #E0DA7B",
",  c #F4ECB5",
"<  c #FFFAF4",
"1  c #FBF8E9",
"2  c #F9F9E5",
"3  c #FCFCF7",
"4  c #FCF9ED",
"5  c #FBFBF1",
"6  c #FFFDEE",
"7  c #D1C47B",
"8  c #D8CD78",
"9  c #CABB7C",
"0  c #E5D3B3",
"q  c #F6ECC6",
"w  c #FFFDE3",
"e  c #FFF9EE",
"r  c #F2E8D9",
"t  c #C1AD64",
"y  c #F2EFCC",
"u  c #C7B37E",
"i  c #DFD79D",
"p  c #FFFCF5",
"a  c #D4C292",
"s  c #F4ECB2",
"d  c #E3D9BD",
"f  c #F4EAD8",
"g  c #D7CA98",
"h  c #D1C499",
"j  c #DFDA84",
"k  c #DBD1AE",
"l  c #C0AC72",
"z  c #F0EDD7",
"x  c #E0CEAB",
"c  c #B39C44",
"v  c #EBE398",
"b  c #C1AD73",
"n  c #FEF9D8",
"m  c #CDC075",
"M  c #F3E6BE",
"N  c #F4F4DB",
"B  c #E9DCB9",
"V  c #F1EEBC",
"C  c #F7F4E8",
"Z  c #E9E193",
"A  c #B8A24E",
"S  c #F2EAD9",
"D  c #E9E1B7",
"F  c #EDEDCA",
"G  c #F5F0D4",
"H  c #EEE9BE",
"J  c #EBE198",
"K  c #BCAD52",
"L  c #E3DBB2",
"P  c #FCF9D9",
"I  c #D3C866",
"U  c #FEF6E5",
"Y  c #C7BC6A",
"T  c #FFF7EE",
"R  c #CABD6D",
"E  c #DFD77F",
"W  c #CEBC91",
"Q  c #D0BE91",
"!  c #DFDF9B",
"~  c #B29B3B",
"^  c #D6CE88",
"/  c #FAF7CF",
"(  c #E4E097",
")  c #DBC694",
"_  c #C9B95C",
"`  c #DDD099",
"'  c #FEF9E5",
"]  c #E1DC84",
"[  c #EDEDBB",
"{  c #EEEEBE",
"}  c #E4E1A0",
"|  c #E5E5AB",
" . c #EAE0B8",
".. c #EDE4BD",
"X. c #D3C38C",
"o. c #E3DE81",
"O. c #DCD481",
"+. c #F2F2C2",
"@. c #F5F0C5",
"#. c #F4F4C7",
"$. c #DCD477",
"%. c #EDDDB5",
"&. c #F3EBAF",
"*. c #D3C68C",
"=. c #F9F9D1",
"-. c #DACB8E",
";. c #E6DCA9",
":. c #E4DFA2",
">. c #F0EDD2",
",. c #ECE9C4",
"<. c #FDFAF8",
"1. c #E3D9BB",
"2. c #E5DBBF",
"3. c #ECE9B2",
"4. c #EFECB7",
"5. c #FCF9F2",
"6. c #C6B469",
"7. c #E5DDC2",
"8. c #EDE8BD",
"9. c #ECE9BF",
"0. c #B09939",
"q. c #B0983B",
"w. c #BDA950",
"e. c #F5F2D9",
"r. c #E4DC98",
"t. c #AF9637",
"y. c #AC9230",
"u. c gray100",
"i. c None",
/* pixels */
"i.$ & = % - t.t.t.t.- % = & $ i.",
"i.* ~ 6.-.;.8.+.4.:.^ R K @ * i.",
"i.t ` 6 w n =.@.V 3.| } ! Y t i.",
"i.q.D 6 w P / #.{ [ 9.F N 5.A i.",
"i.y.1.B ..G e.5 5 o C >.,. .y.i.",
"i.y.k f # T ; , J . > j ( i y.i.",
"i.y.h Q 0 X q s O O.8 7 9 X.y.i.",
"i.y.d   x a u b l : g L z 3 c i.",
"i.y.2.r < p U 4 1 o 2 + y ..y.i.",
"i.y.k r < e ; , v o.> ] r.i y.i.",
"i.y.h W 0 X q s O E 8 7 9 *.y.i.",
"i.y.d   x a u b l : g L z 3 c i.",
"i.y.7.S < p ' 4 1 <.2 + y H y.i.",
"i.y.: f # e ; , v . > j ( m y.i.",
"i.* 0.t ) %.M &.Z $.I _ w.@ * i.",
"i.$ & = % - t.t.t.t.- % = & $ i."
};
