/* XPM */
static char * delete_xpm[] = {
"16 16 141 2",
"  	c None",
". 	c #CED3CE",
"+ 	c #CEC7CE",
"@ 	c #C6CBCE",
"# 	c #BDBDC3",
"$ 	c #BDBEC6",
"% 	c #ADB6B5",
"& 	c #B5B2BD",
"* 	c #B5B6BD",
"= 	c #9C9E9C",
"- 	c #8C928C",
"; 	c #949294",
"> 	c #8C8A8C",
", 	c #7B8284",
"' 	c #84868C",
") 	c #94969C",
"! 	c #ADAEBD",
"~ 	c #A59EA5",
"{ 	c #B5B2B5",
"] 	c #A5A6AD",
"^ 	c #8C8E94",
"/ 	c #9CA2AD",
"( 	c #9CA2B5",
"_ 	c #949AA5",
": 	c #8C8A9C",
"< 	c #737D84",
"[ 	c #6B6D73",
"} 	c #7B7984",
"| 	c #7B797B",
"1 	c #A5A2A5",
"2 	c #9C969C",
"3 	c #BDBAC6",
"4 	c #C6C7CE",
"5 	c #BDB6C6",
"6 	c #ADAEB5",
"7 	c #9C9AA5",
"8 	c #9492A5",
"9 	c #ADAABD",
"0 	c #B5BAC6",
"a 	c #847D84",
"b 	c #52555A",
"c 	c #738AAD",
"d 	c #8C8EAD",
"e 	c #84828C",
"f 	c #7B7D7B",
"g 	c #7B757B",
"h 	c #6B6D6B",
"i 	c #5A5D63",
"j 	c #63616B",
"k 	c #63697B",
"l 	c #73869C",
"m 	c #8C96B5",
"n 	c #5A6573",
"o 	c #B5D3F7",
"p 	c #D6E7FF",
"q 	c #F7F7FF",
"r 	c #DEEFFF",
"s 	c #C6D7FF",
"t 	c #ADC3F7",
"u 	c #8CAEDE",
"v 	c #94AEE7",
"w 	c #ADC7F7",
"x 	c #949ECE",
"y 	c #6B717B",
"z 	c #BDD3FF",
"A 	c #DEE7FF",
"B 	c #CED7DE",
"C 	c #7B7D94",
"D 	c #5A6173",
"E 	c #5A697B",
"F 	c #7B8EBD",
"G 	c #94B2E7",
"H 	c #ADC7FF",
"I 	c #7B8EB5",
"J 	c #BDD7FF",
"K 	c #CED7EF",
"L 	c #636D7B",
"M 	c #84869C",
"N 	c #D6A9BE",
"O 	c #AA96B8",
"P 	c #4A5163",
"Q 	c #84A2C6",
"R 	c #ADCBFF",
"S 	c #6B7DA5",
"T 	c #BDCFFF",
"U 	c #9CA6BD",
"V 	c #B597A0",
"W 	c #7B86A5",
"X 	c #C3A1C0",
"Y 	c #887895",
"Z 	c #63758C",
"` 	c #B5CBFF",
" .	c #5A6584",
"..	c #ADC7E7",
"+.	c #949AAD",
"@.	c #FF787B",
"#.	c #6B718C",
"$.	c #6B7D9C",
"%.	c #636984",
"&.	c #4A5973",
"*.	c #A5B2D6",
"=.	c #B5C3CE",
"-.	c #6B697B",
";.	c #C07F83",
">.	c #DC98AD",
",.	c #6B5860",
"'.	c #393842",
").	c #7B8EA5",
"!.	c #9CB2DE",
"~.	c #52556B",
"{.	c #949EBD",
"].	c #EFEBFF",
"^.	c #9CA2A5",
"/.	c #4A4D5A",
"(.	c #394142",
"_.	c #5A5D7B",
":.	c #9CB6D6",
"<.	c #949EC6",
"[.	c #636573",
"}.	c #6B656B",
"|.	c #7B82A5",
"1.	c #E7F3F7",
"2.	c #C6D3E7",
"3.	c #9CA6C6",
"4.	c #9CB2D6",
"5.	c #A5BADE",
"6.	c #ADBEE7",
"7.	c #7386AD",
"8.	c #73757B",
"9.	c #6B7594",
"0.	c #94A2B5",
"a.	c #A5AACE",
"b.	c #94A6CE",
"c.	c #8492BD",
"d.	c #6B82A5",
"e.	c #636D94",
"f.	c #6B7184",
"g.	c #736D7B",
"h.	c #73798C",
"i.	c #7B8A94",
"j.	c #7B828C",
"      . + @ # $ % & * $         ",
"  + @ & = - ; > , ' ) ! * ~ {   ",
"  ] % , ^ / ( _ : < [ } * | {   ",
"  1 2 3 4 5 6 7 8 9 0 ] a b {   ",
"  { c d e f g h i j k l m n     ",
"  e e o p q r s t u v w x y     ",
"    e z A B C D E F G H I e     ",
"    e J K L M N O P Q R S e     ",
"    e T U V C W X Y Z `  .e     ",
"    e ..+.! @.E #.$.%.t &.      ",
"      *.=.-.;.>.,.'.).!.~.      ",
"      {.].^./.D (._.:.<.[.      ",
"    }.|.1.q 2.3.4.5.6.7.8.      ",
"    }.k 9.0.a.b.c.d.e.f.}.      ",
"      }., g.y h.i.j.g h         ",
"          }.}.}.}.}.            "};
