/* XPM */
static char *delete_xpm[] = {
/* columns rows colors chars-per-pixel */
"16 16 129 2",
"   c #F1F1F1",
".  c #CA1414",
"X  c gray92",
"o  c #CD6969",
"O  c gray97",
"+  c #C86551",
"@  c #ECECEC",
"#  c gray91",
"$  c gray93",
"%  c #FD6934",
"&  c #F4F4F4",
"*  c #EFEFEF",
"=  c #CD8282",
"-  c #F4865F",
";  c #C9644F",
":  c #CA604A",
">  c #C76957",
",  c #FA5C24",
"<  c #EEEEEE",
"1  c #CA1616",
"2  c gray96",
"3  c #CA5F48",
"4  c #FC6A36",
"5  c #CA2C2C",
"6  c #CC5B42",
"7  c #FB703F",
"8  c #FB6E3C",
"9  c #CD6C6C",
"0  c #FEFEFE",
"q  c #FB5A20",
"w  c #D7261B",
"e  c #C86652",
"r  c #F3724C",
"t  c #FD6933",
"y  c #F4855E",
"u  c #FB6D3A",
"i  c #CB5D45",
"p  c #F97445",
"a  c #ED6A4B",
"s  c #FA5C23",
"d  c #F86437",
"f  c #F68055",
"g  c #F4835B",
"h  c #F4845D",
"j  c #F48760",
"k  c gray95",
"l  c #F87A4D",
"z  c #F27D53",
"x  c #EB7458",
"c  c #C86450",
"v  c gray99",
"b  c #C9624C",
"n  c gray98",
"m  c #FB5A21",
"M  c #F46F40",
"N  c #D82215",
"B  c #FBFBFB",
"V  c #CA5E47",
"C  c #CA5F49",
"Z  c #CB5C44",
"A  c #CB5C43",
"S  c #F3F3F3",
"D  c #F38962",
"F  c #F96537",
"G  c #F95F28",
"H  c #D52319",
"J  c #F57048",
"K  c #F47040",
"L  c #FA7342",
"P  c #D4261E",
"I  c #F47142",
"U  c #F58056",
"Y  c #FA7241",
"T  c #F77C4F",
"R  c #F4835C",
"E  c #F47650",
"W  c #F37345",
"Q  c #F8F8F8",
"!  c #F56D3C",
"~  c #F08364",
"^  c #F86835",
"/  c #C96450",
"(  c #E4E4E4",
")  c #C76754",
"_  c #FB581E",
"`  c #CA5E46",
"'  c #C9624D",
"]  c #F56D3D",
"[  c #F67D52",
"{  c #C86653",
"}  c #FB6C38",
"|  c #F48359",
" . c #FD6832",
".. c #F57F55",
"X. c #FD581D",
"o. c #F46F3F",
"O. c #FC6C38",
"+. c #F95E27",
"@. c #FD6732",
"#. c #F38964",
"$. c #C76855",
"%. c gray94",
"&. c #F66F3E",
"*. c #F9774A",
"=. c #F37143",
"-. c #CA6049",
";. c #EAEAEA",
":. c #F58157",
">. c gray89",
",. c #F58258",
"<. c #A95F5F",
"1. c #C90000",
"2. c #D0D0D0",
"3. c black",
"4. c black",
"5. c black",
"6. c black",
"7. c black",
"8. c black",
"9. c black",
"0. c black",
"q. c black",
"w. c black",
"e. c black",
"r. c black",
"t. c black",
"y. c black",
"u. c black",
"i. c None",
/* pixels */
"i.= 5 1.1.1.1.1.1.1.1.1.5 = i.i.",
"o P x #.j - y R | :.U f a H o i.",
". ~ z > <.$.W =.K + <./ &.E . i.",
"1.D > <.@ <.{ M + <.  <.' *.1.i.",
"1.- <.$ >.# <.+ <.$ @ & <.p 1.i.",
"1.h ) <.# ( X <.< X   <.: Y 1.i.",
"1.g I e <.@ # ;.$ k <.-.G 7 1.i.",
"1.,.o.] c <.X X * <.C +., 8 1.i.",
"1...! ; <.  < %.S O <.` m } 1.i.",
"1.[ ; <.  * & <.O O n <.Z 4 1.i.",
"1.T <.2   2 <.3 <.B v 0 <.% 1.i.",
"1.l b <.Q <.3 , i <.0 <.6 t 1.i.",
"1 r ^ : <.V s q _ A <.6 X.d 1 i.",
"9 w J L 7 8 u O.4 % @. .F N 9 i.",
"i.o . 1.1.1.1.1.1.1.1.1.. o i.i.",
"i.i.i.i.i.i.i.i.i.i.i.i.i.i.i.i."
};
