/* XPM */
static char * domain_xpm[] = {
"16 16 4 1",
" 	c None",
".	c #9F9F9F",
"+	c #808080",
"@	c #C0C0C0",
"                ",
"      ...       ",
"    +++++++     ",
"  ...........   ",
"+++++++++++++++ ",
"+.............+ ",
"+ @ @ @ @ @ @ + ",
"  @ @ @ @ @ @   ",
"  @ @ @ @ @ @   ",
"  @ @ @ @ @ @   ",
"  @ @ @ @ @ @   ",
"  @ @ @ @ @ @   ",
"+ @ @ @ @ @ @ + ",
"+@@@@@@@@@@@@@+ ",
"+++++++++++++++ ",
"                "};
