/* XPM */
static char *drop_xpm[] = {
/* columns rows colors chars-per-pixel */
"32 32 129 2",
"   c #CD4542",
".  c gray94",
"X  c #FB5215",
"o  c #E4E4E4",
"O  c #FA551A",
"+  c #F37042",
"@  c #F27245",
"#  c #FB8962",
"$  c #F39D82",
"%  c #F46D3D",
"&  c gray99",
"*  c #F59E7E",
"=  c #B2715A",
"-  c #B07662",
";  c #CC1513",
":  c #F7622E",
">  c #F79978",
",  c #FC4E10",
"<  c gray86",
"1  c #F0784D",
"2  c gray98",
"3  c #FC4C0D",
"4  c #D29C95",
"5  c #E2E2E2",
"6  c #F66532",
"7  c gray95",
"8  c #DDDDDD",
"9  c #F8F8F8",
"0  c #F5A082",
"q  c gray96",
"w  c #F56836",
"e  c #FA561C",
"r  c #F79574",
"t  c #DFDFDF",
"y  c #F58C6E",
"u  c #F1764A",
"i  c #F36D3D",
"p  c #F6F6F6",
"a  c #B36D55",
"s  c #AF7B69",
"d  c gray88",
"f  c #F89673",
"g  c #FD4A0A",
"h  c #F3A38A",
"j  c #FA916D",
"k  c #FA581E",
"l  c #EB7C6B",
"z  c #F46A38",
"x  c #F95A22",
"c  c #FC845C",
"v  c #FC855A",
"b  c #F79876",
"n  c #F46A3A",
"m  c #AF7966",
"M  c #F7602B",
"N  c #F17447",
"B  c #FE8154",
"V  c #F85D26",
"C  c #F66734",
"Z  c #FC5013",
"A  c #F17E56",
"S  c #FD4B0C",
"D  c #F36F40",
"F  c #F56938",
"G  c #F95820",
"H  c #B1735D",
"J  c #FC865D",
"K  c #CA0B0B",
"L  c #F87547",
"P  c #F85F2A",
"I  c #F95B24",
"U  c #B36B52",
"Y  c #D21E1A",
"T  c #FD8257",
"R  c #F27447",
"E  c #F17548",
"W  c #FB8C65",
"Q  c #E98175",
"!  c #FE8257",
"~  c #F95A21",
"^  c #E9E9E9",
"/  c #ECECEC",
"(  c #EAEAEA",
")  c gray92",
"_  c gray93",
"`  c gray91",
"'  c #E7E7E7",
"]  c #F46C3B",
"[  c #EEEEEE",
"{  c #EFEFEF",
"}  c #E6E6E6",
"|  c gray85",
" . c #CF6662",
".. c #F07A50",
"X. c #D1201C",
"o. c #FD8358",
"O. c #F79679",
"+. c #D2A099",
"@. c #F1774B",
"#. c #FB885E",
"$. c #B1745F",
"%. c #B07864",
"&. c #FE8052",
"*. c #F28C67",
"=. c #F87749",
"-. c #FA8F68",
";. c #F7784C",
":. c #FE7F52",
">. c #F48F73",
",. c #F56B39",
"<. c #F79B7B",
"1. c #FB5317",
"2. c #EE745F",
"3. c #F95920",
"4. c #F9805B",
"5. c #FB5013",
"6. c #FE5F26",
"7. c #F5A486",
"8. c #ED7360",
"9. c #F86430",
"0. c #F75F29",
"q. c #FE6029",
"w. c #FB8B64",
"e. c #F85E27",
"r. c #FB5114",
"t. c #808080",
"y. c #C90000",
"u. c #D5D4CB",
"i. c None",
/* pixels */
"i.i.i.i.i.i.i.i.i.i.i.i.i.i.i.i.i.i.i.i.i.i.i.i.i.i.i.i.i.i.i.i.",
"i.i.i.+.  ; y.y.y.y.y.y.y.y.y.y.y.y.y.y.y.y.y.y.y.;   +.i.i.i.i.",
"i.i. .; Q $ 7.0 0 0 0 * * * * <.<.<.> > b f f r f >.l ;  .i.i.i.",
"i.4 X.h *.A ..1 1 @.u E N @ @ + + % % ] n z w C C ,.;.O.X.4 i.i.",
"i.  Q *...1 1 @.u u E E R @ @ + D % ] n F w C 6 6 : : L l   i.i.",
"i.K h A 1 1 @.u s t.s @ @ + + D D ] ,.z - t.$.6 : : M 9.j K i.i.",
"i.y.7...1 1 @.s t.| t.s + + D D i ,.F - t.( t.$.: M 0.P -.y.i.i.",
"i.y.0 1 1 @.s t.| < < t.m D i i ] F - t.^ ) _ t.H P e.V W y.i.i.",
"i.y.0 1 u s t.| < < < 8 t.m i ] n - t.^ ( / [ { t.H V I w.y.i.i.",
"i.y.0 @.u t.| | < < 8 8 t t.%.z - t.` ( / _ { . 7 t.I x # y.i.i.",
"i.y.0 u E s t.< < < 8 t d 5 t.- t.` ( ) _ { . 7 t.= x 3.# y.i.i.",
"i.y.* u E R m t.< 8 8 d 5 o o t.' ^ ) / [ . . t.= x 3.k #.y.i.i.",
"i.y.* R N @ @ m t.8 t 5 5 o o ' ^ ( / [ { . t.= x 3.k e #.y.i.i.",
"i.y.* @ @ @ D D m t.d 5 o o ' ` ( / _ { . t.= x 3.k e O J y.i.i.",
"i.y.* @ + + D D i %.t.o o } ` ^ ) _ [ . t.= x 3.k e e O J y.i.i.",
"i.y.<.+ D % % ] n F - t.} ' ^ ) / [ . t.= 3.G e O O 1.X v y.i.i.",
"i.y.<.D i i ] n F - t.o ' ^ ( / [ { . 7 t.= e O O 1.X r.o.y.i.i.",
"i.y.> % % ] ,.F - t.o ' ` ( ) _ { . 7 q q t.a O 1.X r.Z o.y.i.i.",
"i.y.> % ] z F - t.o } ` ^ ) _ [ . 7 7 q p 9 t.a X r.Z , o.y.i.i.",
"i.y.> ] ,.F - t.o } ' ^ ) / [ t.. 7 q p 9 2 2 t.a 5., , ! y.i.i.",
"i.y.b ,.F - t.o o ' ` ( / _ t.= t.q q 9 9 2 & & t.U , 3 B y.i.i.",
"i.y.f F w t.o o } ` ( ) _ t.= x = t.p 9 2 2 & & & t.3 3 B y.i.i.",
"i.y.f w C $.t.} ` ^ ) _ t.= x 3.k a t.2 2 & & & t.U 3 S B y.i.i.",
"i.y.f C 6 6 $.t.^ ( / t.= x 3.k e O a t.& & & t.U S S g :.y.i.i.",
"i.y.f C 6 : : H t./ t.= ~ 3.k e O 1.X a t.& t.U 3 S g S B y.i.i.",
"i.K r F : : M P H t.= x 3.k e O O X r.5.U t.U 3 S S g , c K i.i.",
"i.  l =.: M 0.e.V I x 3.k e O O 1.r.Z Z , 3 3 S g g g 6.2.  i.i.",
"i.4 X.O.L 6 P V I ~ G G e O O 1.X Z , , , 3 S g S Z q.# Y 4 i.i.",
"i.i. .; l y -.W w.# # # #.#.J v v o.T T B B B &.! 4.8.;  .i.i.i.",
"i.i.i.4   ; y.y.y.y.y.y.y.y.y.y.y.y.y.y.y.y.y.y.y.;   4 i.i.i.i.",
"i.i.i.i.i.i.i.i.i.i.i.i.i.i.i.i.i.i.i.i.i.i.i.i.i.i.i.i.i.i.i.i.",
"i.i.i.i.i.i.i.i.i.i.i.i.i.i.i.i.i.i.i.i.i.i.i.i.i.i.i.i.i.i.i.i."
};
