/* XPM */
static char * encoding_xpm[] = {
"32 32 11 1",
" 	c None",
".	c #999999",
"+	c #444444",
"@	c #000000",
"#	c #C0C0C0",
"$	c #777777",
"%	c #0000CC",
"&	c #9999FF",
"*	c #333366",
"=	c #A0A0A4",
"-	c #6666CC",
"             .+@@+.             ",
"          #$@@@%%@@@$#          ",
"         $@@&&&&&&&%@@$         ",
"        @@&&&&&&&&&&&%@@        ",
"       @@&&&&%%%%%&&&&%@@       ",
"      $@&&&%*@@@@*%%&&&%@$      ",
"     =@&&&*@@@$  $@@%&&&%@      ",
"     +-&&%@@@      @@&&&-@$     ",
"    =@&&%@@@        @@&&&%@     ",
"    $@&@@@@@@@@$$@@@@@&&&%@     ",
"    +@@@&&&&&%@@%&&&&@*&&%@$    ",
"    @@&&&&&&&@%&&&&&&&@&&%*@    ",
"   @@&&&&%%%@&&&&&%%%%*&&%*@@   ",
"  @@&&&%*@@@&&&&%*@@@@&&&%@@%@  ",
" @@&&&%@@@@@&&&*@@@@@@&&&%@&%@@ ",
"#@&&&*@@@&@@&&*@@@&&%@&&%*@&&%@#",
"+@&&%@@@&&&@@%@@@&&&-@@&%@@&&%@+",
"@&&&*@@%&&&&@@@@@@&&&%@%*@@&&-%@",
"@&&-@@@@%&&&&&&&&@&&&%@%@@@&&&%@",
"@&&-@@ @@%&&&&&&&@&&&%@@@ @&&&%@",
"@&&-*@  @@%%-&&&&@&&&%@@  @&&&%@",
"@-&&%@   @@@*%%%%@&&&%@   @&&-%@",
"@%&&%@$  @%@@@@@@@&&-*@  $@&&%*@",
"@%&&&%@  $%&&&%@@&&&%*$  @&&&%*+",
"+@&&&&@@  @-&&&%@@&&%@  @&&&%%@#",
"#@%&&&&@@@@%&&&&&@@@*@@@&&&&%*@ ",
" $@%&&&&&@@@%&&&&&&@@@&&&&&%*@  ",
"  @@%&&&&&&@@%&&&&&&&&&&&&%*@$  ",
"   @@%-&&&&&@@*%-&&&&&&-%%*@$   ",
"    $@@%%%%%%%@@*%%%%%%%*@@     ",
"      @@@@@@@@@@@@@@@@@@@$      ",
"        .+@@@+.  .+@@@+.        "};
