/* XPM */
static char * ex_append_xpm[] = {
"50 50 5 1",
" 	c #FFFFFF",
".	c #000000",
"+	c #666666",
"@	c #EDE2B9",
"#	c #EDC63C",
"                                                  ",
"                                                  ",
"                                                  ",
"                                                  ",
"     .........................................    ",
"     .+++++++.+++++++.+++++++.+++++++.+++++++.    ",
"     .+++++++.+++++++.+++++++.+++++++.+++++++.    ",
"     .........................................    ",
"     .@@@@@@@.@@@@@@@.@@@@@@@.@@@@@@@.@@@@@@@.    ",
"     .@@@@@@@.@@@@@@@.@@@@@@@.@@@@@@@.@@@@@@@.    ",
"     .@@@@@@@.@@@@@@@.@@@@@@@.@@@@@@@.@@@@@@@.    ",
"     .@@@@@@@.@@@@@@@.@@@@@@@.@@@@@@@.@@@@@@@.    ",
"     .@@@@@@@.@@@@@@@.@@@@@@@.@@@@@@@.@@@@@@@.    ",
"     .........................................    ",
"     .@@@@@@@.@@@@@@@.@@@@@@@.@@@@@@@.@@@@@@@.    ",
"     .@@@@@@@.@@@@@@@.@@@@@@@.@@@@@@@.@@@@@@@.    ",
"     .@@@@@@@.@@@@@@@.@@@@@@@.@@@@@@@.@@@@@@@.    ",
"     .@@@@@@@.@@@@@@@.@@@@@@@.@@@@@@@.@@@@@@@.    ",
"     .@@@@@@@.@@@@@@@.@@@@@@@.@@@@@@@.@@@@@@@.    ",
"     .........................................    ",
"     .@@@@@@@.@@@@@@@.@@@@@@@.@@@@@@@.@@@@@@@.    ",
"     .@@@@@@@.@@@@@@@.@@@@@@@.@@@@@@@.@@@@@@@.    ",
"     .@@@@@@@.@@@@@@@.@@@@@@@.@@@@@@@.@@@@@@@.    ",
"     .@@@@@@@.@@@@@@@.@@@@@@@.@@@@@@@.@@@@@@@.    ",
"     .@@@@@@@.@@@@@@@.@@@@@@@.@@@@@@@.@@@@@@@.    ",
"     .........................................    ",
"     .@@@@@@@.@@@@@@@.@@@@@@@.@@@@@@@.@@@@@@@.    ",
"     .@@@@@@@.@@@@@@@.@@@@@@@.@@@@@@@.@@@@@@@.    ",
"     .@@@@@@@.@@@@@@@.@@@@@@@.@@@@@@@.@@@@@@@.    ",
"     .@@@@@@@.@@@@@@@.@@@@@@@.@@@@@@@.@@@@@@@.    ",
"     .@@@@@@@.@@@@@@@.@@@@@@@.@@@@@@@.@@@@@@@.    ",
"     .........................................    ",
"                                                  ",
"               .                    .             ",
"              ...                  ...            ",
"             .....                .....           ",
"               .                    .             ",
"               .                    .             ",
"               .                    .             ",
"                                                  ",
"     .........................................    ",
"     .#######.#######.#######.#######.#######.    ",
"     .#######.#######.#######.#######.#######.    ",
"     .#######.#######.#######.#######.#######.    ",
"     .#######.#######.#######.#######.#######.    ",
"     .#######.#######.#######.#######.#######.    ",
"     .........................................    ",
"                                                  ",
"                                                  ",
"                                                  "};
