/* XPM */
static char * ex_aggregate_xpm[] = {
"50 50 3 1",
" 	c None",
".	c #FFFFFF",
"+	c #000000",
"..................................................",
"..................................................",
"..................................................",
"..................................................",
"..................................................",
"..................................................",
"..................................................",
"..................................................",
"..................................................",
"...........++++++++++++++++++++++++++.............",
"...........++++++++++++++++++++++++++.............",
"...........++++++++++++++++++++++++++.............",
"...........++++++++++++++++++++++++++.............",
"...........++++..................++++.............",
"...........++++..................++++.............",
"...........++++..................++++.............",
"...........++++..................++++.............",
"...........++++..................++++.............",
"...........+++++..................................",
"............+++++.................................",
".............+++++................................",
"..............+++++...............................",
"...............+++++..............................",
"................+++++.............................",
".................+++++............................",
"..................+++++...........................",
".................+++++............................",
"................+++++.............................",
"...............+++++..............................",
"..............+++++...............................",
".............+++++................................",
"............+++++.................................",
"...........+++++.................++++.............",
"...........++++..................++++.............",
"...........++++..................++++.............",
"...........++++..................++++.............",
"...........++++..................++++.............",
"...........++++..................++++.............",
"...........++++++++++++++++++++++++++.............",
"...........++++++++++++++++++++++++++.............",
"...........++++++++++++++++++++++++++.............",
"...........++++++++++++++++++++++++++.............",
"..................................................",
"..................................................",
"..................................................",
"..................................................",
"..................................................",
"..................................................",
"..................................................",
".................................................."};
