/* XPM */
static char * ex_bmp_heap_xpm[] = {
"50 50 210 2",
"  	c None",
". 	c #75A6C7",
"+ 	c #3688C1",
"@ 	c #6FCDEE",
"# 	c #44BDE9",
"$ 	c #75CEEF",
"% 	c #79D0EF",
"& 	c #54C2EA",
"* 	c #86D4F0",
"= 	c #66C8EC",
"- 	c #6AC9EC",
"; 	c #6FCAEB",
"> 	c #96D9F1",
", 	c #7BCEED",
"' 	c #82D1ED",
") 	c #A6DEF2",
"! 	c #8ED4EE",
"~ 	c #92D6EF",
"{ 	c #AFE1F3",
"] 	c #05A7E1",
"^ 	c #4DC1E9",
"/ 	c #1BAEE3",
"( 	c #5FC6EB",
"_ 	c #38B7E5",
": 	c #50BEE7",
"< 	c #57C1E7",
"[ 	c #6BC7E8",
"} 	c #7296A1",
"| 	c #92AED1",
"1 	c #6696D1",
"2 	c #C18F36",
"3 	c #F4F0C8",
"4 	c #F0ECB7",
"5 	c #EFEBB6",
"6 	c #F3EFC7",
"7 	c #EFE9B4",
"8 	c #F3EDC6",
"9 	c #EEE6B3",
"0 	c #F1EAC4",
"a 	c #ECE3B0",
"b 	c #E1EFF7",
"c 	c #EBE59E",
"d 	c #EAE39C",
"e 	c #EFEAB5",
"f 	c #E9E09A",
"g 	c #EFE8B3",
"h 	c #E8DE99",
"i 	c #E7DC97",
"j 	c #EDE5B1",
"k 	c #E6D995",
"l 	c #E6D894",
"m 	c #E5D693",
"n 	c #ECE0AD",
"o 	c #D6E9F5",
"p 	c #E7DA96",
"q 	c #ECE2AF",
"r 	c #E5D894",
"s 	c #ECE1AE",
"t 	c #E4D591",
"u 	c #EBDFAD",
"v 	c #000000",
"w 	c #1B1B16",
"x 	c #7C5B22",
"y 	c #EDE6B2",
"z 	c #F0E8C2",
"A 	c #EFE6C0",
"B 	c #D4E9F4",
"C 	c #C7AA75",
"D 	c #BF8D35",
"E 	c #8D6827",
"F 	c #0A0906",
"G 	c #EDE7B2",
"H 	c #B4B193",
"I 	c #1C1407",
"J 	c #F3EEC7",
"K 	c #63604B",
"L 	c #090907",
"M 	c #6E511E",
"N 	c #5D5A4B",
"O 	c #070705",
"P 	c #7B775C",
"Q 	c #585648",
"R 	c #0C0B08",
"S 	c #9E9674",
"T 	c #EADDAB",
"U 	c #EADDAA",
"V 	c #EFE4BF",
"W 	c #D3E8F3",
"X 	c #040403",
"Y 	c #886426",
"Z 	c #A09969",
"` 	c #C1BA91",
" .	c #020100",
"..	c #A39E7A",
"+.	c #BBB079",
"@.	c #11100B",
"#.	c #A69E7A",
"$.	c #A19767",
"%.	c #232116",
"&.	c #E4D491",
"*.	c #E3D28F",
"=.	c #E2D08E",
"-.	c #E9DAA9",
";.	c #D1E7F2",
">.	c #E8DF99",
",.	c #B3AE86",
"'.	c #1B1407",
").	c #E6DB96",
"!.	c #EBE2AF",
"~.	c #E6DAA8",
"{.	c #DDCF8D",
"].	c #060503",
"^.	c #E4D390",
"/.	c #E2CE8C",
"(.	c #B3AD86",
"_.	c #0A0702",
":.	c #A79F7B",
"<.	c #A29666",
"[.	c #222015",
"}.	c #E9DBAA",
"|.	c #E1CC8B",
"1.	c #E9D9A8",
"2.	c #161612",
"3.	c #775821",
"4.	c #565245",
"5.	c #0B0A08",
"6.	c #9B9270",
"7.	c #EEE3BD",
"8.	c #EDE1BC",
"9.	c #CDE5F2",
"0.	c #F2ECC5",
"a.	c #EEE2BD",
"b.	c #E8D7A7",
"c.	c #E8D7A6",
"d.	c #EDDFBB",
"e.	c #E0C988",
"f.	c #DFC888",
"g.	c #DFC787",
"h.	c #E6D4A4",
"i.	c #CBE4F1",
"j.	c #E1CB8A",
"k.	c #E7D6A6",
"l.	c #DEC686",
"m.	c #CAE3F0",
"n.	c #E0CA89",
"o.	c #E7D5A5",
"p.	c #E6D3A3",
"q.	c #C8E3F0",
"r.	c #EFE5C0",
"s.	c #ECDDBA",
"t.	c #C7E3F0",
"u.	c #C5E1EF",
"v.	c #ECDEBA",
"w.	c #E6D2A2",
"x.	c #E6D1A2",
"y.	c #E6D1A1",
"z.	c #ECDCB8",
"A.	c #DEC484",
"B.	c #DDC383",
"C.	c #DCC182",
"D.	c #E5D0A1",
"E.	c #A79867",
"F.	c #18160F",
"G.	c #0F0E0B",
"H.	c #826024",
"I.	c #070605",
"J.	c #514730",
"K.	c #815F24",
"L.	c #DCBE80",
"M.	c #C2E0EE",
"N.	c #242016",
"O.	c #A79766",
"P.	c #B8AB84",
"Q.	c #181106",
"R.	c #BFB088",
"S.	c #120E05",
"T.	c #9C895C",
"U.	c #A29371",
"V.	c #1E1608",
"W.	c #E4CE9F",
"X.	c #020201",
"Y.	c #716851",
"Z.	c #0C0B09",
"`.	c #E0CC9D",
" +	c #E4D5B2",
".+	c #050301",
"++	c #EBDCB8",
"@+	c #EBDAB7",
"#+	c #C0DFEE",
"$+	c #1F1608",
"%+	c #876425",
"&+	c #060401",
"*+	c #9B722B",
"=+	c #956E29",
"-+	c #896626",
";+	c #1E1A11",
">+	c #B1A47F",
",+	c #211E17",
"'+	c #5C5541",
")+	c #615B4C",
"!+	c #524B3A",
"~+	c #7F5E23",
"{+	c #E4CD9E",
"]+	c #EAD9B6",
"^+	c #B9DBEC",
"/+	c #DABB7E",
"(+	c #E3CC9E",
"_+	c #BEDEED",
":+	c #ADD6E9",
"<+	c #E3CB9E",
"                                                                                                    ",
"                                                                                                    ",
"                                                                                                    ",
"                                                                                                    ",
"                                                                                                    ",
"                                                                                                    ",
"                                                                                                    ",
"                            . + + + + + . + + + + + . + + + + + . + + + + + . + + + + + .           ",
"                            + @ # # # $ + % & & & * + * = - ; > + > , ' ' ) + ) ! ~ ~ { +           ",
"                            + # ] ] ] ^ + ^ / / / ( + ( _ _ _ ; + , : < < ' + ! [ [ ; ~ +           ",
"                            + @ # # # $ + % & & & * + * = - ; > + > , ' ' ) + ) ! ~ ~ { +           ",
"                            } + + + + + } + + + + + } + + + + + } + + + + + } + + + + + }           ",
"              | 1 1 |       2 3 4 4 4 3 2 3 4 4 5 3 2 6 7 7 7 8 2 8 9 9 9 0 2 0 a a a 0 2           ",
"              1 b b 1       2 4 c c c 4 2 4 d d d e 2 7 f f f g 2 9 h i i j 2 a k l m n 2           ",
"              1 o o 1       2 4 c c c 4 2 5 d d d 7 2 7 f f h 9 2 9 i i p a 2 q r m m n 2           ",
"              1 o o 1       2 4 c c c 5 2 e d d d 7 2 g h h h 9 2 j p p k a 2 s m t t u 2           ",
"              1 o o 1       2 3 v v v w x 6 7 7 7 8 2 8 9 9 y 0 2 0 a a q z 2 z n u u A 2           ",
"              1 B B 1       C 2 v 2 D E F 2 2 2 2 2 C 2 2 2 2 2 C 2 2 2 2 2 C 2 2 2 2 2 C           ",
"              1 B B 1       2 3 v e G H I J g v K L M N O P a 0 v Q R S n z 2 A T T U V 2           ",
"              1 W W 1       2 e v v v X Y g h v Z `  ...+.@.k q v #.$.%.&.u 2 T *.=.=.-.2           ",
"              1 ;.;.1       2 7 v f >.,.'.9 h v ).j v !.k v l s v ~.{.].^.T 2 U =.=./.-.2           ",
"              1 ;.;.1       2 7 v f >.(._.9 i v p a v a l v m n v :.<.[.*.U 2 }./.|.|.1.2           ",
"              1 ;.;.1       2 8 v v v 2.3.0 j v a 0 v z s v n z v 4.5.6.U V 2 7.-.1.1.8.2           ",
"              1 9.9.1       C 2 2 2 2 2 C 2 2 2 2 2 C 2 2 2 2 2 v 2 2 2 2 2 C 2 2 2 2 2 C           ",
"              1 9.9.1       2 0.9 9 j 0 2 0 a q s z 2 z u u T A v V }.-.-.7.2 a.b.b.c.d.2           ",
"              1 9.9.1       2 9 i i p a 2 a l m m n 2 u ^.*.*.U 2 }./.|.|.1.2 b.e.f.g.h.2           ",
"              1 i.i.1       2 j p p p a 2 s m m t u 2 T *.*.=.}.2 -.|.|.j.b.2 k.f.g.l.h.2           ",
"              1 m.m.1       2 j p k l q 2 n t &.^.u 2 U =.=./.-.2 1.j.n.e.c.2 o.l.l.l.p.2           ",
"              1 q.q.1       2 0 a q s z 2 z u u T r.2 V }.-.-.a.2 a.b.c.k.d.2 d.h.p.p.s.2           ",
"              1 t.t.1       C 2 2 2 2 2 C 2 2 2 2 2 C 2 2 2 2 2 C 2 2 2 2 2 C 2 2 2 2 2 C           ",
"              1 u.u.1       2 z v n u A v A T U }.V 2 7.1.1.b.8.2 8.o.h.h.v.2 s.w.x.y.z.2           ",
"              1 u.u.1       2 n v &.^.T v U =.=./.-.2 1.j.n.e.k.2 o.l.l.A.p.2 x.B.C.C.D.2           ",
"              1 u.u.1       2 u v ^.*.U v }./.E.F.G.H.b.e.e.v I.M h.l.v J.5.K.y.C.C.L.D.2           ",
"              1 M.M.1       2 u v v v v v -.|.N.O.P.Q.c.f.g.g.R.S.p.A.v T.U.V.D.C.L.L.W.2           ",
"              1 M.M.1       2 A v }.}.7.v 7.1.X.X.v v d.o.Y.Z.v v s.x.v `. +.+++D.W.W.@+2           ",
"              1 #+#+1       C 2 v 2 2 2 v 2 2 $+%+D C 2 2 &+*+=+v 2 2 v -+-+;+2 2 2 2 2 C           ",
"              1 #+#+1       2 V v -.1.a.v 8.c.>+,+v v v.p.'+I.)+v z.D.v !+5.~+@+W.{+{+]+2           ",
"          | 1 1 ^+^+1 1 |   2 -.|.|.j.b.2 c.f.g.l.h.2 p.B.B.B.y.2 D.L.v L.W.2 {+/+/+/+(+2           ",
"          1 B _+:+:+_+B 1   2 1.j.j.n.c.2 o.g.l.l.p.2 w.B.C.C.D.2 D.L.v L.W.2 {+/+/+/+<+2           ",
"          | 1 M.:+:+M.1 |   2 b.n.e.f.k.2 h.l.l.A.w.2 x.C.C.C.D.2 W.L.L./+{+2 (+/+/+/+<+2           ",
"            | 1 q.q.1 |     2 8.c.k.o.d.2 v.p.w.w.s.2 ++D.D.D.@+2 @+W.{+{+]+2 ]+<+<+<+]+2           ",
"              | 1 1 |       C 2 2 2 2 2 C 2 2 2 2 2 C 2 2 2 2 2 C 2 2 2 2 2 C 2 2 2 2 2 C           ",
"                                                                                                    ",
"                                                                                                    ",
"                                                                                                    ",
"                                                                                                    ",
"                                                                                                    ",
"                                                                                                    ",
"                                                                                                    ",
"                                                                                                    "};
