/* XPM */
static char *ex_hash_xpm[] = {
/* columns rows colors chars-per-pixel */
"50 50 129 2",
"   c #F3EEC7",
".  c #BCBDED",
"X  c #E9DAA8",
"o  c #757624",
"O  c #EFE9B5",
"+  c #E6DA95",
"@  c #EBE69E",
"#  c #77CEED",
"$  c #B4E479",
"%  c #EEE6B2",
"&  c #EAD9B6",
"*  c #EEE1BD",
"=  c #E5D592",
"-  c #E0C988",
";  c #4FC1E9",
":  c #A6CC65",
">  c #A1C45E",
",  c #E54343",
"<  c #E3D18E",
"1  c #62C6EA",
"2  c #E9DCAA",
"3  c #09A9E2",
"4  c #BAED81",
"5  c #8ED4EE",
"6  c #CC3C3C",
"7  c #6FCDEE",
"8  c #865B17",
"9  c #DDC182",
"0  c #46BFE9",
"q  c #F0ECB7",
"w  c #E6D4A4",
"e  c #E2CF8D",
"r  c #EADDAC",
"t  c #93D5EF",
"y  c #A9D169",
"u  c #C91011",
"i  c #E8D6A6",
"p  c #8F7C38",
"a  c #E4CD9E",
"s  c #F0E8C2",
"d  c #DFC686",
"f  c #6CC7E9",
"g  c #41BDE9",
"h  c #E1CC8A",
"j  c #DEC484",
"k  c #DABA7D",
"l  c #E6D2A2",
"z  c #A6DEF2",
"x  c #F4F1C9",
"c  c #ECDEBB",
"v  c #ECE2AF",
"b  c #DBBD7F",
"n  c #DD4141",
"m  c #E8D7A7",
"M  c #E4CEA0",
"N  c #DCBF81",
"B  c #49BCE6",
"V  c #EFE4BF",
"C  c #ECDDB9",
"Z  c #E8DD98",
"A  c #89D3EE",
"S  c #ECE3B0",
"D  c #ECE1AE",
"F  c #C53B3B",
"G  c #A91717",
"H  c #ABACE8",
"J  c #B3B4EA",
"K  c #D4D4F3",
"L  c #C7AA75",
"P  c #C6C7EF",
"I  c #DEDEF6",
"U  c #C0C1EE",
"Y  c #86A964",
"T  c #CCCDF1",
"R  c #CDCEF2",
"E  c #75A6C7",
"W  c #9295D1",
"Q  c #7296A1",
"!  c #E3CB9E",
"~  c #B9EB80",
"^  c #9F4B64",
"/  c #ECE0AD",
"(  c #BCF084",
")  c #F0E7C1",
"_  c #E5D0A1",
"`  c #E6D1A2",
"'  c #E7D6A5",
"]  c #808E25",
"[  c #B7E87D",
"{  c #8BD5F0",
"}  c #6C84CD",
"|  c #DDC384",
" . c #E6D3A4",
".. c #7CCEED",
"X. c #A3C761",
"o. c #CC5D5D",
"O. c #B2E076",
"+. c #AFE0F3",
"@. c #7ED1EE",
"#. c #F1EBC4",
"$. c #AEDA71",
"%. c #ACD66D",
"&. c #EBE0AD",
"*. c #B5533E",
"=. c #72CCEC",
"-. c #E3CC9E",
";. c #A0DBF1",
":. c #EFE8B3",
">. c #91D7F0",
",. c #E6D1A1",
"<. c #E4D390",
"1. c #E36363",
"2. c #BE0E0E",
"3. c #4BBFE9",
"4. c #65C8EB",
"5. c #EFE5C0",
"6. c #EBDBB7",
"7. c #2CB3E4",
"8. c #E0C888",
"9. c #B0DD73",
"0. c #50BEE7",
"q. c #43BBE6",
"w. c #D33E3F",
"e. c #666BD1",
"r. c #3688C1",
"t. c #528D19",
"y. c #C18F36",
"u. c #D0D0D0",
"i. c None",
/* pixels */
"i.i.i.i.i.i.i.i.i.i.i.i.i.i.i.i.i.i.i.i.i.i.i.i.i.i.i.i.i.i.i.i.i.i.i.i.i.i.i.i.i.i.i.i.i.i.i.i.i.i.",
"i.i.i.i.i.i.i.i.i.i.i.i.i.i.i.i.i.i.i.i.i.i.i.i.i.i.i.i.i.i.i.i.i.i.i.i.i.i.i.i.i.i.i.i.i.i.i.i.i.i.",
"i.i.i.i.i.i.i.i.i.i.i.i.i.i.i.i.i.i.i.i.i.i.i.i.i.i.i.i.i.i.i.i.i.i.i.i.i.i.i.i.i.i.i.i.i.i.i.i.i.i.",
"i.i.i.i.i.i.i.i.i.i.i.i.i.i.i.i.i.i.i.i.i.i.i.i.i.i.i.i.i.i.i.i.i.i.i.i.i.i.i.i.i.i.i.i.i.i.i.i.i.i.",
"i.i.i.i.i.i.i.i.i.i.i.i.i.i.i.i.i.i.i.i.i.i.i.i.i.i.i.i.i.i.i.i.i.i.i.i.i.i.i.i.i.i.i.i.i.i.i.i.i.i.",
"i.i.i.i.i.i.i.i.i.i.i.i.i.i.i.i.i.i.i.i.i.i.i.i.i.i.i.i.i.i.i.i.i.i.i.i.i.i.i.i.i.i.i.i.i.i.i.i.i.i.",
"i.i.i.i.i.i.i.i.i.i.i.i.i.i.i.i.i.i.i.i.i.i.i.i.i.i.i.i.i.i.i.i.i.i.i.i.i.i.i.i.i.i.i.i.i.i.i.i.i.i.",
"i.i.i.i.i.i.i.i.i.i.i.i.i.i.i.i.i.i.i.i.i.i.i.i.i.i.i.i.Y t.Y i.i.i.i.i.i.i.i.i.i.i.i.i.i.i.i.i.i.i.",
"i.i.i.i.i.E r.r.r.r.r.E i.i.i.i.i.i.i.i.i.i.i.i.i.i.i.Y t.> t.Y i.i.i.i.i.i.i.i.i.i.i.i.i.i.i.i.i.i.",
"i.i.i.i.i.r.7 ; 1 # z r.i.i.i.i.i.i.i.i.i.i.i.i.i.i.Y t.> > > t.Y i.i.i.i.i.i.i.i.i.i.i.i.i.i.i.i.i.",
"i.i.i.i.i.r.g 3 7.B A r.i.i.i.i.i.i.i.i.i.i.i.i.i.i.t.> > > > > t.i.i.i.i.i.i.i.i.i.i.i.i.i.i.i.i.i.",
"i.i.i.i.i.r.7 ; 1 # z r.i.i.i.i.i.i.i.i.i.i.i.i.i.i.Y t.t.> t.t.Y i.i.i.i.i.i.i.i.i.i.i.i.i.i.i.i.i.",
"i.i.i.i.i.} e.e.e.e.e.} i.i.i.i.i.i.i.i.i.i.i.i.i.i.i.i.t.> t.i.i.i.i.i.i.i.i.i.i.i.i.i.i.i.i.i.i.i.",
"i.i.i.i.i.e.T U P R I e.i.i.i.i.i.i.i.i.i.i.i.i.i.i.i.i.t.X.t.i.i.i.i.i.i.i.i.i.i.i.i.i.i.i.i.i.i.i.",
"i.i.i.i.i.e.. H J . K e.i.i.i.i.i.i.i.i.E r.r.r.r.r.E r.t.: t.r.E r.r.r.r.r.E r.r.r.r.r.E i.i.i.i.i.",
"i.i.i.i.i.e.. H J . K e.i.i.i.i.i.i.i.i.r.7 g 0 0 # r.@.t.y t.{ r.>.=.# ..;.r.z 5 5 t +.r.i.i.i.i.i.",
"i.i.i.i.i.e.. H J . K e.i.i.i.i.i.i.i.i.r.g 3 3 3 3.r.; t.%.t.4.r.7 q.B 0.@.r.A 1 f f t r.i.i.i.i.i.",
"i.i.i.i.i.e.T U P R I e.i.i.i.i.i.i.i.i.r.7 g g 0 # r.@.t.$.t.{ r.>.=.# ..;.r.z 5 5 t +.r.i.i.i.i.i.",
"i.i.i.i.i.W e.e.e.e.e.W i.i.i.i.i.i.i.i.Q r.r.r.r.r.Q r.t.O.t.r.Q r.r.r.r.r.Q r.r.r.r.r.Q i.i.i.i.i.",
"i.i.i.i.i.e.T U P R I e.i.i.i.i.i.i.i.i.y.x q q q x y.x t.$ t.  y.  :.% % #.y.#.S D / ) y.i.i.i.i.i.",
"i.i.i.i.i.e.. H J . K e.i.i.i.i.i.i.i.i.y.q @ @ @ q y.q t.[ t.O y.% Z Z Z S y.S = = <.r y.i.i.i.i.i.",
"i.i.i.i.i.e.. H J . K e.i.i.i.i.i.i.i.i.y.q @ @ @ q y.O t.4 t.:.y.% Z + + v y./ <.<.< 2 y.i.i.i.i.i.",
"i.i.i.i.i.e.. H J . K e.i.i.i.i.i.i.i.i.y.q @ @ @ q y.O t.( t.% y.S + + = / y.r < < e X y.i.i.i.i.i.",
"i.i.i.i.i.e.T U P R I e.i.i.i.i.i.i.i.i.y.x q q O   y.  t.( t.#.y.#.v / &.) y.5.2 X X * y.i.i.i.i.i.",
"i.i.i.i.i.^ G G G G G ^ i.i.i.i.i.i.i.i.L y.y.y.] t.o G t.( t.G *.y.y.y.y.y.L y.y.y.y.y.L i.i.i.i.i.",
"i.i.i.i.i.G 1., , n 1.G i.i.i.i.i.i.i.i.y.  O O t.~ t.p t.( t.1.G ) r r 2 V y.* m m ' c y.i.i.i.i.i.",
"i.i.i.i.i.G , 8 t.t.t.t.t.t.t.t.t.t.t.t.t.t.t.t.t.~ 4 t.o t.8 w.G r < e e X y.m 8.d d w y.i.i.i.i.i.",
"i.i.i.i.i.G , t.> X.X.X.: : y y %.%.$.9.O.$ $ [ [ ~ 4 ( t.u u 6 G 2 e h h m y.' d j j l y.i.i.i.i.i.",
"i.i.i.i.i.G n 8 t.t.t.t.t.t.t.t.t.t.t.t.t.t.t.t.t.~ 4 t.8 u 2.F G X h h - ' y.w j | 9 ,.y.i.i.i.i.i.",
"i.i.i.i.i.G 1.6 6 F o.G i.i.i.i.i.i.i.i.y.#.S S t.~ t.p 6 6 F o.G * m i ' c y.C ` ,._ 6.y.i.i.i.i.i.",
"i.i.i.i.i.^ G G G G G ^ i.i.i.i.i.i.i.i.L y.y.y.] t.o G G G G G *.y.y.y.y.y.L y.y.y.y.y.L i.i.i.i.i.",
"i.i.i.i.i.e.T U P R I e.i.i.i.i.i.i.i.i.y.s / &.r 5.y.V X X m * y.c w  .l C y.6.M M M & y.i.i.i.i.i.",
"i.i.i.i.i.e.. H J . K e.i.i.i.i.i.i.i.i.y.&.<.< < 2 y.X h - 8.' y. .| 9 9 _ y.M b b k -.y.i.i.i.i.i.",
"i.i.i.i.i.e.. H J . K e.i.i.i.i.i.i.i.i.y.r < e e X y.m - d d w y.` 9 N N M y.a b k k ! y.i.i.i.i.i.",
"i.i.i.i.i.e.. H J . K e.i.i.i.i.i.i.i.i.y.2 e h h m y.' d j j l y._ N N b M y.-.k k k ! y.i.i.i.i.i.",
"i.i.i.i.i.e.T U P R I e.i.i.i.i.i.i.i.i.y.V X m m * y.c  .l ` C y.6.M M a & y.& ! ! ! & y.i.i.i.i.i.",
"i.i.i.i.i.W e.e.e.e.e.W i.i.i.i.i.i.i.i.L y.y.y.y.y.L y.y.y.y.y.L y.y.y.y.y.L y.y.y.y.y.L i.i.i.i.i.",
"i.i.i.i.i.e.T U P R I e.i.i.i.i.i.i.i.i.i.i.i.i.i.i.i.i.i.i.i.i.i.i.i.i.i.i.i.i.i.i.i.i.i.i.i.i.i.i.",
"i.i.i.i.i.e.. H J . K e.i.i.i.i.i.i.i.i.i.i.i.i.i.i.i.i.i.i.i.i.i.i.i.i.i.i.i.i.i.i.i.i.i.i.i.i.i.i.",
"i.i.i.i.i.e.. H J . K e.i.i.i.i.i.i.i.i.i.i.i.i.i.i.i.i.i.i.i.i.i.i.i.i.i.i.i.i.i.i.i.i.i.i.i.i.i.i.",
"i.i.i.i.i.e.. H J . K e.i.i.i.i.i.i.i.i.i.i.i.i.i.i.i.i.i.i.i.i.i.i.i.i.i.i.i.i.i.i.i.i.i.i.i.i.i.i.",
"i.i.i.i.i.e.T U P R I e.i.i.i.i.i.i.i.i.i.i.i.i.i.i.i.i.i.i.i.i.i.i.i.i.i.i.i.i.i.i.i.i.i.i.i.i.i.i.",
"i.i.i.i.i.W e.e.e.e.e.W i.i.i.i.i.i.i.i.i.i.i.i.i.i.i.i.i.i.i.i.i.i.i.i.i.i.i.i.i.i.i.i.i.i.i.i.i.i.",
"i.i.i.i.i.i.i.i.i.i.i.i.i.i.i.i.i.i.i.i.i.i.i.i.i.i.i.i.i.i.i.i.i.i.i.i.i.i.i.i.i.i.i.i.i.i.i.i.i.i.",
"i.i.i.i.i.i.i.i.i.i.i.i.i.i.i.i.i.i.i.i.i.i.i.i.i.i.i.i.i.i.i.i.i.i.i.i.i.i.i.i.i.i.i.i.i.i.i.i.i.i.",
"i.i.i.i.i.i.i.i.i.i.i.i.i.i.i.i.i.i.i.i.i.i.i.i.i.i.i.i.i.i.i.i.i.i.i.i.i.i.i.i.i.i.i.i.i.i.i.i.i.i.",
"i.i.i.i.i.i.i.i.i.i.i.i.i.i.i.i.i.i.i.i.i.i.i.i.i.i.i.i.i.i.i.i.i.i.i.i.i.i.i.i.i.i.i.i.i.i.i.i.i.i.",
"i.i.i.i.i.i.i.i.i.i.i.i.i.i.i.i.i.i.i.i.i.i.i.i.i.i.i.i.i.i.i.i.i.i.i.i.i.i.i.i.i.i.i.i.i.i.i.i.i.i.",
"i.i.i.i.i.i.i.i.i.i.i.i.i.i.i.i.i.i.i.i.i.i.i.i.i.i.i.i.i.i.i.i.i.i.i.i.i.i.i.i.i.i.i.i.i.i.i.i.i.i.",
"i.i.i.i.i.i.i.i.i.i.i.i.i.i.i.i.i.i.i.i.i.i.i.i.i.i.i.i.i.i.i.i.i.i.i.i.i.i.i.i.i.i.i.i.i.i.i.i.i.i."
};
