/* XPM */
static char * ex_materialize_xpm[] = {
"50 50 8 1",
" 	c None",
".	c #FFFFFF",
"+	c #999999",
"@	c #000000",
"#	c #CCCCCC",
"$	c #666666",
"%	c #EDE3C2",
"&	c #EDC63C",
"..................................................",
"..................................................",
"..................................................",
"..................................................",
"..................................................",
"..................................................",
"...+++++++++++++++++..........@@@@@@@@@@@@@@@@@...",
"...+#######+#######+..........@$$$$$$$@$$$$$$$@...",
"...+#######+#######+..........@$$$$$$$@$$$$$$$@...",
"...+++++++++++++++++..........@@@@@@@@@@@@@@@@@...",
"...+%%%%%%%+%%%%%%%+..........@&&&&&&&@&&&&&&&@...",
"...+%%%%%%%+%%%%%%%+..........@&&&&&&&@&&&&&&&@...",
"...+%%%%%%%+%%%%%%%+..........@&&&&&&&@&&&&&&&@...",
"...+%%%%%%%+%%%%%%%+..........@&&&&&&&@&&&&&&&@...",
"...+%%%%%%%+%%%%%%%+..........@&&&&&&&@&&&&&&&@...",
"...+%%%%%%%+%%%%%%%+..........@&&&&&&&@&&&&&&&@...",
"...+++++++++++++++++..........@@@@@@@@@@@@@@@@@...",
"...+%%%%%%%+%%%%%%%+..........@&&&&&&&@&&&&&&&@...",
"...+%%%%%%%+%%%%%%%+..........@&&&&&&&@&&&&&&&@...",
"...+%%%%%%%+%%%%%%%+..........@&&&&&&&@&&&&&&&@...",
"...+%%%%%%%+%%%%%%%+..........@&&&&&&&@&&&&&&&@...",
"...+%%%%%%%+%%%%%%%+..........@&&&&&&&@&&&&&&&@...",
"...+%%%%%%%+%%%%%%%+....@.....@&&&&&&&@&&&&&&&@...",
"...+++++++++++++++++.....@....@@@@@@@@@@@@@@@@@...",
"...+%%%%%%%+%%%%%%%+.@@@@.@...@&&&&&&&@&&&&&&&@...",
"...+%%%%%%%+%%%%%%%+.......@..@&&&&&&&@&&&&&&&@...",
"...+%%%%%%%+%%%%%%%+........@.@&&&&&&&@&&&&&&&@...",
"...+%%%%%%%+%%%%%%%+.......@..@&&&&&&&@&&&&&&&@...",
"...+%%%%%%%+%%%%%%%+.@@@@.@...@&&&&&&&@&&&&&&&@...",
"...+%%%%%%%+%%%%%%%+.....@....@&&&&&&&@&&&&&&&@...",
"...+++++++++++++++++....@.....@@@@@@@@@@@@@@@@@...",
"...+%%%%%%%+%%%%%%%+..........@&&&&&&&@&&&&&&&@...",
"...+%%%%%%%+%%%%%%%+..........@&&&&&&&@&&&&&&&@...",
"...+%%%%%%%+%%%%%%%+..........@&&&&&&&@&&&&&&&@...",
"...+%%%%%%%+%%%%%%%+..........@&&&&&&&@&&&&&&&@...",
"...+%%%%%%%+%%%%%%%+..........@&&&&&&&@&&&&&&&@...",
"...+%%%%%%%+%%%%%%%+..........@&&&&&&&@&&&&&&&@...",
"...+++++++++++++++++..........@@@@@@@@@@@@@@@@@...",
"...+%%%%%%%+%%%%%%%+..........@&&&&&&&@&&&&&&&@...",
"...+%%%%%%%+%%%%%%%+..........@&&&&&&&@&&&&&&&@...",
"...+%%%%%%%+%%%%%%%+..........@&&&&&&&@&&&&&&&@...",
"...+%%%%%%%+%%%%%%%+..........@&&&&&&&@&&&&&&&@...",
"...+%%%%%%%+%%%%%%%+..........@&&&&&&&@&&&&&&&@...",
"...+%%%%%%%+%%%%%%%+..........@&&&&&&&@&&&&&&&@...",
"...+++++++++++++++++..........@@@@@@@@@@@@@@@@@...",
"..................................................",
"..................................................",
"..................................................",
"..................................................",
".................................................."};
