/* XPM */
static char * ex_merge_xpm[] = {
"50 50 7 1",
" 	c None",
".	c #FFFFFF",
"+	c #000000",
"@	c #EDC63C",
"#	c #666666",
"$	c #EDE2B9",
"%	c #808080",
"..................................................",
"..................................................",
"..................................................",
"..................................................",
"..+++++++++++++++++++++++++.......................",
"..+@@@@@@@+@@@@@@@+@@@@@@@+.......................",
"..+@@@@@@@+@@@@@@@+@@@@@@@+.......................",
"..+@@@@@@@+@@@@@@@+@@@@@@@+.......................",
"..+@@@@@@@+@@@@@@@+@@@@@@@+.......................",
"..+@@@@@@@+@@@@@@@+@@@@@@@+.......................",
"..+++++++++++++++++++++++++.......................",
"..................................................",
"..................................................",
"......+++...............+++++++++++++++++++++++++.",
"......+++...............+#######+#######+#######+.",
"......+++...............+#######+#######+#######+.",
"......+++...............+++++++++++++++++++++++++.",
"......+++...............+$$$$$$$+$$$$$$$+$$$$$$$+.",
"......+++...............+$$$$$$$+$$$$$$$+$$$$$$$+.",
"......+++...............+$$$$$$$+$$$$$$$+$$$$$$$+.",
"......+++...............+$$$$$$$+$$$$$$$+$$$$$$$+.",
"......+++...............+$$$$$$$+$$$$$$$+$$$$$$$+.",
"......+++...............+++++++++++++++++++++++++.",
"......+++...............+$$$$$$$+$$$$$$$+$$$$$$$+.",
"......+++%.......+......+$$$$$$$+$$$$$$$+$$$$$$$+.",
".......+++%......++.....+$$$$$$$+$$$$$$$+$$$$$$$+.",
".......++++%.....+++....+$$$$$$$+$$$$$$$+$$$$$$$+.",
"........+++++++++++++...+$$$$$$$+$$$$$$$+$$$$$$$+.",
".........+++++++++++++..+++++++++++++++++++++++++.",
"...........++++++++++...+$$$$$$$+$$$$$$$+$$$$$$$+.",
".................+++....+$$$$$$$+$$$$$$$+$$$$$$$+.",
".................++.....+$$$$$$$+$$$$$$$+$$$$$$$+.",
".................+......+$$$$$$$+$$$$$$$+$$$$$$$+.",
"........................+$$$$$$$+$$$$$$$+$$$$$$$+.",
"........................+++++++++++++++++++++++++.",
"........................+$$$$$$$+$$$$$$$+$$$$$$$+.",
"........................+$$$$$$$+$$$$$$$+$$$$$$$+.",
"........................+$$$$$$$+$$$$$$$+$$$$$$$+.",
"........................+$$$$$$$+$$$$$$$+$$$$$$$+.",
"........................+$$$$$$$+$$$$$$$+$$$$$$$+.",
"........................+++++++++++++++++++++++++.",
"........................+$$$$$$$+$$$$$$$+$$$$$$$+.",
"........................+$$$$$$$+$$$$$$$+$$$$$$$+.",
"........................+$$$$$$$+$$$$$$$+$$$$$$$+.",
"........................+$$$$$$$+$$$$$$$+$$$$$$$+.",
"........................+$$$$$$$+$$$$$$$+$$$$$$$+.",
"........................+++++++++++++++++++++++++.",
"..................................................",
"..................................................",
".................................................."};
