/* XPM */
static char * ex_sort_xpm[] = {
"50 50 12 1",
" 	c None",
".	c #FFFFFF",
"+	c #000000",
"@	c #666666",
"#	c #FFCC66",
"$	c #FFC6C2",
"%	c #ADBCF5",
"&	c #FFE2AD",
"*	c #808080",
"=	c #C0C0C0",
"-	c #D6E2AD",
";	c #AFE2DA",
"..................................................",
"..................................................",
"..................................................",
"..+++++++++++++++++............+++++++++++++++++..",
"..+@@@@@@@@@@@@@@@+............+@@@@@@@@@@@@@@@+..",
"..+@@@@@@@@@@@@@@@+............+@@@@@@@@@@@@@@@+..",
"..+++++++++++++++++............+++++++++++++++++..",
"..+###############+............+$$$$$$$$$$$$$$$+..",
"..+#####+#+#+#####+............+$$$$$$$+$$$$$$$+..",
"..+#####+#+#+#####+............+$$$$$$$+$$$$$$$+..",
"..+#####+#+#+#####+............+$$$$$$$+$$$$$$$+..",
"..+#####+#+#+#####+............+$$$$$$$+$$$$$$$+..",
"..+#####+#+#+#####+............+$$$$$$$+$$$$$$$+..",
"..+###############+............+$$$$$$$$$$$$$$$+..",
"..+++++++++++++++++............+++++++++++++++++..",
"..+%%%%%%%%%%%%%%%+............+&&&&&&&&&&&&&&&+..",
"..+%%%+%+%+%+%+%%%+............+&&&&&&+&+&&&&&&+..",
"..+%%%+%+%+%+%+%%%+............+&&&&&&+&+&&&&&&+..",
"..+%%%+%+%+%+%+%%%+............+&&&&&&+&+&&&&&&+..",
"..+%%%+%+%+%+%+%%%+......+.....+&&&&&&+&+&&&&&&+..",
"..+%%%+%+%+%+%+%%%+.......+....+&&&&&&+&+&&&&&&+..",
"..+%%%%%%%%%%%%%%%+.++++++*+...+&&&&&&&&&&&&&&&+..",
"..+++++++++++++++++..===*=**+..+++++++++++++++++..",
"..+$$$$$$$$$$$$$$$+..==*=*=**+.+---------------+..",
"..+$$$$$$$+$$$$$$$+..===*=**+..+-----+-+-+-----+..",
"..+$$$$$$$+$$$$$$$+.++++++*+...+-----+-+-+-----+..",
"..+$$$$$$$+$$$$$$$+.......+....+-----+-+-+-----+..",
"..+$$$$$$$+$$$$$$$+......+.....+-----+-+-+-----+..",
"..+$$$$$$$+$$$$$$$+............+-----+-+-+-----+..",
"..+$$$$$$$$$$$$$$$+............+---------------+..",
"..+++++++++++++++++............+++++++++++++++++..",
"..+&&&&&&&&&&&&&&&+............+;;;;;;;;;;;;;;;+..",
"..+&&&&&&+&+&&&&&&+............+;;;;+;+;+;+;;;;+..",
"..+&&&&&&+&+&&&&&&+............+;;;;+;+;+;+;;;;+..",
"..+&&&&&&+&+&&&&&&+............+;;;;+;+;+;+;;;;+..",
"..+&&&&&&+&+&&&&&&+............+;;;;+;+;+;+;;;;+..",
"..+&&&&&&+&+&&&&&&+............+;;;;+;+;+;+;;;;+..",
"..+&&&&&&&&&&&&&&&+............+;;;;;;;;;;;;;;;+..",
"..+++++++++++++++++............+++++++++++++++++..",
"..+;;;;;;;;;;;;;;;+............+%%%%%%%%%%%%%%%+..",
"..+;;;;+;+;+;+;;;;+............+%%%+%+%+%+%+%%%+..",
"..+;;;;+;+;+;+;;;;+............+%%%+%+%+%+%+%%%+..",
"..+;;;;+;+;+;+;;;;+............+%%%+%+%+%+%+%%%+..",
"..+;;;;+;+;+;+;;;;+............+%%%+%+%+%+%+%%%+..",
"..+;;;;+;+;+;+;;;;+............+%%%+%+%+%+%+%%%+..",
"..+;;;;;;;;;;;;;;;+............+%%%%%%%%%%%%%%%+..",
"..+++++++++++++++++............+++++++++++++++++..",
"..................................................",
"..................................................",
".................................................."};
