/* XPM */
static char *ex_sort_xpm[] = {
/* columns rows colors chars-per-pixel */
"50 50 129 2",
"   c #85E2FF",
".  c #9CFF6A",
"X  c #93FF5C",
"o  c #2DB4E5",
"O  c #DAC357",
"+  c #C8FFAC",
"@  c #ECD569",
"#  c #FFD1D1",
"$  c #FFE357",
"%  c #FFB5B5",
"&  c #15ADE3",
"*  c #D1D9FF",
"=  c #FFDD38",
"-  c #FFE564",
";  c #FFC9C9",
":  c #43BDE9",
">  c #A6E9FF",
",  c #FFDADA",
"<  c #96E6FF",
"1  c #ACEBFF",
"2  c #FFC5C5",
"3  c #FFE87A",
"4  c #FFE2E2",
"5  c #FDE675",
"6  c #E9D266",
"7  c #CED6FF",
"8  c #A2E9FF",
"9  c #9CE7FF",
"0  c #ADBAFF",
"q  c #ABD46C",
"w  c #FFE04B",
"e  c #A9FF7E",
"r  c #ADFF83",
"t  c #D6DDFF",
"y  c #DAFFC8",
"u  c #B1BEFF",
"i  c #FFEE9E",
"p  c #76DEFF",
"a  c #72DDFF",
"s  c #FFC1C1",
"d  c #A5CB64",
"f  c #A1FF72",
"g  c #B6EEFF",
"h  c #8DFF53",
"j  c #D9DFFF",
"k  c #DDE2FF",
"l  c #C4CDFF",
"z  c #D2FFBB",
"x  c #DFE5FF",
"c  c #FFCDCD",
"v  c #FFBDBD",
"b  c #E5EAFF",
"n  c #C6D0FF",
"m  c #FFB9B9",
"M  c #B7E77C",
"N  c #B3E177",
"B  c #CAD3FF",
"V  c #B9EC80",
"C  c #0CC5FF",
"Z  c #7A8FFF",
"A  c #FF6868",
"S  c #48D601",
"D  c #528D19",
"F  c #BB9B01",
"G  c #B0992D",
"H  c #BDFF9C",
"J  c #CCFFB3",
"K  c #FFDEDE",
"L  c #FFD4D4",
"P  c #C1CBFF",
"I  c #86A964",
"U  c #B9FF95",
"Y  c #9EE8FF",
"T  c #BBFF99",
"R  c #93E5FF",
"E  c #7CDFFF",
"W  c #FFEA83",
"Q  c #7ACEEC",
"!  c #4865FF",
"~  c #53C2EA",
"^  c #8BD4EE",
"/  c #75A6C7",
"(  c #B7FF92",
")  c #5DC5EB",
"_  c #FF3D3D",
"`  c #4CC0E9",
"'  c #6FCDEE",
"]  c #7296A1",
"[  c #4DE701",
"{  c #66C8EC",
"}  c #7FE0FF",
"|  c #07C4FF",
" . c #ADDFF3",
".. c #71CBEC",
"X. c #83D1ED",
"o. c #FFDCDC",
"O. c #FFDF44",
"+. c #D4DBFF",
"@. c #C2CCFF",
"#. c #FFE66B",
"$. c #E1E6FF",
"%. c #FFEB88",
"&. c #B3FF8C",
"*. c #4EBEE6",
"=. c #D1BA4E",
"-. c #92D5EF",
";. c #D7B201",
":. c #64C5E8",
">. c #A6FF78",
",. c #F6DF73",
"<. c #FFE7E7",
"1. c #97FF62",
"2. c #C0F0FF",
"3. c #5AC1E7",
"4. c #41BAE5",
"5. c #07A8E2",
"6. c #CBD4FF",
"7. c #B0FF89",
"8. c #B5FF8F",
"9. c #E9EDFF",
"0. c #AFDB72",
"q. c #A2C55F",
"w. c #B0DC73",
"e. c #F7E074",
"r. c #99FF65",
"t. c #3688C1",
"y. c black",
"u. c #D0D0D0",
"i. c None",
/* pixels */
"i.i.i.i.i.i.i.i.i.i.i.i.i.i.i.i.i.i.i.i.i.i.i.i.i.i.i.i.i.i.i.i.i.i.i.i.i.i.i.i.i.i.i.i.i.i.i.i.i.i.",
"i.i.i.i.i.i.i.i.i.i.i.i.i.i.i.i.i.i.i.i.i.i.i.i.i.i.i.i.i.i.i.i.i.i.i.i.i.i.i.i.i.i.i.i.i.i.i.i.i.i.",
"i.i.i.i.i.i.i.i.i.i.i.i.i.i.i.i.i.i.i.i.i.i.i.i.i.i.i.i.i.i.i.i.i.i.i.i.i.i.i.i.i.i.i.i.i.i.i.i.i.i.",
"i.i.i.i.i.i.i.i.i.i.i.i.i.i.i.i.i.i.i.i.i.i.i.i.i.i.i.i.i.i.i.i.i.i.i.i.i.i.i.i.i.i.i.i.i.i.i.i.i.i.",
"i.i.i.i.i.i.i.i.i.i.i.i.i.i.i.i.i.i.i.i.i.i.i.i.i.i.i.i.i.i.i.i.i.i.i.i.i.i.i.i.i.i.i.i.i.i.i.i.i.i.",
"i.i.i.i.i.i.i.i.i.i.i.i.i.i.i.i.i.i.i.i.i.i.i.i.i.i.i.i.i.i.i.i.i.i.i.i.i.i.i.i.i.i.i.i.i.i.i.i.i.i.",
"i.i.i.i.i.i.i.i.i.i.i.i.i.i.i.i.i.i.i.i.i.i.i.i.i.i.i.i.i.i.i.i.i.i.i.i.i.i.i.i.i.i.i.i.i.i.i.i.i.i.",
"i.i.i.i.i./ t.t.t.t.t.t.t.t.t.t.t./ i.i.i.i.i.i.i.i.i.i.i.i.i./ t.t.t.t.t.t.t.t.t.t.t./ i.i.i.i.i.i.",
"i.i.i.i.i.t.' : ` ~ ) { ..Q X.^  .t.i.i.i.i.i.i.i.i.i.i.i.i.i.t.' : ` ~ ) { ..Q X.^  .t.i.i.i.i.i.i.",
"i.i.i.i.i.t.: 5.& & o o 4.*.3.:.-.t.i.i.i.i.i.i.i.i.i.i.i.i.i.t.: 5.& & o o 4.*.3.:.-.t.i.i.i.i.i.i.",
"i.i.i.i.i.t.' : ` ~ ) { ..Q X.^  .t.i.i.i.i.i.i.i.i.i.i.i.i.i.t.' : ` ~ ) { ..Q X.^  .t.i.i.i.i.i.i.",
"i.i.i.i.i.] t.t.t.t.t.t.t.t.t.t.t.] i.i.i.i.i.i.i.i.i.i.i.i.i.] t.t.t.t.t.t.t.t.t.t.t.] i.i.i.i.i.i.",
"i.i.i.i.i.A <.K K K K K K K K K <.A i.i.i.i.i.i.i.i.i.i.i.i.i.S y J J J J J J J J J y S i.i.i.i.i.i.",
"i.i.i.i.i.A K L L y.L y.L y.# # o.A i.i.i.i.i.i.i.i.i.i.i.i.i.S J H H H H y.H H T U + S i.i.i.i.i.i.",
"i.i.i.i.i.A K L L y.L y.# y.# # , A i.i.i.i.i.i.i.i.i.i.i.i.i.S J H H H H y.T U U ( + S i.i.i.i.i.i.",
"i.i.i.i.i.A K L L y.# y.# y.# c , A i.i.i.i.i.i.i.i.i.i.i.i.i.S J H H H T y.U ( ( 8.+ S i.i.i.i.i.i.",
"i.i.i.i.i.A <.K K K o.o.o., , , 4 A i.i.i.i.i.i.i.i.i.i.i.i.i.S y J J J + J + + + + z S i.i.i.i.i.i.",
"i.i.i.i.i._ A A A A A A A A A A A _ i.i.i.i.i.i.i.i.i.i.i.i.i.[ S S S S S S S S S S S [ i.i.i.i.i.i.",
"i.i.i.i.i.F i %.%.W W W 3 3 3 5 i F i.i.i.i.i.i.i.i.i.i.i.i.i.Z 9.$.$.x x x x k k k b Z i.i.i.i.i.i.",
"i.i.i.i.i.F %.y.$ y.$ y.w y.O.y.#.F i.i.i.i.i.i.i.i.i.i.i.i.i.Z $.t +.+.y.* y.7 7 6.j Z i.i.i.i.i.i.",
"i.i.i.i.i.F W y.$ y.w y.O.y.= y.- F i.i.i.i.i.i.i.i.i.i.i.i.i.Z x +.+.* y.* y.7 6.6.j Z i.i.i.i.i.i.",
"i.i.i.i.i.F W y.w y.O.y.= y.= y.- F i.i.i.i.i.i.i.i.i.i.i.i.i.Z x +.* * y.7 y.6.B B t Z i.i.i.i.i.i.",
"i.i.i.i.i.F i 3 3 5 #.#.- - - $ W F i.i.i.i.i.i.i.I D I i.i.i.Z b k k k j j j j t t x Z i.i.i.i.i.i.",
"i.i.i.i.i.;.F F F F F F F F F F F ;.i.i.i.i.i.i.i.D q D I i.i.! Z Z Z Z Z Z Z Z Z Z Z ! i.i.i.i.i.i.",
"i.i.i.i.i.S z H H T U U ( 8.&.7.+ S i.I D D D D D D 0.N D I i.A 4 L L # # # # c c ; , A i.i.i.i.i.i.",
"i.i.i.i.i.S H >.f f . y.. 1.X X r S i.D q.d d q q w.N M V D i.A L 2 2 y.v y.v y.m % ; A i.i.i.i.i.i.",
"i.i.i.i.i.S T f f . . y.X X X h e S i.I D D D D D D M V D I i.A # s s y.v y.m y.% % ; A i.i.i.i.i.i.",
"i.i.i.i.i.S U . . r.1.y.X X h h >.S i.i.i.i.i.i.i.D V D I i.i.A # v v y.m y.% y.% % 2 A i.i.i.i.i.i.",
"i.i.i.i.i.S + &.&.7.r r r e e >.T S i.i.i.i.i.i.i.I D I i.i.i.A , c c ; ; ; ; ; 2 2 # A i.i.i.i.i.i.",
"i.i.i.i.i.[ S S S S S S S S S S S [ i.i.i.i.i.i.i.i.i.i.i.i.i._ A A A A A A A A A A A _ i.i.i.i.i.i.",
"i.i.i.i.i.C 2.> > > > > Y Y Y 9 g C i.i.i.i.i.i.i.i.i.i.i.i.i.C 2.> > > > > Y Y Y 9 g C i.i.i.i.i.i.",
"i.i.i.i.i.C >   y.  y.} y.E y.p < C i.i.i.i.i.i.i.i.i.i.i.i.i.C >   y.  y.} y.E y.p < C i.i.i.i.i.i.",
"i.i.i.i.i.C >   y.} y.E y.p y.a < C i.i.i.i.i.i.i.i.i.i.i.i.i.C >   y.} y.E y.p y.a < C i.i.i.i.i.i.",
"i.i.i.i.i.C 8 } y.E y.p y.a y.a R C i.i.i.i.i.i.i.i.i.i.i.i.i.C 8 } y.E y.p y.a y.a R C i.i.i.i.i.i.",
"i.i.i.i.i.C g Y 9 9 9 < < < R R 1 C i.i.i.i.i.i.i.i.i.i.i.i.i.C g Y 9 9 9 < < < R R 1 C i.i.i.i.i.i.",
"i.i.i.i.i.| C C C C C C C C C C C | i.i.i.i.i.i.i.i.i.i.i.i.i.| C C C C C C C C C C C | i.i.i.i.i.i.",
"i.i.i.i.i.Z t n n n l l l l @.P * Z i.i.i.i.i.i.i.i.i.i.i.i.i.G 5 @ @ @ @ @ @ @ 6 6 ,.G i.i.i.i.i.i.",
"i.i.i.i.i.Z n u u u y.0 y.0 0 0 P Z i.i.i.i.i.i.i.i.i.i.i.i.i.G @ y.O y.O y.O y.O y.6 G i.i.i.i.i.i.",
"i.i.i.i.i.Z l u u 0 y.0 y.0 0 0 P Z i.i.i.i.i.i.i.i.i.i.i.i.i.G @ y.O y.O y.O y.O y.6 G i.i.i.i.i.i.",
"i.i.i.i.i.Z l u 0 0 y.0 y.0 0 0 P Z i.i.i.i.i.i.i.i.i.i.i.i.i.G @ y.O y.O y.O y.O y.6 G i.i.i.i.i.i.",
"i.i.i.i.i.Z +.@.@.P P P P P P P * Z i.i.i.i.i.i.i.i.i.i.i.i.i.G e.6 6 6 6 6 6 6 6 6 ,.G i.i.i.i.i.i.",
"i.i.i.i.i.! Z Z Z Z Z Z Z Z Z Z Z ! i.i.i.i.i.i.i.i.i.i.i.i.i.=.G G G G G G G G G G G =.i.i.i.i.i.i.",
"i.i.i.i.i.i.i.i.i.i.i.i.i.i.i.i.i.i.i.i.i.i.i.i.i.i.i.i.i.i.i.i.i.i.i.i.i.i.i.i.i.i.i.i.i.i.i.i.i.i.",
"i.i.i.i.i.i.i.i.i.i.i.i.i.i.i.i.i.i.i.i.i.i.i.i.i.i.i.i.i.i.i.i.i.i.i.i.i.i.i.i.i.i.i.i.i.i.i.i.i.i.",
"i.i.i.i.i.i.i.i.i.i.i.i.i.i.i.i.i.i.i.i.i.i.i.i.i.i.i.i.i.i.i.i.i.i.i.i.i.i.i.i.i.i.i.i.i.i.i.i.i.i.",
"i.i.i.i.i.i.i.i.i.i.i.i.i.i.i.i.i.i.i.i.i.i.i.i.i.i.i.i.i.i.i.i.i.i.i.i.i.i.i.i.i.i.i.i.i.i.i.i.i.i.",
"i.i.i.i.i.i.i.i.i.i.i.i.i.i.i.i.i.i.i.i.i.i.i.i.i.i.i.i.i.i.i.i.i.i.i.i.i.i.i.i.i.i.i.i.i.i.i.i.i.i.",
"i.i.i.i.i.i.i.i.i.i.i.i.i.i.i.i.i.i.i.i.i.i.i.i.i.i.i.i.i.i.i.i.i.i.i.i.i.i.i.i.i.i.i.i.i.i.i.i.i.i.",
"i.i.i.i.i.i.i.i.i.i.i.i.i.i.i.i.i.i.i.i.i.i.i.i.i.i.i.i.i.i.i.i.i.i.i.i.i.i.i.i.i.i.i.i.i.i.i.i.i.i.",
"i.i.i.i.i.i.i.i.i.i.i.i.i.i.i.i.i.i.i.i.i.i.i.i.i.i.i.i.i.i.i.i.i.i.i.i.i.i.i.i.i.i.i.i.i.i.i.i.i.i."
};
