/* XPM */
static char *ex_setop_xpm[] = {
/* columns rows colors chars-per-pixel */
"50 50 129 2",
"   c #E9E19B",
".  c #4ABDE6",
"X  c #C9B28B",
"o  c #B8B9EB",
"O  c #DCC082",
"+  c #66C6E9",
"@  c #CCA357",
"#  c #A8AAE7",
"$  c #C7AA76",
"%  c #E3CD95",
"&  c #CCCBCB",
"*  c #29B3E4",
"=  c #A6B0A7",
"-  c #CDC1AD",
";  c #E3D08E",
":  c #4996CA",
">  c #9395D1",
",  c #75B7DC",
"<  c #6D99D3",
"1  c #E2CB9A",
"2  c #BABBEC",
"3  c #E2CE8C",
"4  c #C8C8F0",
"5  c #E8DE98",
"6  c #DDC283",
"7  c #7698B7",
"8  c #B8B9D0",
"9  c #E4D19A",
"0  c #53BDE6",
"q  c #ECE5AB",
"w  c #75C8E8",
"e  c #DFC889",
"r  c #DEC585",
"t  c #5F8EBD",
"y  c #64ADD7",
"u  c #BBBCED",
"i  c #DEC485",
"p  c #7AA5D7",
"a  c #ADAEE8",
"s  c #688BB6",
"d  c #5BB4DE",
"f  c #D6B575",
"g  c #18ADE3",
"h  c #8185D9",
"j  c #EBE3A3",
"k  c #E5D692",
"l  c #E6D4A3",
"z  c #A7A9E7",
"x  c #BEC1EE",
"c  c #DBBD84",
"v  c #9A9DE1",
"b  c #DEC58A",
"n  c #E1CC8B",
"m  c #3AB8E5",
"M  c #BDBEED",
"N  c #AAACE8",
"B  c #E6D894",
"V  c #E0C988",
"C  c #C1C2EE",
"Z  c #B0B2E9",
"A  c #B6B7EB",
"S  c #5FC4E9",
"D  c #5AAAD6",
"F  c #3A89C3",
"G  c #E4D491",
"H  c #E3D28F",
"J  c #E6DA96",
"K  c #EADDA5",
"L  c #E0C88E",
"P  c #D9BC7D",
"I  c #E1CB8A",
"U  c #B3B4EA",
"Y  c #E8DB9A",
"T  c #EADDA8",
"R  c #DEC28E",
"E  c #9FB3E3",
"W  c #AAADE6",
"Q  c #7F83D9",
"!  c #539DCD",
"~  c #E0C793",
"^  c #E7DC97",
"/  c #DDC288",
"(  c #9497DF",
")  c #EDE6B3",
"_  c #35B7E6",
"`  c #E6D698",
"'  c #E4D592",
"]  c #E5CFA0",
"[  c #B2B3EA",
"{  c #B4B5EA",
"}  c #AEB0E9",
"|  c #E0CA89",
" . c #C2923C",
".. c #A2A4D0",
"X. c #B7B8EB",
"o. c #C3994E",
"O. c #888BD1",
"+. c #C6A467",
"@. c #9EA0D0",
"#. c #767AD1",
"$. c #6A6FD1",
"%. c #E4D390",
"&. c #DFC787",
"*. c #E6D995",
"=. c #6199CF",
"-. c #4086C2",
";. c #ADAFE8",
":. c #1EB0E4",
">. c #84A9DA",
",. c #DFC68F",
"<. c #8CCDE9",
"1. c #A4A7E4",
"2. c #B5B6EA",
"3. c #90D3EC",
"4. c #D3B06F",
"5. c #B1B3EA",
"6. c #20B0E4",
"7. c #0FABE3",
"8. c #84C3E2",
"9. c #81CDEA",
"0. c #9EA2E2",
"q. c #528AC0",
"w. c #D2C49F",
"e. c #6593BF",
"r. c #E5D793",
"t. c #D8D3AA",
"y. c #D7B778",
"u. c #D0D0D0",
"i. c None",
/* pixels */
"i.i.i.i.i.i.i.i.i.i.i.i.i.i.i.i.i.i.i.i.i.i.i.i.i.i.i.i.i.i.i.i.i.i.i.i.i.i.i.i.i.i.i.i.i.i.i.i.i.i.",
"i.i.i.i.i.i.i.i.i.i.i.i.i.i.i.i.i.i.i.i.i.i.i.i.i.i.i.i.i.i.i.i.i.i.i.i.i.i.i.i.i.i.i.i.i.i.i.i.i.i.",
"i.i.i.i.i.i.i.i.i.i.i.i.i.i.i.i.i.i.i.i.i.i.i.i.i.i.i.i.i.i.i.i.i.i.i.i.i.i.i.i.i.i.i.i.i.i.i.i.i.i.",
"i.i.i.i.i.i.i.i.i.i.i.i.i.i.i.i.i.i.i.i.i.i.i.i.i.i.i.i.i.i.i.i.i.i.i.i.i.i.i.i.i.i.i.i.i.i.i.i.i.i.",
"i.i.i.i.i.i.i.i.i.i.i.i.i.i.i.i.i.i.i.i.i.i.i.i.i.i.i.i.i.i.i.i.i.i.i.i.i.i.i.i.i.i.i.i.i.i.i.i.i.i.",
"i.i.i.i.i.i.i.i.i.i.i.i.i.i.i.i.i.i.i.i.i.i.i.i.i.i.i.i.i.i.i.i.i.i.i.i.i.i.i.i.i.i.i.i.i.i.i.i.i.i.",
"i.i.i.i.i.i.i.i.i.i.i.i.i.i.i.i.i.i.i.i.i.i.i.i.i.i.i.i.i.i.i.i.i.i.i.i.i.i.i.i.i.i.i.i.i.i.i.i.i.i.",
"i.i.i.i.i.i.i.i.i.i.i.i.i.i.i.i.i.i.i.i.i.i.i.i.i.i.i.i.i.i.i.i.i.i.i.i.i.i.i.i.i.i.i.i.i.i.i.i.i.i.",
"i.i.i.i.i.i.i.i.i.i.i.i.i.i.i.i.i.i.i.i.i.i.i.i.i.i.i.i.i.i.i.i.i.i.i.i.i.i.i.i.i.i.i.i.i.i.i.i.i.i.",
"i.i.i.i.i.i.i.i.i.i.i.i.i.i.i.i.i.i.i.i.i.i.i.i.i.i.i.i.i.i.i.i.i.i.i.i.i.i.i.i.i.i.i.i.i.i.i.i.i.i.",
"i.i.i.i.i.i.i.i.i.i.i.i.i.i.i.i.i.i.i.i.i.i.i.i.i.i.i.i.i.i.i.i.i.i.i.i.i.i.i.i.i.i.i.i.i.i.i.i.i.i.",
"i.i.i.i.i.i.i.i.i.i.i.i.i.i.i.i.i.i.i.i.i.i.i.i.i.i.i.i.i.i.i.i.i.i.i.i.i.i.i.i.i.i.i.i.i.i.i.i.i.i.",
"i.i.i.i.i.i.i.i.i.i.i.i.8 @.O.#.$.$.#.O.@.8 i.i.i.i.i.i.- X +.o. . .o.+.X - i.i.i.i.i.i.i.i.i.i.i.i.",
"i.i.i.i.i.i.i.i.i.i.8 > Q v 5.M 4 4 C { 0.h > 8 i.i.- $ @ P 9 T ) ) T % P @ $ - i.i.i.i.i.i.i.i.i.i.",
"i.i.i.i.i.i.i.i.i...h z M u o X.X.o M C 4 4 } h ..X @ L q q j j       j q T L @ X i.i.i.i.i.i.i.i.i.",
"i.i.i.i.i.i.i.& > ( A X.5.Z [ { A o 2 u M C 4 x < s t.q j         5 5 5 ^ 5 K l y.$ & i.i.i.i.i.i.i.",
"i.i.i.i.i.i.i.> v 2 Z ;.} Z [ { A o 2 u M x x p y y e.        5 5 5 ^ ^ ^ J J Y T P $ i.i.i.i.i.i.i.",
"i.i.i.i.i.i...( 2 a N a } Z [ { A o 2 u M x >.D S + y 7   5 5 5 5 ^ ^ J *.B r.k B T f X i.i.i.i.i.i.",
"i.i.i.i.i.8 h { ;.N N a } Z [ { A o 2 u M E : 0 _ . w ! = 5 5 ^ ^ ^ J *.B r.k ' G ` 9 @ - i.i.i.i.i.",
"i.i.i.i.i.> 1.[ # N N a } Z [ { A o 2 u M < d _ * m + , t 5 ^ ^ J *.B r.k ' G %.H H ` / $ i.i.i.i.i.",
"i.i.i.i.8 Q o N # N N a } Z [ { A o 2 u E : . 6.* m 0 9.! = J *.B B r.k ' G %.H ; ; ; l @ - i.i.i.i.",
"i.i.i.i.@.v U z # N N a } Z [ { A o 2 u p D * g * m . w , 7 J B r.k ' G %.H ; ; 3 3 n 9 y.X i.i.i.i.",
"i.i.i.i.O.W ;.z # N N a } Z [ { A o 2 u =.d :.g * m . + 8.q.r.k ' G %.H H ; 3 3 n n I % ,.+.i.i.i.i.",
"i.i.i.i.#.2.N z # N N a } Z [ { A o 2 u : 0 g g * m . + <.-.k ' G %.H ; ; 3 3 n n I | n ] o.i.i.i.i.",
"i.i.i.i.$.u # z # N N a } Z [ { A o 2 2 F . 7.g * m . S 3.F G %.H H ; 3 3 n n I | V e e l  .i.i.i.i.",
"i.i.i.i.$.u # z # N N a } Z [ { A o 2 u F . 7.g * m . S 3.F H H ; 3 3 3 n I | V e &.&.&.l  .i.i.i.i.",
"i.i.i.i.#.2.N z # N N a } Z [ { A o 2 2 : . g g * m . + <.-.; ; 3 3 n n I | V &.&.&.r e 1 o.i.i.i.i.",
"i.i.i.i.O.W ;.z # N N a } Z [ { A o 2 u =.d :.g * m . + 8.q.3 3 n n I | V e &.&.r r i L R +.i.i.i.i.",
"i.i.i.i.@.v U z # N N a } Z [ { A o 2 u p D * g * m . w , 7 3 n n I | V &.&.&.r i 6 6 % f X i.i.i.i.",
"i.i.i.i.8 Q o N # N N a } Z [ { A o 2 u E : . 6.* m 0 9.! = | I | V e &.&.r i i 6 6 i 1 @ - i.i.i.i.",
"i.i.i.i.i.> 1.[ # N N a } Z [ { A o 2 u x < d _ * m + , t | | V e &.&.r r i 6 6 6 6 L c $ i.i.i.i.i.",
"i.i.i.i.i.8 h { ;.N N a } Z [ { A o 2 u M E : 0 _ . w ! = &.V &.&.&.r i i 6 6 6 O / ~ @ - i.i.i.i.i.",
"i.i.i.i.i.i...( 2 a N a } Z [ { A o 2 u M x >.D S + y 7 e e &.&.r r i 6 6 6 O O 6 1 4.X i.i.i.i.i.i.",
"i.i.i.i.i.i.i.> v 2 Z ;.} Z [ { A o 2 u M x C p y y t V &.&.&.r i 6 6 6 O O O / 1 f $ i.i.i.i.i.i.i.",
"i.i.i.i.i.i.i.& > ( A X.5.Z [ { A o 2 u M C 4 M < s w.% e r i i 6 6 6 O O 6 ,.~ 4.$ & i.i.i.i.i.i.i.",
"i.i.i.i.i.i.i.i.i...h z M u o X.X.o M C 4 4 ;.h ..X @ c ] % L b 6 6 i b ~ 1 c @ X i.i.i.i.i.i.i.i.i.",
"i.i.i.i.i.i.i.i.i.i.8 > h v Z M 4 4 C { 0.h > 8 i.i.- $ @ y.R 1 ] ] 1 R f @ $ - i.i.i.i.i.i.i.i.i.i.",
"i.i.i.i.i.i.i.i.i.i.i.i.8 @.O.#.$.$.#.O.@.8 i.i.i.i.i.i.- X +.o. . .o.+.X - i.i.i.i.i.i.i.i.i.i.i.i.",
"i.i.i.i.i.i.i.i.i.i.i.i.i.i.i.i.i.i.i.i.i.i.i.i.i.i.i.i.i.i.i.i.i.i.i.i.i.i.i.i.i.i.i.i.i.i.i.i.i.i.",
"i.i.i.i.i.i.i.i.i.i.i.i.i.i.i.i.i.i.i.i.i.i.i.i.i.i.i.i.i.i.i.i.i.i.i.i.i.i.i.i.i.i.i.i.i.i.i.i.i.i.",
"i.i.i.i.i.i.i.i.i.i.i.i.i.i.i.i.i.i.i.i.i.i.i.i.i.i.i.i.i.i.i.i.i.i.i.i.i.i.i.i.i.i.i.i.i.i.i.i.i.i.",
"i.i.i.i.i.i.i.i.i.i.i.i.i.i.i.i.i.i.i.i.i.i.i.i.i.i.i.i.i.i.i.i.i.i.i.i.i.i.i.i.i.i.i.i.i.i.i.i.i.i.",
"i.i.i.i.i.i.i.i.i.i.i.i.i.i.i.i.i.i.i.i.i.i.i.i.i.i.i.i.i.i.i.i.i.i.i.i.i.i.i.i.i.i.i.i.i.i.i.i.i.i.",
"i.i.i.i.i.i.i.i.i.i.i.i.i.i.i.i.i.i.i.i.i.i.i.i.i.i.i.i.i.i.i.i.i.i.i.i.i.i.i.i.i.i.i.i.i.i.i.i.i.i.",
"i.i.i.i.i.i.i.i.i.i.i.i.i.i.i.i.i.i.i.i.i.i.i.i.i.i.i.i.i.i.i.i.i.i.i.i.i.i.i.i.i.i.i.i.i.i.i.i.i.i.",
"i.i.i.i.i.i.i.i.i.i.i.i.i.i.i.i.i.i.i.i.i.i.i.i.i.i.i.i.i.i.i.i.i.i.i.i.i.i.i.i.i.i.i.i.i.i.i.i.i.i.",
"i.i.i.i.i.i.i.i.i.i.i.i.i.i.i.i.i.i.i.i.i.i.i.i.i.i.i.i.i.i.i.i.i.i.i.i.i.i.i.i.i.i.i.i.i.i.i.i.i.i.",
"i.i.i.i.i.i.i.i.i.i.i.i.i.i.i.i.i.i.i.i.i.i.i.i.i.i.i.i.i.i.i.i.i.i.i.i.i.i.i.i.i.i.i.i.i.i.i.i.i.i.",
"i.i.i.i.i.i.i.i.i.i.i.i.i.i.i.i.i.i.i.i.i.i.i.i.i.i.i.i.i.i.i.i.i.i.i.i.i.i.i.i.i.i.i.i.i.i.i.i.i.i.",
"i.i.i.i.i.i.i.i.i.i.i.i.i.i.i.i.i.i.i.i.i.i.i.i.i.i.i.i.i.i.i.i.i.i.i.i.i.i.i.i.i.i.i.i.i.i.i.i.i.i."
};
