/* XPM */
static char * ex_setop_xpm[] = {
"50 50 10 1",
" 	c #FFFFFF",
".	c #000000",
"+	c #8282D1",
"@	c #4747D1",
"#	c #EDE2BB",
"$	c #EDC63C",
"%	c #A88C2B",
"&	c #6E6E6C",
"*	c #4A4A91",
"=	c #996633",
"                                                  ",
"                                                  ",
"                                                  ",
"                                                  ",
"                                                  ",
"                                                  ",
"                                                  ",
"                                                  ",
"                                                  ",
"             ........         ........            ",
"           ..++++++@@..     ..#######$..          ",
"         ..++@@@@@@@@@@.   .##$$$$$$$$$$..        ",
"        .++@@@@@@@@@@@@@...#$$$$$$$$$$$$$%.       ",
"       .+@@@@@@@@@@@@@@@.&.$$$$$$$$$$$$$$$%.      ",
"      .+@@@@@@@@@@@@@@@.&&&.$$$$$$$$$$$$$$$%.     ",
"     .+@@@@@@@@@@@@@@@.&&&&&.$$$$$$$$$$$$$$$%.    ",
"     .+@@@@@@@@@@@@@@@.&&&&&.$$$$$$$$$$$$$$$$.    ",
"    .+@@@@@@@@@@@@@@@.&&&&&&&.$$$$$$$$$$$$$$$%.   ",
"    .+@@@@@@@@@@@@@@@.&&&&&&&.$$$$$$$$$$$$$$$$.   ",
"   .+@@@@@@@@@@@@@@@.&&&&&&&&&.$$$$$$$$$$$$$$$%.  ",
"   .+@@@@@@@@@@@@@@@.&&&&&&&&&.$$$$$$$$$$$$$$$%.  ",
"   .+@@@@@@@@@@@@@@@.&&&&&&&&&.$$$$$$$$$$$$$$$%.  ",
"   .+@@@@@@@@@@@@@@@.&&&&&&&&&.$$$$$$$$$$$$$$$%.  ",
"   .+@@@@@@@@@@@@@@@.&&&&&&&&&.$$$$$$$$$$$$$$$%.  ",
"   .+@@@@@@@@@@@@@@@.&&&&&&&&&.$$$$$$$$$$$$$$$%.  ",
"   .+@@@@@@@@@@@@@@@.&&&&&&&&&.$$$$$$$$$$$$$$$%.  ",
"   .+@@@@@@@@@@@@@@@.&&&&&&&&&.$$$$$$$$$$$$$$$%.  ",
"   .@@@@@@@@@@@@@@@@.&&&&&&&&&.$$$$$$$$$$$$$$$%.  ",
"    .@@@@@@@@@@@@@@@@.&&&&&&&.$$$$$$$$$$$$$$$%.   ",
"    .@@@@@@@@@@@@@@@@.&&&&&&&.$$$$$$$$$$$$$$$%.   ",
"     .@@@@@@@@@@@@@@@@.&&&&&.$$$$$$$$$$$$$$$%.    ",
"     .@@@@@@@@@@@@@@@@.&&&&&.$$$$$$$$$$$$$$$%.    ",
"      .@@@@@@@@@@@@@@@@.&&&.$$$$$$$$$$$$$$$%.     ",
"       .@@@@@@@@@@@@@@@@.&.$$$$$$$$$$$$$$$%.      ",
"        .@@@@@@@@@@@@@@*...$$$$$$$$$$$$$%%.       ",
"         ..@@@@@@@@@@**.   .$$$$$$$$$$%%..        ",
"           ..@@@******.     ..$$$$%%%=..          ",
"             ........         ........            ",
"                                                  ",
"                                                  ",
"                                                  ",
"                                                  ",
"                                                  ",
"                                                  ",
"                                                  ",
"                                                  ",
"                                                  ",
"                                                  ",
"                                                  ",
"                                                  "};
