/* XPM */
static char *ex_subplan_xpm[] = {
/* columns rows colors chars-per-pixel */
"50 50 129 2",
"   c #6DCBEC",
".  c #D7D7F5",
"X  c #D5D891",
"o  c #43BDE9",
"O  c #57C3EA",
"+  c #87D3EE",
"@  c #CDCD84",
"#  c #10ABE2",
"$  c #E1CC8B",
"%  c #E6D3A3",
"&  c #EDE4B1",
"*  c #AAD26A",
"=  c #7ACEEC",
"-  c #B1AC58",
";  c #C9CAF0",
":  c #C2C3D0",
">  c #E4D592",
",  c #EBDCB9",
"<  c #A9ABE6",
"1  c #EAE29C",
"2  c #EAF2B8",
"3  c #DBE195",
"4  c #D1D1F2",
"5  c #C5C575",
"6  c #ECE1AE",
"7  c #EEE2BD",
"8  c #978D2E",
"9  c #7478D3",
"0  c #D6D98D",
"q  c #EFE9B4",
"w  c #E1EA9C",
"e  c #E2ECA0",
"r  c #BDBFEC",
"t  c #D1D18B",
"y  c #BAEE82",
"u  c #CDCEF2",
"i  c #F3EDC6",
"p  c #B8E97E",
"a  c #E3D18E",
"s  c #DDC283",
"d  c #F0E9C2",
"f  c #DEC585",
"g  c #C4C5EF",
"h  c #D8DD8E",
"j  c #B2B4E9",
"k  c #C0C1ED",
"l  c #C2C4EE",
"z  c #CDD17D",
"x  c #C9CB76",
"c  c #B8B9EB",
"v  c #E7DB96",
"b  c #78AD3D",
"n  c #A8CF68",
"m  c #CACA7D",
"M  c #9DCE62",
"N  c #EBDEAC",
"B  c #E9DAA9",
"V  c #E8D6A6",
"C  c #E4CD9E",
"Z  c #AFB1E8",
"A  c #F0ECB6",
"S  c #EADCAA",
"D  c #5D9724",
"F  c #ACAEE8",
"G  c #87BB4D",
"H  c #D8E381",
"J  c #E5EEA9",
"K  c #E8DF99",
"L  c #E5CEA0",
"P  c #BEBFED",
"I  c #D7E17F",
"U  c #BEBC70",
"Y  c #9296DF",
"T  c #AEDA71",
"R  c #D9DAF5",
"E  c #C8C8F0",
"W  c #D4D78A",
"Q  c #528D19",
"!  c #8D8119",
"~  c #86A964",
"^  c #ABA56C",
"/  c #C7AA75",
"(  c #9699D1",
")  c #9295D1",
"_  c #A9A264",
"`  c #7F83D1",
"'  c #C7C5B7",
"]  c #9D9445",
"[  c #7296A1",
"{  c #75A6C7",
"}  c #C8C6BA",
"|  c #E9D8A7",
" . c #ADDFF3",
".. c #85D4F0",
"X. c #94D8F0",
"o. c #C6C8EF",
"O. c #CFD0F2",
"+. c #CBCCF1",
"@. c #A2A5E4",
"#. c #989BE1",
"$. c #4DBFE8",
"%. c #A6A8D0",
"&. c #C1C8BA",
"*. c #B5B087",
"=. c #ACD76E",
"-. c #C2C06E",
";. c #BABCEB",
":. c #9AC95D",
">. c #BCB66C",
",. c #8BAB6C",
"<. c #B6B8EA",
"1. c #DBBE7F",
"2. c #6F9C43",
"3. c #DCC081",
"4. c #EFE6C0",
"5. c #F4F1C9",
"6. c #92D5EF",
"7. c #9EB587",
"8. c #D3D3F3",
"9. c #BFC7B7",
"0. c #D1D385",
"q. c #D2D887",
"w. c #C0BD71",
"e. c #E8EDB8",
"r. c #3688C1",
"t. c #C18F36",
"y. c #666BD1",
"u. c #D0D0D0",
"i. c None",
/* pixels */
"i.i.i.i.i.i.i.i.i.i.i.i.i.i.i.i.i.i.i.i.i.i.i.i.i.i.i.i.i.i.i.i.i.i.i.i.i.i.i.i.i.i.i.i.i.i.i.i.i.i.",
"i.i.i.i.i.i.i.i.i.i.i.i.i.i.i.i.i.i.i.i.i.i.i.i.i.i.i.i.i.i.i.i.i.i.i.i.i.i.i.i.i.i.i.i.i.i.i.i.i.i.",
"i.i.i.i.i.i.i.i.i.i.i.i.: ( ` 9 y.y.y.y.y.y.y.y.y.y.y.y.y.y.y.y.y.9 ` ( : i.i.i.i.i.i.i.i.i.i.i.i.i.",
"i.i.i.i.i.i.i.i.i.i.i.: ( @.<.r g l l g g o.E ; +.+.u u O.4 4 8.. u l F ( : i.i.i.i.i.i.i.i.i.i.i.i.",
"i.i.i.i.i.i.i.i.i.i.i.( @.Z < Z c l l g g o.E ; +.+.u u O.4 4 8.E P c k F ( i.i.i.i.i.i.i.i.i.i.i.i.",
"i.i.i.i.i.i.i.i.i.i.i.` <.< j Y 9 y.y.y.y.y.y.y.y.y.y.y.y.y.y.y.9 #.k c l ` i.i.i.i.i.i.i.i.i.i.i.i.",
"i.i.i.i.i.i.i.i.i.i.i.9 ;.F Y %.: i.i.i.i.i.i.i.i.i.i.i.i.i.i.i.: %.#.8.R y.i.i.i.i.i.i.i.i.i.i.i.i.",
"i.i.i.i.i.i.i.i.i.i.i.y.4 u 9 : i.i.i.' ^ ] 8 ! ! ! ! ! 8 ] ^ ' i.: 9 8.. y.i.i.i.i.i.i.i.i.i.i.i.i.",
"i.i.i.i.i.i.i.i.i.i.i.) y.y.) i.i.i.' ^ 5 X 3 J e e w w 3 t w.^ ' i.y.. . y.i.i.i.i.i.i.i.i.i.i.i.i.",
"i.i.i.i.i.i.i.i.i.i.i.i.i.i.i.i.i.i.^ -.W z q.3 w w w 0 z x @ U ^ i.y.. . y.i.i.i.i.i.i.i.i.i.i.i.i.",
"i.i.i.i.i.i.i.i.i.i.i.) y.y.) i.i.i.] X z W - 8 ! ! ! 8 - @ 5 @ ] i.y.. . y.i.i.i.i.i.i.i.i.i.i.i.i.",
"i.i.i.i.i.i.i.i.i.i.) y.E ; y.) i.i.! 2 2 - *.} i.i.i.} *.- h 3 ! i.y.. . y.i.i.i.i.i.i.i.i.i.i.i.i.",
"i.i.i.i.i.i.i.i.i.) y.l F F g y.) i._ ! ! _ i.i.i.i.i.i.} 8 h h ! i.y.. . y.i.i.i.i.i.i.i.i.i.i.i.i.",
"i.i.i.i.i.i.i.i.i.y.8.r F F k . y.i.i.i.i.i.i.i.i.i.i.i.i.! h h ! i.y.. . y.i.i.i.i.i.i.i.i.i.i.i.i.",
"i.i.i.i.i.i.i.i.i.) y.y.c c y.y.) i._ ! ! _ i.i.i.i.i.i.i.! h 0 ! i.y.. . y.i.i.i.i.i.i.i.i.i.i.i.i.",
"i.i.i.i.i.i.i.i.i.i.i.y.r P y.i.i._ ! J J ! _ i.i.i.i.i.i.! 0 0 ! i.y.. . y.i.i.i.i.i.i.i.i.i.i.i.i.",
"i.i.i.i.i.i.i.i.i.i.i.y.r P y.i._ ! e H I w ! _ i.i.i.i.i.! 0 0 ! i.y.. . y.i.i.i.i.i.i.i.i.i.i.i.i.",
"i.i.i.i.i.i.i.i.i.i.i.y.r P y.i.! 2 w H I 3 e.! i.i.i.i.} 8 W 0 ! i.y.. . y.i.i.i.i.i.i.i.i.i.i.i.i.",
"i.i.i.i.i.i.i.i.i.i.i.y.r P y.i._ ! ! h x - ! _ i.i.i.} *.- 5 t 8 i.y.. . y.i.i.i.i.i.i.i.i.i.i.i.i.",
"i.i.i.i.i.i.i.i.i.i.i.y.r P y.i.i.i.] t x @ - 8 ! ! ! 8 - m -.@ ] i.y.. . y.i.i.i.i.i.i.i.i.i.i.i.i.",
"i.i.i.i.i.i.i.i.i.i.i.y.r P y.i.i.i.^ U z 5 m 0.h 0 0 @ 5 -.5 >.^ i.y.. . y.i.i.i.i.i.i.i.i.i.i.i.i.",
"i.i.i.i.i.i.i.i.i.i.i.y.r r y.i.i.i.' ^ U t X h h 0 0 X t @ >.^ ' i.y.. . y.i.i.i.i.i.i.i.i.i.i.i.i.",
"i.i.i.i.i.i.i.i.i.i.i.y.k P 9 : i.i.i.' ^ ] 8 ! ! ! ! ! 8 ] ^ ' i.: 9 . R y.i.i.i.i.i.i.i.i.i.i.i.i.",
"i.i.i.i.i.i.i.i.i.i.i.9 ;.F Y %.: i.i.i.i.i.i.i.i.i.i.i.i.i.i.i.: %.#.k u 9 i.i.i.i.i.i.i.i.i.i.i.i.",
"i.i.i.i.i.i.i.i.i.i.i.` <.< j Y 9 y.y.y.y.y.y.y.y.y.y.y.y.y.y.y.9 #.k ;.g ` i.i.i.i.i.i.i.i.i.i.i.i.",
"i.i.i.i.i.i.i.i.i.i.i.( @.Z < Z c l l g g o.E ; +.+.u u O.4 4 8.E P c k F ( i.i.i.i.i.i.i.i.i.i.i.i.",
"i.i.i.i.i.i.i.i.i.i.i.: ( @.<.r g l l g g o.E ; +.+.u u O.4 4 8.. u l F ( : i.i.i.i.i.i.i.i.i.i.i.i.",
"i.i.i.i.i.i.i.i.i.i.i.i.: ( ` 9 y.y.y.y.y.y.y.y.y.y.y.y.y.y.y.y.y.9 ` ( : i.i.i.i.i.i.i.i.i.i.i.i.i.",
"i.i.i.i.i.i.i.i.i.i.i.i.i.i.i.i.i.i.i.i.i.i.i.i.i.i.i.i.i.i.i.i.i.i.i.i.i.i.i.i.i.i.i.i.i.i.i.i.i.i.",
"i.i.i.i.i.i.i.i.i.i.i.i.i.i.i.i.i.i.i.i.i.i.i.~ Q ~ i.i.i.i.i.i.i.i.i.i.i.i.i.i.i.i.i.i.i.i.i.i.i.i.",
"i.{ r.r.r.r.r.{ r.r.r.r.r.{ i.i.i.i.i.i.i.i.i.Q n Q i.i.i.i.i.i.i.i.i.{ r.r.r.r.r.{ r.r.r.r.r.{ i.i.",
"i.r.  o $.O ..r.X.= + +  .r.i.i.i.i.i.i.i.i.i.Q n Q i.i.i.i.i.i.i.i.i.r.  o $.O ..r.X.= + +  .r.i.i.",
"i.r.o # # # O r.  $.O   6.r.i.i.i.i.i.i.i.i.i.Q * Q i.i.i.i.i.i.i.i.i.r.o # # # O r.  $.O   6.r.i.i.",
"i.r.  o $.O ..r.X.= + +  .r.i.i.i.i.i.i.i.i.i.Q * Q i.i.i.i.i.i.i.i.i.r.  o $.O ..r.X.= + +  .r.i.i.",
"i.[ r.r.r.r.r.[ r.r.r.r.r.[ i.i.i.i.i.i.i.i.i.Q =.Q i.i.i.i.i.i.i.i.i.[ r.r.r.r.r.[ r.r.r.r.r.[ i.i.",
"i.t.5.A A q 5.t.i & & 6 d t.i.i.i.i.i.i.i.i.i.Q =.Q i.i.i.i.i.i.i.i.i.t.5.A A q 5.t.i & & 6 d t.i.i.",
"i.t.A 1 1 1 q t.& v > > N t.i.i.i.~ Q ~ i.i.&.D T D &.i.i.~ Q ~ i.i.i.t.A 1 1 1 q t.& v > > N t.i.i.",
"i.t.A 1 1 K & t.& > > a S t.i.i.~ Q n Q i.&.7.b =.b 7.&.i.Q p Q ~ i.i.t.A 1 1 K & t.& > > a S t.i.i.",
"i.t.q K K v & t.N > a a B t.i.~ Q n * Q Q D b :.M M b D Q Q p y Q ~ i.t.q K K v & t.N > a a B t.i.i.",
"i.t.i & & & d t.4.S B | 7 t.i.Q n * * =.=.T :.G 2.G M p p p y y y Q i.t.i & & & d t.4.S B | 7 t.i.i.",
"i./ t.t.t.t.t./ t.t.t.t.t./ i.~ Q * =.Q Q Q 2.,.9.,.2.Q Q Q y y Q ~ i./ t.t.t.t.t./ t.t.t.t.t./ i.i.",
"i.t.d 6 6 N 4.t.7 V V % , t.i.i.~ Q =.Q i.i.i.i.i.i.i.i.i.Q y Q ~ i.i.t.d 6 6 N 4.t.7 V V % , t.i.i.",
"i.t.6 > a a B t.| f f s % t.i.i.i.~ Q ~ i.i.i.i.i.i.i.i.i.~ Q ~ i.i.i.t.6 > a a B t.| f f s % t.i.i.",
"i.t.N a a $ V t.% f s 3.L t.i.i.i.i.i.i.i.i.i.i.i.i.i.i.i.i.i.i.i.i.i.t.N a a $ V t.% f s 3.L t.i.i.",
"i.t.S $ $ $ V t.% s 3.1.C t.i.i.i.i.i.i.i.i.i.i.i.i.i.i.i.i.i.i.i.i.i.t.S $ $ $ V t.% s 3.1.C t.i.i.",
"i.t.7 | V % , t., L L C , t.i.i.i.i.i.i.i.i.i.i.i.i.i.i.i.i.i.i.i.i.i.t.7 | V % , t., L L C , t.i.i.",
"i./ t.t.t.t.t./ t.t.t.t.t./ i.i.i.i.i.i.i.i.i.i.i.i.i.i.i.i.i.i.i.i.i./ t.t.t.t.t./ t.t.t.t.t./ i.i.",
"i.i.i.i.i.i.i.i.i.i.i.i.i.i.i.i.i.i.i.i.i.i.i.i.i.i.i.i.i.i.i.i.i.i.i.i.i.i.i.i.i.i.i.i.i.i.i.i.i.i.",
"i.i.i.i.i.i.i.i.i.i.i.i.i.i.i.i.i.i.i.i.i.i.i.i.i.i.i.i.i.i.i.i.i.i.i.i.i.i.i.i.i.i.i.i.i.i.i.i.i.i.",
"i.i.i.i.i.i.i.i.i.i.i.i.i.i.i.i.i.i.i.i.i.i.i.i.i.i.i.i.i.i.i.i.i.i.i.i.i.i.i.i.i.i.i.i.i.i.i.i.i.i."
};
