/* XPM */
static char * ex_scan_xpm[] = {
"50 50 6 1",
" 	c None",
".	c #FFFFFF",
"+	c #000000",
"@	c #666666",
"#	c #A64040",
"$	c #FFD6D6",
"..................................................",
"..................................................",
"..................................................",
"..................................................",
"..................................................",
"..................................................",
"...............+++++++++++++++++++++++++++++++++..",
"...............+@@@@@@@+@@@@@@@+@@@@@@@+@@@@@@@+..",
"....@@@@@......+@@@@@@@+@@@@@@@+@@@@@@@+@@@@@@@+..",
"....@###@......+++++++++++++++++++++++++++++++++..",
"....@###@......+$$$$$$$+$$$$$$$+$$$$$$$+$$$$$$$+..",
"....@###@......+$$$$$$$+$$$$$$$+$$$$$$$+$$$$$$$+..",
"....@###@......+$$$$$$$+$$$$$$$+$$$$$$$+$$$$$$$+..",
"....@###@......+$$$$$$$+$$$$$$$+$$$$$$$+$$$$$$$+..",
"....@###@......+$$$$$$$+$$$$$$$+$$$$$$$+$$$$$$$+..",
"....@###@......+++++++++++++++++++++++++++++++++..",
"....@###@......+$$$$$$$+$$$$$$$+$$$$$$$+$$$$$$$+..",
"....@###@......+$$$$$$$+$$$$$$$+$$$$$$$+$$$$$$$+..",
"....@###@......+$$$$$$$+$$$$$$$+$$$$$$$+$$$$$$$+..",
"....@###@......+$$$$$$$+$$$$$$$+$$$$$$$+$$$$$$$+..",
"....@###@......+$$$$$$$+$$$$$$$+$$$$$$$+$$$$$$$+..",
"....@###@......+++++++++++++++++++++++++++++++++..",
"....@###@......+$$$$$$$+$$$$$$$+$$$$$$$+$$$$$$$+..",
"....@###@......+$$$$$$$+$$$$$$$+$$$$$$$+$$$$$$$+..",
"....@###@......+$$$$$$$+$$$$$$$+$$$$$$$+$$$$$$$+..",
"....@###@......+$$$$$$$+$$$$$$$+$$$$$$$+$$$$$$$+..",
"....@###@......+$$$$$$$+$$$$$$$+$$$$$$$+$$$$$$$+..",
"....@###@......+++++++++++++++++++++++++++++++++..",
"....@###@......+$$$$$$$+$$$$$$$+$$$$$$$+$$$$$$$+..",
"....@###@......+$$$$$$$+$$$$$$$+$$$$$$$+$$$$$$$+..",
"....@###@......+$$$$$$$+$$$$$$$+$$$$$$$+$$$$$$$+..",
"....@###@......+$$$$$$$+$$$$$$$+$$$$$$$+$$$$$$$+..",
"....@###@......+$$$$$$$+$$$$$$$+$$$$$$$+$$$$$$$+..",
".@@@@###@@@@...+++++++++++++++++++++++++++++++++..",
".@#########@...+$$$$$$$+$$$$$$$+$$$$$$$+$$$$$$$+..",
"..@#######@....+$$$$$$$+$$$$$$$+$$$$$$$+$$$$$$$+..",
"...@#####@.....+$$$$$$$+$$$$$$$+$$$$$$$+$$$$$$$+..",
"....@###@......+$$$$$$$+$$$$$$$+$$$$$$$+$$$$$$$+..",
".....@#@.......+$$$$$$$+$$$$$$$+$$$$$$$+$$$$$$$+..",
"......@........+++++++++++++++++++++++++++++++++..",
"..................................................",
"..................................................",
"..................................................",
"..................................................",
"..................................................",
"..................................................",
"..................................................",
"..................................................",
"..................................................",
".................................................."};
