/* XPM */
static char * ex_tidscan_xpm[] = {
"50 50 128 2",
"  	c None",
". 	c #EAEAEA",
"+ 	c #BABABA",
"@ 	c #E1CA69",
"# 	c #EAF1F9",
"$ 	c #C0C0C0",
"% 	c #A5A5A5",
"& 	c #BEBEBE",
"* 	c #C99C43",
"= 	c #6B99D2",
"- 	c #CDCDCD",
"; 	c #FEFEFF",
"> 	c #818181",
", 	c #BCD4EB",
"' 	c #EDEDED",
") 	c #B4B4B4",
"! 	c #85ADDB",
"~ 	c #8E8E8E",
"{ 	c #AEC9E7",
"] 	c #99BBE1",
"^ 	c #F7E769",
"/ 	c #D6D6D6",
"( 	c #B0CCE8",
"_ 	c #AAAAAA",
": 	c #8C8A88",
"< 	c #ACACAC",
"[ 	c #EAD36A",
"} 	c #919191",
"| 	c #C9A668",
"1 	c #E6E6E6",
"2 	c #B7B7B7",
"3 	c #C9A058",
"4 	c #B8914B",
"5 	c #DCDCDC",
"6 	c #C8C8C8",
"7 	c #DDCEB3",
"8 	c #969696",
"9 	c #D0D0D0",
"0 	c #C5C5C5",
"a 	c #E3ECF7",
"b 	c #999999",
"c 	c #D9D9D9",
"d 	c #CADBEF",
"e 	c #E1E1E1",
"f 	c #7BA6D8",
"g 	c #F5E146",
"h 	c #C6C6C6",
"i 	c #93B6DF",
"j 	c #B8B8B8",
"k 	c #ABC6E6",
"l 	c #E8E8E8",
"m 	c #CECECE",
"n 	c #DEC168",
"o 	c #9F9F9F",
"p 	c #DFDFDF",
"q 	c #8CB1DD",
"r 	c #C4953B",
"s 	c #E9E4DB",
"t 	c #CDE5F1",
"u 	c #A5C2E4",
"v 	c #B5D0E9",
"w 	c #E4E4E4",
"x 	c #A0A0A0",
"y 	c #D0E6F2",
"z 	c #C2DAEE",
"A 	c #CACACA",
"B 	c #858585",
"C 	c #BDD8ED",
"D 	c #D8B55C",
"E 	c #EDD67A",
"F 	c #A1C1E3",
"G 	c #D5E3F3",
"H 	c #A6C5E4",
"I 	c #9B9B9B",
"J 	c #C9E3F0",
"K 	c #C1D6ED",
"L 	c #D3AB52",
"M 	c #719ED4",
"N 	c #C5DEEE",
"O 	c #75A1D6",
"P 	c #D9E5F4",
"Q 	c #D4B989",
"R 	c #CBE4F1",
"S 	c #C5E0EE",
"T 	c #D9EBF5",
"U 	c #C1DFEF",
"V 	c #D2D2D2",
"W 	c #BCBCBC",
"X 	c #C3C3C3",
"Y 	c #BDBDBD",
"Z 	c #AFAFAF",
"` 	c #B0B0B0",
" .	c #A3A3A3",
"..	c #878787",
"+.	c #9C9C9C",
"@.	c #949494",
"#.	c #F0F0F0",
"$.	c #D6EAF4",
"%.	c #FBE65A",
"&.	c #BA9A60",
"*.	c #D0BC98",
"=.	c #D5C7AE",
"-.	c #F5DE38",
";.	c #DEDBD7",
">.	c #CEA74F",
",.	c #E1D5C0",
"'.	c #BEA475",
").	c #EBE9E4",
"!.	c #CCB284",
"~.	c #9E9B97",
"{.	c #C8B390",
"].	c #F8FAFD",
"^.	c #C5E1F0",
"/.	c #7FA7D9",
"(.	c #A3C3E4",
"_.	c #EBDE85",
":.	c #A3C5E4",
"<.	c #79A4D7",
"[.	c #D1E0F1",
"}.	c #AB9F8A",
"|.	c #CFC7B9",
"1.	c #F0F4FA",
"2.	c #E0D2BA",
"3.	c #C7D8EE",
"4.	c #CBBBA0",
"5.	c #C1BFBB",
"6.	c #F1E97E",
"7.	c #F1E255",
"                                                                                                    ",
"                                                                                                    ",
"                                                                                                    ",
"                                                                                                    ",
"                                                                                                    ",
"                                                                                                    ",
"                                                                                                    ",
"                                                                                                    ",
"                                        [.i , ;                                                     ",
"                                        i K ] u #                                                   ",
"                                    1.P 3.i T k q d                                                 ",
"                            a K u ! O ! i H R t C M k                                               ",
"                    ; G { q /.] { C y $.$.y ^.U J T =                                               ",
"                # , = ! (., y y y z H q f M v U R f k                                               ",
"            1.v O ] v t t J H ! M = k d a ( F J ] u                                                 ",
"          d M ] C J S k ! = k G 1.;       G ! N /.;                                                 ",
"        d q v ^.C F O F P ].                , /.,                                                   ",
"        ] ( U :.<.{ #                                                                               ",
"        P = q u a                                                                                   ",
"          ].d                                                                                       ",
"                                    s =.{.'.&.4 4 r : > > > ..~ 8 x < W - 5 #.                      ",
"                              e 5.}.* >.D n @ [ [ E r 2.).1 e c V 6 $ ) _ b ~  .$ e                 ",
"                          1 ) ~.r >.n _.6.^ 7.g -.g [ | p 5 / / 9 9 - A 6 6 6 W < 8 ) 1             ",
"                        p 8 0 ' ).,.Q 3 r L n [ %.%.^ D *./ V m A h X $ W + + + $ 0 ) } p           ",
"                        _ - ' . . . . . s 7 Q 3 r L n E * |.- 6 0 $ & + j 2 ) ) ) 2 $ W _           ",
"                        _ - ' . . . . . . 1 1 e ;.=.!.| 4.- 6 0 $ Y + j 2 ) ) ) ) 2 $ W _           ",
"                        6 8 0 ' ' . . . 1 w e p c / V - A h X $ W + 2 ) ) ) 2 + $ 0 ) } 6           ",
"                        _ & < +.+ V l . 1 w p 5 / V m 6 0 $ $ Y + + W & $ X 0 + < 8 I ` _           ",
"                        _ - ' 9 2 o ~ o < + X A m V V V 9 - 6 0 $ W 2 Z % b : ~ I _ $ W _           ",
"                        6 8 0 ' ' . 5 - Y Z  .b } : B > > > B ..: ~ @.b x % ` + $ 0 ) } 6           ",
"                        _ & < +.+ V l . 1 w p 5 / V m 6 0 $ $ Y + + W & $ X 0 + < 8 I ` _           ",
"                        _ - ' 9 2 o ~ o < + X A m V V V 9 - 6 0 $ W 2 Z % b : ~ I _ $ W _           ",
"                        6 8 0 ' ' . 5 - Y Z  .b } : B > > > B ..: ~ @.b x % ` + $ 0 ) } 6           ",
"                        _ & < +.+ V l . 1 w p 5 / V m 6 0 $ $ Y + + W & $ X 0 + < 8 I ` _           ",
"                        _ - ' 9 2 o ~ o < + X A m V V V 9 - 6 0 $ W 2 Z % b : ~ I _ $ W _           ",
"                        6 8 0 ' ' . 5 - Y Z  .b } : B > > > B ..: ~ @.b x % ` + $ 0 ) } 6           ",
"                        _ & < +.+ V l . 1 w p 5 / V m 6 0 $ $ Y + + W & $ X 0 + < 8 I ` _           ",
"                        _ - ' 9 2 o ~ o < + X A m V V V 9 - 6 0 $ W 2 Z % b : ~ I _ $ W _           ",
"                        p 8 0 ' ' . 5 - Y Z  .b } : B > > > B ..: ~ @.b x % ` + $ 0 ) } p           ",
"                          1 ) +.+ V l . 1 w p 5 / V m 6 0 $ $ Y + + W & $ X 0 + < 8 ) 1             ",
"                              e $  .~ o < + X A m V V V 9 - 6 0 $ W 2 Z % b :  .$ e                 ",
"                                    #.5 - W < x 8 ~ ..> > > ..~ 8 x < W - 5 #.                      ",
"                                                                                                    ",
"                                                                                                    ",
"                                                                                                    ",
"                                                                                                    ",
"                                                                                                    ",
"                                                                                                    ",
"                                                                                                    ",
"                                                                                                    "};