/* XPM */
static char *file_save_xpm[] = {
/* columns rows colors chars-per-pixel */
"16 16 129 2",
"   c #7092C5",
".  c #E9F5FA",
"X  c #5692DB",
"o  c #7DB6DE",
"O  c #539AD5",
"+  c #F2F9FC",
"@  c #529ED2",
"#  c #51A0D1",
"$  c #C4E8F5",
"%  c #CDECF7",
"&  c #7ABFD7",
"*  c #539CD4",
"=  c #DEF1F9",
"-  c #529DD3",
";  c #CBECF7",
":  c #5595D8",
">  c #E3F3F9",
",  c #94BEE6",
"<  c #578DDE",
"1  c #3C7CC6",
"2  c #578FDD",
"3  c #D2EEF8",
"4  c #D4EFF8",
"5  c #BCE5F4",
"6  c #CBEAF5",
"7  c #3B80C4",
"8  c #81AAE7",
"9  c #DAF0F8",
"0  c #80AFE3",
"q  c #E5F3FA",
"w  c #51A2CF",
"e  c #82A9E7",
"r  c #81A9E7",
"t  c #E6F5FB",
"y  c #C8EBF7",
"u  c #5594DA",
"i  c #5690DC",
"p  c #E5F5FB",
"a  c #9BD0E1",
"s  c #7CBCDA",
"d  c #7DB9DC",
"f  c #7BBED8",
"g  c #529FD2",
"h  c #7DB7DD",
"j  c #C4EAF7",
"k  c #5498D7",
"l  c #3C7AC8",
"z  c #80ADE5",
"x  c #80AEE4",
"c  c #539BD4",
"v  c #81ABE6",
"b  c #7BBDD9",
"n  c #E4F3F9",
"m  c #B6E4F4",
"M  c #5595D9",
"N  c #BDE8F6",
"B  c #E6F4FA",
"V  c #5EA0D8",
"C  c #7CBADA",
"Z  c #5496D8",
"A  c #C5EAF7",
"S  c #D6F1FA",
"D  c #B4E3F4",
"F  c #7FB0E2",
"G  c #ADE1F3",
"H  c #D2ECF6",
"J  c #7FB3E0",
"K  c #94C1E4",
"L  c #5499D6",
"P  c #5593DA",
"I  c #9DC9E6",
"U  c #E7F4FA",
"Y  c #A1BDED",
"T  c #D8F1FA",
"R  c #81AAE6",
"E  c #EAF6FB",
"W  c #E7F6FB",
"Q  c #BFE8F6",
"!  c #3D79C9",
"~  c #578EDE",
"^  c #5497D7",
"/  c #C7EBF7",
"(  c #C0E9F7",
")  c #5690DD",
"_  c #7EB4E0",
"`  c #C3EAF7",
"'  c #DCF1F8",
"]  c #B1B1B1",
"[  c #2C66BD",
"{  c #D0D0D0",
"}  c black",
"|  c black",
" . c black",
".. c black",
"X. c black",
"o. c black",
"O. c black",
"+. c black",
"@. c black",
"#. c black",
"$. c black",
"%. c black",
"&. c black",
"*. c black",
"=. c black",
"-. c black",
";. c black",
":. c black",
">. c black",
",. c black",
"<. c black",
"1. c black",
"2. c black",
"3. c black",
"4. c black",
"5. c black",
"6. c black",
"7. c black",
"8. c black",
"9. c black",
"0. c black",
"q. c black",
"w. c black",
"e. c black",
"r. c black",
"t. c black",
"y. c black",
"u. c black",
"i. c None",
/* pixels */
"i.i.i.i.i.i.i.i.i.i.i.i.i.i.i.i.",
"i.  [ [ [ [ [ [ [ [ [ [ [ [   i.",
"i.[ a [ + . . B > = 9 t [ I [ i.",
"i.[ & [ . ] ] ] ] ] ] % [ o [ i.",
"i.[ & [ q H 6 $ 5 D G A [ _ [ i.",
"i.[ f [ = ] ] ] ] ] ] Q [ J [ i.",
"i.[ b [ W 3 % y j ( N S [ F [ i.",
"i.[ s 7 [ [ [ [ [ [ [ [ l 0 [ i.",
"i.[ C w # g - * O L ^ : u x [ i.",
"i.[ d # @ - c O k Z M P X z [ i.",
"i.[ h @ 1 [ [ [ [ [ ! X i v [ i.",
"i.[ o * [ + . n ' p [ ) 2 R [ i.",
"i.[ K V [ U [ $ m / [ ~ < r [ i.",
"i.  [ , [ E 4 ; ` T [ 8 e Y [ i.",
"i.i.  [ [ [ [ [ [ [ [ [ [ [   i.",
"i.i.i.i.i.i.i.i.i.i.i.i.i.i.i.i."
};
