/* XPM */
static char * foreignkey_xpm[] = {
"16 16 29 1",
" 	c None",
".	c #BCBCBC",
"+	c #8F8F8F",
"@	c #858585",
"#	c #B4B4B4",
"$	c #D5D5D5",
"%	c #B3B3B3",
"&	c #E1E1E1",
"*	c #DCDCDC",
"=	c #D7D7D7",
"-	c #DADADA",
";	c #B1B1B1",
">	c #797979",
",	c #B0B0B0",
"'	c #E0E0E0",
")	c #D9D9D9",
"!	c #CECECE",
"~	c #D1D1D1",
"{	c #D8D8D8",
"]	c #D3D3D3",
"^	c #D4D4D4",
"/	c #E3E3E3",
"(	c #DFDFDF",
"_	c #CCCCCC",
":	c #D0D0D0",
"<	c #ABABAB",
"[	c #A9A9A9",
"}	c #D2D2D2",
"|	c #848484",
"                ",
"                ",
"                ",
"                ",
"  .++.          ",
" @#$$%@         ",
".#&*=-;>>>>>>>, ",
"+$'>)!~{-{=]^/> ",
"+$(>)_:)<*[^{>, ",
".#()]$,>,>,>>,  ",
" @%}:;|         ",
"  .++.          ",
"                ",
"                ",
"                ",
"                "};
