/* XPM */
static char *foreignkey_xpm[] = {
/* columns rows colors chars-per-pixel */
"16 16 33 1",
"  c #D5D5D5",
". c gray85",
"X c gray52",
"o c #B4B4B4",
"O c #D8D8D8",
"+ c #D0D0D0",
"@ c gray83",
"# c gray70",
"$ c LightGray",
"% c #D7D7D7",
"& c #B1B1B1",
"* c #DFDFDF",
"= c #DADADA",
"- c gainsboro",
"; c #848484",
": c gray80",
"> c #D2D2D2",
", c #A9A9A9",
"< c gray82",
"1 c #E1E1E1",
"2 c gray89",
"3 c gray67",
"4 c gray88",
"5 c #CECECE",
"6 c #BCBCBC",
"7 c gray56",
"8 c gray69",
"9 c #F1F1F1",
"0 c #797979",
"q c gray100",
"w c black",
"e c black",
"r c None",
/* pixels */
"rrrrrrrrrrrrrrrr",
"rrrrrrrrrrrrrrrr",
"rrrrrrrrrrrrrrrr",
"rrrrrrrrrrrrrrrr",
"r967769rrrrrrrrr",
"9Xo  #X9rrrrrrrr",
"6o1-%=&00000008r",
"7 40.5<O=O%$@20r",
"7 *0.:+.3-,@O08r",
"6o*.$ 80808008rr",
"9X#>+&;9rrrrrrrr",
"r967769rrrrrrrrr",
"rrrrrrrrrrrrrrrr",
"rrrrrrrrrrrrrrrr",
"rrrrrrrrrrrrrrrr",
"rrrrrrrrrrrrrrrr"
};
