/* XPM */
static char * function_xpm[] = {
"16 16 4 1",
" 	c None",
".	c #040404",
"+	c #FF0101",
"@	c #FFFD01",
"   ....         ",
"  ..+++.        ",
" .++.....       ",
"..+++.+++.      ",
".++.+.....      ",
".+...+.++....   ",
".++.++....@@@.  ",
"..+++...@@..... ",
" .+++...@@@.@@@.",
" ......@@.@.....",
"   ....@...@.@@.",
"      .@@.@@....",
"      ..@@@..@@.",
"       .@@@.....",
"       .....@@. ",
"         .....  "};
