/* XPM */
static char * functions_xpm[] = {
"16 16 17 1",
" 	c None",
".	c #95ACE2",
"+	c #4A72CD",
"@	c #A5D4FC",
"#	c #8EA9E2",
"$	c #698AD5",
"%	c #C1E5F5",
"&	c #7BA1DD",
"*	c #577CD1",
"=	c #9DC7EE",
"-	c #6C95DB",
";	c #7AA1E6",
">	c #EFF7FF",
",	c #F3FBFC",
"'	c #6487E0",
")	c #6C91E2",
"!	c #8AB2E8",
"   .+++.        ",
"   +@@@+.       ",
"   .+#+++$      ",
".+++++@@@+$     ",
"+%%%%&+#+++*    ",
"+=-+++++@@@+$   ",
"+;+%%%%&+>>>+$  ",
".++=-+++++,,,+. ",
"  +;+%%%%%%%%%+.",
"  .++==========+",
"   .+;;;;;;;;;+.",
"    .+++++'''+. ",
"     .+++)))+.  ",
"       +!!!+.   ",
"       .+++.    ",
"                "};
