/* XPM */
static char * function_xpm[] = {
"16 16 14 1",
" 	c None",
".	c #95ACE2",
"+	c #4A72CD",
"@	c #A5D4FC",
"#	c #E1F1FF",
"$	c #FDFFFE",
"%	c #DEF3F9",
"&	c #B4DCF3",
"*	c #9AC3ED",
"=	c #7DA4E7",
"-	c #678CE1",
";	c #6488E0",
">	c #769BE4",
",	c #8FB8E9",
"                ",
"      .++.      ",
"     .+@@+.     ",
"     +####+.    ",
"     .+$$$$+.   ",
" .++++++%%%%+.  ",
" +&&&&&&&&&&&+. ",
" +************+ ",
" +===========+. ",
" .++++++----+.  ",
"     .+;;;;+.   ",
"     +>>>>+.    ",
"     .+,,+.     ",
"      .++.      ",
"                ",
"                "};
