/* XPM */
static char *group_xpm[] = {
/* columns rows colors chars-per-pixel */
"16 16 129 2",
"   c gray94",
".  c #F7EAE6",
"X  c #9B9B9B",
"o  c #F7EAE3",
"O  c #BFE1F1",
"+  c #FFDC9D",
"@  c #C4E3F1",
"#  c #F7EAE8",
"$  c #C9E5F1",
"%  c #BBDFF1",
"&  c #FFDDA0",
"*  c #8F8071",
"=  c #62625F",
"-  c #A7A7A7",
";  c #A7A099",
":  c #90AA5F",
">  c #C8FB66",
",  c #CDE7F1",
"<  c #969588",
"1  c #626161",
"2  c #A6A09C",
"3  c #A6A09F",
"4  c #C2F560",
"5  c #A4A192",
"6  c #FFDFA7",
"7  c #C1F45F",
"8  c #B6DDF2",
"9  c #F3EDCD",
"0  c #A5A191",
"q  c #DDD1CA",
"w  c #DCD1D4",
"e  c #E1E1E1",
"r  c gray47",
"t  c #E4E0C3",
"y  c #D1B08C",
"u  c #F7EAEB",
"i  c #DCD1D2",
"p  c #F8EAE1",
"a  c #A6A0A2",
"s  c #5A5A5A",
"d  c #DAD4B9",
"f  c gray75",
"g  c #DDD1C8",
"h  c #D9D4B9",
"j  c #988670",
"k  c #FFDA97",
"l  c #FFE0AA",
"z  c #5A5856",
"x  c #696D6F",
"c  c #C7FA65",
"v  c #CEAE8C",
"b  c #C5B28F",
"n  c #A2C462",
"m  c #C2A581",
"M  c #939FA2",
"N  c #5E5C5A",
"B  c #9BB2BC",
"V  c #948470",
"C  c #FFD68E",
"Z  c #D5B38B",
"A  c #FADBA5",
"S  c #FFD791",
"D  c #686D6F",
"F  c #BFA87E",
"G  c #B89F83",
"H  c #C0F261",
"J  c #E1C38B",
"K  c #8BA45C",
"L  c #5A5957",
"P  c #595858",
"I  c #CAFD68",
"U  c #B3DBF2",
"Y  c #AA9879",
"T  c #CAAC8D",
"R  c #DCC499",
"E  c #736E65",
"W  c #626160",
"Q  c #928271",
"!  c #9EBE61",
"~  c #AD9E83",
"^  c #B9CBD0",
"/  c #AED760",
"(  c #697258",
")  c #585A56",
"_  c #585955",
"`  c #90AA5D",
"'  c #AA9A7F",
"]  c #C3A687",
"[  c #C0A482",
"{  c #CAE3ED",
"}  c #F8EADF",
"|  c #605D5A",
" . c #908170",
".. c #C8AA86",
"X. c #CCAD8C",
"o. c #6C7070",
"O. c #67625C",
"+. c #B3DD62",
"@. c #B79E84",
"#. c #A3A192",
"$. c #8A9CA5",
"%. c #6B7657",
"&. c #9D9B8C",
"*. c #AAB8BB",
"=. c #626162",
"-. c #F2EECE",
";. c #E2E2E2",
":. c #A4A292",
">. c #97A3A5",
",. c #D8B58A",
"<. c #D2E9F0",
"1. c #F7EAED",
"2. c #D3B28B",
"3. c #C5F863",
"4. c #F4EDCD",
"5. c #676D71",
"6. c #65615D",
"7. c #A0C0D2",
"8. c #958470",
"9. c #62615F",
"0. c #716B61",
"q. c #C3F661",
"w. c #AED6EE",
"e. c #F3EDCE",
"r. c #AAAAAA",
"t. c #717171",
"y. c #555555",
"u. c gray100",
"i. c None",
/* pixels */
"i.i.  r.t.t.r.  i.i.i.i.i.i.i.i.",
"i.  9.0 d h 5 = ;.r.t.t.r.  i.i.",
"i.r.0 4.9 e.e.&.N * @.G Q N   i.",
"i.t.d 9 e.e.-.< * T X.v y V r.i.",
"i.t.h e.e.t #.P 6. .] y 2.[ t.i.",
"i.r.5 e.t W ; g q 2 1 ..Z m t.i.",
"i.f = :.< ; } p o . 3 8.,.j r.i.",
"e E b ' L g p o . # i O.j | f i.",
"- ~ l 6 0.q o . # u w ) : n ( e ",
"r R 6 & Y 2 . # u 1.a : I > ` - ",
"s A & + F 1 3 i w a =.! > c / r ",
"y.& + J o.*.M x D $.B 5.+.3.H s ",
"y.+ k y.>.<., $ @ O % $.K q.4 y.",
"y.k S y.^ , $ @ O % 8 7.%.4 7 y.",
"X y.C z { $ @ O % 8 U w._ 7 y.X ",
"i.X y.y.y.y.y.y.y.y.y.y.y.y.X i."
};
