/* XPM */
static char *groups_xpm[] = {
/* columns rows colors chars-per-pixel */
"16 16 129 2",
"   c #D0C5BC",
".  c #808080",
"X  c #CFC5C7",
"o  c #F3EDCE",
"O  c gray49",
"+  c #CCC7AF",
"@  c gray97",
"#  c #CBC8B0",
"$  c #CDC7AF",
"%  c #8B8785",
"&  c #D0C5BE",
"*  c #CFC5C4",
"=  c #8A887D",
"-  c #F7EAE4",
";  c #B7B7B7",
":  c #819097",
">  c #9EB3BC",
",  c #CBC8B1",
"<  c #585A5A",
"1  c #F7EAE8",
"2  c #BEE0F1",
"3  c #8B8788",
"4  c #FFDFA7",
"5  c #CAE6F1",
"6  c #F3EDCD",
"7  c #C4E3F1",
"8  c #F9DAA4",
"9  c #FFDC9D",
"0  c #9FBBCA",
"q  c #CFAF8C",
"w  c #F8EAE1",
"e  c #7F7667",
"r  c #B79D7E",
"t  c #C5B28F",
"y  c #8B8782",
"u  c #D4BE97",
"i  c #8A877D",
"p  c #FFD488",
"a  c #AC967F",
"s  c #5A5A58",
"d  c #9D927D",
"f  c #565656",
"g  c #717171",
"h  c #FFD791",
"j  c #F2EECE",
"k  c #817567",
"l  c #7B7168",
"z  c #5F5C58",
"x  c #879D5C",
"c  c #A1C260",
"v  c #797673",
"b  c #65696B",
"n  c #C5AE84",
"m  c #CCE3EB",
"M  c #908070",
"N  c #716B62",
"B  c #B3D8EB",
"V  c #62625F",
"C  c #8C9597",
"Z  c #585A56",
"A  c #D4B174",
"S  c #9CB6C4",
"D  c #A3A192",
"F  c #9AB1BC",
"G  c #5A5957",
"H  c #616656",
"J  c #6F7B58",
"K  c #D0E8F0",
"L  c #7D7A78",
"P  c #727F5A",
"I  c #595A5A",
"U  c #89887E",
"Y  c #D3B28B",
"T  c #73716F",
"R  c #717D5A",
"E  c #5D5F57",
"W  c #6F767A",
"Q  c #9D8B6B",
"!  c #A59FA0",
"~  c #C0B7B1",
"^  c #72797C",
"/  c #C0B7B3",
"(  c #B8DEF2",
")  c #5F5F5F",
"_  c #FFD17F",
"`  c #B49B7E",
"'  c gray35",
"]  c #71777A",
"[  c #5C5E5F",
"{  c #7F7769",
"}  c #A9B7BB",
"|  c #7E7367",
" . c #B4C4C8",
".. c #CCAD8C",
"X. c #92ABB8",
"o. c #73797B",
"O. c #726F6F",
"+. c #B1D7EC",
"@. c #8AA0AC",
"#. c #C5AB7D",
"$. c #948370",
"%. c #AF977E",
"&. c #F9C974",
"*. c gray63",
"=. c #C5C5C5",
"-. c gray50",
";. c #5B5B5B",
":. c #555555",
">. c gray100",
",. c black",
"<. c black",
"1. c black",
"2. c black",
"3. c black",
"4. c black",
"5. c black",
"6. c black",
"7. c black",
"8. c black",
"9. c black",
"0. c black",
"q. c black",
"w. c black",
"e. c black",
"r. c black",
"t. c black",
"y. c black",
"u. c black",
"i. c None",
/* pixels */
"i.i.=.-.-.=.i.i.i.i.=.-.-.=.i.i.",
"i.=.i $ + = =.=.-.g v   & % =.i.",
"i.-.$ 6 o # g l a %.| ~ - * -.i.",
"i.O + o j , ) a ..q ` L 1 X O i.",
"@ s = # D V :.M q Y r O.X 3 < @ ",
"; d t N y   & % $.r k Z ] > : ; ",
". u 4 e   w - * E P x H b F 0 . ",
";.8 n z T / 1 X R c i $ + = X.;.",
"*.' y   & % ! 3 < J $ 6 o # f *.",
"i.-.  w - * [ > : :.+ o j , O i.",
"i.O & - 1 X W 2 S s = # , U G @ ",
"@ I % * X 3 < B @.d t { e #.Q ; ",
"; C } o.^ > : :.f u 4 9 h p A . ",
".  .K 5 7 2 0 . ;.8 9 h p _ &.;.",
";.m 5 7 2 ( +.;.*.;.:.:.:.:.;.*.",
"*.;.:.:.:.:.;.*.i.i.i.i.i.i.i.i."
};
