/* XPM */
static char * group_xpm[] = {
"16 16 125 2",
"  	c None",
". 	c #AAAAAA",
"+ 	c #717171",
"@ 	c #62615F",
"# 	c #A5A191",
"$ 	c #DAD4B9",
"% 	c #D9D4B9",
"& 	c #A4A192",
"* 	c #F4EDCD",
"= 	c #F3EDCD",
"- 	c #F3EDCE",
"; 	c #9D9B8C",
"> 	c #5E5C5A",
", 	c #8F8071",
"' 	c #B79E84",
") 	c #B89F83",
"! 	c #928271",
"~ 	c #F2EECE",
"{ 	c #969588",
"] 	c #CAAC8D",
"^ 	c #CCAD8C",
"/ 	c #CEAE8C",
"( 	c #D1B08C",
"_ 	c #948470",
": 	c #E4E0C3",
"< 	c #A3A192",
"[ 	c #595858",
"} 	c #65615D",
"| 	c #908170",
"1 	c #C3A687",
"2 	c #D3B28B",
"3 	c #C0A482",
"4 	c #626160",
"5 	c #A7A099",
"6 	c #DDD1C8",
"7 	c #DDD1CA",
"8 	c #A6A09C",
"9 	c #626161",
"0 	c #C8AA86",
"a 	c #D5B38B",
"b 	c #C2A581",
"c 	c #BFBFBF",
"d 	c #62625F",
"e 	c #A4A292",
"f 	c #F8EADF",
"g 	c #F8EAE1",
"h 	c #F7EAE3",
"i 	c #F7EAE6",
"j 	c #A6A09F",
"k 	c #958470",
"l 	c #D8B58A",
"m 	c #988670",
"n 	c #736E65",
"o 	c #C5B28F",
"p 	c #AA9A7F",
"q 	c #5A5957",
"r 	c #F7EAE8",
"s 	c #DCD1D2",
"t 	c #67625C",
"u 	c #605D5A",
"v 	c #A7A7A7",
"w 	c #AD9E83",
"x 	c #FFE0AA",
"y 	c #FFDFA7",
"z 	c #716B61",
"A 	c #F7EAEB",
"B 	c #DCD1D4",
"C 	c #585A56",
"D 	c #90AA5F",
"E 	c #A2C462",
"F 	c #697258",
"G 	c #787878",
"H 	c #DCC499",
"I 	c #FFDDA0",
"J 	c #AA9879",
"K 	c #F7EAED",
"L 	c #A6A0A2",
"M 	c #CAFD68",
"N 	c #C8FB66",
"O 	c #90AA5D",
"P 	c #5A5A5A",
"Q 	c #FADBA5",
"R 	c #FFDC9D",
"S 	c #BFA87E",
"T 	c #626162",
"U 	c #9EBE61",
"V 	c #C7FA65",
"W 	c #AED760",
"X 	c #555555",
"Y 	c #E1C38B",
"Z 	c #6C7070",
"` 	c #AAB8BB",
" .	c #939FA2",
"..	c #696D6F",
"+.	c #686D6F",
"@.	c #8A9CA5",
"#.	c #9BB2BC",
"$.	c #676D71",
"%.	c #B3DD62",
"&.	c #C5F863",
"*.	c #C0F261",
"=.	c #FFDA97",
"-.	c #97A3A5",
";.	c #D2E9F0",
">.	c #CDE7F1",
",.	c #C9E5F1",
"'.	c #C4E3F1",
").	c #BFE1F1",
"!.	c #BBDFF1",
"~.	c #8BA45C",
"{.	c #C3F661",
"].	c #C2F560",
"^.	c #FFD791",
"/.	c #B9CBD0",
"(.	c #B6DDF2",
"_.	c #A0C0D2",
":.	c #6B7657",
"<.	c #C1F45F",
"[.	c #9B9B9B",
"}.	c #FFD68E",
"|.	c #5A5856",
"1.	c #CAE3ED",
"2.	c #B3DBF2",
"3.	c #AED6EE",
"4.	c #585955",
"      . + + .                   ",
"    @ # $ % &     . + + .       ",
"  . # * = - - ; > , ' ) ! >     ",
"  + $ = - - ~ { , ] ^ / ( _ .   ",
"  + % - - : < [ } | 1 ( 2 3 +   ",
"  . & - : 4 5 6 7 8 9 0 a b +   ",
"  c d e { 5 f g h i j k l m .   ",
"  n o p q 6 g h i r s t m u     ",
"v w x y z 7 h i r A B C D E F   ",
"G H y I J 8 i r A K L D M N O v ",
"P Q I R S 9 j s B L T U N V W G ",
"X I R Y Z `  ...+.@.#.$.%.&.*.P ",
"X R =.X -.;.>.,.'.).!.@.~.{.].X ",
"X =.^.X /.>.,.'.).!.(._.:.].<.X ",
"[.X }.|.1.,.'.).!.(.2.3.4.<.X [.",
"  [.X X X X X X X X X X X X [.  "};
