/* XPM */
static char * help2_xpm[] = {
"32 32 38 1",
" 	c None",
".	c #848402",
"+	c #D5D500",
"@	c #E8E800",
"#	c #E5E500",
"$	c #CCCC01",
"%	c #727203",
"&	c #292906",
"*	c #CDCD00",
"=	c #FFFF00",
"-	c #9C9C02",
";	c #222206",
">	c #070707",
",	c #252506",
"'	c #D0D001",
")	c #A2A202",
"!	c #969602",
"~	c #A7A701",
"{	c #DFDF00",
"]	c #E2E200",
"^	c #595904",
"/	c #C7C701",
"(	c #747403",
"_	c #ACAC02",
":	c #E6E600",
"<	c #3D3D05",
"[	c #424205",
"}	c #343405",
"|	c #B3B301",
"1	c #EEEE00",
"2	c #DADA00",
"3	c #626204",
"4	c #7C7C03",
"5	c #909003",
"6	c #2D2D05",
"7	c #CFCF00",
"8	c #FAFA00",
"9	c #A5A502",
"                                ",
"                                ",
"                                ",
"                                ",
"                                ",
"           .+@##$%&             ",
"        &*=========-;>          ",
"       ,#===')!~{===#;>         ",
"      >]==#;>    ^===/>>        ",
"      (===;>      (===;>        ",
"     >_==_>>      >===^>        ",
"     >_==:==^>    >===^>        ",
"      (=====_>>   ^===<>        ",
"      ,#====^>   [@==]>>        ",
"       }|123>  }-====^>         ",
"              41===@<>          ",
"            ,#====5>>           ",
"           >]===(>              ",
"           ^===^>               ",
"          >_==/>>               ",
"          >_==_>>               ",
"           ^==^>                ",
"                                ",
"                                ",
"           ^==#;>               ",
"          >====_>>              ",
"          >]===5>>              ",
"           6789>>               ",
"                                ",
"                                ",
"                                ",
"                                "};
