/* XPM */
static char * hint_xpm[] = {
"16 16 5 1",
" 	c None",
".	c #FFFFFF",
"+	c #FF0000",
"@	c #C00000",
"#	c #000000",
"       +@       ",
"      +++@      ",
"      +++@      ",
"     ++..+@     ",
"     ++..+@     ",
"    ++.##.+@    ",
"    ++.##.+@    ",
"   ++..##..+@   ",
"   ++..##..+@   ",
"  ++...##...+@  ",
"  ++........+@  ",
" ++....##....+@ ",
" ++....##....+@ ",
"++............+@",
"++++++++++++++@@",
" @@@@@@@@@@@@@@ "};
