/* XPM */
static char *hint2_xpm[] = {
/* columns rows colors chars-per-pixel */
"16 16 129 2",
"   c gray71",
".  c #A9A9A9",
"X  c #979797",
"o  c #C7E2EC",
"O  c #EAEAEA",
"+  c #A5BBC4",
"@  c gray57",
"#  c gray51",
"$  c gray90",
"%  c #CDCDCD",
"&  c #929292",
"*  c #B4B4B4",
"=  c #888888",
"-  c gray56",
";  c #A29A9A",
":  c gray93",
">  c #F1F1F1",
",  c #9A9A9A",
"<  c LightGray",
"1  c #A7A7A7",
"2  c #E1B1B1",
"3  c #C17D7D",
"4  c gray94",
"5  c #DDDDDD",
"6  c gray89",
"7  c #6A777C",
"8  c gray69",
"9  c #92C9DD",
"0  c #D0C5C5",
"q  c #ECF0F2",
"w  c #CECECE",
"e  c #B6ABAB",
"r  c #E6CFCF",
"t  c #818181",
"y  c gray60",
"u  c #C5C5C5",
"i  c #9A8087",
"p  c #AAAAAA",
"a  c #718E99",
"s  c #CE9090",
"d  c #A29BA2",
"f  c #AD8484",
"g  c gray80",
"h  c #79AABD",
"j  c #C6C6C6",
"k  c #6D8895",
"l  c #A08B8F",
"z  c #7AA1B0",
"x  c #C49384",
"c  c #F2CFC8",
"v  c #858484",
"b  c #72909D",
"n  c #E1E1E1",
"m  c #7B9FAD",
"M  c #C0807D",
"N  c #F8F8F8",
"B  c #BCBCBC",
"V  c #9C807F",
"C  c #D28281",
"Z  c gray88",
"A  c #AEAAA9",
"S  c #A0A0A0",
"D  c #DADADA",
"F  c #B0ACAE",
"G  c #838383",
"H  c #718F9A",
"J  c #939092",
"K  c #938C89",
"L  c #E3A8A8",
"P  c #A3A0A0",
"I  c #B19191",
"U  c #A89487",
"Y  c #C1C1C1",
"T  c #AEABAA",
"R  c #AEAAA8",
"E  c #B69393",
"W  c #B1B0B4",
"Q  c #ECECEC",
"!  c #E2A5A0",
"~  c #D28383",
"^  c gray63",
"/  c gray67",
"(  c #9D9D9D",
")  c #C0C0C0",
"_  c #9B8787",
"`  c #9A8787",
"'  c #F7D3CE",
"]  c #F5CDC0",
"[  c gray91",
"{  c #AAA5A1",
"}  c #A5A5A5",
"|  c gray65",
" . c gray95",
".. c #F1CBC1",
"X. c #958D89",
"o. c #B7B7B7",
"O. c #E3A69D",
"+. c #AEAEAE",
"@. c #A18F96",
"#. c gray70",
"$. c #E4E4E4",
"%. c #F8D5D3",
"&. c #B6938D",
"*. c #F0C3BE",
"=. c #A2A2A2",
"-. c #F6D0C7",
";. c #F1C6C3",
":. c #E5ADAD",
">. c gray62",
",. c #D0D0D0",
"<. c black",
"1. c black",
"2. c black",
"3. c black",
"4. c black",
"5. c black",
"6. c black",
"7. c black",
"8. c black",
"9. c black",
"0. c black",
"q. c black",
"w. c black",
"e. c black",
"r. c black",
"t. c black",
"y. c black",
"u. c black",
"i. c None",
/* pixels */
"i.i.i.j 8 ; f 3 3 f ; 8 j i.i.i.",
"i.i.* - e ~ L ;.*.! C e - * i.i.",
"i.. p 5 2 :.%.' -.] O.2 5 p . i.",
"  1 O r @.b W c ..A a l r O 1   ",
"X w 4 d + q + F T + q + d 4 w X ",
"# $ O k o 7 o H a o 7 o k O $ # ",
"X u 6 i h 9 z R { m 9 h i 6 u X ",
"  >.< s J = , X.= S = K s < >.  ",
"i.. >.I } Q > D $.> [ ( E >.. i.",
"i.i.. & o.y & @ X & ,   - / i.i.",
"i.i.g G ` &.t +.@ U x _ # % i.i.",
"i.i.i.g 0 V % N  .y M 0 % i.i.i.",
"i.i.i.i.i.v $ : : B P i.i.i.i.i.",
"i.i.i.i.i.| =.n Z @ Y i.i.i.i.i.",
"i.i.i.i.i.i.>.* >.^ i.i.i.i.i.i.",
"i.i.i.i.i.i.) t #.i.i.i.i.i.i.i."
};
