/* XPM */
static char * hint2_xpm[] = {
"32 32 18 1",
" 	c None",
".	c #FFDFDF",
"+	c #EFBFBF",
"@	c #FF8080",
"#	c #FF0000",
"$	c #C00000",
"%	c #E08080",
"&	c #FFBFBF",
"*	c #FF4040",
"=	c #FFFFFF",
"-	c #808080",
";	c #000000",
">	c #BFBFBF",
",	c #E04040",
"'	c #E00000",
")	c #D00000",
"!	c #D04040",
"~	c #EF4040",
"               .+               ",
"              @##$%             ",
"            &@*###$%            ",
"            @######$%           ",
"           &@######$%           ",
"           @###@@@##$%          ",
"          &@##*&=&##$%          ",
"          @###@===@##$%         ",
"         &@###&===&##$%         ",
"         @###@=====@##$%        ",
"        &@###&=---=&##$%        ",
"        @###@=-;;;-=@##$%       ",
"       &@###&=-;;;-=&##$%       ",
"       @###@==-;;;-==@##$%      ",
"      &@###&==-;;;-==&##$%      ",
"      @###@===-;;;-===@##$%     ",
"     &@###&===-;;;-===&##$%     ",
"     @###@====-;;;-====@##$%    ",
"    &@###&====-;;;-====&##$%    ",
"    @###@=====-;;;-=====@##$%   ",
"   &@###&=====>--->=====&##$%   ",
"   @###@=================@##$%  ",
"  &@###&======>--->======&##$%  ",
"  @###@=======-;;;-=======@##$% ",
" &@###&=======-;;;-=======&##$% ",
" @###@========-;;;-========@##$%",
"&@##*&========>--->========&##,%",
"@###@=======================##'$",
"@###@@@@@@@@@@@@@@@@@@@@@@@@##)$",
"&############################$$!",
" @~''''''''''''''''''''''''')$!%",
"   $$$$$$$$$$$$$$$$$$$$$$$$$$$% "};
