/* XPM */
static char *hiproperty[] = {
/* columns rows colors chars-per-pixel */
"16 16 5 1",
"  c #040404",
". c blue",
"X c red",
"o c #868686",
"O c None",
/* pixels */
"OOOOOOOOOOOOOOOO",
"OOooooooooooOOOO",
"OOoXXXXXXXXoOOOO",
"OOoX      XoOOOO",
"OOoXXXXXXXXoOOOO",
"OOoX      XoOOOO",
"OOoXXXXXXXXoOOOO",
"OOoX      oooooO",
"OOoXXXXXXXoX.XoO",
"OOoX      oXXXoO",
"OOoXXXXXXXoX.XoO",
"OOoX      oX.XoO",
"OOoXXXXXXXo...oO",
"OOoXXXXXXXoXXXoO",
"OOoooooooooooooO",
"OOOOOOOOOOOOOOOO"
};
