/* XPM */
static char * index_xpm[] = {
"16 16 79 1",
" 	c None",
".	c #89ABDF",
"+	c #317FD1",
"@	c #297CCB",
"#	c #1F77C4",
"$	c #337FD1",
"%	c #2C7DCD",
"&	c #2178C6",
"*	c #1673BF",
"=	c #0B6EB8",
"-	c #357FD3",
";	c #88B4E5",
">	c #CBE7F6",
",	c #C8E5F5",
"'	c #C5E3F4",
")	c #C1E0F3",
"!	c #BDDDF2",
"~	c #B8D9F1",
"{	c #B3D6EF",
"]	c #AED2EE",
"^	c #A9CEEC",
"/	c #A4CAEB",
"(	c #505C62",
"_	c #4F5B62",
":	c #4E5A61",
"<	c #4C5861",
"[	c #B9DAF1",
"}	c #485660",
"|	c #46545F",
"1	c #44535E",
"2	c #42515E",
"3	c #A0C7E9",
"4	c #C9E6F5",
"5	c #C6E4F5",
"6	c #C2E1F4",
"7	c #BEDEF2",
"8	c #B4D7EF",
"9	c #AFD3EE",
"0	c #AACFEC",
"a	c #A5CBEB",
"b	c #A0C8EA",
"c	c #9CC5E8",
"d	c #4E5A62",
"e	c #4C5961",
"f	c #4A5860",
"g	c #B0D3EE",
"h	c #44535F",
"i	c #42525E",
"j	c #40505E",
"k	c #3E4F5D",
"l	c #98C2E7",
"m	c #C3E2F4",
"n	c #BFDFF3",
"o	c #BADBF1",
"p	c #B6D8F0",
"q	c #B0D4EE",
"r	c #ABD0ED",
"s	c #A6CCEB",
"t	c #A1C9EA",
"u	c #9DC5E9",
"v	c #99C2E7",
"w	c #95C0E6",
"x	c #4B5860",
"y	c #495660",
"z	c #475560",
"A	c #45545F",
"B	c #A7CDEC",
"C	c #41505E",
"D	c #3F4F5D",
"E	c #99C3E7",
"F	c #BCDCF2",
"G	c #B7D9F0",
"H	c #B2D5EF",
"I	c #ADD1ED",
"J	c #A8CDEC",
"K	c #A3CAEA",
"L	c #9EC6E9",
"M	c #9AC3E8",
"N	c #96C0E7",
"                ",
"                ",
"  .+@#          ",
"  $%&*=         ",
"  -----------;  ",
" ->>,')!~{]^/-  ",
" ->(_:<[}|123-  ",
" -4567[890abc-  ",
" -5def}ghijkl-  ",
" -mnopqrstuvw-  ",
" -nxyzABCDEw-   ",
" -FGHIJKLMN-;   ",
" ;---------;    ",
"                ",
"                ",
"                "};
