/* XPM */
static char *index_xpm[] = {
/* columns rows colors chars-per-pixel */
"16 16 129 2",
"   c #CBE7F6",
".  c #485660",
"X  c #B9DAF1",
"o  c #BFDFF3",
"O  c #95C0E6",
"+  c #C6E4F5",
"@  c #1F77C4",
"#  c #3F4F5D",
"$  c #4F5B62",
"%  c #9CC5E8",
"&  c #9DC5E9",
"*  c #A5CBEB",
"=  c #B7D9F0",
"-  c #AED2EE",
";  c #4E5A61",
":  c #B6D8F0",
">  c #C3E2F4",
",  c #C2E1F4",
"<  c #45545F",
"1  c #4C5961",
"2  c #99C3E7",
"3  c #98C2E7",
"4  c #2C7DCD",
"5  c #A9CEEC",
"6  c #C9E6F5",
"7  c #BEDEF2",
"8  c #89B8DE",
"9  c #AACFEC",
"0  c #A8CDEC",
"q  c #2178C6",
"w  c #C1E0F3",
"e  c #A7CDEC",
"r  c #337FD1",
"t  c #42515E",
"y  c #475560",
"u  c #505C62",
"i  c #89ABDF",
"p  c #B3D6EF",
"a  c #9AC3E8",
"s  c #4A5860",
"d  c #C5E3F4",
"f  c #B4D7EF",
"g  c #3E4F5D",
"h  c #4E5A62",
"j  c #317FD1",
"k  c #A1C9EA",
"l  c #AFD3EE",
"z  c #1673BF",
"x  c #ADD1ED",
"c  c #42525E",
"v  c #B0D3EE",
"b  c #A4CAEB",
"n  c #297CCB",
"m  c #C8E5F5",
"M  c #A0C7E9",
"N  c #A0C8EA",
"B  c #A3CAEA",
"V  c #B2D5EF",
"C  c #41505E",
"Z  c #46545F",
"A  c #44535E",
"S  c #495660",
"D  c #4C5861",
"F  c #BDDDF2",
"G  c #9EC6E9",
"H  c #BADBF1",
"J  c #96C0E7",
"K  c #0B6EB8",
"L  c #44535F",
"P  c #ABD0ED",
"I  c #B0D4EE",
"U  c #BCDCF2",
"Y  c #99C2E7",
"T  c #B8D9F1",
"R  c #A6CCEB",
"E  c #4B5860",
"W  c #40505E",
"Q  c #88B4E5",
"!  c #357FD3",
"~  c gray100",
"^  c black",
"/  c black",
"(  c black",
")  c black",
"_  c black",
"`  c black",
"'  c black",
"]  c black",
"[  c black",
"{  c black",
"}  c black",
"|  c black",
" . c black",
".. c black",
"X. c black",
"o. c black",
"O. c black",
"+. c black",
"@. c black",
"#. c black",
"$. c black",
"%. c black",
"&. c black",
"*. c black",
"=. c black",
"-. c black",
";. c black",
":. c black",
">. c black",
",. c black",
"<. c black",
"1. c black",
"2. c black",
"3. c black",
"4. c black",
"5. c black",
"6. c black",
"7. c black",
"8. c black",
"9. c black",
"0. c black",
"q. c black",
"w. c black",
"e. c black",
"r. c black",
"t. c black",
"y. c black",
"u. c black",
"i. c None",
/* pixels */
"i.i.i.i.i.i.i.i.i.i.i.i.i.i.i.i.",
"i.i.i.i.i.i.i.i.i.i.i.i.i.i.i.i.",
"i.i.i j n @ 8 i.i.i.i.i.i.i.i.i.",
"i.i.r 4 q z K i.i.i.i.i.i.i.i.i.",
"i.Q ! ! ! ! ! ! ! ! ! ! ! Q i.i.",
"i.!     m d w F T p - 5 b ! i.i.",
"i.!   u $ ; D X . Z A t M ! i.i.",
"i.! 6 + , 7 X f l 9 * N % ! i.i.",
"i.! + h 1 s . v L c W g 3 ! i.i.",
"i.! > o H : I P R k & Y O ! i.i.",
"i.! o E S y < e C # 2 O ! Q i.i.",
"i.! U = V x 0 B G a J ! Q i.i.i.",
"i.Q ! ! ! ! ! ! ! ! ! Q i.i.i.i.",
"i.i.i.i.i.i.i.i.i.i.i.i.i.i.i.i.",
"i.i.i.i.i.i.i.i.i.i.i.i.i.i.i.i.",
"i.i.i.i.i.i.i.i.i.i.i.i.i.i.i.i."
};
