/* XPM */
static char * job_xpm[] = {
"16 16 90 1",
" 	c None",
".	c #B3B4B4",
"+	c #7E7F80",
"@	c #FFFFFF",
"#	c #FDFEFF",
"$	c #F9FDFE",
"%	c #F6FBFD",
"&	c #F2FAFC",
"*	c #EDF8FC",
"=	c #E9F6FB",
"-	c #E4F4FA",
";	c #DEF2F9",
">	c #1E50AD",
",	c #D9F0F8",
"'	c #D3EDF6",
")	c #CEEBF5",
"!	c #DBDCDF",
"~	c #DBBBB8",
"{	c #DE9F96",
"]	c #E18A7F",
"^	c #D08178",
"/	c #EFB5AF",
"(	c #646AA1",
"_	c #C2898C",
":	c #E28E81",
"<	c #E2887C",
"[	c #E28176",
"}	c #E27A70",
"|	c #E37369",
"1	c #E7827B",
"2	c #DFA298",
"3	c #EBB4AD",
"4	c #F1DAD7",
"5	c #F0F4F7",
"6	c #E8D2D2",
"7	c #E39F9C",
"8	c #E3645C",
"9	c #E77670",
"0	c #8B7697",
"a	c #F5F8F9",
"b	c #F0F9FC",
"c	c #E2F3F9",
"d	c #DBECF4",
"e	c #DD9392",
"f	c #E4544E",
"g	c #F09C99",
"h	c #F0D9D7",
"i	c #EFF8FC",
"j	c #E8F6FA",
"k	c #D2EDF6",
"l	c #D1C0C7",
"m	c #E44D47",
"n	c #E96764",
"o	c #DD877D",
"p	c #EEF3F7",
"q	c #E7F5FA",
"r	c #E0F2F9",
"s	c #89AED9",
"t	c #C9E9F4",
"u	c #C2E0EC",
"v	c #E44541",
"w	c #E5433F",
"x	c #DC948D",
"y	c #E5D1D2",
"z	c #D7EFF7",
"A	c #88ADD9",
"B	c #7FA9D7",
"C	c #C5B7C0",
"D	c #E43E3A",
"E	c #E95C59",
"F	c #8B678B",
"G	c #E19D9B",
"H	c #D5EAF3",
"I	c #C6E8F4",
"J	c #7FA9D6",
"K	c #B9DEEC",
"L	c #D17B7F",
"M	c #E43734",
"N	c #F18C8B",
"O	c #C3E7F3",
"P	c #BEE5F2",
"Q	c #C3C9D2",
"R	c #DC7E79",
"S	c #DA9191",
"T	c #CEBEC6",
"U	c #BFDEEB",
"V	c #C4B6C0",
"W	c #E9504F",
"X	c #A27573",
"Y	c #D3615C",
".++++++++++     ",
"+@@#$%&*=-;+    ",
"+@>$>>>>>>,+    ",
"+#$%&*=-;,'+    ",
"+$>&>>>>>>)+    ",
"+%&*=-;!~{]^/   ",
"+&>=>>(_:<[}|1  ",
"+*=-;!2:3456789 ",
"+=>;>0:3ab>cdefg",
"+-;,'{<hij>,klmn",
"+;>'>o[pqr>stuvw",
"+,')tx}y;zA>BCDE",
"+'>t>F|GH)IJKLMN",
"+)tOPQR8STUVLMW ",
".+++++XYfmvDMW  ",
"        gnwEN   "};
