/* XPM */
static char * jobdisabled_xpm[] = {
"16 16 70 1",
" 	c None",
".	c #B3B4B4",
"+	c #7E7F80",
"@	c #FFFFFF",
"#	c #FDFEFF",
"$	c #F9FDFE",
"%	c #F6FBFD",
"&	c #F2FAFC",
"*	c #EDF8FC",
"=	c #E9F6FB",
"-	c #E4F4FA",
";	c #DEF2F9",
">	c #1E50AD",
",	c #D9F0F8",
"'	c #D3EDF6",
")	c #CEEBF5",
"!	c #CF6467",
"~	c #C50000",
"{	c #CB6265",
"]	c #C9E9F4",
"^	c #DD6969",
"/	c #802147",
"(	c #F67777",
"_	c #C3E7F3",
":	c #A83435",
"<	c #F15757",
"[	c #F67676",
"}	c #F67272",
"|	c #F56E6E",
"1	c #C25E64",
"2	c #F15656",
"3	c #EF4F4F",
"4	c #EE4849",
"5	c #F56D6D",
"6	c #F46868",
"7	c #F36262",
"8	c #F05555",
"9	c #EF4E4F",
"0	c #EE4848",
"a	c #C76064",
"b	c #F36161",
"c	c #F15B5B",
"d	c #F05454",
"e	c #EF4D4E",
"f	c #EE4747",
"g	c #F05354",
"h	c #EF4D4D",
"i	c #EE4646",
"j	c #F05353",
"k	c #EF4C4C",
"l	c #EE4545",
"m	c #EC3E3F",
"n	c #EB3838",
"o	c #F05252",
"p	c #EF4B4B",
"q	c #ED4445",
"r	c #EB3737",
"s	c #EA3131",
"t	c #E92B2B",
"u	c #BEE5F2",
"v	c #F05151",
"w	c #EE4A4A",
"x	c #ED4344",
"y	c #B95B62",
"z	c #E92A2B",
"A	c #E82525",
"B	c #E72020",
"C	c #ED4243",
"D	c #BD4A4B",
"E	c #E71F20",
".++++++++++.    ",
"+@@#$%&*=-;+    ",
"+@>$>>>>>>,+    ",
"+#$%&*=-;,'+    ",
"+$>&>>>>>>)+    ",
"+%&*=-!~{)]+^~^ ",
"+&>=>/~(~/_:~<~^",
"+*=-;~[}|~1~234~",
"+=>;>/~567~890~^",
"+-;,')a~bcdef~^ ",
"+;>'>>>/~ghi~^  ",
"+,')]_1~jklmn~^ ",
"+'>]>/~opq~rst~^",
"+)]_u~vwx~y~zAB~",
".++++:~C~:+D~E~^",
"      ^~^   ^~^ "};
