/* XPM */
static char *jobs_xpm[] = {
/* columns rows colors chars-per-pixel */
"16 16 65 1",
"  c #CDEBF5",
". c #F4B4AF",
"X c #F5ACAA",
"o c #E4362D",
"O c #D87E6D",
"+ c #EC645F",
"@ c #C6E8F4",
"# c #566C93",
"$ c #EA6C63",
"% c #E26A5E",
"& c #EFBCB4",
"* c #D7EFF7",
"= c #F1F0F0",
"- c #D3A8AA",
"; c #C55949",
": c #C9A0A5",
"> c #E4F4FA",
", c #EDEEF0",
"< c #E27965",
"1 c #C0E5F3",
"2 c #665382",
"3 c #D57569",
"4 c #D8AAAA",
"5 c #E1B2AE",
"6 c #C79FA5",
"7 c #F3B9B1",
"8 c #DC665A",
"9 c #DDF1F8",
"0 c #E6B4B0",
"q c #C2DBE7",
"w c #C7DCE8",
"e c #DE563E",
"r c #D7503C",
"t c #89AED9",
"y c #A36962",
"u c #F0F9FC",
"i c #DA5351",
"p c #87ADD8",
"a c #D3B4AF",
"s c #F0BDB4",
"d c #FCFEFE",
"f c #F8FCFE",
"g c #EDF8FC",
"h c #B3B4B4",
"j c #D3EDF6",
"k c #F3FAFD",
"l c #E1F3F9",
"z c #E7F5FA",
"x c #DAF0F8",
"c c #1E50AD",
"v c gray100",
"b c #7E7F80",
"n c gray100",
"m c black",
"M c black",
"N c black",
"B c black",
"V c black",
"C c black",
"Z c black",
"A c black",
"S c black",
"D c black",
"F c black",
"G c None",
/* pixels */
"hbbbbbbbbhGGGGGG",
"bvdfkgzlxbGGGGGG",
"bd#bbbbbbbbhGGGG",
"bfbvdfkgzlxbGGGG",
"bkbd#bbbbbbbbhGG",
"bgbfbvdfkgzlxbGG",
"bzbkbdckccccjbGG",
"blbgbfkgzlxj bGG",
"bxbzbkczcccc@bGG",
"bjblbgzlxjaOe;7G",
"hbbxbzcxc2<s=0%.",
"GGbjblxj O&uc94$",
"GGhbbxc cr,>ctwo",
"GGGGbj @135*pc:+",
"GGGGhbbbby8-q6iX",
"GGGGGGGGGG.$o+XG"
};
