/* XPM */
static char * jobs_xpm[] = {
"16 16 53 1",
" 	c None",
".	c #B3B4B4",
"+	c #7E7F80",
"@	c #FFFFFF",
"#	c #FCFEFE",
"$	c #F8FCFE",
"%	c #F3FAFD",
"&	c #EDF8FC",
"*	c #E7F5FA",
"=	c #E1F3F9",
"-	c #DAF0F8",
";	c #566C93",
">	c #1E50AD",
",	c #D3EDF6",
"'	c #CDEBF5",
")	c #C6E8F4",
"!	c #D3B4AF",
"~	c #D87E6D",
"{	c #DE563E",
"]	c #C55949",
"^	c #F3B9B1",
"/	c #665382",
"(	c #E27965",
"_	c #F0BDB4",
":	c #F1F0F0",
"<	c #E6B4B0",
"[	c #E26A5E",
"}	c #EFBCB4",
"|	c #F0F9FC",
"1	c #DDF1F8",
"2	c #D8AAAA",
"3	c #EA6C63",
"4	c #D7503C",
"5	c #EDEEF0",
"6	c #E4F4FA",
"7	c #89AED9",
"8	c #C7DCE8",
"9	c #E4362D",
"0	c #C0E5F3",
"a	c #D57569",
"b	c #E1B2AE",
"c	c #D7EFF7",
"d	c #87ADD8",
"e	c #C9A0A5",
"f	c #EC645F",
"g	c #A36962",
"h	c #DC665A",
"i	c #D3A8AA",
"j	c #C2DBE7",
"k	c #C79FA5",
"l	c #DA5351",
"m	c #F5ACAA",
"n	c #F4B4AF",
".++++++++       ",
"+@#$%&*=-+      ",
"+#;++++++++.    ",
"+$+@#$%&*=-+    ",
"+%+#;++++++++   ",
"+&+$+@#$%&*=-+  ",
"+*+%+#>%>>>>,+  ",
"+=+&+$%&*=-,'+  ",
"+-+*+%>*>>>>)+  ",
"+,+=+&*=-,!~{]^ ",
".++-+*>->/(_:<[ ",
"  +,+=-,'~}|>123",
"  .++->'>456>789",
"    +,')0abcd>ef",
"    .++++ghijklm",
"          n39fm "};
