/* XPM */
static char *key_xpm[] = {
/* columns rows colors chars-per-pixel */
"16 16 65 1",
"  c #B6CB75",
". c #BDD37F",
"X c #E0F1BD",
"o c #DBF99E",
"O c #E6FDBD",
"+ c #E6FDBE",
"@ c #E0F1BC",
"# c #D2F484",
"$ c #B9D274",
"% c #8EB029",
"& c #D2F382",
"* c #D2F482",
"= c #E4FCB8",
"- c #E1F7AD",
"; c #DFF8A6",
": c #EFFFD6",
"> c #E3FCB5",
", c #DFF0BA",
"< c #B1CF5F",
"1 c #DAEEAB",
"2 c #EEFFD2",
"3 c #ECFECE",
"4 c #AECE57",
"5 c #BBD279",
"6 c #DDF7A2",
"7 c #8FB02A",
"8 c #DDF9A2",
"9 c #D8F894",
"0 c #BCD37D",
"q c #E6FCBB",
"w c #8EAF27",
"e c #DDFAA4",
"r c #DDF8A3",
"t c #EBFEC9",
"y c #EBFECC",
"u c #BCD37B",
"i c #B8D271",
"p c #D6F48D",
"a c #DEF9A5",
"s c #D8F995",
"d c #D8F693",
"f c #DBF79C",
"g c #8FB02B",
"h c #DBFAA0",
"j c #D7EDA4",
"k c #B6D16C",
"l c #C1D38A",
"z c #97B53C",
"x c #F2F6E7",
"c c #83A715",
"v c gray100",
"b c black",
"n c black",
"m c black",
"M c black",
"N c black",
"B c black",
"V c black",
"C c black",
"Z c black",
"A c black",
"S c black",
"D c black",
"F c black",
"G c None",
/* pixels */
"GGGGGGGGGGGGGGGG",
"GGGGGGGGGGGGGGGG",
"GGGGGGGGGGGGGGGG",
"GGGGGGGGGGGGGGGG",
"GxlzzlxGGGGGGGGG",
"xg.X,u%xGGGGGGGG",
"l.:y+q$ccccccc G",
"zX2cOhoa;fd*&-cG",
"z@3c>s9r<64#pc G",
"l0t=e8kc c cc GG",
"x751jiwxGGGGGGGG",
"GxlzzlxGGGGGGGGG",
"GGGGGGGGGGGGGGGG",
"GGGGGGGGGGGGGGGG",
"GGGGGGGGGGGGGGGG",
"GGGGGGGGGGGGGGGG"
};
