/* XPM */
static char *language_xpm[] = {
/* columns rows colors chars-per-pixel */
"16 16 65 1",
"  c #D9B432",
". c #EDDC9E",
"X c #F4E9C3",
"o c #E6CD76",
"O c #E5CB71",
"+ c #FDFC74",
"@ c #DAB534",
"# c #F0E2B0",
"$ c #FEFD75",
"% c #EDDB9C",
"& c #E2C561",
"* c #F9F4E1",
"= c #EADB48",
"- c #E3CB38",
"; c #DEBF2D",
": c #E1C433",
"> c #F5F061",
", c #D5AB1A",
"< c #F5ED60",
"1 c #D9B420",
"2 c #FEFD77",
"3 c #DFC32F",
"4 c #DDBE2B",
"5 c #F5F162",
"6 c #F2EB5A",
"7 c #ECDB4B",
"8 c #EFE552",
"9 c #F2EF5C",
"0 c #ECE04C",
"q c #F8F168",
"w c #FFFD78",
"e c #F2E75B",
"r c #F0E256",
"t c #D9B522",
"y c #F6F865",
"u c #FCFB73",
"i c #E5CD3E",
"p c #F8F966",
"a c #FCFC72",
"s c #D4AA16",
"d c #F8F968",
"f c #FCFB70",
"g c #F9FA69",
"h c #FAFB6D",
"j c #F9FA6B",
"k c #FBFB6E",
"l c gray100",
"z c black",
"x c black",
"c c black",
"v c black",
"b c black",
"n c black",
"m c black",
"M c black",
"N c black",
"B c black",
"V c black",
"C c black",
"Z c black",
"A c black",
"S c black",
"D c black",
"F c black",
"G c None",
/* pixels */
"GGG*%&@,@&%*GGGG",
"GG#1-09y90-1#GGG",
"G.38ppppppp83.GG",
"X46ddddddddd64XG",
"O=ggggggggggg=OG",
" >jjjjjjjjjjj> G",
" 5hhhhhhhhhhh5 G",
"O7kkkkkkkkkkk7OG",
"X;<fffffffff<;XG",
"G.:eaaaaaaaa:.GG",
"GG#tirqu++++sGGG",
"GGG*%&@,s$$$sGGG",
"GGGGGGGGos22sGGG",
"GGGGGGGGGoswsGGG",
"GGGGGGGGGGosoGGG",
"GGGGGGGGGGGGGGGG"
};
