/* XPM */
static char * namespace_xpm[] = {
"16 16 18 1",
" 	c None",
".	c #D89494",
"+	c #BD4949",
"@	c #FF8D8D",
"#	c #FF8A8A",
"$	c #FF8888",
"%	c #FF8484",
"&	c #FFFFFF",
"*	c #FF8080",
"=	c #FF7C7C",
"-	c #FF7777",
";	c #FF7373",
">	c #FF6D6D",
",	c #FF6969",
"'	c #FF6565",
")	c #FF6060",
"!	c #FF5E5E",
"~	c #FF5959",
"      .++.      ",
"     .+@@+.     ",
"    .+#++#+.    ",
"   .+$+..+$+.   ",
"  .+%+.&&.+%+.  ",
" .+*+.&&&&.+*+. ",
".+=+.&.++.&.+=+.",
"+-+.&&+--+&&.+-+",
"+;+.&&+;;+&&.+;+",
".+>+.&.++.&.+>+.",
" .+,+.&&&&.+,+. ",
"  .+'+.&&.+'+.  ",
"   .+)+..+)+.   ",
"    .+!++!+.    ",
"     .+~~+.     ",
"      .++.      "};
