/* XPM */
static char *namespaces_xpm[] = {
/* columns rows colors chars-per-pixel */
"16 16 17 1",
"  c #FF8888",
". c #FF8383",
"X c #FF6F6F",
"o c #FF6868",
"O c #FF6060",
"+ c #FF7D7D",
"@ c #FF8D8D",
"# c #FF5C5C",
"$ c #D85E5E",
"% c #C86868",
"& c #FF7676",
"* c #D89494",
"= c gray100",
"- c #BD4949",
"; c gray100",
": c black",
"> c None",
/* pixels */
">>>>*-*>>>>>>>>>",
">>>*-@-*>>>>>>>>",
">>*- - -*>>>>>>>",
">*-.-=-.-%-*>>>>",
"*-+-=-=-$-@-*>>>",
"-&-=---=- - -*>>",
"*-X--@--.-=-.-*>",
">*-- --+-=-=-+-*",
">*-.--&-=-&-=-&-",
"*-+-=--X-=-=-X-*",
"-&-=-&--o-=-o-*>",
"*-X-=-=--O-O-*>>",
">*-o-=-o--#-*>>>",
">>*-O-O-**-*>>>>",
">>>*-#-*>>>>>>>>",
">>>>*-*>>>>>>>>>"
};
