/* XPM */
static char * operator_xpm[] = {
"16 16 14 1",
" 	c None",
".	c #6F6F6F",
"+	c #AAAAAA",
"@	c #E7EAF5",
"#	c #E5E9F5",
"$	c #E3E9F5",
"%	c #E1E8F4",
"&	c #DFE7F4",
"*	c #DDE6F4",
"=	c #DBE5F3",
"-	c #D8E5F3",
";	c #D6E4F3",
">	c #D4E3F3",
",	c #D2E2F2",
"                ",
"                ",
"       ..+      ",
"      .@#.      ",
"      .#$.      ",
"      .$%.      ",
"   ....%&....+  ",
"  .@#$%&*=-;>.  ",
"  .#$%&*=-;>,.  ",
"  +....=-....   ",
"      .-;.      ",
"      .;>.      ",
"      .>,.      ",
"       ..       ",
"                ",
"                "};
