/* XPM */
static char *operators_xpm[] = {
/* columns rows colors chars-per-pixel */
"16 16 17 1",
"  c #E0E7F4",
". c #D5E3F3",
"X c #9FA1A6",
"o c #D8E4F3",
"O c #DBE5F3",
"+ c #D3E2F2",
"@ c #DDE6F4",
"# c #E7EAF5",
"$ c #E3E8F5",
"% c #E5E9F5",
"& c #AAAAAA",
"* c #6F6F6F",
"= c gray100",
"- c black",
"; c black",
": c black",
"> c None",
/* pixels */
">>>>>>>>>>>>>>>>",
">>>>&**&>>>>>>>>",
">>>>*#%*>>>>>>>>",
">>>>*%X**&>>>>>>",
">&***$*#%*&>>>>>",
">*#%$ *%X**&>>>>",
">*%X***$*#%*&>>>",
">&**#%$ *%$**>>>",
">>>*%X***$ ***&>",
">>>&**#%$ @Oo.*>",
">>>>&*%$ @Oo.+*>",
">>>>>&***Oo***&>",
">>>>>>&**o.*>>>>",
">>>>>>>>*.+*>>>>",
">>>>>>>>&**&>>>>",
">>>>>>>>>>>>>>>>"
};
