/* XPM */
static char *operator_xpm[] = {
/* columns rows colors chars-per-pixel */
"16 16 17 1",
"  c #E5E9F5",
". c #E1E8F4",
"X c #E3E9F5",
"o c #D6E4F3",
"O c #D4E3F3",
"+ c #D8E5F3",
"@ c #DBE5F3",
"# c #DFE7F4",
"$ c #D2E2F2",
"% c #E7EAF5",
"& c #DDE6F4",
"* c #AAAAAA",
"= c #6F6F6F",
"- c gray100",
"; c black",
": c black",
"> c None",
/* pixels */
">>>>>>>>>>>>>>>>",
">>>>>>>>>>>>>>>>",
">>>>>>*==*>>>>>>",
">>>>>>=% =>>>>>>",
">>>>>>= X=>>>>>>",
">>>>>>=X.=>>>>>>",
">>*====.#====*>>",
">>=% X.#&@+oO=>>",
">>= X.#&@+oO$=>>",
">>*====@+====*>>",
">>>>>>=+o=>>>>>>",
">>>>>>=oO=>>>>>>",
">>>>>>=O$=>>>>>>",
">>>>>>*==*>>>>>>",
">>>>>>>>>>>>>>>>",
">>>>>>>>>>>>>>>>"
};
