/* XPM */
static char * pgAdmin3_xpm[] = {
"16 16 10 1",
" 	c None",
"+	c #393839",
"@	c #7B797B",
"#	c #7BBEBD",
"$	c #000000",
"%	c #008684",
"&	c #BDDFDE",
"*	c #399E9C",
"=	c #7B9E9C",
"-	c #BDBEBD",
"  +@@@@@@@@#@+$ ",
" +#%%%&%%%#*%*@ ",
" @%%%#%%%%%**%&$",
"$&%%%#%%%%%%#%#$",
"$#%%%&##%%*#&%#$",
"$@%%%#*&%%###%@ ",
" @%%%#%#%%%##*+ ",
" +*%%#%#%%%#&=$ ",
" $#%%&%&%%%*&+$ ",
"  =%%- ##%%*##&$",
"  @%==%*#%%##&@$",
"  $@$+@+#%%#$$  ",
"       $#%%#$   ",
"       $#%%&$   ",
"       $&%*@    ",
"        +@@$    "};
