/* XPM */
static char * properties_xpm[] = {
"32 32 16 1",
" 	c None",
".	c #000000",
"+	c #FFFF55",
"@	c #FFFF00",
"#	c #FF9F00",
"$	c #FFBF00",
"%	c #2A3FFF",
"&	c #FF0000",
"*	c #2A3FAA",
"=	c #2A3F55",
"-	c #AA0000",
";	c #D40000",
">	c #00DF00",
",	c #00BF00",
"'	c #008000",
")	c #009F00",
"             ......             ",
"           ..++++++..           ",
"          .++@@@@@@++.          ",
"         .+@@@####@@@+.         ",
"         .+@@#$$$$#@@+.         ",
"        .+@@#$$$$$$#@@+.        ",
"        .@@@$$@@@$$$@@@.        ",
"        .@@@$@@@@@@$@@@.        ",
"     ......@@@@@@@@@@@@....     ",
"   ..%%%%%%..@@@@@@@@@$.&&&..   ",
"  .%%******%%.@@@@@@@@#.&&&&&.  ",
" .%***====***%.@@@@@@$.&&&&&&&. ",
" .%**=****=**%.@@@@$$#.---&&&&. ",
".%**=******=**%.$$$##.;;;;-&&&&.",
".**************.###..;;;;;;-&&&.",
".**************....&;;&&&&;;&&&.",
".************....&&&;&&&&&&;&&&.",
".**********..>>>.;&&&&&&&&&&&&;.",
".=********.>>,,,.-&&&&&&&&&&&&-.",
" .*******.>,,,'''.;&&&&&&&&&&;. ",
" .=******.>,,'))).-;;&&&&&&;;-. ",
"  .==***.>,,'))))).--;;;;;;--.  ",
"   ..===.,,,)),,,,)..------..   ",
"     ....,,,),,,,,,,,......     ",
"        .,,,,,,,,,,,,,,.        ",
"        .),,,,,,,,,,,,).        ",
"        .',,,,,,,,,,,)'.        ",
"         .),,,,,,,,,,'.         ",
"         .')),,,,,,))'.         ",
"          .''))))))''.          ",
"           ..''''''..           ",
"             ......             "};
