/* XPM */
static char *query_explain_xpm[] = {
/* columns rows colors chars-per-pixel */
"16 16 65 1",
"  c #93804C",
". c #B7B7B7",
"X c #818181",
"o c #D3EDF8",
"O c #FDF274",
"+ c #F1E38D",
"@ c #F2E05D",
"# c #EDD627",
"$ c #F5E885",
"% c #E6CD36",
"& c #ECDA68",
"* c #EBDB9A",
"= c #828688",
"- c #939DA3",
"; c #CDE9FA",
": c #B5C6CD",
"> c #CFEAF9",
", c #A0853C",
"< c #D5EEF8",
"1 c #D2ECF9",
"2 c #909090",
"3 c #B2C5CE",
"4 c #C5DAE2",
"5 c #C4D9E2",
"6 c #949EA3",
"7 c #7C7E80",
"8 c #CEE9FA",
"9 c #B2C3CE",
"0 c #7F7763",
"q c #D5EFF8",
"w c #B2C4CE",
"e c #D4EDF8",
"r c #C0D6E3",
"t c #818688",
"y c #959EA2",
"u c #C2D8E3",
"i c #828788",
"p c #F7E851",
"a c #E7D373",
"s c #C8AC62",
"d c #727272",
"f c #C29315",
"g c gray60",
"h c #D0D0D0",
"j c black",
"k c black",
"l c black",
"z c black",
"x c black",
"c c black",
"v c black",
"b c black",
"n c black",
"m c black",
"M c black",
"N c black",
"B c black",
"V c black",
"C c black",
"Z c black",
"A c black",
"S c black",
"D c black",
"F c black",
"G c None",
/* pixels */
"sffffsGGGGGGGGGG",
"f*a&$fGGGGGGGGGG",
"fa%#pfGGGGGGGGGG",
"f+@pOfGGGGGGGGGG",
"sf,0,sGGGGGGGGGG",
"GGX4i.gdgsffffsG",
"GGdq:=doy *a&$fG",
"GGd<:5oo1da%#pfG",
"GGd<dXd16 +@pOfG",
"GGdedGgdgsffffsG",
"GGdodGGGGGGGGGGG",
"GGXu=.gdgsffffsG",
"GG23wtd>- *a&$fG",
"GG.79r>8;da%#pfG",
"GGG.2Xd;- +@pOfG",
"GGGGGGgdgsffffsG"
};
