/* XPM */
static char *query_cancel_xpm[] = {
/* columns rows colors chars-per-pixel */
"16 16 129 2",
"   c #C68D5F",
".  c #FCAA47",
"X  c #DEA752",
"o  c #F69215",
"O  c #F69216",
"+  c #E6A03F",
"@  c #E1A54A",
"#  c #ECB971",
"$  c #E3C086",
"%  c #F3951E",
"&  c #E3C085",
"*  c #E3A245",
"=  c #E6A03E",
"-  c #EE992A",
";  c #E6BD7D",
":  c #EC9B2F",
">  c #E9BB77",
",  c #E9BA75",
"<  c #DCA958",
"1  c #F2B35F",
"2  c #E0A54C",
"3  c #E1A54B",
"4  c #ED9A2D",
"5  c #E7A03C",
"6  c #ED9A2B",
"7  c #E5BF81",
"8  c #E6BE7E",
"9  c #E99E37",
"0  c #FBAC4C",
"q  c #F1B464",
"w  c #F09826",
"e  c #E99D36",
"r  c #E4A243",
"t  c #F5B057",
"y  c #E79F3A",
"u  c #EA9D34",
"i  c #ECB970",
"p  c #EA9D35",
"a  c #F3941D",
"s  c #F4941C",
"d  c #F09725",
"f  c #F5B059",
"g  c #F8AD51",
"h  c #E4A244",
"j  c #EEB66B",
"k  c #F7AF54",
"l  c #E9D0A6",
"z  c #F4C78B",
"x  c #F2C88F",
"c  c #E79F3B",
"v  c #F09724",
"b  c #EA9C33",
"n  c #EB9C32",
"m  c #E8BC7A",
"M  c #F3B25D",
"N  c #FEBD71",
"B  c #F98F0F",
"V  c #E4BF83",
"C  c #ED9A2E",
"Z  c #F19623",
"A  c #F9AD4F",
"S  c #E3A346",
"D  c #FBAB4A",
"F  c #BF5E10",
"G  c #D0D0D0",
"H  c black",
"J  c black",
"K  c black",
"L  c black",
"P  c black",
"I  c black",
"U  c black",
"Y  c black",
"T  c black",
"R  c black",
"E  c black",
"W  c black",
"Q  c black",
"!  c black",
"~  c black",
"^  c black",
"/  c black",
"(  c black",
")  c black",
"_  c black",
"`  c black",
"'  c black",
"]  c black",
"[  c black",
"{  c black",
"}  c black",
"|  c black",
" . c black",
".. c black",
"X. c black",
"o. c black",
"O. c black",
"+. c black",
"@. c black",
"#. c black",
"$. c black",
"%. c black",
"&. c black",
"*. c black",
"=. c black",
"-. c black",
";. c black",
":. c black",
">. c black",
",. c black",
"<. c black",
"1. c black",
"2. c black",
"3. c black",
"4. c black",
"5. c black",
"6. c black",
"7. c black",
"8. c black",
"9. c black",
"0. c black",
"q. c black",
"w. c black",
"e. c black",
"r. c black",
"t. c black",
"y. c black",
"u. c black",
"i. c None",
/* pixels */
"i.i.i.i.i.i.i.i.i.i.i.i.i.i.i.i.",
"i.i.i.i.i.i.i.i.i.i.i.i.i.i.i.i.",
"i.i.i.i.i.i.i.i.i.i.i.i.i.i.i.i.",
"i.i.i.  F F F F F F F F   i.i.i.",
"i.i.i.F l $ V 8 m , i x F i.i.i.",
"i.i.i.F & < X 2 S + 9 q F i.i.i.",
"i.i.i.F 7 X 3 * = e : M F i.i.i.",
"i.i.i.F ; @ h 5 p C w t F i.i.i.",
"i.i.i.F > r c u 4 d % g F i.i.i.",
"i.i.i.F # y b 6 v a O 0 F i.i.i.",
"i.i.i.F j n - Z s o B . F i.i.i.",
"i.i.i.F z 1 f k A D . N F i.i.i.",
"i.i.i.  F F F F F F F F   i.i.i.",
"i.i.i.i.i.i.i.i.i.i.i.i.i.i.i.i.",
"i.i.i.i.i.i.i.i.i.i.i.i.i.i.i.i.",
"i.i.i.i.i.i.i.i.i.i.i.i.i.i.i.i."
};
