/* XPM */
static char * querybuilder_xpm[] = {
"32 32 7 2",
"  	c None",
". 	c #000000",
"s 	c #00E000",
"H 	c #E00040",
"8.	c #E0E040",
"E+	c #0000FF",
"F+	c None",
"F+F+F+F+F+F+F+F+F+F+F+F+F+F+F+F+F+F+F+F+F+F+F+F+F+F+F+F+F+F+F+F+",
"F+. . . . . . . . . . . . . . . . . . . . . . . . . . F+F+F+F+F+",
"F+. H H H H H H H H H H H H H H H H H H H H H H H H . . F+F+F+F+",
"F+. H H H H H H H H H H H H H H H H H H H H H H H H . s . F+F+F+",
"F+. H H H H H H H H H H H H H H H H H H H H H H H H . s s . F+F+",
"F+. H H H . . . . . . . . . . . . . . . . . . H H H . s s s . F+",
"F+. H H H . . 8.8.8.8.8.8.8.8.8.8.8.8.8.8.8.. H H H . s s s . F+",
"F+. H H H . s . 8.8.8.8.8.8.8.8.8.8.8.8.8.8.. H H H . s s s . F+",
"F+. H H H . s s . 8.8.8.8.8.8.8.8.8.8.8.8.8.. H H H . s s s . F+",
"F+. H H H . s s s . . . . . . . . . . . . . . H H H . s s s . F+",
"F+. H H H . s s s . F+F+F+F+F+F+F+F+F+F+F+F+. H H H . s s s . F+",
"F+. H H H . s s s . F+F+F+F+F+F+F+F+F+F+F+F+. H H H . s s s . F+",
"F+. H H H . s s s . F+F+F+F+F+F+F+F+F+F+F+F+. H H H . s s s . F+",
"F+. H H H . s s s . F+F+F+F+F+F+F+F+F+F+F+F+. H H H . s s s . F+",
"F+. H H H . s s s . F+F+F+F+F+F+F+F+F+F+F+F+. H H H . s s s . F+",
"F+. H H H . s s s . F+F+F+F+F+F+F+F+F+F+F+F+. H H H . s s s . F+",
"F+. H H H . s s s . F+F+F+F+F+F+F+F+F+F+F+F+. H H H . s s s . F+",
"F+. H H H . s s s . F+F+F+F+F+F+F+F+F+F+F+F+. H H H . s s s . F+",
"F+. H H H . s s s . F+F+F+F+F+F+F+F+F+F+F+F+. H H H . s s s . F+",
"F+. H H H . s s s . F+F+F+F+F+F+F+F+F+F+F+F+. H H H . s s s . F+",
"F+. H H H . s s s . F+F+F+F+F+F+F+F+F+F+F+F+. H H H . s s s . F+",
"F+. H H H . s s s . F+F+F+F+F+F+F+F+F+F+F+F+. H H H . s s s . F+",
"F+. H H H . s s s . . . . . . . . . . . . . . H H H . s s s . F+",
"F+. H H H . s s s . E+E+E+E+E+E+E+E+E+E+E+E+E+. H H . s s s . F+",
"F+. H H H . s s s . E+E+E+E+E+E+E+E+E+E+E+E+E+E+. H . s s s . F+",
"F+. H H H . s s s . E+E+E+E+E+E+E+E+E+E+E+E+E+E+E+. . s s s . F+",
"F+. H H H . s s s . . . . . . . . . . . . . . . . . . s s s . F+",
"F+F+. H H . s s s s s s s s s s s s s s s s s s s s s s s s . F+",
"F+F+F+. H . s s s s s s s s s s s s s s s s s s s s s s s s . F+",
"F+F+F+F+. . s s s s s s s s s s s s s s s s s s s s s s s s . F+",
"F+F+F+F+F+. . . . . . . . . . . . . . . . . . . . . . . . . . F+",
"F+F+F+F+F+F+F+F+F+F+F+F+F+F+F+F+F+F+F+F+F+F+F+F+F+F+F+F+F+F+F+F+"};
