/* XPM */
static char * relationship_xpm[] = {
"16 16 3 1",
" 	c None",
".	c #48F907",
"+	c #E50D0D",
"                ",
"          .     ",
"          ..    ",
"          ...   ",
" .............  ",
" .............. ",
"                ",
" ++++++++++++++ ",
"  +++++++++++++ ",
"   +++          ",
"    ++          ",
"     +          ",
"                ",
"                ",
"                ",
"                "};
