/* XPM */
static char *roles_xpm[] = {
/* columns rows colors chars-per-pixel */
"16 16 129 2",
"   c #DAF0F8",
".  c #EDF8FC",
"X  c #C80000",
"o  c #CCE6F1",
"O  c #F3FAFD",
"+  c #C6E8F4",
"@  c #F7EAE4",
"#  c #F7EAE8",
"$  c #9B9B9B",
"%  c #F8EAE2",
"&  c #848484",
"*  c #F8FCFE",
"=  c #BAE3F1",
"-  c #E1F3F9",
";  c #E7F5FA",
":  c #C0E5F3",
">  c #C8E5F1",
",  c #F7EAE6",
"<  c #D0E8F0",
"1  c #F8EAE0",
"2  c #727272",
"3  c #B4E1F0",
"4  c #C4E3F1",
"5  c gray36",
"6  c #565656",
"7  c #AFDFEF",
"8  c gray75",
"9  c #FCFEFE",
"0  c #A0A0A0",
"q  c #D3EAF0",
"w  c #DB9396",
"e  c #DED3CA",
"r  c #ABDDEF",
"t  c #9B9595",
"y  c #EFEFEF",
"u  c #D39095",
"i  c #D4999F",
"p  c #F2E4DB",
"a  c #BDB4AC",
"s  c #F7EAEA",
"d  c #86827E",
"f  c #D3C9C6",
"g  c #CF5C5F",
"h  c #EEEEEE",
"j  c #939393",
"k  c #928D8C",
"l  c #646363",
"z  c #D45E60",
"x  c #97A2A5",
"c  c #9AA5A8",
"v  c #CBC1BB",
"b  c #CAC1C1",
"n  c #CACACA",
"m  c #FEFEFE",
"M  c #96A2A5",
"N  c gray100",
"B  c #EAEAEA",
"V  c #CBC1B8",
"C  c #9B9592",
"Z  c #C0E1F1",
"A  c gray44",
"S  c #F3E6E2",
"D  c #5C5D5E",
"F  c #928D8B",
"G  c gray66",
"H  c #9BA9AD",
"J  c #7A7774",
"K  c #BBCFD6",
"L  c #F4E6DA",
"P  c #C7DCE1",
"I  c #F1E4E6",
"U  c #989292",
"Y  c gray72",
"T  c #D8D8D8",
"R  c #B6B6B6",
"E  c #6E7273",
"W  c gray87",
"Q  c #646362",
"!  c #CDEBF5",
"~  c #D3EDF6",
"^  c #1E50AD",
"/  c #555555",
"(  c gray100",
")  c black",
"_  c black",
"`  c black",
"'  c black",
"]  c black",
"[  c black",
"{  c black",
"}  c black",
"|  c black",
" . c black",
".. c black",
"X. c black",
"o. c black",
"O. c black",
"+. c black",
"@. c black",
"#. c black",
"$. c black",
"%. c black",
"&. c black",
"*. c black",
"=. c black",
"-. c black",
";. c black",
":. c black",
">. c black",
",. c black",
"<. c black",
"1. c black",
"2. c black",
"3. c black",
"4. c black",
"5. c black",
"6. c black",
"7. c black",
"8. c black",
"9. c black",
"0. c black",
"q. c black",
"w. c black",
"e. c black",
"r. c black",
"t. c black",
"y. c black",
"u. c black",
"i. c None",
/* pixels */
"i.i.i.i.n & 5 & 8 i.i.i.i.i.i.i.",
"i.i.i.0 d V p v F 0 i.i.i.i.i.i.",
"i.i.T J L 1 % @ S k 8 i.i.i.i.i.",
"i.i.j a 1 % @ , # b & i.i.i.i.i.",
"i.i.A e % @ , # s I 5 i.i.i.i.i.",
"i.i.R C @ , U / / / / / / / / $ ",
"i.i.y Q f # / N 9 * O . ; -   / ",
"i.i.B 6 l t / 9 * O . w X   ~ / ",
"i.h D c P H / * O X w X u ~ ! / ",
"m 6 x q < o / O . z X g ~ ! + / ",
"W E q < o > / . ; - i ~ ! + : / ",
"G M < o > 4 / ; ^   ^ ^ ^ ^ = / ",
"2 K o > 4 Z / -   ~ ! + : = 3 / ",
"Y 2 / / / / /   ^ ! ^ ^ ^ ^ 7 / ",
"i.i.i.i.i.i./ ~ ! + : = 3 7 r / ",
"i.i.i.i.i.i.$ / / / / / / / / $ "
};
