/* XPM */
static char *rule_xpm[] = {
/* columns rows colors chars-per-pixel */
"16 16 33 1",
"  c #EBCC7A",
". c #FEE17F",
"X c #FFE59C",
"o c #FFE38D",
"O c #FEE07C",
"+ c #FEE182",
"@ c #FFE495",
"# c #FEE287",
"$ c #FFE494",
"% c #FFE38F",
"& c #FEE289",
"* c #FFE390",
"= c #FFE599",
"- c #FEE181",
"; c #FEE286",
": c #FEE07B",
"> c #FFE492",
", c #FFE497",
"< c #FFE598",
"1 c #FFE38B",
"2 c #FEE078",
"3 c #FFE59A",
"4 c #FEE17D",
"5 c #FEE284",
"6 c #FFE59B",
"7 c #FEE079",
"8 c #FEE077",
"9 c #DDA91D",
"0 c gray100",
"q c black",
"w c black",
"e c black",
"r c None",
/* pixels */
"rrrrrrrrrrrrrrrr",
"rrrrrrrrrrrrrrrr",
"rrrrrrrrrrrrrrrr",
"rrrrrrrrrrrrrrrr",
" 9999999999999 r",
"9X9X9=9$9o9;9.9r",
"9X939@9%9#9-9:9r",
"96=,9*o&9+.O989r",
"9<@>%1#5-4:2889r",
"9$*o&;+.O788889r",
" 9999999999999 r",
"rrrrrrrrrrrrrrrr",
"rrrrrrrrrrrrrrrr",
"rrrrrrrrrrrrrrrr",
"rrrrrrrrrrrrrrrr",
"rrrrrrrrrrrrrrrr"
};
