/* XPM */
static char * schedule_xpm[] = {
"16 16 5 1",
" 	c None",
".	c #FFFFFF",
"+	c #FF0000",
"@	c #000000",
"#	c #960000",
"                ",
"     ++++++     ",
"   ++..@..++#   ",
"  +....@....+#  ",
"  +....@....+#  ",
" +.....@.....+# ",
" +.....@.....+# ",
" +@@...@@@@@@+# ",
" +...........+# ",
" +...........+# ",
" ++..........+# ",
"  ++...@....+#  ",
"  #++..@...+##  ",
"   #+++++++##   ",
"     ######     ",
"                "};
