/* XPM */
static char * sequence_xpm[] = {
"16 16 4 1",
" 	c None",
".	c #FF0000",
"+	c #000080",
"@	c #008000",
"                ",
"  ..            ",
"....            ",
"  ..            ",
"  .. ++++       ",
"  ..++  ++      ",
"  ..++  ++@@@@  ",
"  ..    +@@  @@ ",
"  ..   ++    @@ ",
"  ..  ++     @@ ",
"  .. ++    @@@  ",
"    ++       @@ ",
"    ++       @@ ",
"    ++++++   @@ ",
"         @@  @@ ",
"          @@@@  "};
