/* XPM */
static char *servers_xpm[] = {
/* columns rows colors chars-per-pixel */
"16 16 65 1",
"  c #67859B",
". c #63B1C1",
"X c #1FDAC7",
"o c #7B94A4",
"O c #F6F5F6",
"+ c #F0EEEF",
"@ c #8CABB8",
"# c #C6B1C0",
"$ c #F2F1F2",
"% c #F7F5F6",
"& c #BFA6B9",
"* c #EFEEEF",
"= c #C3AAB3",
"- c #998693",
"; c #E4DBDF",
": c #FAF9FA",
"> c #4F97AD",
", c #5BA5B6",
"< c #F1EDEF",
"1 c #E1D4D8",
"2 c #C4ABB4",
"3 c #E0D3D7",
"4 c #D8C9D4",
"5 c #E2D5DE",
"6 c #5BA0B3",
"7 c #9D8496",
"8 c #BFA8B8",
"9 c #DBD1D8",
"0 c #F5F1F2",
"q c #E9E5E8",
"w c #96818F",
"e c #E2D5DD",
"r c #EFEEEE",
"t c #C5BAC1",
"y c #D9C9D5",
"u c #E1D4D9",
"i c #E9DFE5",
"p c #C4ABB5",
"a c #CFBECA",
"s c #EADFE6",
"d c #D0BDCB",
"f c #EADFE7",
"g c #F5F1F3",
"h c #B8A8B3",
"j c #5BA2B4",
"k c #897282",
"l c #F0EEF0",
"z c #5CA4B6",
"x c #C3ABB4",
"c c #5AA2B4",
"v c #CFBDCA",
"b c #F9F9F9",
"n c #C2B6BE",
"m c #CFDBE0",
"M c #E6EFF1",
"N c #E0D4D8",
"B c #F4F1F2",
"V c #F6F5F5",
"C c #B097A9",
"Z c #F9F8F9",
"A c #D0C5CB",
"S c #987C95",
"D c #836C7C",
"F c gray100",
"G c None",
/* pixels */
"GGGqDDDDDDDDlGGG",
"GGGnwf5yd#&ktGGG",
"GGG-hi54v#87-GGG",
"GGGD9se4a#&CDGGG",
"GGGDA$Z0Z:<;DGGG",
"GGGDA+O3poz@DGGG",
"GGGDAr%326X.DGGG",
"GGGDSSSSS > DGGG",
"GGGDA$ZBZ:<;DGGG",
"GGGDA+O1=o,@DGGG",
"GGGDA*%N2jX.DGGG",
"GGGDSSSSS > DGGG",
"GGGDA$ZgZbMmDGGG",
"GGGDA+OuxcX.DGGG",
"GGGDA*V1=o,@DGGG",
"GGGDDDDDDDDDDGGG"
};
