/* XPM */
static char * serverbad_xpm[] = {
"16 16 5 1",
" 	c None",
".	c #FF0800",
"+	c #000000",
"@	c #808080",
"#	c #C0C0C0",
"                ",
" ...     +++... ",
"  ...  @@@@...+ ",
"   ...@@@@...@+ ",
"   @...@@...#@+ ",
"   @#......##@+ ",
"   @#@....###@+ ",
"   @##....###@+ ",
"   @#@....###@+ ",
"   @#......##@+ ",
"   @...@@...#@+ ",
"   ...@@@#...@+ ",
"  ...@@@@@@...  ",
" ...@@@@@+++... ",
"                ",
"                "};
