/* XPM */
static char *slcluster_xpm[] = {
/* columns rows colors chars-per-pixel */
"16 16 129 2",
"   c #F4EDC0",
".  c #ECE6D2",
"X  c #FFFEF2",
"o  c #F4EFC0",
"O  c #C9B87B",
"+  c #D2C591",
"@  c #E8E4A5",
"#  c #D5C898",
"$  c #FFFBF2",
"%  c #C3B26B",
"&  c #C4B36E",
"*  c #E1DBA8",
"=  c #ECE4C0",
"-  c #FBF8DB",
";  c #FBFBDD",
":  c #D7CE94",
">  c #EAE7BB",
",  c #F1F1CD",
"<  c #F1EFC7",
"1  c #D4C791",
"2  c #F2EECF",
"3  c #F7EFE3",
"4  c #ECECC1",
"5  c #F5ECCF",
"6  c #F1EFD0",
"7  c #FEFBE3",
"8  c #DDD58E",
"9  c #EBE9B9",
"0  c #D0C28D",
"q  c #DED4AE",
"w  c #FDFBF5",
"e  c #FEFEFC",
"r  c #FEF7DD",
"t  c #EFEACD",
"y  c #D5CD91",
"u  c #F2F2D8",
"i  c #F2EBBC",
"p  c #FDFBE3",
"a  c #F4ECC1",
"s  c #F9F7EE",
"d  c #C3B06B",
"f  c #CAB97C",
"g  c #D5CA87",
"h  c #EEE9CA",
"j  c #DAD099",
"k  c #F8F5E4",
"l  c #EEEAC0",
"z  c #F4F2DE",
"x  c #C2B16C",
"c  c #ECE6D1",
"v  c #E6DCB4",
"b  c #F5EEE3",
"n  c #DCD09E",
"m  c #EFE6CC",
"M  c #FFF9F2",
"N  c #FFFBF3",
"B  c #C3B16B",
"V  c #EAE9BC",
"C  c #C4B26F",
"Z  c #D6CB96",
"A  c #CABC7B",
"S  c #F6EFE4",
"D  c #D6C896",
"F  c #F7F3DF",
"G  c #F5EFE3",
"H  c #EAE4CF",
"J  c #D8CDA2",
"K  c #C1AF68",
"L  c #D5C894",
"P  c #C3B26D",
"I  c #CBBB7C",
"U  c #DED7A0",
"Y  c #FBF7DC",
"T  c #F1E6C9",
"R  c #CEBF85",
"E  c #DDD3AF",
"W  c #D1C28E",
"Q  c #C3B16C",
"!  c #FCFBF7",
"~  c #E7E3A5",
"^  c #DDD2AB",
"/  c #EDEAC1",
"(  c #FEF6DE",
")  c #E7E49E",
"_  c #C1AE67",
"`  c gray100",
"'  c black",
"]  c black",
"[  c black",
"{  c black",
"}  c black",
"|  c black",
" . c black",
".. c black",
"X. c black",
"o. c black",
"O. c black",
"+. c black",
"@. c black",
"#. c black",
"$. c black",
"%. c black",
"&. c black",
"*. c black",
"=. c black",
"-. c black",
";. c black",
":. c black",
">. c black",
",. c black",
"<. c black",
"1. c black",
"2. c black",
"3. c black",
"4. c black",
"5. c black",
"6. c black",
"7. c black",
"8. c black",
"9. c black",
"0. c black",
"q. c black",
"w. c black",
"e. c black",
"r. c black",
"t. c black",
"y. c black",
"u. c black",
"i. c None",
/* pixels */
"! c q Q Q _ O + # ! i.i.i.i.i.i.",
"^ & 1 = 2 > * : % ^ i.i.i.i.i.i.",
"0 v X 7 ; < V U A K Q _ O + # ! ",
"C h X p - , Z & 1 = 2 > * : % ^ ",
"_ E D d B _ d I L Y ; < 4 9 y 0 ",
"_ & 1 = 2 > * : % n - , 6 u w f ",
"_ v X 7 ; < 4 9 y R k e s z t _ ",
"_ h X p - , 6 u w f ( a ) ~ / _ ",
"_ H m F k e s z t _ ( o ) @ / _ ",
"_ . 3 M ( a ) ~ / _ r   ) ~ / _ ",
"_ . b $ ( o ) @ / _ ( o ) @ l _ ",
"_ . S N r   ) ~ / _ (   ) ~ j _ ",
"_ . G $ ( o ) @ l _ 5 i 8 g x ^ ",
"_ J 3 $ (   ) ~ j _ Q _ O + # ! ",
"^ P W T 5 i 8 g x ^ i.i.i.i.i.i.",
"! c q Q Q _ O + # ! i.i.i.i.i.i."
};
