/* XPM */
static char * sllisten_xpm[] = {
"16 16 8 1",
" 	c None",
".	c #FFFFFF",
"+	c #000000",
"@	c #000080",
"#	c #808080",
"$	c #868686",
"%	c #FFFF00",
"&	c #C0C0C0",
"................",
"............+...",
"............@+..",
".........@@@##+.",
"$$$$$$$$$$+####+",
"$+%&%&%&%+++##+.",
"$%+%&%&%+%+.#+..",
"$&%+%&%+%&@.+...",
"$%$%+%+%$@#.....",
"$$%&%+%&@##@@@..",
"$%&%&%&+#####+..",
"+++++++++##+++..",
".........+#.....",
"..........+.....",
"................",
"................"};
