/* XPM */
static char *slnodes_xpm[] = {
/* columns rows colors chars-per-pixel */
"16 16 65 1",
"  c #D4BBDE",
". c #9F70C8",
"X c #D6C4EB",
"o c #9151AA",
"O c #BA99D6",
"+ c #CDB8E8",
"@ c #B99BE0",
"# c #B794D5",
"$ c #C5ADE3",
"% c #B48FD2",
"& c #CFBBE6",
"* c #C1A4E3",
"= c #C3A8E3",
"- c #A17AD6",
"; c #9355AD",
": c #B28CCF",
"> c #9863BE",
", c #A57FD6",
"< c #A47ED8",
"1 c #9F76D2",
"2 c #8D4DA9",
"3 c #A473BE",
"4 c #AB87DC",
"5 c #9E75D4",
"6 c #BF99CE",
"7 c #B697D8",
"8 c #9F69B6",
"9 c #945AB5",
"0 c #A883DB",
"q c #9B71D1",
"w c #A16FBB",
"e c #A575BF",
"r c #AA82CA",
"t c #B08FDA",
"y c #B798DC",
"u c #AB88DA",
"i c #AF89CD",
"p c #BA9DD9",
"a c #B990C9",
"s c #A078D2",
"d c #C3AADB",
"f c #A681D2",
"g c #9C73D0",
"h c #B490D3",
"j c #A883D9",
"k c #A878C1",
"l c #B190DF",
"z c #AC7CC0",
"x c #BB95CB",
"c c #8C4AA7",
"v c gray100",
"b c black",
"n c black",
"m c black",
"M c black",
"N c black",
"B c black",
"V c black",
"C c black",
"Z c black",
"A c black",
"S c black",
"D c black",
"F c black",
"G c None",
/* pixels */
"GGGGxcxGGGGGGGGG",
"GGGGcXcGGGGGGGGG",
"GGG c+ccxGGGGGGG",
"GG6k#@cXcGGGGGGG",
"G k*l.c+ccxGGGGG",
"GzOl>k#@cXcGGGGG",
"Go=.k*l.c+caGGGG",
"Gz%9Ol>k#@he6GGG",
"xc$2=.k*l4uy3 GG",
"c&c;%9Ol0<-,:zGG",
"xc8c$2=4<-517oGG",
"GGc&c;%j-5qgrzGG",
"GGxc8c$t,1sfpcxG",
"GGGGc&c3:7iwcdcG",
"GGGGxcx zoz xcxG",
"GGGGGGGGGGGGGGGG"
};
