/* XPM */
static char * slpath_xpm[] = {
"16 16 65 1",
" 	c None",
".	c #B94A86",
"+	c #E5BCD2",
"@	c #B94986",
"#	c #F7EAF1",
"$	c #D994C3",
"%	c #CD78AC",
"&	c #C972A2",
"*	c #E6BDD3",
"=	c #CB73A6",
"-	c #D48AB7",
";	c #BE5690",
">	c #E2B3CC",
",	c #D07FB2",
"'	c #ECBCEC",
")	c #E8AEE8",
"!	c #E0A1D2",
"~	c #C5669E",
"{	c #D38CB3",
"]	c #F0D7E4",
"^	c #C5649B",
"/	c #DA95C5",
"(	c #DE99D0",
"_	c #E2A5D2",
":	c #CC76A8",
"<	c #D694B8",
"[	c #CD77AC",
"}	c #E5ABDE",
"|	c #E5A7E3",
"1	c #E5A8E1",
"2	c #D891C1",
"3	c #BE558F",
"4	c #BE548F",
"5	c #D68DBD",
"6	c #DF9BD3",
"7	c #DC94CE",
"8	c #DC98C9",
"9	c #CA71A3",
"0	c #DDA6C4",
"a	c #BA4A87",
"b	c #D488B8",
"c	c #E5A9E0",
"d	c #E19EDB",
"e	c #E19DD8",
"f	c #DF9AD5",
"g	c #DD95D1",
"h	c #DF9CD1",
"i	c #D181B0",
"j	c #BF5892",
"k	c #D88EC0",
"l	c #DB8DD2",
"m	c #D98ACE",
"n	c #D589BB",
"o	c #BF5790",
"p	c #EDD1E0",
"q	c #DD96D2",
"r	c #DD96CD",
"s	c #DB94CA",
"t	c #DA91C7",
"u	c #DB93C8",
"v	c #D990C5",
"w	c #BD548D",
"x	c #E1A5CB",
"y	c #E0A3C8",
"z	c #DA9FBF",
"                ",
"                ",
"  .+        +@  ",
"# $%&*     &=-; ",
">,')!~{] {^/(_:>",
" <[}|123456789< ",
"  0abcdefghia0  ",
"    <jklmno<    ",
"     p@q7@      ",
"      @(r@      ",
"      @rs@      ",
"      @st@      ",
"      @uv@      ",
"      wxyw      ",
"       wwz      ",
"                "};
