/* XPM */
static char *slpaths_xpm[] = {
/* columns rows colors chars-per-pixel */
"16 16 129 2",
"   c #ECCCDD",
".  c #BE5590",
"X  c #BB4D89",
"o  c #BB4E8A",
"O  c #E09DD7",
"+  c #E2A8D6",
"@  c #BE558F",
"#  c #DF9CD1",
"$  c #C5659B",
"%  c #D081AF",
"&  c #DDA6C4",
"*  c #BC518C",
"=  c #DF9DD4",
"-  c #D78EBE",
";  c #D993C4",
":  c #DD97CF",
">  c #E1A8CD",
",  c #DE97D2",
"<  c #E7AEE9",
"1  c #DD9CC8",
"2  c #BA4B88",
"3  c #BA4B87",
"4  c #C6679E",
"5  c #D996C0",
"6  c #DFA2CE",
"7  c #DCA3C2",
"8  c #EABAE5",
"9  c #BD538E",
"0  c #FAF1F6",
"q  c #F8ECF2",
"w  c #E6BDD3",
"e  c #D38CB3",
"r  c #FEFCFD",
"t  c #CC78AC",
"y  c #BE548E",
"u  c #C46599",
"i  c #CF7BAF",
"p  c #C972A2",
"a  c #F7EBF2",
"s  c #D381BC",
"d  c #F6E9F0",
"f  c #C15E94",
"g  c #C35D9A",
"h  c #C562A1",
"j  c #F0D7E4",
"k  c #E5AAE2",
"l  c #EDD1E0",
"z  c #E7ADE4",
"x  c #D589BB",
"c  c #D68FBA",
"v  c #E3A2DF",
"b  c #BF5790",
"n  c #E0A7CC",
"m  c #D48ABA",
"M  c #BF5892",
"N  c #DC95CC",
"B  c #D88FC2",
"V  c #DE98D3",
"C  c #DC94CE",
"Z  c #DA8CCF",
"A  c #DB94C9",
"S  c #E1A0DB",
"D  c #E7AEE6",
"F  c #DC90D3",
"G  c #DD98CD",
"H  c #D694B8",
"J  c #E0A4C9",
"K  c #CB77A4",
"L  c #DE99D0",
"P  c #BF5890",
"I  c #BA4A87",
"U  c #B94986",
"Y  c gray100",
"T  c black",
"R  c black",
"E  c black",
"W  c black",
"Q  c black",
"!  c black",
"~  c black",
"^  c black",
"/  c black",
"(  c black",
")  c black",
"_  c black",
"`  c black",
"'  c black",
"]  c black",
"[  c black",
"{  c black",
"}  c black",
"|  c black",
" . c black",
".. c black",
"X. c black",
"o. c black",
"O. c black",
"+. c black",
"@. c black",
"#. c black",
"$. c black",
"%. c black",
"&. c black",
"*. c black",
"=. c black",
"-. c black",
";. c black",
":. c black",
">. c black",
",. c black",
"<. c black",
"1. c black",
"2. c black",
"3. c black",
"4. c black",
"5. c black",
"6. c black",
"7. c black",
"8. c black",
"9. c black",
"0. c black",
"q. c black",
"w. c black",
"e. c black",
"r. c black",
"t. c black",
"y. c black",
"u. c black",
"i. c None",
/* pixels */
"  o p w i.i.i.i.w p X   i.i.i.i.",
"2 6 + 4 e j j e $ 1 5 3 r i.i.i.",
"9 8 < k ; . @ - = : > * a i.i.i.",
"& I t o g s O , # % I f X   i.i.",
"i.d 2 6 + 4 h i y u $ 1 5 3 r i.",
"i.0 9 8 < k ; . @ - = : > * a i.",
"i.i.& I t o g s O , # % I f X   ",
"i.i.i.d 2 6 + 4 h i y u $ 1 5 3 ",
"i.i.i.0 9 8 < D ; . @ - = : > * ",
"i.i.i.i.K I m z v S O , # % I & ",
"i.i.i.i.i.q U M B F Z x b H q i.",
"i.i.i.i.i.i.P c U V C U l i.i.i.",
"i.i.i.i.i.i.7 P U L N U i.i.i.i.",
"i.i.i.i.i.i.i.i.U G A U i.i.i.i.",
"i.i.i.i.i.i.i.i.P n J P i.i.i.i.",
"i.i.i.i.i.i.i.i.7 P P 7 i.i.i.i."
};
