/* XPM */
static char * slpath_xpm[] = {
"16 16 8 1",
" 	c None",
"+	c #868686",
"@	c #C0C0C0",
"#	c #0000FF",
"$	c #008000",
"%	c #000000",
"&	c #000080",
"*	c #3F3F3F",
"      +++       ",
"     +@#$%      ",
"    +@ $#$%     ",
"    +#$$&#%     ",
"    +@##&&%     ",
"     %#&$%      ",
"      %%%       ",
"                ",
"    *******     ",
"    *     *     ",
"    *     *     ",
"    *     *     ",
"*******  ****** ",
"*     *  *    * ",
"*     *  *    * ",
"*     *  *    * "};
