/* XPM */
static char * slset_xpm[] = {
"16 16 84 1",
" 	c None",
".	c #B3C37D",
"+	c #7E9922",
"@	c #C3ED8C",
"#	c #C2EC8B",
"$	c #BBE784",
"%	c #B9E682",
"&	c #B5E37E",
"*	c #B0E079",
"=	c #9BD163",
"-	c #ADDD76",
";	c #A3D66B",
">	c #98CF60",
",	c #93CB5B",
"'	c #4882BE",
")	c #5E8B7E",
"!	c #A0D468",
"~	c #9AD062",
"{	c #95CC5D",
"]	c #90C957",
"^	c #8BC552",
"/	c #74C8E0",
"(	c #73C7DF",
"_	c #72C5DF",
":	c #70C3DE",
"<	c #6FC1DD",
"[	c #6DBFDC",
"}	c #92CA5A",
"|	c #8DC754",
"1	c #88C34F",
"2	c #83C04B",
"3	c #73C6DF",
"4	c #6EC1DD",
"5	c #6CBEDC",
"6	c #8FC856",
"7	c #8AC451",
"8	c #A49F30",
"9	c #B9871B",
"0	c #A09C2C",
"a	c #71C5DF",
"b	c #6EC0DD",
"c	c #8CC653",
"d	c #87C24E",
"e	c #83BF4A",
"f	c #FCF7AD",
"g	c #A18E1E",
"h	c #70C2DE",
"i	c #6ABBDB",
"j	c #68B9DA",
"k	c #948944",
"l	c #FAF49F",
"m	c #F8F191",
"n	c #D6B879",
"o	c #6DC0DD",
"p	c #6CBDDC",
"q	c #67B8DA",
"r	c #63B3D7",
"s	c #FDF8B4",
"t	c #FBF6A9",
"u	c #FAF49C",
"v	c #F8F18F",
"w	c #F6EE80",
"x	c #F5EB72",
"y	c #6BBDDC",
"z	c #61B0D6",
"A	c #FBF6A7",
"B	c #F9F39A",
"C	c #F8F08C",
"D	c #F6EE7E",
"E	c #F4EB6F",
"F	c #F3E861",
"G	c #F1E553",
"H	c #5FADD5",
"I	c #F9F398",
"J	c #F7F08A",
"K	c #F6ED7C",
"L	c #F4EA6D",
"M	c #F2E85F",
"N	c #F1E551",
"O	c #93B5D9",
"P	c #929567",
"Q	c #F2E75C",
"R	c #F0E44F",
"S	c #F0E44C",
"     .+.        ",
"    .+@+        ",
"    +#+$+  .+.  ",
"     +%&*+.+=+  ",
"     .+-+;+>,+  ",
"''''''')!~{]^+  ",
"'/(_:<['+}|12+  ",
"'3_:45')67890+  ",
"'a:b5')cde9f9g  ",
"'hb5ij'k999lm9n ",
"'op'q'r9stuvwx9n",
"'y' 'rz9ABCDEFG9",
" '   'H9IJKLMN9n",
"     O'P999QR9  ",
"       '  9S9n  ",
"           9    "};
