/* XPM */
static char * slset2_xpm[] = {
"16 16 61 1",
" 	c None",
".	c #B3C37D",
"+	c #7E9922",
"@	c #C3ED8C",
"#	c #C2EC8B",
"$	c #BBE784",
"%	c #B9E682",
"&	c #B5E37E",
"*	c #B0E079",
"=	c #9BD163",
"-	c #ADDD76",
";	c #A3D66B",
">	c #98CF60",
",	c #93CB5B",
"'	c #4882BE",
")	c #5E8B7E",
"!	c #A0D468",
"~	c #9AD062",
"{	c #95CC5D",
"]	c #90C957",
"^	c #8BC552",
"/	c #74C8E0",
"(	c #73C7DF",
"_	c #72C5DF",
":	c #70C3DE",
"<	c #6FC1DD",
"[	c #6DBFDC",
"}	c #92CA5A",
"|	c #8DC754",
"1	c #88C34F",
"2	c #83C04B",
"3	c #73C6DF",
"4	c #6EC1DD",
"5	c #6CBEDC",
"6	c #8FC856",
"7	c #8AC451",
"8	c #85C14D",
"9	c #81BE48",
"0	c #7DBB44",
"a	c #71C5DF",
"b	c #6EC0DD",
"c	c #8CC653",
"d	c #87C24E",
"e	c #83BF4A",
"f	c #7FBD46",
"g	c #7BBA42",
"h	c #78B83F",
"i	c #70C2DE",
"j	c #6ABBDB",
"k	c #68B9DA",
"l	c #6DC0DD",
"m	c #6CBDDC",
"n	c #67B8DA",
"o	c #63B3D7",
"p	c #6BBDDC",
"q	c #93B5D9",
"r	c #61B0D6",
"s	c #5FAED5",
"t	c #5FADD5",
"u	c #5CA9D3",
"v	c #5BA9D3",
"      .+.       ",
"     .+@+       ",
"     +#+$+. .+. ",
"     .+%&*+.+=+ ",
"       +-+;+>,+ ",
" ''''''')!~{]^+ ",
" '/(_:<['+}|12+ ",
" '3_:45')67890+ ",
" 'a:b5')cdefgh+ ",
" 'ib5jk')++++++ ",
" 'lm'n'o'       ",
" 'p'q'ors'      ",
" q'q q't'u'     ",
"      q'v'q     ",
"       q'q      ",
"                "};
