/* XPM */
static char * slsubscription_xpm[] = {
"16 16 9 1",
" 	c None",
"+	c #7F7F7F",
"@	c #FF0000",
"#	c #C00000",
"$	c #C0C0C0",
"%	c #0000FF",
"&	c #868686",
"*	c #00007F",
"=	c #000000",
"                ",
"   +++++++   @# ",
"  +       +  @# ",
" +         +@#  ",
" ++       ++@#  ",
" + +++++++ @#   ",
" +     @#  @#   ",
" +      @#@#    ",
" +      @@@#    ",
"$%%      @#+    ",
"%$%&&&&&&$#+    ",
"$%%     $&&     ",
"%+*$   &&===    ",
"+**=$     $&=   ",
"*** =&  $&==    ",
"     =====      "};
