/* XPM */
static char *slsubscription2_xpm[] = {
/* columns rows colors chars-per-pixel */
"16 16 129 2",
"   c #CC777B",
".  c #9B9B9B",
"X  c #E9F6FB",
"o  c #D1797C",
"O  c #D0797C",
"+  c #D1D9E1",
"@  c #C2E6F3",
"#  c #F7FCFD",
"$  c #BBE3F2",
"%  c #C4E7F3",
"&  c #FAFDFE",
"*  c #F4FBFD",
"=  c #B3E0F0",
"-  c #F1F9FC",
";  c #B7E2F1",
":  c #E8E2E5",
">  c #CEEBF5",
",  c #E2DFE4",
"<  c #EDF8FB",
"1  c #D0ECF6",
"2  c #DDF1F8",
"3  c #CCEAF5",
"4  c #DEF2F9",
"5  c #E1DFE4",
"6  c #D97C7E",
"7  c #C9E9F4",
"8  c #C8E9F4",
"9  c #E7F5FA",
"0  c #FDFEFF",
"q  c #D0D8E1",
"w  c #CDEBF5",
"e  c #C8E8F4",
"r  c #D8EFF7",
"t  c #D9EFF7",
"y  c #EFF9FC",
"u  c #C3E7F3",
"i  c #ACDDEF",
"p  c #ADDEEF",
"a  c #E8F6FB",
"s  c #BFE5F2",
"d  c #C0E5F3",
"f  c #F0E4E7",
"g  c #F3FAFD",
"h  c #D57B7D",
"j  c #F0F9FC",
"k  c gray100",
"l  c #CB777B",
"z  c #DADCE3",
"x  c #AFDFEF",
"c  c #D5EEF7",
"v  c #FBFDFE",
"b  c #F8FCFE",
"n  c #BEE5F2",
"m  c #BFE5F3",
"M  c #C4E7F4",
"N  c #EBF7FB",
"B  c #BAE3F1",
"V  c #D8DBE3",
"C  c #E1F3F9",
"Z  c #EDF8FC",
"A  c #CAEAF5",
"S  c #D9F0F8",
"D  c #E2F3F9",
"F  c #C6E8F4",
"G  c #F7FCFE",
"H  c #BAE3F2",
"J  c #D57A7D",
"K  c #B0DFF0",
"L  c #E5F5FA",
"P  c #E0DFE4",
"I  c #AADCEE",
"U  c #CFEBF6",
"Y  c #CBEAF5",
"T  c #B6E1F1",
"R  c #D3EDF6",
"E  c #E3F3F9",
"W  c #BEE4F2",
"Q  c #D4EDF7",
"!  c #D4EEF7",
"~  c #B2E0F0",
"^  c #F5FBFD",
"/  c #C7E8F4",
"(  c #C50000",
")  c #1E50AD",
"_  c #555555",
"`  c gray100",
"'  c black",
"]  c black",
"[  c black",
"{  c black",
"}  c black",
"|  c black",
" . c black",
".. c black",
"X. c black",
"o. c black",
"O. c black",
"+. c black",
"@. c black",
"#. c black",
"$. c black",
"%. c black",
"&. c black",
"*. c black",
"=. c black",
"-. c black",
";. c black",
":. c black",
">. c black",
",. c black",
"<. c black",
"1. c black",
"2. c black",
"3. c black",
"4. c black",
"5. c black",
"6. c black",
"7. c black",
"8. c black",
"9. c black",
"0. c black",
"q. c black",
"w. c black",
"e. c black",
"r. c black",
"t. c black",
"y. c black",
"u. c black",
"i. c None",
/* pixels */
"i.. _ _ _ _ _ _ _ _ _ _ _ . i.i.",
"i._ k 0 v b ^ - Z X L C 2 _ i.i.",
"i._ 0 & G * - < X , o z r _ i.i.",
"i._ & # * j < X , o (   R _ i.i.",
"i._ # f 6 : a 5 o (   + > _ i.i.",
"i._ g 6 ( h 5 O (   + > 7 _ i.i.",
"i._ y : J ( O (   + w 7 M _ i.i.",
"i._ N 9 P O (   q w 8 % d _ i.i.",
"i._ 9 E 4 V l q 3 8 % m $ _ i.i.",
"i._ D 4 S c 1 3 e u s $ ; _ i.i.",
"i._ 2 ) ) ) ) ) ) ) ) ) = _ i.i.",
"i._ t ! 1 Y / @ n H ; = K _ i.i.",
"i._ Q ) ) ) ) ) ) ) ) ) p _ i.i.",
"i._ U A F @ W B T ~ x i I _ i.i.",
"i.. _ _ _ _ _ _ _ _ _ _ _ . i.i.",
"i.i.i.i.i.i.i.i.i.i.i.i.i.i.i.i."
};
