/* XPM */
static char * sql_xpm[] = {
"32 32 119 2",
"  	c None",
". 	c #649BB7",
"+ 	c #F8FBFD",
"@ 	c #E3EEF6",
"# 	c #E4EFF6",
"$ 	c #E5EFF6",
"% 	c #E5EFF7",
"& 	c #E6F0F7",
"* 	c #E7F1F7",
"= 	c #E8F1F8",
"- 	c #E9F1F7",
"; 	c #EAF2F8",
"> 	c #FAFCFD",
", 	c #B2B2B2",
"' 	c #7C7C7C",
") 	c #C7DEEE",
"! 	c #C8DEEE",
"~ 	c #CAE0EE",
"{ 	c #CCE1EF",
"] 	c #CEE2F0",
"^ 	c #D2E4F0",
"/ 	c #D4E5F1",
"( 	c #D6E6F1",
"_ 	c #D7E7F2",
": 	c #ECF3F9",
"< 	c #D97798",
"[ 	c #9FCCE5",
"} 	c #45A1D2",
"| 	c #379ACF",
"1 	c #95C7E4",
"2 	c #6EB4DB",
"3 	c #5CACD7",
"4 	c #A3CFE7",
"5 	c #63B0D8",
"6 	c #AAD1E9",
"7 	c #DAE9F3",
"8 	c #EDF4F9",
"9 	c #CECECE",
"0 	c #D10096",
"a 	c #8AC2E1",
"b 	c #B3D5EA",
"c 	c #7CBBDE",
"d 	c #2B94CC",
"e 	c #1D8DC9",
"f 	c #D5E6F1",
"g 	c #3B9CD0",
"h 	c #DCEAF3",
"i 	c #EEF5FA",
"j 	c #F7F7F7",
"k 	c #D4E6F2",
"l 	c #A0CDE6",
"m 	c #DEEBF4",
"n 	c #EFF6FA",
"o 	c #EFE48D",
"p 	c #E6E6E6",
"q 	c #BDBDBD",
"r 	c #9CCBE5",
"s 	c #D7E6F2",
"t 	c #DFECF5",
"u 	c #E1EDF5",
"v 	c #F0F6FA",
"w 	c #FFFFFE",
"x 	c #A9A9AA",
"y 	c #B8B8B8",
"z 	c #D0E2F0",
"A 	c #71B6DC",
"B 	c #0F87C6",
"C 	c #F2F7FB",
"D 	c #728994",
"E 	c #F8F4CE",
"F 	c #E6D645",
"G 	c #0080C3",
"H 	c #84C0E0",
"I 	c #ADAFB0",
"J 	c #E1CB05",
"K 	c #D9E8F2",
"L 	c #E4EEF6",
"M 	c #A9ACAF",
"N 	c #2C66BD",
"O 	c #E5F0F7",
"P 	c #5B7397",
"Q 	c #DAE8F3",
"R 	c #DBEAF3",
"S 	c #DDEAF4",
"T 	c #E2EDF6",
"U 	c #E1EEF6",
"V 	c #EEF5F9",
"W 	c #7F7F7C",
"X 	c #FEFEFC",
"Y 	c #E1EEF5",
"Z 	c #52709E",
"` 	c #A8AB7D",
" .	c #E7F0F8",
"..	c #DCE1E5",
"+.	c #8F8F8A",
"@.	c #95C4A9",
"#.	c #DDED9E",
"$.	c #FAFCA0",
"%.	c #FDFDAE",
"&.	c #5A7398",
"*.	c #4F8CB4",
"=.	c #2888DE",
"-.	c #64B7D0",
";.	c #C4C9A3",
">.	c #FDFEFE",
",.	c #E8F2F8",
"'.	c #828282",
").	c #007DF1",
"!.	c #7A868C",
"~.	c #DDDFE0",
"{.	c #FCFDFE",
"].	c #FEFEFE",
"^.	c #F5F9FC",
"/.	c #B4B6B7",
"(.	c #757C85",
"_.	c #4F70A1",
":.	c #F2F4F5",
"<.	c #FEFEFF",
"[.	c #FFFFFF",
"                                                                ",
"                                                                ",
"                                                                ",
"                                                                ",
"  . . . . . . . . . . . . . . . . . . .                         ",
"  . + @ @ @ @ # # $ % & & * = - ; ; > .           , ' ' ' ,     ",
"  . @ ) ! ! ! ~ ~ { { ] ^ ^ ^ / ( _ : .         , ' < < < ' ,   ",
"  . @ ) [ } | 1 { 2 | 3 4 / 5 6 _ 7 8 .       , ' 9 < 0 < < '   ",
"  . # ! } 2 a b c d 1 2 e f g [ 7 h i .     , ' 9 9 j 0 0 < '   ",
"  . # ~ 3 } b ] | a / k d [ g l h m n .   , ' o 9 j p q 0 < '   ",
"  . $ { { c e c | r f s g l g 4 t u v . , ' o o w p q x y ' ,   ",
"  . $ ] b z a | A } _ [ B ] g 4 u @ C D ' o o w E F x y ' ,     ",
"  . & ] 5 G e r ~ } G G H t g G g $ I ' o o w E F J F ' ,       ",
"  . * ^ ^ / f _ K 7 h 1 e G @ L $ M ' o o w E F J F ' ,         ",
"  . = ^ / ( _ K 7 h m t u @ # & M ' o o w E F J F ' ,           ",
"  . ; / N N N 7 N m N N N O N P ' o o w E F J F ' ,             ",
"  . ; s K Q R S m u T # & = M ' o o w E F J F ' ,               ",
"  . : K N N N N N N N & N P ' o o w E F J F ' ,                 ",
"  . : 7 S m t U @ O * = M ' o o w E F J F ' ,                   ",
"  . 8 S N N N N N * N N ' o o w E F J F ' ,                     ",
"  . V t u @ # & = ; : - W F X E F J F ' ,                       ",
"  . n Y N N N N N N N Z ` E E F J F ' D                         ",
"  . v # &  .; : : : ..+.@.#.$.%.F ' , .                         ",
"  . C & N N N 8 N N &.*.=.-.;.+.' P >..                         ",
"  . C ,.; : 8 i v C '.).=.!.x ~.> {.]..                         ",
"  . ^.; N N N N N N /.(.(._.> N N N ]..                         ",
"  . {.^.^.+ + + + > > :.{.{.>.>.<.<.[..                         ",
"  . . . . . . . . . . . . . . . . . . .                         ",
"                                                                ",
"                                                                ",
"                                                                ",
"                                                                "};
