/* XPM */
static char * steps_xpm[] = {
"16 16 50 1",
" 	c None",
".	c #A5A5A5",
"+	c #CACACA",
"@	c #F28282",
"#	c #F17F80",
"$	c #EF7C7C",
"%	c #EE7878",
"&	c #EC7474",
"*	c #EA6F70",
"=	c #E86A6B",
"-	c #E56565",
";	c #E35F60",
">	c #E05A5A",
",	c #DE5454",
"'	c #DB4D4E",
")	c #D84747",
"!	c #D54141",
"~	c #FFFFFF",
"{	c #FDFEFF",
"]	c #F9FDFE",
"^	c #F6FBFD",
"/	c #F2FAFC",
"(	c #EDF8FC",
"_	c #E9F6FB",
":	c #E4F4FA",
"<	c #DEF2F9",
"[	c #D9F0F8",
"}	c #D33B3B",
"|	c #1E50AD",
"1	c #D3EDF6",
"2	c #D03535",
"3	c #CEEBF5",
"4	c #CD2E2F",
"5	c #CB2829",
"6	c #C9E9F4",
"7	c #C3E7F3",
"8	c #C82323",
"9	c #BEE5F2",
"0	c #C61D1D",
"a	c #BAE3F1",
"b	c #C31818",
"c	c #C11313",
"d	c #B5E1F1",
"e	c #B1DFF0",
"f	c #BF0E0E",
"g	c #AEDEEF",
"h	c #BD0A0A",
"i	c #AADDEE",
"j	c #BC0606",
"k	c #BA0303",
"   ..........+  ",
" @#$%&*=-;>,')! ",
" #.~{]^/(_:<[.} ",
" $.{|^||||||1.2 ",
" %.]^/(_:<[13.4 ",
" &*=-;>,')!}245 ",
" *./(_:<[1367.8 ",
" =.(|:||||||9.0 ",
" -._:<[13679a.b ",
" ;>,')!}24580bc ",
" >.<[13679ade.f ",
" ,.[|3||||||g.h ",
" '.13679adegi.j ",
" )!}24580bcfhjk ",
"  +..........   ",
"                "};
