/* XPM */
static char *step_xpm[] = {
/* columns rows colors chars-per-pixel */
"16 16 65 1",
"  c #E4F4FA",
". c #C3E7F3",
"X c #E9F6FB",
"o c #CEEBF5",
"O c #F2FAFC",
"+ c #EDF8FC",
"@ c #BEE5F2",
"# c #B3B4B4",
"$ c #BAE3F1",
"% c #B1DFF0",
"& c #F6FBFD",
"* c #F9FDFE",
"= c gray100",
"- c #B5E1F1",
"; c #E96E6F",
": c #FDFEFF",
"> c #C82222",
", c #E36061",
"< c #D54141",
"1 c #BD0808",
"2 c #AADDEE",
"3 c #AEDEEF",
"4 c #C21414",
"5 c #DD5151",
"6 c #EE7A7A",
"7 c #CE3131",
"8 c #A8DCEE",
"9 c #C9E9F4",
"0 c #DEF2F9",
"q c #D9F0F8",
"w c #B90000",
"e c #D3EDF6",
"r c #F28282",
"t c #1E50AD",
"y c #7E7F80",
"u c gray100",
"i c black",
"p c black",
"a c black",
"s c black",
"d c black",
"f c black",
"g c black",
"h c black",
"j c black",
"k c black",
"l c black",
"z c black",
"x c black",
"c c black",
"v c black",
"b c black",
"n c black",
"m c black",
"M c black",
"N c black",
"B c black",
"V c black",
"C c black",
"Z c black",
"A c black",
"S c black",
"D c black",
"F c black",
"G c None",
/* pixels */
"GG#yyyyyyyyyy#GG",
"GGy==:*&O+X 0yGG",
"GGy=t*ttttttqyGG",
"GGy:*&O+X 0qeyGG",
"Grrrrr6;,5<7>41G",
"Gry&O+X 0qeo9ywG",
"GryOtXtttttt.ywG",
"Gry+X 0qeo9.@ywG",
"Gr6;,5<7>41wwwwG",
"GGy 0qeo9.@$-yGG",
"GGy0tetttttt%yGG",
"GGyqeo9.@$-%3yGG",
"GGyet9tttttt2yGG",
"GGyo9.@$-%328yGG",
"GG#yyyyyyyyyy#GG",
"GGGGGGGGGGGGGGGG"
};
