/* XPM */
static char * table_sm_xpm[] = {
"16 16 61 1",
" 	c None",
".	c #2195E7",
"+	c #8ACEFE",
"@	c #94CFF9",
"#	c #ADD5F2",
"$	c #CADCEA",
"%	c #DEE3E7",
"&	c #E6E7E7",
"*	c #E6E6E6",
"=	c #C5D8E6",
"-	c #76B9E8",
";	c #309CE8",
">	c #88CDFE",
",	c #83CBFE",
"'	c #7AC6FB",
")	c #6FC0F9",
"!	c #63B9F6",
"~	c #56B2F3",
"{	c #49ABF0",
"]	c #3DA5ED",
"^	c #319EEB",
"/	c #2799E9",
"(	c #83CBFD",
"_	c #4AABF0",
":	c #3DA4ED",
"<	c #2899E9",
"[	c #B3D5ED",
"}	c #DDDDDD",
"|	c #DEDEDE",
"1	c #DFDFDF",
"2	c #E2E2E2",
"3	c #E3E3E3",
"4	c #E5E5E5",
"5	c #87C0E7",
"6	c #A7A7A7",
"7	c #E0E0E0",
"8	c #ACACAC",
"9	c #ECECEC",
"0	c #EEEEEE",
"a	c #E9E9E9",
"b	c #A6A6A6",
"c	c #A8A8A8",
"d	c #E1E1E1",
"e	c #ADADAD",
"f	c #AFAFAF",
"g	c #EAEAEA",
"h	c #E7E7E7",
"i	c #EBEBEB",
"j	c #E8E8E8",
"k	c #A9A9A9",
"l	c #EFEFEF",
"m	c #F1F1F1",
"n	c #EDEDED",
"o	c #AAAAAA",
"p	c #B0B0B0",
"q	c #B2B2B2",
"r	c #E4E4E4",
"s	c #F0F0F0",
"t	c #7BC6FB",
"u	c #6FC0F8",
"v	c #2899E8",
"                ",
"                ",
"  ............  ",
"  .+@#$%&**=-;  ",
"  .>,')!~{]^/.  ",
"  .>(')!~_:^<.  ",
"  .[}}|1234*5.  ",
"  .}**673890a.  ",
"  .}b6cd48efg.  ",
"  .|17d2*hagi.  ",
"  .1jak3hflmn.  ",
"  .7kko4afpq0.  ",
"  .d2r4*i9n0s.  ",
"  .>,tu!~_:^v.  ",
"                ",
"                "};
