/* XPM */
static char * tables_xpm[] = {
"16 16 63 1",
" 	c None",
".	c #90CAF3",
"+	c #2195E7",
"@	c #8ACEFE",
"#	c #94CFF9",
"$	c #ADD5F2",
"%	c #CADCEA",
"&	c #DEE3E7",
"*	c #E6E7E7",
"=	c #E6E6E6",
"-	c #C5D8E6",
";	c #76B9E8",
">	c #309CE8",
",	c #88CDFE",
"'	c #52B0F2",
")	c #B3D5ED",
"!	c #DDDDDD",
"~	c #83CBFE",
"{	c #7AC6FB",
"]	c #6FC0F9",
"^	c #63B9F6",
"/	c #56B2F3",
"(	c #49ABF0",
"_	c #3DA5ED",
":	c #319EEB",
"<	c #2799E9",
"[	c #DEDEDE",
"}	c #83CBFD",
"|	c #4AABF0",
"1	c #3DA4ED",
"2	c #2899E9",
"3	c #DFDFDF",
"4	c #E2E2E2",
"5	c #E3E3E3",
"6	c #E5E5E5",
"7	c #87C0E7",
"8	c #E0E0E0",
"9	c #A7A7A7",
"0	c #ACACAC",
"a	c #ECECEC",
"b	c #EEEEEE",
"c	c #E9E9E9",
"d	c #E1E1E1",
"e	c #A6A6A6",
"f	c #A8A8A8",
"g	c #ADADAD",
"h	c #AFAFAF",
"i	c #EAEAEA",
"j	c #E7E7E7",
"k	c #EBEBEB",
"l	c #E8E8E8",
"m	c #A9A9A9",
"n	c #EFEFEF",
"o	c #F1F1F1",
"p	c #EDEDED",
"q	c #AAAAAA",
"r	c #B0B0B0",
"s	c #B2B2B2",
"t	c #E4E4E4",
"u	c #F0F0F0",
"v	c #7BC6FB",
"w	c #6FC0F8",
"x	c #2899E8",
".++++++++++     ",
"+@#$%&*==-;>    ",
"+,'++++++++++   ",
"+,+@#$%&*==-;>  ",
"+)+,'++++++++++ ",
"+!+,+@#$%&*==-;>",
"+!+)+,~{]^/(_:<+",
"+[+!+,}{]^/|1:2+",
"+3+!+)!![3456=7+",
"+8+[+!==9850abc+",
"+d+3+!e9fd60ghi+",
"  +8+[38d4=jcik+",
"  +d+3lcm5jhnop+",
"  . +8mmq6chrsb+",
"    +d4t6=kapbu+",
"     ,~vw^/|1:x "};
