/* XPM */
static char *triggerfunctions_xpm[] = {
/* columns rows colors chars-per-pixel */
"16 16 17 1",
"  c #78BEC7",
". c #56D4C4",
"X c #52A4B3",
"o c #7DBEC8",
"O c #3E99A9",
"+ c #39B7A7",
"@ c #74F2E2",
"# c #E0FFFB",
"$ c #30AE9E",
"% c #EDFFFD",
"& c #47C5B5",
"* c #92FFF1",
"= c #69E7D7",
"- c #85BEC9",
"; c #2F91A3",
": c gray100",
"> c None",
/* pixels */
"-;->-;->>>>>>>>>",
";@;-;@;->>>>>>>>",
";# ;;# ;X>>>>>>>",
";%;@;o;@;X>>>>>>",
";*;# ;;# ;O>>>>>",
";=;%;@;o;@;X>>>>",
";&;*;##;;##;X>>>",
";$;=;%%%;%%%;->>",
";+;&;********;->",
";.;$;=========;>",
"-;;+;&&&&&&&&;->",
">>;.;$$$;$$$;->>",
">>-;;++;;++;->>>",
">>>>;.;-;.;->>>>",
">>>>-;->-;->>>>>",
">>>>>>>>>>>>>>>>"
};
