/* XPM */
static char *triggers_xpm[] = {
/* columns rows colors chars-per-pixel */
"16 16 17 1",
"  c #78BEC7",
". c #56D4C4",
"X c #E0FFFB",
"o c #39B7A7",
"O c #30AE9E",
"+ c #74F2E2",
"@ c #EDFFFD",
"# c #47C5B5",
"$ c #92FFF1",
"% c #69E7D7",
"& c #85BEC9",
"* c #2F91A3",
"= c gray100",
"- c black",
"; c black",
": c black",
"> c None",
/* pixels */
"&***&>>>>>>>>>>>",
"*+++*&>>>>>>>>>>",
"*XX ***&>>>>>>>>",
"*@@*+++*&>>>>>>>",
"*$$*XX ***&>>>>>",
"*%%*@@*+++*&>>>>",
"*##*$$*XXXX*&>>>",
"*OO*%%*@@@@@*&>>",
"*oo*##*$$$$$$*&>",
"*..*OO*%%%%%%%*>",
"&***oo*######*&>",
">>>*..*OOOOO*&>>",
">>>&***oooo*&>>>",
">>>>>>*...*&>>>>",
">>>>>>&***&>>>>>",
">>>>>>>>>>>>>>>>"
};
