/* XPM */
static char *type_xpm[] = {
/* columns rows colors chars-per-pixel */
"16 16 17 1",
"  c #9EE0C4",
". c #CEFFE5",
"X c #82FFBD",
"o c #77FFB7",
"O c #C5FFE1",
"+ c #BAFFDB",
"@ c #6EFFB3",
"# c #ACFFD3",
"$ c #9EFFCC",
"% c #90FFC5",
"& c #D6FFEA",
"* c #5ACB9A",
"= c gray100",
"- c black",
"; c black",
": c black",
"> c None",
/* pixels */
">>>>>>>>>>>>>>>>",
">>>>>>>>>>>>>>>>",
">> ********** >>",
">>*&&&&&&&&&&*>>",
">>*..........*>>",
">>*OOOOOOOOOO*>>",
">>*++++++++++*>>",
">>*##########*>>",
">>*$$$$$$$$$$*>>",
">>*%%%%%%%%%%*>>",
">>*XXXXXXXXXX*>>",
">>*oooooooooo*>>",
">>*@@@@@@@@@@*>>",
">> ********** >>",
">>>>>>>>>>>>>>>>",
">>>>>>>>>>>>>>>>"
};
