/* XPM */
static char *types_xpm[] = {
/* columns rows colors chars-per-pixel */
"16 16 17 1",
"  c #8AE0B9",
". c #9EE0C4",
"X c #CEFFE5",
"o c #87FFC0",
"O c #79FFB9",
"+ c #96FFC8",
"@ c #6EFFB3",
"# c #C2FFDF",
"$ c #B4FFD8",
"% c #A6FFD1",
"& c #D6FFEA",
"* c #5ACB9A",
"= c gray100",
"- c black",
"; c black",
": c black",
"> c None",
/* pixels */
".*********.>>>>>",
"*&&&&&&&&&*>>>>>",
"*X *********.>>>",
"*#*&&&&&&&&&*>>>",
"*$*X *********.>",
"*%*#*&&&&&&&&&*>",
"*+*$*XXXXXXXXX*>",
"*o*%*#########*>",
"*O*+*$$$$$$$$$*>",
"*@*o*%%%%%%%%%*>",
".**O*+++++++++*>",
">>*@*ooooooooo*>",
">>.**OOOOOOOOO*>",
">>>>*@@@@@@@@@*>",
">>>>.*********.>",
">>>>>>>>>>>>>>>>"
};
