/* XPM */
static char * unchecked_xpm[] = {
"16 16 5 1",
" 	c None",
".	c #D4D0C8",
"+	c #808080",
"@	c #FFFFFF",
"#	c #404040",
"                ",
"                ",
" ++++++++++++@  ",
" +##########.@  ",
" +#@@@@@@@@@.@  ",
" +#@@@@@@@@@.@  ",
" +#@@@@@@@@@.@  ",
" +#@@@@@@@@@.@  ",
" +#@@@@@@@@@.@  ",
" +#@@@@@@@@@.@  ",
" +#@@@@@@@@@.@  ",
" +#@@@@@@@@@.@  ",
" +#@@@@@@@@@.@  ",
" +...........@  ",
" @@@@@@@@@@@@@  ",
"                "};
