/* XPM */
static char * unique_xpm[] = {
"16 16 6 1",
" 	c None",
".	c #FFFFFF",
"+	c #040404",
"@	c #930412",
"#	c #00FF00",
"$	c #000000",
"   ....         ",
"   .++.         ",
" @@....         ",
" @@@...@@       ",
" @@@++++@@      ",
" @@@.....@@     ",
" @@@++++++@     ",
" @@@@.....@     ",
" @@@@@+#$+@ #$  ",
" @@@@@.#$.@ #$  ",
" @@@@@@#$@@@#$  ",
"   @@@@#$ @ #$  ",
"       #$   #$  ",
"       #$   #$  ",
"       $####$$  ",
"        $$$$$   "};
