/* XPM */
static char * vacuum_xpm[] = {
"32 32 5 1",
" 	c None",
".	c #000000",
"+	c #FFFF00",
"@	c #0000FF",
"#	c #00FF00",
"                                ",
"                                ",
"                                ",
"                                ",
"                                ",
"                                ",
"                  .........     ",
"                ..++++++++....  ",
"              ..++++++++..@@@@. ",
"             .+++++++++.@@@..@. ",
"            .....+++++.@@..@.@. ",
"           .#####..+++... .@.@. ",
"          .########...@.  .@.@. ",
"         .##########.@@...@@.@. ",
"        .#########..@@@.@@@.@@. ",
"       .#########.@@@@@@...@@@. ",
"      .########..@@@@@@@@@@@@.  ",
"     .#######..@@@@@@@@@@@@..   ",
"    .#######.@@@@@@@@@@@...     ",
"   .######..@@@@@@@@@...   ..   ",
"  .######.@@@@@@@@...        .  ",
" .#####..@@@@@@@..           .  ",
"...###.@@@@@....             .  ",
" .....@@@...                .   ",
"   ......        ...        .   ",
"               ..   ...   ..    ",
"              .        ...      ",
"              .                 ",
"             .                  ",
"             .                  ",
"                                ",
"                                "};
