/* XPM */
static char *views_xpm[] = {
/* columns rows colors chars-per-pixel */
"16 16 33 1",
"  c #B7E826",
". c #B4D15B",
"X c #E2FC96",
"o c #9EC820",
"O c #E7E7E5",
"+ c #E2EEBE",
"@ c #E5E7DE",
"# c #E4EAD3",
"$ c #E1FF8B",
"% c #E3F6A7",
"& c #D7E7A9",
"* c #B7E926",
"= c #E2E5DA",
"- c #CBF356",
"; c #FEFEFE",
": c #B7E827",
"> c #E0FE86",
", c #BEEC36",
"< c #DCECAC",
"1 c #D9FA75",
"2 c #C3EF40",
"3 c #C7F14B",
"4 c #DCFC7E",
"5 c #BAEA2E",
"6 c #C7F04B",
"7 c #E6E6E6",
"8 c #CDE38D",
"9 c #E2FF8B",
"0 c gray100",
"q c #9CC71C",
"w c gray100",
"e c black",
"r c None",
/* pixels */
"8qqqqqqqqqq8rrrr",
"oX%+#@O77=&.;rrr",
"q9qqqqqqqqqqq8rr",
"q9oX%+#@O77=&.;r",
"q9q9qqqqqqqqqqq8",
"q9q9oX%+#@O77=&.",
"q$q9q9qqqqqqqq*q",
"q9q9q9q000000q*q",
"q9q$q9q0qqqq0q:q",
"q9q9q9q0q<7q0q q",
"q9q9q$q0q-6q0q q",
"8qq9q9q0qqqq0q:q",
"rrq9q9q000000q q",
"rr8qq9qqqqqqqq*q",
"rrrrq9>41-32,5 q",
"rrrr8qqqqqqqqqq8"
};
