/* XPM */
static char * view_xpm[] = {
"16 16 10 1",
" 	c None",
".	c #000000",
"+	c #6C6CFF",
"@	c #9090FF",
"#	c #FFFFFF",
"$	c #4848FF",
"%	c #2424FF",
"&	c #7C2800",
"*	c #9B0000",
"=	c #BA0000",
"                ",
"          ..    ",
"        ..++..  ",
"       .@#@+$$. ",
"       .##@+$$. ",
"      .+@@@+$$%.",
"      .++++$$%%.",
"       .$$$$%%. ",
"      &.$$$%%%. ",
"     &&*..%%..  ",
"    &&*=  ..    ",
"   &&*=         ",
"  &&*=          ",
" &&*=           ",
"&&*=            ",
"&*=             "};
