/* XPM */
static char *view_xpm[] = {
/* columns rows colors chars-per-pixel */
"16 16 65 1",
"  c #CDE38D",
". c #CBF356",
"X c #B7E827",
"o c #B7E826",
"O c #D0F561",
"+ c #B7E926",
"@ c #E6E6E6",
"# c #D4F76C",
"$ c #C7F14B",
"% c #E3E5DA",
"& c #BEEC36",
"* c #D8E7AC",
"= c #D9FA75",
"- c #E7E7E5",
"; c #E1FB92",
": c #E3E9D1",
"> c #E4E8D8",
", c #DCFC7E",
"< c #DBE9B0",
"1 c #D4F86C",
"2 c #C3EF40",
"3 c #E0F5A2",
"4 c #E1FF8B",
"5 c #D0F661",
"6 c #E5E7DF",
"7 c #D5F86B",
"8 c #A1CA29",
"9 c #E0FE86",
"0 c #C6E863",
"q c #C6F14B",
"w c #DBF394",
"e c #BAEA2E",
"r c #C7F04B",
"t c #E3FF8D",
"y c #E0EDBA",
"u c #E2FF8B",
"i c #9CC71C",
"p c gray100",
"a c black",
"s c black",
"d c black",
"f c black",
"g c black",
"h c black",
"j c black",
"k c black",
"l c black",
"z c black",
"x c black",
"c c black",
"v c black",
"b c black",
"n c black",
"m c black",
"M c black",
"N c black",
"B c black",
"V c black",
"C c black",
"Z c black",
"A c black",
"S c black",
"D c black",
"F c black",
"G c None",
/* pixels */
"GGGGGGGGGGGGGGGG",
"G iiiiiiiiiiii G",
"Git;3y:6-@@%*08G",
"Giuiiiiiiiiii+iG",
"GiuiGGGGGGGGi+iG",
"GiuiGiiiiiiGiXiG",
"GiuiGiw>@<iGiXiG",
"GiuiGi1O.qiGiXiG",
"GiuiGi#5.$iGioiG",
"Gi4iGi#O.riGioiG",
"GiuiGiiiiiiGiXiG",
"GiuiGGGGGGGGioiG",
"Giuiiiiiiiiii+iG",
"Giu9,=7O.$2&eoiG",
"G iiiiiiiiiiii G",
"GGGGGGGGGGGGGGGG"
};
