/* XPM */
static char * pgadmin3_xpm_orig[] = {
"30 32 4 1",
" 	c None",
".	c black",
"X	c white",
"o	c #336699",
"     .....   ............     ",
"  .XXXXXXXX.XXoooXXXoooooXX.  ",
" ..ooooooooXooooooooXoooooo.. ",
" .XoooooooXooooooooooXooooooX.",
".XooooooooXoooooooooooooooooX.",
".oooooooooooooooooooooXoooooo.",
".ooooooooXoooooooooooooXooooo.",
".ooooooooXooooooooooooooXoooo.",
".ooooooooXooooooooooooXXXoooo.",
".ooooooooXooXXooooooXoXXooooX.",
".ooooooooXooXXooooooXoXXooooX.",
".XoooooooXooooXoooooXoooooooX ",
".XoooooooXooooXoooooXooooooX. ",
" XoooooooXooooXooooooXooXoo.. ",
" XoooooooXooooXooooooXooXoo.. ",
" .XooooooXooooooooooooooXoX.  ",
" .XooooooXooooooooooooXoXoX   ",
"  .ooooooooooXoooooooooXoX.   ",
"  .ooooooooooXoooooooooXo..   ",
"  .Xoooooo..XXXoooooooXXXXXXX.",
"   XoooooX..XooXooooooXoooooX.",
"   .XoooXXXXooXXooooooXXXXXX. ",
"   ..ooX.Xoooo.XooooooX.....  ",
"     ..   .....XooooooX.      ",
"          ... .XooooooX.      ",
"              .Xoooooo..      ",
"              .Xoooooo..      ",
"              .Xoooooo..      ",
"              .Xoooooo.       ",
"              .XoooooX.       ",
"              ..ooooX.        ",
"                .....         "};
