/* XPM */
static char * continue_xpm[] = {
"24 24 257 2",
"  	c None",
". 	c #000000",
"+ 	c #FFFFFF",
"@ 	c #00399C",
"# 	c #8CBDF7",
"$ 	c #318CEF",
"% 	c #4294EF",
"& 	c #4A9CEF",
"* 	c #5AA5EF",
"= 	c #84BDF7",
"- 	c #2988DE",
"; 	c #2D8CE7",
"> 	c #3594EF",
", 	c #1073BD",
"' 	c #1073B5",
") 	c #EDEEA1",
"! 	c #5A5A08",
"~ 	c #9C9C29",
"{ 	c #A9A931",
"] 	c #B5B539",
"^ 	c #C6C642",
"/ 	c #BDBD42",
"( 	c #CECE4A",
"_ 	c #D6D652",
": 	c #DEDE5A",
"< 	c #E7E763",
"[ 	c #DEDE63",
"} 	c #E7E76B",
"| 	c #E7E76F",
"1 	c #E7E773",
"2 	c #E7E774",
"3 	c #E7E77B",
"4 	c #E7E780",
"5 	c #E7E784",
"6 	c #E7E786",
"7 	c #E7E787",
"8 	c #E7E789",
"9 	c #E7E78B",
"0 	c #E7E78C",
"a 	c #E8E890",
"b 	c #EAEA95",
"c 	c #EFEF9C",
"d 	c #ECEC9C",
"e 	c #EFEFA5",
"f 	c #F7F7BD",
"g 	c #9C9C9C",
"h 	c #949494",
"i 	c #FFFFFF",
"j 	c #000000",
"k 	c #000000",
"l 	c #000000",
"m 	c #000000",
"n 	c #000000",
"o 	c #000000",
"p 	c #000000",
"q 	c #000000",
"r 	c #000000",
"s 	c #000000",
"t 	c #000000",
"u 	c #000000",
"v 	c #000000",
"w 	c #000000",
"x 	c #000000",
"y 	c #000000",
"z 	c #000000",
"A 	c #000000",
"B 	c #000000",
"C 	c #000000",
"D 	c #000000",
"E 	c #000000",
"F 	c #000000",
"G 	c #000000",
"H 	c #000000",
"I 	c #000000",
"J 	c #000000",
"K 	c #000000",
"L 	c #000000",
"M 	c #000000",
"N 	c #000000",
"O 	c #000000",
"P 	c #000000",
"Q 	c #000000",
"R 	c #000000",
"S 	c #000000",
"T 	c #000000",
"U 	c #000000",
"V 	c #000000",
"W 	c #000000",
"X 	c #000000",
"Y 	c #000000",
"Z 	c #000000",
"` 	c #000000",
" .	c #000000",
"..	c #000000",
"+.	c #000000",
"@.	c #000000",
"#.	c #000000",
"$.	c #000000",
"%.	c #000000",
"&.	c #000000",
"*.	c #000000",
"=.	c #000000",
"-.	c #000000",
";.	c #000000",
">.	c #000000",
",.	c #000000",
"'.	c #000000",
").	c #000000",
"!.	c #000000",
"~.	c #000000",
"{.	c #000000",
"].	c #000000",
"^.	c #000000",
"/.	c #000000",
"(.	c #000000",
"_.	c #000000",
":.	c #000000",
"<.	c #000000",
"[.	c #000000",
"}.	c #000000",
"|.	c #000000",
"1.	c #000000",
"2.	c #000000",
"3.	c #000000",
"4.	c #000000",
"5.	c #000000",
"6.	c #000000",
"7.	c #000000",
"8.	c #000000",
"9.	c #000000",
"0.	c #000000",
"a.	c #000000",
"b.	c #000000",
"c.	c #000000",
"d.	c #000000",
"e.	c #000000",
"f.	c #000000",
"g.	c #000000",
"h.	c #000000",
"i.	c #000000",
"j.	c #000000",
"k.	c #000000",
"l.	c #000000",
"m.	c #000000",
"n.	c #000000",
"o.	c #000000",
"p.	c #000000",
"q.	c #000000",
"r.	c #000000",
"s.	c #000000",
"t.	c #000000",
"u.	c #000000",
"v.	c #000000",
"w.	c #000000",
"x.	c #000000",
"y.	c #000000",
"z.	c #000000",
"A.	c #000000",
"B.	c #000000",
"C.	c #000000",
"D.	c #000000",
"E.	c #000000",
"F.	c #000000",
"G.	c #000000",
"H.	c #000000",
"I.	c #000000",
"J.	c #000000",
"K.	c #000000",
"L.	c #000000",
"M.	c #000000",
"N.	c #000000",
"O.	c #000000",
"P.	c #000000",
"Q.	c #000000",
"R.	c #000000",
"S.	c #000000",
"T.	c #000000",
"U.	c #000000",
"V.	c #000000",
"W.	c #000000",
"X.	c #000000",
"Y.	c #000000",
"Z.	c #000000",
"`.	c #000000",
" +	c #000000",
".+	c #000000",
"++	c #000000",
"@+	c #000000",
"#+	c #000000",
"$+	c #000000",
"%+	c #000000",
"&+	c #000000",
"*+	c #000000",
"=+	c #000000",
"-+	c #000000",
";+	c #000000",
">+	c #000000",
",+	c #000000",
"'+	c #000000",
")+	c #000000",
"!+	c #000000",
"~+	c #000000",
"{+	c #000000",
"]+	c #000000",
"^+	c #000000",
"/+	c #000000",
"(+	c #000000",
"_+	c #000000",
":+	c #000000",
"<+	c #000000",
"[+	c #000000",
"}+	c #000000",
"|+	c #000000",
"1+	c #000000",
"2+	c #000000",
"3+	c #000000",
"4+	c #000000",
"5+	c #000000",
"6+	c #000000",
"7+	c #000000",
"8+	c #000000",
"9+	c #000000",
"0+	c #000000",
"a+	c #000000",
"b+	c #000000",
"c+	c #000000",
"d+	c #000000",
"e+	c #000000",
"f+	c #000000",
"g+	c #000000",
"h+	c #000000",
"i+	c #000000",
"j+	c #000000",
"k+	c #000000",
"l+	c #000000",
"m+	c #000000",
"n+	c #000000",
"o+	c #000000",
"p+	c #000000",
"q+	c #000000",
"r+	c #000000",
"s+	c #000000",
"t+	c #000000",
"u+	c #000000",
"v+	c #000000",
"w+	c #000000",
"x+	c #000000",
"y+	c #000000",
"z+	c #000000",
"A+	c #000000",
"B+	c #000000",
"C+	c #000000",
"D+	c #000000",
"E+	c #000000",
"F+	c #000000",
"G+	c #000000",
"H+	c #000000",
"                                                ",
"                                                ",
"                ! ! ! ! !                       ",
"                ! f f f ! g                     ",
"        @ @ @ @ ! f e e ! @ @ @ @ @             ",
"        @ # # # ! c e 0 ! @ % > ; @ g           ",
"        @ # = # ! e 0 5 ! @ > ; ; @ g           ",
"        @ @ @ @ ! e 0 5 ! @ @ @ @ @ g           ",
"        @ @ @ @ ! ) 9 4 ! @ @ @ @ @ g           ",
"        @ * * & ! d 8 3 ! @ $ ; - @ g           ",
"        @ * & % ! b 7 2 ! @ ; - - @ g           ",
"        @ @ @ @ ! a 6 | ! @ @ @ @ @ g           ",
"        @ @ @ @ ! 0 5 } ! @ @ @ @ @ g           ",
"        @ > ; ; ! 5 1 [ ! @ ' ' ' @ g           ",
"        @ ; $ ; ! 1 [ : ! @ , ' ' @ g           ",
"        @ @ @ @ ! [ : _ ! @ @ @ @ @ g           ",
"        @ @ ! ! ! : _ ( ! ! ! @ @ @ g           ",
"        @ ; ! < : _ ^ / { ~ ! ' ' @ g           ",
"        @ ; - ! _ ^ ] { ~ ! @ ' ' @ g           ",
"        @ @ @ @ ! ] { ~ ! @ @ @ @ @ g           ",
"          g g g g ! ~ ! g g g g g g h           ",
"                    ! g                         ",
"                    g                           ",
"                                                "};
