/* XPM */
static char * restart_xpm[] = {
"24 24 146 2",
"  	c None",
". 	c #7EE7BB",
"+ 	c #83DEB8",
"@ 	c #7EE6BB",
"# 	c #84DDB8",
"$ 	c #A3A3A3",
"% 	c #7FE6BA",
"& 	c #7CE5B9",
"* 	c #7FDDB5",
"= 	c #79E3B7",
"- 	c #76E0B4",
"; 	c #76DAB1",
"> 	c #7DE4B8",
", 	c #79E2B6",
"' 	c #72DDB1",
") 	c #6ED9AD",
"! 	c #6BD5AA",
"~ 	c #78E2B6",
"{ 	c #7AE1B5",
"] 	c #76DFB3",
"^ 	c #72DCB1",
"/ 	c #6AD5A9",
"( 	c #65D2A6",
"_ 	c #62CEA3",
": 	c #71BE9F",
"< 	c #7AE4B8",
"[ 	c #6EDBAF",
"} 	c #76DEB3",
"| 	c #72DCB0",
"1 	c #65D1A6",
"2 	c #60CDA2",
"3 	c #5CC99D",
"4 	c #57C59A",
"5 	c #62BA98",
"6 	c #7CE6BA",
"7 	c #71DEB2",
"8 	c #63D3A7",
"9 	c #72DBB0",
"0 	c #6DD8AD",
"a 	c #69D5AA",
"b 	c #60CDA1",
"c 	c #5BC99E",
"d 	c #56C499",
"e 	c #52C095",
"f 	c #4DBC91",
"g 	c #54B48F",
"h 	c #75E0B3",
"i 	c #67D6AA",
"j 	c #57CA9E",
"k 	c #6ED7AC",
"l 	c #69D4A8",
"m 	c #64D1A5",
"n 	c #5BC89D",
"o 	c #4CBB91",
"p 	c #47B78C",
"q 	c #42B287",
"r 	c #43AD85",
"s 	c #6AD8AC",
"t 	c #5BCDA0",
"u 	c #4AC094",
"v 	c #69D3A8",
"w 	c #64D0A5",
"x 	c #5FCCA1",
"y 	c #5AC89D",
"z 	c #51BF94",
"A 	c #4CBB90",
"B 	c #47B68C",
"C 	c #3CAE83",
"D 	c #37A97F",
"E 	c #37A57C",
"F 	c #5FD0A4",
"G 	c #4EC397",
"H 	c #3EB78B",
"I 	c #65CFA4",
"J 	c #5FCCA0",
"K 	c #55C398",
"L 	c #46B68B",
"M 	c #41B288",
"N 	c #3CAD83",
"O 	c #37A97E",
"P 	c #32A57B",
"Q 	c #2EA178",
"R 	c #599F85",
"S 	c #53C69A",
"T 	c #42B98E",
"U 	c #34AF83",
"V 	c #5FCBA0",
"W 	c #59C79C",
"X 	c #50BF94",
"Y 	c #4BBA90",
"Z 	c #41B186",
"` 	c #3CAD82",
" .	c #32A47A",
"..	c #34A078",
"+.	c #7AA092",
"@.	c #46BC90",
"#.	c #37B185",
"$.	c #2CA97D",
"%.	c #5AC69B",
"&.	c #50BE93",
"*.	c #4BBA8F",
"=.	c #46B58A",
"-.	c #40B187",
";.	c #3BAD82",
">.	c #36A87E",
",.	c #31A47A",
"'.	c #41A07C",
").	c #8FA29B",
"!.	c #3BB488",
"~.	c #2EAB7F",
"{.	c #2AA87C",
"].	c #55C297",
"^.	c #4FBE93",
"/.	c #4AB98F",
"(.	c #45B58A",
"_.	c #40B186",
":.	c #3BAC82",
"<.	c #36A87D",
"[.	c #52A185",
"}.	c #9CA2A0",
"|.	c #31AD81",
"1.	c #4AB98E",
"2.	c #3FB086",
"3.	c #3AAC81",
"4.	c #35A87E",
"5.	c #33A379",
"6.	c #69A08C",
"7.	c #44B489",
"8.	c #3AAB81",
"9.	c #35A77C",
"0.	c #39A27B",
"a.	c #80A296",
"b.	c #45B48A",
"c.	c #3FAF84",
"d.	c #45A381",
"e.	c #93A29D",
"f.	c #3FAF85",
"g.	c #39AB80",
"h.	c #34A67C",
"i.	c #58A287",
"j.	c #A1A3A2",
"k.	c #3AAA80",
"l.	c #36A67C",
"m.	c #70A390",
"n.	c #37A67E",
"o.	c #7FA396",
"                                                ",
"                                                ",
"  . . .     . . .     . +                       ",
"  . . .     . . .     @ . #                     ",
"  . . . $   . . . $   % . & *                   ",
"  . . . $   . . . $   % & = - ;                 ",
"  . . . $   . . . $   > , - ' ) !               ",
"  . . ~ $   . . ~ $   { ] ^ ) / ( _ :           ",
"  . < [ $   . < [ $   } | ) / 1 2 3 4 5         ",
"  6 7 8 $   6 7 8 $   9 0 a 1 b c d e f g       ",
"  h i j $   h i j $   k l m b n d e o p q r     ",
"  s t u $   s t u $   v w x y d z A B q C D E   ",
"  F G H $   F G H $   I J y K z A L M N O P Q R ",
"  S T U $   S T U $   V W K X Y L Z ` O  ...+.$ ",
"  @.#.$.$   @.#.$.$   %.K &.*.=.-.;.>.,.'.).$   ",
"  !.~.{.$   !.~.{.$   ].^./.(._.:.<.,.[.}.      ",
"  |.{.{.$   |.{.{.$   &.1.(.2.3.4.5.6.$         ",
"  {.{.{.$   {.{.{.$   /.7.2.8.9.0.a.$           ",
"  {.{.{.$   {.{.{.$   b.c.8.9.d.e.$             ",
"  {.{.{.$   {.{.{.$   f.g.h.i.j.                ",
"  {.{.{.$   {.{.{.$   k.l.m.$                   ",
"  {.{.{.$   {.{.{.$   n.o.$                     ",
"      $         $                               ",
"                                                "};
