/* XPM */
static char * set_break_xpm[] = {
"22 22 154 2",
"  	c None",
". 	c #D13337",
"+ 	c #D03236",
"@ 	c #D53236",
"# 	c #CE3235",
"$ 	c #CC3235",
"% 	c #CB3235",
"& 	c #D23337",
"* 	c #D73337",
"= 	c #E13F43",
"- 	c #EE5659",
"; 	c #F76E71",
"> 	c #EA9496",
", 	c #E79D9F",
"' 	c #F37A7E",
") 	c #F15B5E",
"! 	c #DC464A",
"~ 	c #D33438",
"{ 	c #CA3236",
"] 	c #DF3337",
"^ 	c #E96366",
"/ 	c #F6ADAF",
"( 	c #F5DADA",
"_ 	c #FAEFEF",
": 	c #FBF2F2",
"< 	c #FBF1F1",
"[ 	c #F7E0E1",
"} 	c #F2BEBF",
"| 	c #EA7679",
"1 	c #D9393C",
"2 	c #CB3236",
"3 	c #E03F43",
"4 	c #EF878A",
"5 	c #F5D2D4",
"6 	c #F8E5E6",
"7 	c #F9E6E7",
"8 	c #F6DADC",
"9 	c #ECA0A3",
"0 	c #DA484B",
"a 	c #DE3337",
"b 	c #EF8386",
"c 	c #F4D2D3",
"d 	c #EFB9BB",
"e 	c #F6D8D8",
"f 	c #F6D8D9",
"g 	c #F5D7D8",
"h 	c #F5D6D6",
"i 	c #EC9C9E",
"j 	c #D83C40",
"k 	c #C73236",
"l 	c #D53337",
"m 	c #E76165",
"n 	c #F0BBBD",
"o 	c #FDFAFA",
"p 	c #FFFFFF",
"q 	c #EBACAE",
"r 	c #F2C9CA",
"s 	c #FEFBFB",
"t 	c #F1C4C5",
"u 	c #E87578",
"v 	c #D23539",
"w 	c #DD4043",
"x 	c #ED9396",
"y 	c #EEB9BA",
"z 	c #FDF9F9",
"A 	c #FEFCFC",
"B 	c #E59C9E",
"C 	c #DA474A",
"D 	c #C53437",
"E 	c #EC4E51",
"F 	c #E9A4A6",
"G 	c #EBABAD",
"H 	c #FDF7F7",
"I 	c #FEFDFD",
"J 	c #F75F63",
"K 	c #F85155",
"L 	c #F03A3E",
"M 	c #C93235",
"N 	c #ED6164",
"O 	c #E79A9C",
"P 	c #E7999B",
"Q 	c #FCF5F5",
"R 	c #F2585C",
"S 	c #FF3C41",
"T 	c #FF3B40",
"U 	c #FC3A3F",
"V 	c #CC3236",
"W 	c #E86C6F",
"X 	c #E58B8D",
"Y 	c #E58C8E",
"Z 	c #E69294",
"` 	c #F94A4F",
" .	c #FC4348",
"..	c #FD3A3F",
"+.	c #D33236",
"@.	c #ED5D61",
"#.	c #E77376",
"$.	c #E77679",
"%.	c #E88386",
"&.	c #E98284",
"*.	c #ED7578",
"=.	c #F16165",
"-.	c #FF3D42",
";.	c #FD3B40",
">.	c #F6464B",
",.	c #F55358",
"'.	c #F65256",
").	c #FC454A",
"!.	c #FF3E43",
"~.	c #FC3C41",
"{.	c #F4383C",
"].	c #FD4549",
"^.	c #FD494E",
"/.	c #FFFCFC",
"(.	c #FF4146",
"_.	c #FF4247",
":.	c #F4373C",
"<.	c #C83235",
"[.	c #E2383C",
"}.	c #FC494E",
"|.	c #FC4A4E",
"1.	c #FFF8F8",
"2.	c #C03639",
"3.	c #D33538",
"4.	c #EB4E52",
"5.	c #F15F63",
"6.	c #E68386",
"7.	c #FEF5F5",
"8.	c #F15E61",
"9.	c #D13538",
"0.	c #D64043",
"a.	c #E76E70",
"b.	c #E77477",
"c.	c #E87577",
"d.	c #C33336",
"e.	c #CB3336",
"f.	c #D64F52",
"g.	c #E27C7F",
"h.	c #E68588",
"i.	c #C73437",
"j.	c #CA3437",
"k.	c #D24A4D",
"l.	c #E17376",
"m.	c #E78D8F",
"n.	c #E88E90",
"o.	c #E88D90",
"p.	c #C73438",
"q.	c #CF3D40",
"r.	c #D7585B",
"s.	c #DB7B7D",
"t.	c #E58F91",
"u.	c #E89294",
"v.	c #CA3538",
"w.	c #CD4245",
"                                            ",
"              . + + @ @ # $ %               ",
"          & * = - ; > , ' ) ! ~ {           ",
"        & ] ^ / ( _ : : < [ } | 1 2         ",
"      & 3 4 5 6 7 7 7 7 7 7 7 8 9 0 2       ",
"    + a b c 6 d d e f e g g d d h i j k     ",
"    l m n 6 d o p q r r r q p s d t u v     ",
"  $ w x y 6 z p A p q d q p p p p B B C D   ",
"  $ E F G G p A p H p q p I p p p J K L M   ",
"  # N O O P O p Q p p p p p p p R S T U V   ",
"  @ W X Y Z Z Z p p p p p p p `  .S S ..+.  ",
"  @ @.#.$.%.&.*.=.p p p p p -.-.-.-.S ;.+.  ",
"  # >.,.,.,.'.).p p p p p p p -.-.-.!.~.2   ",
"  $ {.].].].^.p /.p p p p p p p -.(._.:.<.  ",
"  % [.}.|.|.p p p p p -.p 1.p p p }.}.[.2.  ",
"    3.4.5.6.7.p p p 8.8.8.p p p p }.4.9.    ",
"    2 0.a.b.6.p p c.c.c.b.b.p p 6.a.0.d.    ",
"      e.f.g.h.6.6.6.6.6.6.6.6.6.g.f.i.      ",
"        j.k.l.m.n.n.n.n.o.o.m.l.k.p.        ",
"          k q.r.s.t.u.u.t.s.r.q.d.          ",
"              D M v.w.w.v.<.2.              ",
"                                            "};
