/* XPM */
static char *stepOver_xpm[] = {
"16 16 16 2",
"00 c black",
"01 c blue",
"02 c None",
"03 c None",
"04 c None",
"05 c None",
"06 c None",
"07 c None",
"08 c None",
"09 c None",
"10 c None",
"11 c None",
"12 c None",
"13 c None",
"14 c None",
"15 c None",
"15151515151515151515151515151515",
"15010101010101011515151515151515",
"15011515151515151515151515151515",
"15011515151500000000000000000015",
"15011515151515151515151515151515",
"15011515151500000000000000000015",
"15011515151515151515151515151515",
"15011515151500000000000000000015",
"15011515151515151515151515151515",
"15011515151500000000000000000015",
"15011515011515151515151515151515",
"15011515010115151515151515151515",
"15010101010101151515151515151515",
"15151515010115151515151515151515",
"15151515011515151515151515151515",
"15151515151515151515151515151515"
};
