/* XPM */
static char * edit_clear_xpm[] = {
"16 16 7 1",
" 	c None",
"+	c #000000",
"@	c #FFFFFF",
"#	c #FFFF00",
"$	c #848200",
"%	c #0000FF",
"&	c #848284",
"                ",
"          +++++ ",
"         +@###$+",
"+++++++++@###$$+",
"+      +@###$$$+",
"+ %%%%+@###$$$+ ",
"+ &&&+&$$$$$$+@ ",
"+ @@@+@###$$++@ ",
"+ @@@+@###$+&+@ ",
"+ @@@@+++++@&+@ ",
"+ @@@@@@@@@@&+@ ",
"+ @@@@@@   @&+@ ",
"+ @@@@@@@@@@&+@ ",
"+&&&&&&&&&&&&+@ ",
"++++++++++++++@ ",
"                "};
