/* XPM */
static char * elephant32_xpm[] = {
"32 32 4 1",
" 	c None",
".	c #008080",
"+	c #000000",
"@	c #FFFFFF",
"     +++++++.++++++++.@@+++     ",
"     @@@@@@@@@@@@@@@@@..@@@++   ",
"   +@@......@@......@@.....@@+  ",
"  +@........@.........@.....@+  ",
"  +@.......@...........@....@@+ ",
"  +@.......@............@....@+ ",
" +@@......@.............@....@+ ",
" +@.......@..............@...@+ ",
" +@.......@.@@@.......@@@@...@+ ",
" +@.......@@...@.....@...@...@+ ",
" ++@......@..@@@.....@@@.@..@+  ",
"  +@......@....@.....@...@..@+  ",
"  +@......@....@......@..@..@+  ",
"  +@......@....@......@..@.@+   ",
"   @......@....@......@..@.@+   ",
"   +@.....@....@.......@@@@+    ",
"   +@.....@...@@.......@@.@+    ",
"   +@.....@@..@.........@@++++  ",
"    @.....@@@@@@@.......@@@@@@+ ",
"    +@....@+@@..@......@.....@+ ",
"    +@...@+@....@......@...@@@+ ",
"     @..@+@....@@......@@@@@++  ",
"     +@@+ +@@@@+@......@++++    ",
"      ++  ++++++@......@+       ",
"               +@......@+       ",
"               +@......@+       ",
"               +@......@+       ",
"               +@.....@@        ",
"               +@.....@+        ",
"               +@@...@@+        ",
"                +@@@@@+         ",
"                 +++++          "};
