/* XPM */
static char * foreignkey_xpm[] = {
"16 16 5 1",
" 	c None",
".	c #000000",
"+	c #FFFF00",
"@	c #808080",
"#	c #0000FF",
"  ...           ",
" .+++.          ",
".+++++.         ",
"+..+++@........ ",
"+..+++++++++++. ",
"+..+++++++++++. ",
".+++++.....++.  ",
" .+++..    ..   ",
"  ...   ######. ",
"        #...... ",
"        #.      ",
"        #####.  ",
"        #.....  ",
"        #.      ",
"        #.      ",
"        ..      "};
