/* XPM */
static char * clabrk_xpm[] = {
"24 24 12 1",
" 	c None",
".	c #FF0000",
"+	c #DF0000",
"@	c #800000",
"#	c #700000",
"$	c #3B0000",
"%	c #CC0000",
"&	c #BF0000",
"*	c #4E0000",
"=	c #000000",
"-	c #400000",
";	c #300000",
"                        ",
"                        ",
"          ....          ",
"        ........        ",
"      ...+@@@@+...      ",
"     ...#$    $....     ",
"    ....        ...%    ",
"    .....        ..&    ",
"   ..# ...        ..*   ",
"   .+$  ...       ..#   ",
"  ..@    ...       ..=  ",
"  ..@     ...      ..=  ",
"  ..@      ...     ..=  ",
"  ..@       ...    ..=  ",
"   .+$       ...  ..#   ",
"   ...        ... .@=   ",
"    ...        ...+-    ",
"    ....        ..;=    ",
"     .....    ..+;=     ",
"      %&.......+-=      ",
"        *#....#$        ",
"          ====          ",
"                        ",
"                        "};
