/* XPM */
static char * clear_watch_xpm[] = {
"24 24 119 2",
"  	c None",
". 	c #000000",
"+ 	c #BFB0AB",
"@ 	c #B0978A",
"# 	c #977E72",
"$ 	c #FF0000",
"% 	c #BDA49A",
"& 	c #6B4A3C",
"* 	c #B0998F",
"= 	c #9F8577",
"- 	c #937264",
"; 	c #87756F",
"> 	c #657979",
", 	c #AC8B83",
"' 	c #B79E99",
") 	c #866E6B",
"! 	c #97857D",
"~ 	c #7D5B55",
"{ 	c #B39895",
"] 	c #A28983",
"^ 	c #BB9F98",
"/ 	c #BCA49E",
"( 	c #A48373",
"_ 	c #CCBCB4",
": 	c #CCC0B5",
"< 	c #C2AEA2",
"[ 	c #966B5B",
"} 	c #A2756C",
"| 	c #A87A70",
"1 	c #B49086",
"2 	c #AB9087",
"3 	c #B1978D",
"4 	c #A17F75",
"5 	c #C5A9A0",
"6 	c #BEA195",
"7 	c #987B6F",
"8 	c #96675A",
"9 	c #A07B66",
"0 	c #A98877",
"a 	c #BC988F",
"b 	c #AA8D85",
"c 	c #C6B7AD",
"d 	c #BC978C",
"e 	c #8F5F52",
"f 	c #83685D",
"g 	c #875C4A",
"h 	c #C8AEAB",
"i 	c #B49D99",
"j 	c #695D56",
"k 	c #607170",
"l 	c #738986",
"m 	c #848785",
"n 	c #805B49",
"o 	c #845A4B",
"p 	c #89746C",
"q 	c #A69E9C",
"r 	c #B4A099",
"s 	c #A87F76",
"t 	c #B49285",
"u 	c #956B63",
"v 	c #906A65",
"w 	c #68554B",
"x 	c #495B5B",
"y 	c #5A6C6D",
"z 	c #A4B8B9",
"A 	c #735D54",
"B 	c #858788",
"C 	c #8A9293",
"D 	c #B9BCBC",
"E 	c #D0BFBB",
"F 	c #9C7467",
"G 	c #A38B8A",
"H 	c #95756E",
"I 	c #5A514A",
"J 	c #4B5C5C",
"K 	c #404848",
"L 	c #232220",
"M 	c #8F8C8F",
"N 	c #76695F",
"O 	c #747672",
"P 	c #2E332B",
"Q 	c #5B5E5A",
"R 	c #CDC2BB",
"S 	c #9A6D61",
"T 	c #A7908A",
"U 	c #635041",
"V 	c #515D5E",
"W 	c #404B4C",
"X 	c #627D7E",
"Y 	c #7A6F64",
"Z 	c #855E54",
"` 	c #6C5E56",
" .	c #6F7678",
"..	c #525B59",
"+.	c #707879",
"@.	c #9E8E87",
"#.	c #9A7B6E",
"$.	c #B4A39C",
"%.	c #CBB4B4",
"&.	c #574E48",
"*.	c #556562",
"=.	c #676A60",
"-.	c #B89E97",
";.	c #A4968E",
">.	c #68564E",
",.	c #7A6B69",
"'.	c #82726B",
").	c #966E65",
"!.	c #D2C0B9",
"~.	c #94675E",
"{.	c #A98077",
"].	c #846F62",
"^.	c #835B4B",
"/.	c #8E695D",
"(.	c #BFAEAA",
"_.	c #B0958D",
":.	c #9E7269",
"<.	c #9C7B75",
"[.	c #B09691",
"                                                ",
"                                                ",
"                                        .       ",
"                                      .         ",
"                                + @ .           ",
"              # $ %             & . *           ",
"            = $ $ -           ; . > >           ",
"          , $ ' ) !           . ~   > >         ",
"        { $ ]               .         > ^       ",
"      / $ ( _             .       :   > >       ",
"    < $ $ [ } | 1 2 3 4 . 5 6 7 8 9 0 a > b     ",
"  c $ $ $ $ $ $ $ d e . f g > > > > > > > > h   ",
"i $ $ $ $ j k l m $ .     n > o p q r s t > u   ",
"v $ $ $ w x y > z . $     > > A B C D E F > > > ",
"G H $ $ I J K L . M $     > > N O P Q R S > > > ",
"    T $ U V W . X Y $     Z > `  ...+.@.> #.$.%.",
"      $ $ &.. *.=.$ -.    ;.> > >.,.'.> ).      ",
"      !.~.. $ $ $ {.        ].^.> > > /.(.      ",
"        .   _.:.                <.[.            ",
"      .                                         ",
"    .                                           ",
"                                                ",
"                                                ",
"                                                "};
