/* XPM */
static char * set_pc_xpm[] = {
"24 24 53 1",
" 	c None",
".	c #5A5A08",
"+	c #F7F7BD",
"@	c #9C9C9C",
"#	c #00399C",
"$	c #EFEFA5",
"%	c #8CBDF7",
"&	c #E7E773",
"*	c #DEDE63",
"=	c #DEDE5A",
"-	c #4294EF",
";	c #3594EF",
">	c #2D8CE7",
",	c #84BDF7",
"'	c #D6D652",
")	c #58590B",
"!	c #CECE4A",
"~	c #525715",
"{	c #E7E763",
"]	c #C6C642",
"^	c #BDBD42",
"/	c #A9A931",
"(	c #9C9C29",
"_	c #5AA5EF",
":	c #58A4EF",
"<	c #595F19",
"[	c #B5B539",
"}	c #2988DE",
"|	c #4A9CEF",
"1	c #E3E360",
"2	c #DEDE5C",
"3	c #D8D857",
"4	c #D0D052",
"5	c #C9CA4C",
"6	c #C1C246",
"7	c #BAB940",
"8	c #B3B23A",
"9	c #ACAB34",
"0	c #A5A530",
"a	c #A09F2C",
"b	c #E4E461",
"c	c #D7D858",
"d	c #D0D152",
"e	c #C9C94C",
"f	c #BABA40",
"g	c #B2B23A",
"h	c #ABAC35",
"i	c #9FA02C",
"j	c #217FD2",
"k	c #187BC6",
"l	c #1073BD",
"m	c #1073B5",
"n	c #949494",
"                        ",
"                        ",
"        .....           ",
"        .+++.@          ",
"    ####.+$$.#####      ",
"    #%%%.&*=.#-;>#@     ",
"    #%,%.*='.#;>>#@     ",
"    ##)..='!...###@     ",
"    ##~{=']^/(.###@     ",
"    #_:<'][/(.#>}#@     ",
"    #_|-.[/(.#>}}#@     ",
"    #####.(.######@     ",
"    ######.#######@     ",
"    #{1234567890a#@     ",
"    #{b2cde6fgh0i#@     ",
"    ##############@     ",
"    ##############@     ",
"    #>>>>}jjklmmm#@     ",
"    #>}>}}jkmmmmm#@     ",
"    ##############@     ",
"     @@@@@@@@@@@@@n     ",
"                        ",
"                        ",
"                        "};
