/* XPM */
static char * set_watch_xpm[] = {
"24 24 126 2",
"  	c None",
". 	c #BFB0AB",
"+ 	c #B0978A",
"@ 	c #977E72",
"# 	c #FF0000",
"$ 	c #BDA49A",
"% 	c #6B4A3C",
"& 	c #B0998F",
"* 	c #9F8577",
"= 	c #937264",
"- 	c #87756F",
"; 	c #AC8B83",
"> 	c #B79E99",
", 	c #866E6B",
"' 	c #97857D",
") 	c #A69590",
"! 	c #7D5B55",
"~ 	c #B39895",
"{ 	c #A28983",
"] 	c #BB9F98",
"^ 	c #BCA49E",
"/ 	c #A48373",
"( 	c #CCBCB4",
"_ 	c #CCC0B5",
": 	c #C2AEA2",
"< 	c #966B5B",
"[ 	c #A2756C",
"} 	c #A87A70",
"| 	c #B49086",
"1 	c #AB9087",
"2 	c #B1978D",
"3 	c #A17F75",
"4 	c #A17B73",
"5 	c #C5A9A0",
"6 	c #BEA195",
"7 	c #987B6F",
"8 	c #96675A",
"9 	c #A07B66",
"0 	c #A98877",
"a 	c #BC988F",
"b 	c #AA8D85",
"c 	c #C6B7AD",
"d 	c #BC978C",
"e 	c #8F5F52",
"f 	c #89645B",
"g 	c #83685D",
"h 	c #875C4A",
"i 	c #C8AEAB",
"j 	c #B49D99",
"k 	c #695D56",
"l 	c #607170",
"m 	c #738986",
"n 	c #848785",
"o 	c #AF8C7B",
"p 	c #805B49",
"q 	c #845A4B",
"r 	c #89746C",
"s 	c #A69E9C",
"t 	c #B4A099",
"u 	c #A87F76",
"v 	c #B49285",
"w 	c #956B63",
"x 	c #906A65",
"y 	c #68554B",
"z 	c #495B5B",
"A 	c #5A6C6D",
"B 	c #657979",
"C 	c #A4B8B9",
"D 	c #8C897D",
"E 	c #735D54",
"F 	c #858788",
"G 	c #8A9293",
"H 	c #B9BCBC",
"I 	c #D0BFBB",
"J 	c #9C7467",
"K 	c #A38B8A",
"L 	c #95756E",
"M 	c #5A514A",
"N 	c #4B5C5C",
"O 	c #404848",
"P 	c #232220",
"Q 	c #798F8C",
"R 	c #8F8C8F",
"S 	c #76695F",
"T 	c #747672",
"U 	c #2E332B",
"V 	c #5B5E5A",
"W 	c #CDC2BB",
"X 	c #9A6D61",
"Y 	c #A7908A",
"Z 	c #635041",
"` 	c #515D5E",
" .	c #404B4C",
"..	c #3A4445",
"+.	c #627D7E",
"@.	c #7A6F64",
"#.	c #855E54",
"$.	c #6C5E56",
"%.	c #6F7678",
"&.	c #525B59",
"*.	c #707879",
"=.	c #9E8E87",
"-.	c #9A7B6E",
";.	c #B4A39C",
">.	c #CBB4B4",
",.	c #574E48",
"'.	c #4B5B55",
").	c #556562",
"!.	c #676A60",
"~.	c #B89E97",
"{.	c #A4968E",
"].	c #68564E",
"^.	c #7A6B69",
"/.	c #82726B",
"(.	c #966E65",
"_.	c #D2C0B9",
":.	c #94675E",
"<.	c #A98077",
"[.	c #846F62",
"}.	c #835B4B",
"|.	c #8E695D",
"1.	c #BFAEAA",
"2.	c #B0958D",
"3.	c #9E7269",
"4.	c #9C7B75",
"5.	c #B09691",
"                                                ",
"                                                ",
"                                                ",
"                                                ",
"                                . +             ",
"              @ # $             % # &           ",
"            * # # =           - # # #           ",
"          ; # > , '           ) !   # #         ",
"        ~ # {                         # ]       ",
"      ^ # / (                     _   # #       ",
"    : # # < [ } | 1 2 3 4 5 6 7 8 9 0 a # b     ",
"  c # # # # # # # d e f g h # # # # # # # # i   ",
"j # # # # k l m n # o     p # q r s t u v # w   ",
"x # # # y z A B C D #     # # E F G H I J # # # ",
"K L # # M N O P Q R #     # # S T U V W X # # # ",
"    Y # Z `  ...+.@.#     #.# $.%.&.*.=.# -.;.>.",
"      # # ,.'.).!.# ~.    {.# # ].^./.# (.      ",
"      _.:.# # # # <.        [.}.# # # |.1.      ",
"            2.3.                4.5.            ",
"                                                ",
"                                                ",
"                                                ",
"                                                ",
"                                                "};
