/* XPM */
static char * aggregate_xpm[] = {
"16 16 25 1",
" 	c None",
".	c #6F6F6F",
"+	c #C9DFF1",
"@	c #CADFF1",
"#	c #CCE0F1",
"$	c #CDE0F2",
"%	c #CFE1F2",
"&	c #D0E1F2",
"*	c #D2E2F2",
"=	c #D4E3F3",
"-	c #D6E4F3",
";	c #9CBE44",
">	c #D8E5F3",
",	c #DBE5F3",
"'	c #DDE6F4",
")	c #888888",
"!	c #DFE7F4",
"~	c #E1E8F4",
"{	c #E3E9F5",
"]	c #E5E9F5",
"^	c #E7EAF5",
"/	c #E8EBF5",
"(	c #EAEBF6",
"_	c #EBECF6",
":	c #ECECF6",
"   ..........   ",
"  .++@#$%&*=-.  ",
"  .+;;;;;;;;>.  ",
"  .@;;;;;;;;,.  ",
"  .#$%&*=->,'.  ",
"  .$))*))>))!.  ",
"  .%))=)),))~.  ",
"  .&*=->,'!~{.  ",
"  .*))>))!))].  ",
"  .=)),))~))^.  ",
"  .->,'!~{]^/.  ",
"  .>))!))]))(.  ",
"  .,))~))^))_.  ",
"  .'!~{]^/(_:.  ",
"   ..........   ",
"                "};
