/* XPM */
static char *backup_xpm[] = {
/* columns rows colors chars-per-pixel */
"16 16 129 2",
"   c #F2E8D9",
".  c #FFFAF4",
"X  c #FFF8F3",
"o  c #FFF9EE",
"O  c #E6DEC0",
"+  c #D3C591",
"@  c #FFFAEF",
"#  c #D1C38D",
"$  c #C3B06A",
"%  c #FAF9F4",
"&  c #B7A04B",
"*  c #FFFDEE",
"=  c #FFF7EE",
"-  c #83A5D8",
";  c #FBFBF1",
":  c #F3E9DA",
">  c #B1B1B1",
",  c #81AAE6",
"<  c #D2EEF8",
"1  c #C8EBF7",
"2  c #FFFDE3",
"3  c #F4EAD8",
"4  c #F2F9FC",
"5  c #E4F5FB",
"6  c #E3F3F9",
"7  c #C1AD63",
"8  c #C7BC6A",
"9  c #FEF4D1",
"0  c #DAF2FA",
"q  c #B0983B",
"w  c #627A86",
"e  c #51A1D0",
"r  c #F9F9D1",
"t  c #3B7FC4",
"y  c #C6B469",
"u  c #E0DA7B",
"i  c #7CBADB",
"p  c #D6CE88",
"a  c #E4E196",
"s  c #7BBED8",
"d  c #5497D7",
"f  c #7DB9DC",
"g  c #DBF1F8",
"h  c #F2F2C2",
"j  c #F2EAD9",
"k  c #F5F2D9",
"l  c #EDEDCA",
"z  c #E6DCA9",
"x  c #9DC8E6",
"c  c #DBC694",
"v  c #DDD099",
"b  c #EDDDB5",
"n  c #B8A24E",
"m  c #E3DBBD",
"M  c #F4ECB5",
"N  c #F3E6BE",
"B  c #E8E3AB",
"V  c #E5E5AB",
"C  c #E4E1A0",
"Z  c #DFDF9B",
"A  c #E0F2F9",
"S  c #AF9836",
"D  c #BCAD52",
"F  c #DACB8E",
"G  c #7E9DB7",
"H  c #FFF8F2",
"J  c #C2AE65",
"K  c #ECE9BF",
"L  c #5692DB",
"P  c #FEFEFB",
"I  c #B09939",
"U  c #5690DC",
"Y  c #80B0E3",
"T  c #FFF3D3",
"R  c #CABD6D",
"E  c #529FD2",
"W  c #7EB4E0",
"Q  c #EDE8BD",
"!  c #ECE9C4",
"~  c #EEEEBE",
"^  c #93C3E3",
"/  c #EAF6FB",
"(  c #ECE9B2",
")  c #CBBC82",
"_  c #A0BEED",
"`  c #EDEDBB",
"'  c #7ABFD7",
"]  c #7CBCDA",
"[  c #FAF7CF",
"{  c #F0EDD2",
"}  c #EFECB7",
"|  c #EDE3BB",
" . c #539CD4",
".. c #DFDA84",
"X. c #EBE198",
"o. c #5595D9",
"O. c #3C7DC6",
"+. c #539AD5",
"@. c #7F9EB9",
"#. c #80ACE5",
"$. c #F4F4C7",
"%. c #B29B3B",
"&. c #F5F0D4",
"*. c #E4DFA2",
"=. c #F4F4DB",
"-. c #E9DCB9",
";. c #9BD0E1",
":. c #FCF9F2",
">. c #FEF9D8",
",. c #ECF7FC",
"<. c #F1EEBC",
"1. c #80AEE3",
"2. c #F7F4E8",
"3. c #F5F0C5",
"4. c #EAE2BA",
"5. c #E3D883",
"6. c #3D79C9",
"7. c #3C7BC8",
"8. c #E9E1B7",
"9. c #FCF9D9",
"0. c #DCF3FA",
"q. c #7FB2E1",
"w. c #AF9637",
"e. c #FEF4D3",
"r. c #E5DDC2",
"t. c #AC9230",
"y. c #2C66BD",
"u. c gray100",
"i. c None",
/* pixels */
"% O + $ & w.w.w.w.& $ + O % i.i.",
"# %.y F z Q h } *.p R D S # i.i.",
"7 v * 2 >.r 3.<.( V C Z 8 7 i.i.",
"q 8.* 2 9.[ $.~ ` K l =.:.n i.i.",
"t.m -.| &.k ; ; P 2.{ ! 4.t.i.i.",
"t.r.3 X = e.M X.5.u ..a B t.i.i.",
"t.r.: X = e.@.y.y.y.y.y.y.y.y.- ",
"t.r.  X @ e.y.;.y.4 6 g 5 y.x y.",
"t.r.  . o T y.' y.6 > > 1 y.W y.",
"t.r.  . o e.y.s y./ < 1 0 y.q.y.",
"t.r.  X @ e.y.] t y.y.y.y.7.Y y.",
"t.r.: . @ 9 y.i e E  .+.d o.1.y.",
"t.r.j . o e.y.f O.y.y.y.6.L #.y.",
"t.) 3 H o e.y.^ y.4 A 5 y.U , y.",
"# I J c b N G y.y.,.< 0.y., _ y.",
"% O + $ & w.w.w y.y.y.y.y.y.y.- "
};
