/* XPM */
static char * baddatabase_xpm[] = {
"16 16 122 2",
"  	c None",
". 	c #C3B06A",
"+ 	c #B7A04B",
"@ 	c #AF9637",
"# 	c #C6B469",
"$ 	c #D8CD8B",
"% 	c #E6DCA9",
"& 	c #EDE9BE",
"* 	c #F2F2C2",
"= 	c #EFECB7",
"- 	c #E4DFA2",
"; 	c #CABD6D",
"> 	c #BCAD52",
", 	c #AF9836",
"' 	c #D1C38D",
") 	c #C1AD64",
"! 	c #E6D09C",
"~ 	c #FFFDEE",
"{ 	c #FFFDE3",
"] 	c #FDF9D9",
"^ 	c #F9F9D1",
"/ 	c #F5F0C5",
"( 	c #F1EEBC",
"_ 	c #ECE9B2",
": 	c #E5E5AB",
"< 	c #E4E1A0",
"[ 	c #DFDF9B",
"} 	c #C7BC6A",
"| 	c #B1993A",
"1 	c #EAE2B9",
"2 	c #FAF7CF",
"3 	c #F4F4C7",
"4 	c #EEEEBE",
"5 	c #EDEDBB",
"6 	c #EDEDCA",
"7 	c #F4F4DB",
"8 	c #FCF9F2",
"9 	c #B8A24E",
"0 	c #AC9230",
"a 	c #E3DBBD",
"b 	c #E9DCB9",
"c 	c #EDE3BB",
"d 	c #F5F0D4",
"e 	c #F5F2D9",
"f 	c #FBFBF1",
"g 	c #FEFEFB",
"h 	c #F7F4E8",
"i 	c #F0EDD2",
"j 	c #ECE9C4",
"k 	c #E5DDC2",
"l 	c #F4EAD8",
"m 	c #FFF8F3",
"n 	c #FFF7EE",
"o 	c #FEF4D3",
"p 	c #F4ECB5",
"q 	c #EBE198",
"r 	c #D3673F",
"s 	c #C80B07",
"t 	c #C50000",
"u 	c #D35B44",
"v 	c #B17727",
"w 	c #F3E9DA",
"x 	c #F6EEB4",
"y 	c #D55D3F",
"z 	c #D52727",
"A 	c #F46B6B",
"B 	c #F56C6D",
"C 	c #F36666",
"D 	c #E03A3A",
"E 	c #F2E8D9",
"F 	c #FFFAEF",
"G 	c #E9AF84",
"H 	c #D31E1E",
"I 	c #F57171",
"J 	c #F25F5F",
"K 	c #F15758",
"L 	c #E23535",
"M 	c #D85555",
"N 	c #FFFAF4",
"O 	c #FFF9EE",
"P 	c #FFF4D2",
"Q 	c #DA6D55",
"R 	c #DF3C3C",
"S 	c #ED5758",
"T 	c #DD2E2E",
"U 	c #EF4E4E",
"V 	c #E93E3E",
"W 	c #CD2222",
"X 	c #CD1A14",
"Y 	c #EC4949",
"Z 	c #EE4545",
"` 	c #DA2222",
" .	c #E07777",
"..	c #D99657",
"+.	c #BC3D15",
"@.	c #EBE398",
"#.	c #D15834",
"$.	c #DF2829",
"%.	c #D14C39",
"&.	c #AF802A",
"*.	c #F2EAD9",
"=.	c #F3E9B6",
"-.	c #ECE796",
";.	c #CC3A21",
">.	c #CF4A32",
",.	c #E0AA7F",
"'.	c #CBBC82",
").	c #E22B2B",
"!.	c #EA3334",
"~.	c #DB1A1B",
"{.	c #C84D2F",
"].	c #DBC694",
"^.	c #EDDDB5",
"/.	c #F3E6BE",
"(.	c #F3EBAF",
"_.	c #E9E193",
":.	c #E02525",
"<.	c #E92B2C",
"[.	c #DA1617",
"}.	c #B66625",
"|.	c #C12B14",
"1.	c #CA4F3B",
"        . + @ @ @ @ + .         ",
"      # $ % & * = - $ ; > , '   ",
"  ) ! ~ { ] ^ / ( _ : < [ } )   ",
"  | 1 ~ { ] 2 3 4 5 & 6 7 8 9   ",
"  0 a b c d e f f g h i j 1 0   ",
"  0 k l m n o p q r s t t u v   ",
"  0 k w m n o x y z A B C D s   ",
"  0 k E m F o G H I B C J K L M ",
"  0 k E N O P Q R A S t T U V W ",
"  0 k E N O o ! y t X X Y Z `  .",
"  0 k E m F o x q ..H U Z ` +.  ",
"  0 k w N F P p @.#.T Z $.%.&.  ",
"  0 k *.N O o =.-...;.t >.,.0   ",
"  0 '.l m O o p @.;.).!.~.{.0   ",
"    | ) ].^./.(._.;.:.<.[.+.    ",
"        . + @ @ @ }.|.t 1.      "};
