/* XPM */
static char * cast_sm_xpm[] = {
"16 16 31 1",
" 	c None",
".	c #BBAD7D",
"+	c #A58E3C",
"@	c #6F6195",
"#	c #594FBA",
"$	c #9D97D6",
"%	c #C4B767",
"&	c #DDDF18",
"*	c #7F6E7B",
"=	c #A5A5FF",
"-	c #C7BA76",
";	c #DEE021",
">	c #AAAAFF",
",	c #BDAC70",
"'	c #E1E22F",
")	c #B1B1FF",
"!	c #E4E53F",
"~	c #BABAFF",
"{	c #C5B760",
"]	c #E7E851",
"^	c #C3C3FF",
"/	c #EAEA64",
"(	c #CDCDFF",
"_	c #EDED75",
":	c #D6D6FF",
"<	c #F0EF86",
"[	c #DFDFFF",
"}	c #F2F293",
"|	c #E6E6FF",
"1	c #CABD8C",
"2	c #7E709B",
"                ",
"                ",
"     .+@#$      ",
"    %+&*=#      ",
"   -+;;*>#      ",
"  ,+'''*)#$     ",
"  +!!!!*~##     ",
"  {+++]*^###$   ",
"     +/*((((#   ",
"     +_*:::#$   ",
"     +<*[[#$    ",
"     +}*|#$     ",
"     1+2#$      ",
"                ",
"                ",
"                "};
