/* XPM */
static char *catalogobjects_xpm[] = {
/* columns rows colors chars-per-pixel */
"16 16 35 1",
"4 c #3DA5ED",
": c #F9F696",
"r c #7BC6FB",
"8 c #4AABF0",
"& c #76B9E8",
"y c #2899E8",
"0 c #2899E9",
"7 c #83CBFD",
"1 c #63B9F6",
"> c #83CBFE",
"- c #52B0F2",
"  c #2195E7",
"w c #DAC43F",
". c None",
"9 c #3DA4ED",
"# c #E6E7E7",
"2 c #56B2F3",
"; c #B3D5ED",
"t c #6FC0F8",
"X c #8ACEFE",
"< c #6FC0F9",
"O c #ADD5F2",
", c #7AC6FB",
"e c #90CAF3",
"3 c #49ABF0",
"6 c #2799E9",
"$ c #E6E6E6",
"5 c #319EEB",
"q c #87C0E7",
"o c #94CFF9",
"= c #88CDFE",
"% c #C5D8E6",
"+ c #CADCEA",
"* c #309CE8",
"@ c #DEE3E7",
/* pixels */
"           .....",
" XoO+@#$$%&*....",
" =-          ...",
" = XoO+@#$$%&*..",
" ; =-          .",
" : = XoO+@#$$%&*",
" : ; =>,<123456 ",
" : : =7,<128950 ",
" : : ;::::::::q ",
" : : :::w::w::: ",
" : : :www::www: ",
"ee : :::::::::: ",
".. : :::w::w::: ",
"..ee :www::www: ",
".... :::::::::: ",
"....e=>rt12895y "
};
