/* XPM */
static char *catalogobject_sm_xpm[] = {
/* columns rows colors chars-per-pixel */
"16 16 33 1",
"1 c #3DA5ED",
"9 c #F9F696",
"w c #7BC6FB",
"5 c #4AABF0",
"& c #76B9E8",
"r c #2899E8",
"7 c #2899E9",
"4 c #83CBFD",
"> c #63B9F6",
"- c #83CBFE",
". c #2195E7",
"q c #DAC43F",
"  c None",
"6 c #3DA4ED",
"# c #E6E7E7",
", c #56B2F3",
"8 c #B3D5ED",
"e c #6FC0F8",
"X c #8ACEFE",
": c #6FC0F9",
"O c #ADD5F2",
"; c #7AC6FB",
"< c #49ABF0",
"3 c #2799E9",
"$ c #E6E6E6",
"2 c #319EEB",
"0 c #87C0E7",
"o c #94CFF9",
"= c #88CDFE",
"% c #C5D8E6",
"+ c #CADCEA",
"* c #309CE8",
"@ c #DEE3E7",
/* pixels */
"                ",
"                ",
"  ............  ",
"  .XoO+@#$$%&*  ",
"  .=-;:>,<123.  ",
"  .=4;:>,5627.  ",
"  .8999999990.  ",
"  .999q99q999.  ",
"  .9qqq99qqq9.  ",
"  .9999999999.  ",
"  .999q99q999.  ",
"  .9qqq99qqq9.  ",
"  .9999999999.  ",
"  .=-we>,562r.  ",
"                ",
"                "
};
