/* XPM */
static char *catalogobject_xpm[] = {
/* columns rows colors chars-per-pixel */
"16 16 38 1",
"w c #2E9CEA",
"r c #F9F696",
"i c #FBD9D9",
"q c #36A1EC",
"O c #A2D3F5",
"p c #FBD0D0",
"t c #87BFE7",
"@ c #D1DFE9",
"X c #8DD0FF",
". c #2195E7",
"y c #DAC43F",
"  c None",
"$ c #E5E6E7",
"3 c #4BACF0",
"9 c #6BBEF8",
", c #75C3FA",
"- c #2E9BE8",
"2 c #56B2F3",
"# c #DFE3E7",
"u c #F9EF9C",
"* c #ACCEE7",
"6 c #2D9CEA",
"e c #B4D6EE",
"0 c #41A6EE",
"7 c #2698E9",
"1 c #61B8F6",
"; c #8BCFFF",
"+ c #BAD8ED",
"% c #E6E6E6",
"< c #6CBEF8",
"& c #DAE1E5",
"4 c #40A7EE",
"8 c #85CCFD",
": c #85CCFE",
"> c #7EC8FC",
"= c #63B1E8",
"5 c #37A0EC",
"o c #92CFFB",
/* pixels */
" .............. ",
" .XoO+@#$%%&*=- ",
" .;:>,<1234567. ",
" .;8>,91230qw7. ",
" .errrrrrrrrrt. ",
" .rrrrrrrrrrrr. ",
" .rrrryrryrrrr. ",
" .ryyyyrryyyyr. ",
" .rrrrrrrrrrrr. ",
" .rrrryrryrrrr. ",
" .ryyyyrryyyyr. ",
" .rrrrrrrrrrrr. ",
" .rrrryrryruiu. ",
" .ryyyyrryyyyp. ",
" .rrrrrrrrrupp. ",
" .............. "
};
