/* XPM */
static char * checked_xpm[] = {
"16 16 6 1",
" 	c None",
".	c #D4D0C8",
"+	c #808080",
"@	c #FFFFFF",
"#	c #404040",
"$	c #000000",
"                ",
"                ",
" ++++++++++++@  ",
" +##########.@  ",
" +#@@@@@@@@@.@  ",
" +#@@@@@@@$@.@  ",
" +#@@@@@@$$@.@  ",
" +#@$@@@$$$@.@  ",
" +#@$$@$$$@@.@  ",
" +#@$$$$$@@@.@  ",
" +#@@$$$@@@@.@  ",
" +#@@@$@@@@@.@  ",
" +#@@@@@@@@@.@  ",
" +...........@  ",
" @@@@@@@@@@@@@  ",
"                "};
