/* XPM */
static char *clip_paste_xpm[] = {
/* columns rows colors chars-per-pixel */
"16 16 129 2",
"   c #C5A83B",
".  c #C7AB3A",
"X  c #C2A43C",
"o  c #6E6741",
"O  c #C9AE39",
"+  c #C0A13E",
"@  c #CBB138",
"#  c #C4DBE2",
"$  c gray81",
"%  c gray79",
"&  c gray94",
"*  c gray77",
"=  c #E7F3F8",
"-  c gray91",
";  c gray100",
":  c #BE9E3F",
">  c #CDB337",
",  c #CCE0E7",
"<  c #E0EEF4",
"1  c #C8DDE4",
"2  c #CAB160",
"3  c #AACBD6",
"4  c #E2EFF5",
"5  c #AECED9",
"6  c gray97",
"7  c #DEEDF3",
"8  c #887C51",
"9  c #DBEBF1",
"0  c #C8AD43",
"q  c #E3F0F6",
"w  c #CEB65E",
"e  c #908866",
"r  c #D5C05A",
"t  c #E5F2F7",
"y  c #B8D5DF",
"u  c #D2BC70",
"i  c #BFDAE4",
"p  c #DCEBF0",
"a  c #DAC658",
"s  c #D0E3EA",
"d  c #C7AC62",
"f  c #CAE2EB",
"g  c #CFE5EE",
"h  c #CDB45F",
"j  c #C9AE61",
"k  c #C9E1EA",
"l  c #D8C458",
"z  c #DAC76C",
"x  c #BB9A40",
"c  c #857853",
"v  c #D7D7D7",
"b  c #8E834F",
"n  c #958F63",
"m  c #D7C36D",
"M  c #D7EAF3",
"N  c #D7C259",
"B  c #DFDFDF",
"V  c #D3E8F1",
"C  c #E5EFF4",
"Z  c #DBC757",
"A  c #F2F9FC",
"S  c #D9E7EC",
"D  c #C2D9E0",
"F  c #CADEE6",
"G  c #CEE4ED",
"H  c #BDD9E3",
"J  c #E1D167",
"K  c #FDFDFD",
"L  c #BAD6E0",
"P  c #B99741",
"I  c #C6DCE4",
"U  c #D7E8EF",
"Y  c #B3D1DC",
"T  c #CDE0E8",
"R  c #C4DDE7",
"E  c #C3DCE6",
"W  c #C1D9E0",
"Q  c #E4F1F7",
"!  c #C5DEE7",
"~  c #B5D2DD",
"^  c #A39862",
"/  c #8E8E8E",
"(  c #2C66BD",
")  c #837015",
"_  c #606060",
"`  c #D0D0D0",
"'  c black",
"]  c black",
"[  c black",
"{  c black",
"}  c black",
"|  c black",
" . c black",
".. c black",
"X. c black",
"o. c black",
"O. c black",
"+. c black",
"@. c black",
"#. c black",
"$. c black",
"%. c black",
"&. c black",
"*. c black",
"=. c black",
"-. c black",
";. c black",
":. c black",
">. c black",
",. c black",
"<. c black",
"1. c black",
"2. c black",
"3. c black",
"4. c black",
"5. c black",
"6. c black",
"7. c black",
"8. c black",
"9. c black",
"0. c black",
"q. c black",
"w. c black",
"e. c black",
"r. c black",
"t. c black",
"y. c black",
"u. c black",
"i. c None",
/* pixels */
"i.i.i.i./ _ _ _ _ / i.i.i.i.i.i.",
"i.^ ) o _ * * % $ _ o ) ^ i.i.i.",
"^ ) n _ % $ _ _ - & _ e ) ^ i.i.",
") J _ v B - & 6 K ; ; _ u ) i.i.",
") Z b _ _ _ _ _ _ _ _ c j ) i.i.",
") a > @ O .   X + : x P d ) i.i.",
") l @ O .   8 _ _ _ _ _ _ o i.i.",
") N O .   X _ A = t q < _ _ / i.",
") r .   X + _ = M V g f _ p _ / ",
") z 0 X + : _ Q ( ( ( ! _ _ _ _ ",
"^ ) m w h 2 _ 4 G k R i L ~ , _ ",
"i.^ ) ) ) ) _ 7 ( ( ( ( ( ( 1 _ ",
"i.i.i.i.i.i._ 9 E H y Y 5 3 # _ ",
"i.i.i.i.i.i._ U ( ( ( ( ( ( D _ ",
"i.i.i.i.i.i._ C s T F I # W S _ ",
"i.i.i.i.i.i./ _ _ _ _ _ _ _ _ / "
};
