/* XPM */
static char *conversion_xpm[] = {
/* columns rows colors chars-per-pixel */
"16 16 33 1",
"  c #E0A6FF",
". c #B9EA6C",
"X c #E6B8FF",
"o c #ADDE60",
"O c #CADAAF",
"+ c #A2D355",
"@ c #EDCAFF",
"# c #D9B7E3",
"$ c #9ACB4D",
"% c #F2DAFF",
"& c #B2CA8C",
"* c #C897D6",
"= c #DB96FF",
"- c #C6F779",
"; c #BF86CF",
": c #D78BFF",
"> c #D4FF8F",
", c #A5C178",
"< c #7CA53C",
"1 c #A24FBA",
"2 c gray100",
"3 c black",
"4 c black",
"5 c black",
"6 c black",
"7 c black",
"8 c black",
"9 c black",
"0 c black",
"q c black",
"w c black",
"e c black",
"r c None",
/* pixels */
"rrrrrrr&<&rrrrrr",
"rrrrrrr<$<&rrrrr",
"rrrrrrr<++<&rrrr",
"rrrrrrr<ooo<&rrr",
"r&<<<<<<....<&rr",
"r<-----------<&r",
"r<>>>>>>>>>>>><r",
"rO,,,,,,,,,,,,Or",
"r#;;;;;;;;;;;;#r",
"r1::::::::::::1r",
"r*1===========1r",
"rr*1    111111*r",
"rrr*1XXX1rrrrrrr",
"rrrr*1@@1rrrrrrr",
"rrrrr*1%1rrrrrrr",
"rrrrrr*1*rrrrrrr"
};
