/* XPM */
static char *conversions_xpm[] = {
/* columns rows colors chars-per-pixel */
"16 16 33 1",
"  c #B9EA6C",
". c #B26DC6",
"X c #A7D85A",
"o c #92B45D",
"O c #DD9EFF",
"+ c #9ACB4D",
"@ c #8EBA48",
"# c #8F8B71",
"$ c #929371",
"% c #849356",
"& c #E6B8FF",
"* c #F0D5FF",
"= c #B2CA8C",
"- c #C897D6",
"; c #D78BFF",
": c #8F7A7B",
"> c #A24FBA",
", c #CDFE80",
"< c #7CA53C",
"1 c gray100",
"2 c black",
"3 c black",
"4 c black",
"5 c black",
"6 c black",
"7 c black",
"8 c black",
"9 c black",
"0 c black",
"q c black",
"w c black",
"e c black",
"r c None",
/* pixels */
"rrrrr=<=rrrrrrrr",
"rrrrr<+<=rrrrrrr",
"rrrrr<X@<orrrrrr",
"=<<<<< <+<orrrrr",
"<,,,,,,<X@<orrrr",
"$:%<<<<< <+<orrr",
">;<,,,,,,<XX<=rr",
"->#:%<<<<<   <=r",
"r->;<,,,,,,,,,<r",
"rr.>#:::::::::$r",
"rrr.>;;;;;;;;;>r",
"rrrr.>OOO>>>>>-r",
"rrrrr.>&&>rrrrrr",
"rrrrrr->*>rrrrrr",
"rrrrrrr->-rrrrrr",
"rrrrrrrrrrrrrrrr"
};
