/* XPM */
static char * database_xpm[] = {
"16 16 103 2",
"  	c None",
". 	c #D3C591",
"+ 	c #C3B06A",
"@ 	c #B7A04B",
"# 	c #AF9637",
"$ 	c #B29B3B",
"% 	c #C6B469",
"& 	c #DACB8E",
"* 	c #E6DCA9",
"= 	c #EDE8BD",
"- 	c #F2F2C2",
"; 	c #EFECB7",
"> 	c #E4DFA2",
", 	c #D6CE88",
"' 	c #CABD6D",
") 	c #BCAD52",
"! 	c #AF9836",
"~ 	c #C1AD63",
"{ 	c #DDD099",
"] 	c #FFFDEE",
"^ 	c #FFFDE3",
"/ 	c #FEF9D8",
"( 	c #F9F9D1",
"_ 	c #F5F0C5",
": 	c #F1EEBC",
"< 	c #ECE9B2",
"[ 	c #E5E5AB",
"} 	c #E4E1A0",
"| 	c #DFDF9B",
"1 	c #C7BC6A",
"2 	c #B0983B",
"3 	c #E9E1B7",
"4 	c #FCF9D9",
"5 	c #FAF7CF",
"6 	c #F4F4C7",
"7 	c #EEEEBE",
"8 	c #EDEDBB",
"9 	c #ECE9BF",
"0 	c #EDEDCA",
"a 	c #F4F4DB",
"b 	c #FCF9F2",
"c 	c #B8A24E",
"d 	c #AC9230",
"e 	c #E3DBBD",
"f 	c #E9DCB9",
"g 	c #EDE3BB",
"h 	c #F5F0D4",
"i 	c #F5F2D9",
"j 	c #FBFBF1",
"k 	c #FEFEFB",
"l 	c #F7F4E8",
"m 	c #F0EDD2",
"n 	c #ECE9C4",
"o 	c #EAE2BA",
"p 	c #E5DDC2",
"q 	c #F4EAD8",
"r 	c #FFF8F3",
"s 	c #FFF7EE",
"t 	c #FEF4D3",
"u 	c #F4ECB5",
"v 	c #EBE198",
"w 	c #E3D883",
"x 	c #E0DA7B",
"y 	c #DFDA84",
"z 	c #E4E196",
"A 	c #E8E3AB",
"B 	c #F3E9DA",
"C 	c #F6EEB4",
"D 	c #EBE398",
"E 	c #E1DC84",
"F 	c #E8E0AB",
"G 	c #F2E8D9",
"H 	c #FFFAEF",
"I 	c #E3DE81",
"J 	c #E4DF96",
"K 	c #FFFAF4",
"L 	c #FFF9EE",
"M 	c #FFF3D3",
"N 	c #F3E9B6",
"O 	c #E4DC98",
"P 	c #EAE5AB",
"Q 	c #FEF4D1",
"R 	c #E3DB81",
"S 	c #F2EAD9",
"T 	c #ECE796",
"U 	c #E9E4AA",
"V 	c #CBBC82",
"W 	c #FFF8F2",
"X 	c #E2DA82",
"Y 	c #E4DF98",
"Z 	c #CDC075",
"` 	c #B09939",
" .	c #C2AE65",
"..	c #DBC694",
"+.	c #EDDDB5",
"@.	c #F3E6BE",
"#.	c #F3EBAF",
"$.	c #E9E193",
"%.	c #DCD477",
"&.	c #D3C866",
"*.	c #C9B95C",
"=.	c #BDA950",
"-.	c #AF9838",
"      . + @ # # # # @ +         ",
"    $ % & * = - ; > , ' ) !     ",
"  ~ { ] ^ / ( _ : < [ } | 1 ~   ",
"  2 3 ] ^ 4 5 6 7 8 9 0 a b c   ",
"  d e f g h i j j k l m n o d   ",
"  d p q r s t u v w x y z A d   ",
"  d p B r s t C D E x E z F d   ",
"  d p G r H t C D I x E J A d   ",
"  d p G K L M N D w x y J F d   ",
"  d p G K L t u D I x E O A d   ",
"  d p G r H t C v I x y J P d   ",
"  d p B K H Q u D R x y J A d   ",
"  d p S K L t N T I x E J U d   ",
"  d V q W L t u D X x y Y Z d   ",
"    `  ...+.@.#.$.%.&.*.=.-.    ",
"        + @ # # # # @ +         "};
