/* XPM */
static char * delete_xpm[] = {
"16 16 64 1",
" 	c None",
".	c #DADADA",
"+	c #87B878",
"@	c #5BA345",
"#	c #959595",
"$	c #D5D5D5",
"%	c #858585",
"&	c #F2F2F2",
"*	c #C8C8C8",
"=	c #A3A3A3",
"-	c #B9CCB4",
";	c #E1E1E1",
">	c #D1D1D1",
",	c #7B7B7B",
"'	c #479433",
")	c #898989",
"!	c #99B990",
"~	c #F5F5F5",
"{	c #64A552",
"]	c #EEEEEE",
"^	c #E9E9E9",
"/	c #8F8F8F",
"(	c #3B9023",
"_	c #B5B5B5",
":	c #B3C5AE",
"<	c #B1B1B1",
"[	c #DEDEDE",
"}	c #CECECE",
"|	c #479B2C",
"1	c #BDBDBD",
"2	c #C2C2C2",
"3	c #777777",
"4	c #318B1B",
"5	c #9F9F9F",
"6	c #DCDCDC",
"7	c #6C6C6C",
"8	c #C5C5C5",
"9	c #ACACAC",
"0	c #E4E4E4",
"a	c #707070",
"b	c #9B9B9B",
"c	c #BCD1B6",
"d	c #CACDCA",
"e	c #DBDFDA",
"f	c #53A338",
"g	c #7FB76C",
"h	c #D3D4D3",
"i	c #E0E8DD",
"j	c #D1E2CB",
"k	c #C3CAC2",
"l	c #B9B9B9",
"m	c #51983F",
"n	c #81AC76",
"o	c #A5C29D",
"p	c #CFDFC9",
"q	c #5F9F4F",
"r	c #DDE6DA",
"s	c #BCC3BA",
"t	c #C9D5C6",
"u	c #B1CCA8",
"v	c #C6D4C2",
"w	c #80B76E",
"x	c #9D9D9D",
"y	c #CCCCCC",
"  h_5%3773%x_h  ",
" y3=1$^~&0>lx3y ",
" %b=1>[0[>19#b% ",
" )y2=),773)=1*) ",
" #*~~~&jpi]^^2# ",
" =_&&rf@||c;0<= ",
" _=&]g|++(![;5_ ",
" *)&pu+evc+:;)* ",
" .3]g|-[[o4m[3. ",
"  7^+@t..hq'.7  ",
"  ,$u@@{-''ny,  ",
"  /8[{('!4(k1/  ",
"  =<6d::*!s}9=  ",
"  _5;$>}yy}.b_  ",
"   x/<*$h8</x   ",
"    25%aa%52    "};
