/* XPM */
static char *edit_find_xpm[] = {
/* columns rows colors chars-per-pixel */
"16 16 129 2",
"   c gray37",
".  c #B4B4B4",
"X  c #646464",
"o  c #6E6F6F",
"O  c gray39",
"+  c #D2EEF8",
"@  c #909090",
"#  c #6D6F6F",
"$  c #B4E3F4",
"%  c #F8FCFE",
"&  c #6C6E6F",
"*  c #CFECF7",
"=  c #6C6B5F",
"-  c #BBE5F4",
";  c #EFF8FC",
":  c #ABE1F3",
">  c #C4E8F5",
",  c #C5E9F6",
"<  c #A4A8A9",
"1  c #B0E3F4",
"2  c #B6E4F4",
"3  c #BE9E3F",
"4  c #C8E8F4",
"5  c #D3EDF7",
"6  c #E4F5FB",
"7  c #AFE2F3",
"8  c #ADE1F3",
"9  c #ADE2F3",
"0  c #B2BEC3",
"q  c #B7CED6",
"w  c #CCD3D7",
"e  c #9EA6A8",
"r  c #C5A83B",
"t  c #FBFDFE",
"y  c #CED0C6",
"u  c #897C54",
"i  c #C2C7C9",
"p  c #BDE6F4",
"a  c #B8E6F5",
"s  c #E3F1F6",
"d  c #BECFD6",
"f  c #C4A63C",
"g  c #E8F6FB",
"h  c #C4A73B",
"j  c #F7FCFD",
"k  c #ADE1F4",
"l  c #C8E9F5",
"z  c #A1A7A9",
"x  c #B9CFD6",
"c  c #ADBDC2",
"v  c #A0A6A9",
"b  c #9CA5A8",
"n  c #A5A8A9",
"m  c #6D6E6F",
"M  c #9DA5A8",
"N  c #CAD3D7",
"B  c #CDEAF4",
"V  c #C1A33D",
"C  c #A1A594",
"Z  c #B6BFC3",
"A  c #B8E4F4",
"S  c #E6F4FA",
"D  c #C9D3D7",
"F  c #767A77",
"G  c #CBECF7",
"H  c #B2E3F4",
"J  c #BAE6F5",
"K  c #DAF0F8",
"L  c #BE9F3F",
"P  c #F9FCFE",
"I  c #BCE6F5",
"U  c #BD9D3F",
"Y  c #C1A23D",
"T  c #CDECF7",
"R  c #E0EFF6",
"E  c #BFE6F4",
"W  c #C6D2D6",
"Q  c #C1E7F5",
"!  c #A3A7A9",
"~  c #8C8053",
"^  c #BACFD6",
"/  c #F0F8FC",
"(  c #AAE0F2",
")  c #B2E2F3",
"_  c #E5F4FA",
"`  c #C2A33D",
"'  c #CAEAF6",
"]  c #B4E4F4",
"[  c #C1C1C1",
"{  c #989898",
"}  c gray46",
"|  c #837015",
" . c #A39862",
".. c #D0D0D0",
"X. c black",
"o. c black",
"O. c black",
"+. c black",
"@. c black",
"#. c black",
"$. c black",
"%. c black",
"&. c black",
"*. c black",
"=. c black",
"-. c black",
";. c black",
":. c black",
">. c black",
",. c black",
"<. c black",
"1. c black",
"2. c black",
"3. c black",
"4. c black",
"5. c black",
"6. c black",
"7. c black",
"8. c black",
"9. c black",
"0. c black",
"q. c black",
"w. c black",
"e. c black",
"r. c black",
"t. c black",
"y. c black",
"u. c black",
"i. c None",
/* pixels */
"i.i.i.i.i.i.i.[ { }   } { [ i.i.",
"i.i.i.i.i.i.. o n w s D ! o . i.",
"i.i.i.i.i.[ o i / P % g K Z # [ ",
"i.i.i.i.i.{ < ; t S 5 * + T v { ",
"i.i.i.i.i.} N % _ l > E - I d } ",
"i.i.i.i.i.  R j * Q p A $ H B   ",
"i.i.i.i.i.} W 6 ' - 2 ) 8 1 x } ",
"i.i.i.i.i.= z + G $ 7 : ( J M { ",
"i.i.i.i.@ O # 0 , ] k 9 a c & [ ",
"i.i.i. .X C F m e ^ 4 q b & . i.",
"i.i. .| ~ X y O = }   } { [ i.i.",
"i. .| r ` u X @ i.i.i.i.i.i.i.i.",
" .| h V L |  .i.i.i.i.i.i.i.i.i.",
"| f Y 3 |  .i.i.i.i.i.i.i.i.i.i.",
" .| U |  .i.i.i.i.i.i.i.i.i.i.i.",
"i. .|  .i.i.i.i.i.i.i.i.i.i.i.i."
};
