/* XPM */
static char *enumeration_xpm[] = {
/* columns rows colors chars-per-pixel */
"16 16 95 2",
"^  c #456C73",
"e  c #3391B4",
"7  c #547878",
"]  c #96DAEB",
"|  c #9BDEED",
"Z  c #9BDBEA",
":  c #C4DFE9",
"V  c #A6F0F2",
"@  c #B9EDF2",
"&  c #BCF7F7",
"B  c #4B7476",
"n  c #467075",
"R  c #416972",
"8  c #557978",
"X. c #A8E1ED",
"+  c #3E9ABA",
"S  c #7FD7E7",
"A  c #8BD9EA",
"t  c #9AE5EE",
"J  c #89DFEB",
"L  c #8EE3ED",
"a  c #98EBF0",
"i  c #93E7EF",
"C  c #BAF4F6",
")  c #A4E7F0",
"o  c #268AAF",
"c  c #426D73",
"=  c #C2F9F8",
"Q  c #426A72",
"   c None",
"4  c #517677",
"{  c #98DCEC",
"w  c #6BAFC8",
"v  c #8AE0EC",
"0  c #BBF8F7",
"z  c #8FDEEB",
"D  c #7ED8E8",
",  c #8CCEDE",
"q  c #96D6E1",
"!  c #436B73",
"5  c #527778",
"Y  c #80C6DB",
"_  c #3B98B9",
"F  c #81D9E9",
"K  c #8BE1EC",
"H  c #86DDEB",
"%  c #BCF6F7",
"1  c #507477",
"g  c #A2F2F3",
"d  c #9DEEF2",
"r  c #A6E3ED",
"W  c #84D7E8",
"U  c #B0EBF2",
"~  c #446C73",
">  c #6DB1C9",
"'  c #9ADBEB",
"x  c #426C73",
"T  c #93DAEA",
"/  c #476D74",
"X  c #3592B5",
"9  c #567979",
"[  c #98DBEB",
" . c #9DDFED",
"h  c #AFF5F5",
"E  c #406972",
"2  c #4F7577",
"G  c #83DBEA",
"l  c #A5E4EF",
"*  c #BEF8F8",
"m  c #487175",
"-  c #BEF2F4",
"I  c #A1EAF1",
"y  c #90E4ED",
"f  c #9FF0F3",
"#  c #BCF5F7",
"`  c #9EDAEA",
"O  c #C7E1EA",
"$  c #BAF5F6",
"P  c #93E5EE",
"M  c #497275",
".  c #8FC2D6",
"j  c #BAF2F4",
"(  c #496F74",
"6  c #537778",
".. c #9FE1ED",
"}  c #9ADDEC",
";  c #419CBB",
"u  c #91E5EE",
"s  c #9BEDF1",
"p  c #96E9F0",
"k  c #3090B3",
"<  c #ACEDF3",
"3  c #A5EFF2",
"b  c #456F74",
"N  c #4A7376",
/* pixels */
"                                ",
"                                ",
"                                ",
"  . X o o o o o o o o o X .     ",
"O + @ # $ % & * * * * = - ; :   ",
"> , < 1 2 3 4 5 6 7 8 9 0 q w   ",
"e r t y u i p a s d f g h j k   ",
"o l z x c v b n m M N B V C o   ",
"e Z A S D F G H J K L P I U k   ",
"w Y T R E W Q ! ~ ^ / ( ) , w   ",
": _ ` ' ] [ { } |  ...l X.+ :   ",
"  . X o o o o o o o o o X .     ",
"                                ",
"                                ",
"                                ",
"                                "
};
