/* XPM */
static char *enumerations_xpm[] = {
/* columns rows colors chars-per-pixel */
"16 16 61 1",
"q c #A3EFF2",
"N c #9BDEED",
"b c #AAEAF2",
"5 c #89BFD3",
"C c #A5E3EF",
"u c #9EE5EF",
"$ c #BCF7F7",
"< c #2F91B4",
"l c #8BDCEB",
"z c #466D73",
"A c #3E9ABA",
"> c #B0EFF3",
"s c #93E7EF",
"; c #8AC0D4",
"f c #9DECF1",
"1 c #2D8EB2",
"o c #268AAF",
"& c #C2F9F8",
"x c #476E74",
"  c None",
"j c #9DE0ED",
"4 c #8CD7E5",
": c #78C1D5",
"c c #486F74",
"d c #95E9EF",
"a c #90E5EE",
"m c #9EDEEC",
"i c #90E2ED",
"k c #466C73",
"v c #4B7075",
"- c #DBECF2",
", c #3B8094",
"# c #BFF7F7",
"n c #A1DCEA",
"y c #7FC7D7",
"O c #DEEDF3",
"0 c #517577",
"X c #3592B5",
"Z c #A9E1ED",
"B c #9DDFED",
"t c #BBF7F7",
"7 c #5DB2CC",
"3 c #82C8DA",
"p c #8DE3ED",
"6 c #71BCD2",
"% c #BEF8F8",
"w c #527677",
"V c #9EE0ED",
"* c #BEF2F4",
"+ c #3E9BBA",
"@ c #BCEFF3",
"9 c #52A8C4",
"2 c #74B4CC",
". c #8FC2D6",
"e c #537778",
"h c #8BCEDD",
"8 c #3C98B9",
"M c #9ADDEC",
"= c #419CBB",
"g c #ACF0F4",
"r c #567878",
/* pixels */
"                ",
"                ",
" .XooooooX.     ",
"O+@#$%%%&*=-    ",
";:>,<oooooo1.   ",
"234+@#$%%%&*=-  ",
"567:>,<oooooo1. ",
"-8934+@#$%%%&*=-",
" .167:>0q0werty5",
"  -893uipasdfgh2",
"   .16jklzxcvb:5",
"    -8nmMNBVCZA-",
"     .XooooooX. ",
"                ",
"                ",
"                "
};
