/* XPM */
static char * ex_bmp_index_xpm[] = {
"50 50 128 2",
"  	c None",
". 	c #ECDDBA",
"+ 	c #FEEC86",
"@ 	c #83B446",
"# 	c #F2EA87",
"$ 	c #77A54B",
"% 	c #BCDDED",
"& 	c #ECE0AD",
"* 	c #E6D995",
"= 	c #E6D1A1",
"- 	c #FFE65F",
"; 	c #E4D491",
"> 	c #EEE2BD",
", 	c #5DC4EA",
"' 	c #F2DC2A",
") 	c #0CA9E2",
"! 	c #43BCE8",
"~ 	c #D6E9F5",
"{ 	c #DDC182",
"] 	c #77AB3B",
"^ 	c #A3DDF2",
"/ 	c #E7D4A4",
"( 	c #F3E45F",
"_ 	c #E3CC9E",
": 	c #ABD46B",
"< 	c #B5E47A",
"[ 	c #F2EDC6",
"} 	c #E0CA89",
"| 	c #A3C861",
"1 	c #E9DAA8",
"2 	c #95B136",
"3 	c #E3D18E",
"4 	c #DEC585",
"5 	c #62C6EA",
"6 	c #E9E19B",
"7 	c #649639",
"8 	c #EADDAC",
"9 	c #CDE5F2",
"0 	c #EEE6B2",
"a 	c #C5E1EF",
"b 	c #84D1EE",
"c 	c #EFE9B4",
"d 	c #CDCEF2",
"e 	c #D1E7F2",
"f 	c #DBBC7E",
"g 	c #3AB8E5",
"h 	c #EBDAB7",
"i 	c #F9E65F",
"j 	c #EDE360",
"k 	c #9DCF62",
"l 	c #91D5EE",
"m 	c #EADCAA",
"n 	c #E8DE98",
"o 	c #EDE5B1",
"p 	c #FFDE29",
"q 	c #CAE3F0",
"r 	c #8BD4EE",
"s 	c #C2E0EE",
"t 	c #E5CEA0",
"u 	c #F1E9C3",
"v 	c #5D9624",
"w 	c #91BD53",
"x 	c #ADD6E9",
"y 	c #E9D8A7",
"z 	c #E8D7A6",
"A 	c #DBBE80",
"B 	c #E1CC8A",
"C 	c #E7DC97",
"D 	c #EFE35F",
"E 	c #E2CE8C",
"F 	c #76CDEC",
"G 	c #EFE5BF",
"H 	c #2DB4E4",
"I 	c #DDC383",
"J 	c #A1C45E",
"K 	c #666BD1",
"L 	c #E7DA2B",
"M 	c #000000",
"N 	c #CBA258",
"O 	c #A5C1E4",
"P 	c #DBBD89",
"Q 	c #BCF084",
"R 	c #BCBDEC",
"S 	c #89B9DB",
"T 	c #B3B4EA",
"U 	c #ABACE8",
"V 	c #6FCDEE",
"W 	c #ECE3B0",
"X 	c #7EA170",
"Y 	c #EAF1E3",
"Z 	c #8CAE74",
"` 	c #A0C081",
" .	c #C6C7EF",
"..	c #E7EFDF",
"+.	c #C0C1EE",
"@.	c #99BC78",
"#.	c #F0E7C1",
"$.	c #E6D3A4",
"%.	c #AEDA71",
"&.	c #7BD1EF",
"*.	c #7A9EA9",
"=.	c #97D9F1",
"-.	c #AEE0F3",
";.	c #BAD1A3",
">.	c #49BFE9",
",.	c #84D3F0",
"'.	c #E1EFF7",
").	c #C0DFEE",
"!.	c #C7E3F0",
"~.	c #C8E3F0",
"{.	c #4EC1E9",
"].	c #CBE4F1",
"^.	c #749396",
"/.	c #D3E8F3",
"(.	c #D4E9F4",
"_.	c #68C8EC",
":.	c #6ECBEC",
"<.	c #A5A8E4",
"[.	c #5A9065",
"}.	c #74986D",
"|.	c #6BC7E8",
"1.	c #E0C888",
"2.	c #DFC787",
"3.	c #6495D0",
"4.	c #3688C1",
"5.	c #528D19",
"6.	c #6696D1",
"7.	c #C18F36",
"                                                                                                    ",
"                                                                                                    ",
"                                                                                                    ",
"                                                                                                    ",
"                                                                                                    ",
"                                                                                                    ",
"                                                                                                    ",
"                                                      S 4.4.4.4.4.S 4.4.4.4.4.S 4.4.4.4.4.S         ",
"                                                      4.V ! >.>.&.4.,.5 _.:.=.4.^ b r l -.4.        ",
"                                                      4.! ) ) ) {.4., H g g F 4.b , 5 |.l 4.        ",
"                                                      4.V ! >.>.&.4.,.5 _.:.=.4.^ b r l -.4.        ",
"                                                      ^.4.4.4.4.4.^.4.4.4.4.4.*.4.4.4.4.4.*.        ",
"                                        O 6.6.O       7.# j j j # 7.[ c c c [ 7.[ 0 0 0 [ 7.        ",
"      S 4.4.4.4.4.S                     6.'.'.6.      7.j L L L j 7.c 6 6 6 c 7.0 n n C o 7.        ",
"      4.V {.5 F ^ 4.                    6.~ ~ 6.      7.j L L L j 7.c 6 6 6 0 7.0 C C C W 7.        ",
"      4.! ) H >.r 4.                    6.~ ~ 6.      7.j L L L j 7.c 6 n n 0 7.o C * * W 7.        ",
"      4.V {.5 F ^ 4.                    6.~ ~ 6.      7.# j j j # 7.[ 0 0 0 [ 7.u W W W #.7.        ",
"      3.4.4.4.4.4.[.5.@.                6.(.(.6.      N 7.7.7.7.7.N 7.7.7.7.7.P 7.7.7.7.7.P         ",
"      K d +. .d Z 5.J 5.                6.(.(.6.      7.# j j j # 7.[ 0 o o u 7.u & & & #.7.        ",
"      K R U T X 5.J J 5.5.5.5.5.5.5.5.5.6././.6.5.5.5.5.2 M L M j 7.o C * * W 7.& ; ; ; 8 7.        ",
"      K R U T 5.J J J J J J | | : : %.< 6.e e 6.Q Q Q Q 5.L M L j 7.o * * * & 7.& ; ; ; 8 7.        ",
"      K R U T X 5.J J 5.5.5.5.5.5.5.5.5.6.e e 6.5.5.5.5.2 M L M D 7.W * * * & 7.& ; 3 3 m 7.        ",
"      K d +. .d Z 5.J 5.                6.e e 6.      7.# j D D # 7.u & & & #.7.G 8 m m G 7.        ",
"      <.K K K K K 7 5.$                 6.9 9 6.      N 7.7.7.7.7.N 7.7.7.7.7.P 7.7.7.7.7.P         ",
"      K d +. .d Z 5.J 5.                6.9 9 6.      7.# ( ( ( # 7.#.& 8 8 G 7.G m 1 1 > 7.        ",
"      K R U T X 5.J J 5.5.7 $ ` ..      6.9 9 6.      7.( ' ' ' ( 7.& ; 3 3 m 7.1 B B B z 7.        ",
"      K R U T 5.J J J J J J w @ ` ..    6.].].6.      7.( ' ' ' i 7.8 3 3 3 m 7.1 B } } z 7.        ",
"      K R U T X 5.J J 5.5.v ] w @ @.    6.q q 6.      7.( ' ' ' - 7.m 3 E E 1 7.y } } 1./ 7.        ",
"      K d +. .d Z 5.| 5.  ..;.] : 5.    6.~.~.6.      7.+ i i i + 7.G 1 1 1 > 7.> z z z . 7.        ",
"      <.K K K K K }.5.@.    Y v : v Y   6.!.!.6.      N 7.7.7.7.7.N 7.7.7.7.7.P 7.7.7.7.7.P         ",
"                              5.%.] ;.Y 6.a a 6.      7.+ i - - + 7.> y y z > 7.. / / $.. 7.        ",
"                              @.@ k ] v 6.a a 6.5.5.5.5.2 M p M - 7.y } 1.1./ 7./ 4 4 I = 7.        ",
"                              ..` w k < 6.a a 6.Q Q Q Q 5.p M p - 7.z 1.1.2./ 7.$.I I I = 7.        ",
"                                ..` $ 5.6.s s 6.5.5.5.5.2 M p M - 7.z 2.2.4 / 7.$.I { { = 7.        ",
"                                        6.s s 6.      7.+ - - - + 7.. / / $.. 7.. = = = h 7.        ",
"                                        6.).).6.      N 7.7.7.7.7.N 7.7.7.7.7.P 7.7.7.7.7.P         ",
"                                        6.).).6.      7.+ - - - + 7.. $.= = . 7.h t t t h 7.        ",
"                                    O 6.6.% % 6.6.O   7.- p p p - 7.$.I { { = 7.t A f f _ 7.        ",
"                                    6.(.% x x % (.6.  7.- p p p - 7.= { { { t 7.t f f f _ 7.        ",
"                                    O 6.s x x s 6.O   7.- p p p - 7.= { A A t 7.t f f f _ 7.        ",
"                                      O 6.~.~.6.O     7.+ - - - + 7.h t t t h 7.h _ _ _ h 7.        ",
"                                        O 6.6.O       N 7.7.7.7.7.N 7.7.7.7.7.P 7.7.7.7.7.P         ",
"                                                                                                    ",
"                                                                                                    ",
"                                                                                                    ",
"                                                                                                    ",
"                                                                                                    ",
"                                                                                                    ",
"                                                                                                    ",
"                                                                                                    "};

