/* XPM */
static const char *ex_cte_scan_xpm[] = {
/* columns rows colors chars-per-pixel */
"50 50 256 2",
"2X c #C6E2EF",
"A. c #CACACA",
"%  c #54C2EA",
"I  c #B5EA9E",
"H. c #626B60",
"L. c #7E8F7B",
";  c #6AC9EC",
"o  c #6FCDEE",
"w  c #4DC1E9",
"N. c #B0E9B0",
"1  c #80D0ED",
"DX c #80DB91",
"u. c #B0E9B1",
"I. c #ACCCA9",
">X c #39553B",
"b. c #969696",
"iX c #85DC92",
"3. c #B5EAB2",
"`  c #B3EA9D",
"dX c #85DC93",
",X c #6A9C6C",
"<. c #CDF1C7",
"&  c #57C3EA",
"v. c #FFFFFF",
"vX c #AEE9B0",
"P  c #B8EB9F",
"Z  c #D2F2C7",
"F. c #36BA3D",
"+X c #A4DEAA",
"6. c #D3E8F3",
".  c #89B9DB",
"2  c #83D1ED",
"@. c #A0E499",
":X c #394C3A",
"bX c #BAEBC2",
";X c #C7E3F0",
"K. c #ABD6A4",
"yX c #88DD93",
"=. c #B8EBB3",
"f  c #55C0E7",
"j  c #6BC7E8",
"CX c #A0E4AD",
"r. c #9EE498",
"H  c #BDECB4",
"nX c #B8EBC1",
"mX c #C0DFEE",
"4  c #A8DEF2",
" . c #D6E9F4",
"jX c #B6EBB2",
"uX c #86DD93",
"^. c #525D52",
"{  c #A3E59A",
"7X c #BDECC3",
"+. c #BBECB3",
"#X c #8BDE94",
"o. c #A8E69B",
"SX c #B9DBEC",
"HX c #D4E9F3",
":. c #D4E9F4",
"pX c #A3E5AD",
"). c #90DF95",
"%. c #C0EDB5",
"KX c #ADD6E9",
"aX c #C3E0EE",
"wX c #BBECC2",
"Y. c #38793B",
"   c None",
"+  c #45BEE9",
"sX c #89DE93",
"|  c #B9ECB3",
"~  c #A6E69A",
"W. c #C0EDC3",
";. c #89DB8D",
"t  c #5BC5EB",
"5  c #8ED4EE",
",. c #BEEDB4",
"W  c #ABE79C",
"*X c #898989",
"e  c #17ADE3",
"[. c #5D695A",
")  c #D7EAF5",
"9X c #A6E6AE",
">. c #C3EEB5",
"L  c #E1EFF7",
"n. c #F2F2F2",
"q  c #48BFE9",
"M  c #C8EFB6",
"PX c #8CDF94",
"NX c #ABE7B0",
"[  c #A9E79B",
"1X c #7FC782",
"T. c #C3EEC4",
"z. c #D0E6F2",
"9  c #04A7E1",
"6  c #91D5EE",
"qX c #A4E6AE",
"(. c #91E095",
"X. c #AEE89C",
"S  c #C1EEB5",
"-. c #C8EFC5",
"k. c #96E196",
"B  c #C6EFB6",
"D. c #5A7C5C",
"V. c #CEE6F2",
"OX c #91B18B",
"|. c #758D72",
"5X c #AEE8B0",
"<X c #388D3C",
"FX c #7EDA91",
"*  c #83D3F0",
",  c #99DAF1",
"3X c #B3E9B1",
"kX c #94E196",
".. c #C4EFB6",
"T  c #B1E99D",
"r  c #1DAFE3",
"&X c #CBF0C6",
"d  c #50BEE7",
"8  c #AFE1F3",
"-  c #66C8EC",
"m  c #C9F0B6",
"E. c #ACE8B0",
"q. c #99E297",
"D  c #D0F1C7",
"c  c #6696D1",
"i  c #38B7E5",
"rX c #B1E9B1",
"i. c #AFE99C",
"'  c #AFE99D",
"h. c #6E836C",
"!. c #81AC7A",
"1. c #C9F0C5",
"@  c #75CEEF",
"p  c #3DB8E5",
"h  c #86D1ED",
"2. c #B6EAB2",
"X  c #3688C1",
"y. c #97E297",
"_  c #B4EA9E",
"j. c #ACDFAA",
"oX c #CAE3F0",
"F  c #CEF1C7",
"l. c #AFE9B0",
"GX c #9EE3AD",
"9. c #9CE398",
":  c #6ECAEC",
"x. c #7C7C7C",
"JX c #BEDEED",
"AX c #B6EAC1",
"l  c #95D7EF",
"$  c #51C2EA",
"fX c #84DC92",
"}. c #94CF8D",
"4. c #B4EAB2",
"=  c #89D5F0",
"p. c #8DA885",
"UX c #C8E3EF",
"J. c #7E997B",
"K  c #CCF1C6",
"%X c #C8E3F0",
"=X c #E5E5E5",
" X c #9DC79A",
"0. c #9AE398",
"$. c #D1F2C7",
"3  c #A4DDF1",
"xX c #A1E4AD",
"G  c #BEECB4",
"x  c #A5C1E4",
"zX c #82DC92",
"M. c #839A84",
"a  c #71CBEC",
"f. c #38723B",
"#. c #B7EBB3",
"/  c #A4E59A",
"BX c #BEECC3",
"'. c #CBE4F1",
"J  c #BCECB3",
"ZX c #9FE4AD",
"@X c #8CDE94",
"g  c #59C1E7",
"N  c #D4F3C8",
"v  c #36C13D",
"a. c #515D4E",
"lX c #A4E5AD",
"k  c #6FC8E9",
"}  c #A2E599",
"O  c #41BDE9",
"#  c #79D0EF",
"-X c #BCECC2",
"8X c #BCECC3",
"XX c #A9E6AF",
"8. c #A7E69A",
"(  c #BAECB3",
"~. c #9EC89B",
"s. c #3A3A3A",
"O. c #A7E69B",
"U. c #565E56",
"B. c #C1EDC3",
"g. c #3D443D",
"C  c #D2F3C8",
"G. c #CEE5F2",
">  c #94D8F1",
"gX c #A2E5AD",
"!  c #BFEDB4",
"_. c #8FDF95",
"{. c #71956D",
"cX c #C2E0EE",
"m. c #A3A3A3",
"b  c #D7F4C9",
"hX c #C2E0EF",
"VX c #A7E6AE",
"$X c #A7E6AF",
"d. c #545E52",
"^  c #A5E69A",
"Q. c #CCE5F1",
"u  c #33B5E5",
"MX c #ACE7B0",
".X c #8DDF94",
"Q  c #AAE79B",
"<  c #7CCEED",
"LX c #8DDF95",
"Z. c #6F6F6F",
"4X c #C4EEC4",
"P. c #38833C",
"0X c #A5E6AE",
"]  c #AFE89C",
"A  c #C2EEB5",
"tX c #92E096",
"eX c #C5E1EF",
"c. c #D8D8D8",
"`. c #AAE7AF",
"U  c #C7EFB6",
"6X c #AAE7B0",
"]. c #A8E79B",
"C. c #37963C",
"E  c #ADE89C",
"y  c #62C7EB",
"0  c #08A8E2",
"Y  c #B2E99D",
"V  c #C5EFB6",
"s  c #78CEEC",
"z  c #58AAAB",
"&. c #CCF0C6",
"R. c #ADE8B0",
"t. c #9AE297",
"n  c #CAF0B7",
"IX c #7DDA91",
"S. c #616161",
"5. c #C5EFC4",
"e. c #D2E7F3",
"7  c #93D6EF",
"/. c #96C598",
"w. c #B2E9B1",
"R  c #C3EFB5",
"7. c #C3EFB6",
"*. c #CAF0C5",
/* pixels */
"                                                                                                    ",
"                                                                                                    ",
"                                                                                                    ",
"                                                                                                    ",
"                                                                                                    ",
"                                                                                                    ",
"                                                                                                    ",
"                            . X X X X X . X X X X X . X X X X X . X X X X X . X X X X X .           ",
"                            X o O + + @ X # $ % & * X = - ; : > X , < 1 2 3 X 4 5 6 7 8 X           ",
"                            X O 9 9 0 q X w e r r t X y u i p a X s d f g h X 5 j j k l X           ",
"                            X o O + + @ X # $ % & * X = - ; : > X , < 1 2 3 X 4 5 6 7 8 X           ",
"                            z X X X X X z X X X X X z X X X X X z X X X X X z X X X X X z           ",
"              x c c x       v b n n n b v b m m M N v N B V V C v Z A A S D v F G H J K v           ",
"              c L L c       v n P P P m v m I I I U v V Y T T R v A E W Q ! v H ~ ^ / ( v           ",
"              c ) ) c       v n P P P m v M I _ ` B v V T ' ] A v S W Q [ G v J / { } | v           ",
"              c  . .c       v n P P I M v U _ ` Y V v ..] X.E S v ! [ o.O.J v +.{ } @.#.v           ",
"              c  . .c       v b m M M N v N B V V C v $.A S %.D v F H J J &.v *.=.=.#.-.v           ",
"              c  . .c       ;.v v v v v ;.v v v v v ;.v v v v v ;.v v v v v ;.v v v v v ;.          ",
"              c :.:.c       v N U U B N v N ..>.A $.v D ! ! ,.<.v K +.( | *.v 1.2.3.4.5.v           ",
"              c 6.6.c       v U ` ` Y V v 7.X.X.E S v ! [ o.8.J v ( } @.@.#.v 2.9.0.q.w.v           ",
"              c e.e.c       v B Y T T ..v A E E W ! v G O.~ ^ +.v | @.@.r.2.v 4.t.q.y.u.v           ",
"              c e.e.c       v V T T i.A v p.a.s.s.d.f.s.s.s.s.s.g.h.s.s.s.s.f.j.q.k.k.l.v           ",
"              c z.z.c       v C ..>.A $.f.x.c.v.v.c.b.v.v.v.v.v.n.m.v.v.v.v.b.M.u.N.l.B.v           ",
"              c V.V.c       ;.v v v v C.Z.v.A.s.s.m.b.s.S.v.c.s.g.m.v.b.s.s.D.F.v v v v ;.          ",
"              c G.G.c       v $.A S %.H.A.v.b.J.K.L.P.I.S.v.c.U.Y.m.v.b.s.s.f.T.R.R.E.W.v           ",
"              c Q.Q.c       v S W Q [ d.c.v.x.!.{ | v ~.S.v.c.^.Y.m.v.v.v.v.S./.(.)._.`.v           ",
"              c '.'.c       v ! [ ].O.[.A.v.b.{.}.|.P. XS.v.c.^.Y.m.v.b.s.s.f.E._._..XXXv           ",
"              c oXoXc       v ! o.8.~ OXx.v.A.s.s.m.b.J.S.v.c.^.Y.m.v.b.s.s.f.+X.X@X#X$Xv           ",
"              c %X%Xc       v <.J J +.&Xf.*X=Xv.v.c.S.I.S.v.c.U.Y.m.v.v.v.v.b.M.XXXX$X-Xv           ",
"              c ;X;Xc       ;.v v v v v ;.P.:Xs.s.>X,Xv f.s.>X<X1Xf.s.s.s.s.D.F.v v v v ;.          ",
"              c 2X2Xc       v &.( | =.1.v -.3.4.3X5.v 4XN.l.5XB.v W.6X`.XX7Xv 8X9X0XqXwXv           ",
"              c eXeXc       v | @.@.@.2.v 4.t.q.q.rXv l.tXtX(.E.v 6X.X@X#X$Xv 9XyXuXiXpXv           ",
"              c aXaXc       v =.@.r.9.3.v 3Xq.y.k.N.v 5X(.(._.6Xv XX#X#XsX9Xv qXdXiXfXgXv           ",
"              c hXhXc       v jX9.9.9.3Xv rXk.k.kX5Xv R.)._._.`.v $XsXyXyX0Xv lXfXzXzXxXv           ",
"              c cXcXc       v -.4.3X3X5.v 4XN.vXR.B.v W.6X`.XX7Xv -X9X0XqXbXv nXgXxXxXnXv           ",
"              c mXmXc       ;.v v v v v ;.v v v v v ;.v v v v v ;.v v v v v ;.v v v v v ;.          ",
"              c mXmXc       v 5.w.rXN.T.v B.R.MXNXW.v BXXX$XVX-Xv wXlXpXgXnXv nXCXCXZXAXv           ",
"          x c c SXSXc c x   v rXk.k.kXR.v E._._..XXXv $XsXyXyXqXv pXfXzXzXxXv CXDXDXFXGXv           ",
"          c HXJXKXKXJXHXc   v N.kXtXtXR.v NXLXPX#X$Xv 9XyXyXuXlXv gXzXzXDXCXv ZXFXFXIXGXv           ",
"          x c aXKXKXaXc x   v 5XtX(.(.NXv `.@X#X#XVXv 0XuXdXfXgXv xXDXDXDXZXv GXIXIXIXGXv           ",
"            x c UXUXc x     v B.E.NX6XW.v 7X$XVX9XwXv bXlXpXgXnXv nXCXZXZXAXv AXGXGXGXAXv           ",
"              x c c x       ;.v v v v v ;.v v v v v ;.v v v v v ;.v v v v v ;.v v v v v ;.          ",
"                                                                                                    ",
"                                                                                                    ",
"                                                                                                    ",
"                                                                                                    ",
"                                                                                                    ",
"                                                                                                    ",
"                                                                                                    ",
"                                                                                                    "
};
