/* XPM */
static const char *ex_hash_setop_unknown_xpm[] = {
/* columns rows colors chars-per-pixel */
"50 50 212 2",
"D  c #E9E09A",
":  c #CCCDF1",
"o  c #6FCDEE",
"5. c #E3CC9E",
"z. c #F2E7D4",
"U. c #F0E7C1",
"q  c #85D4F0",
"f. c #E8E8F8",
"u. c #D4B173",
"_  c #AEDA71",
"a. c #A9ABE5",
"G. c #FCF2EF",
"^. c #E4D390",
"W. c #DF6B45",
"6X c #CB5B46",
"). c #C69EB0",
"L  c #E7DD97",
"|  c #E9DAA8",
"o. c #E9DAA9",
".  c #89B9DB",
"r  c #83D1ED",
"b  c #7A9EA9",
"H. c #DCDDF4",
"&. c #DFC686",
"A  c #EAE49D",
" X c #E2D08D",
"~  c #F1EBC4",
"<  c #CDCEF2",
"b. c #BA8A8D",
"1. c #E4CD9E",
"I  c #A7CD66",
"p  c #90B66C",
"V  c #EFEBB6",
"k  c #5AC1E7",
"U  c #EFE8B3",
"7  c #A5A8E4",
"i. c #D5C7BC",
"&  c #2CB3E4",
";  c #666BD1",
";X c #ECDEBA",
"9. c #BCF084",
"+X c #D57A43",
"y  c #ADDFF3",
"D. c #D73C0C",
"Y  c #E8DE98",
"E. c #DA491C",
",  c #C6C7EF",
"Z. c #F1E5D0",
"g  c #5DC5EB",
"#  c #A6DEF2",
"XX c #E0CA89",
"(. c #C8B5D0",
"Y. c #E3BAB9",
"Q. c #EDE5B1",
"w. c #EBE59E",
"=  c #89D3EE",
"   c None",
"8  c #45BEE9",
"8X c #D46142",
"8. c #7CB443",
"h. c #F2ECC5",
"<. c #DBBD7F",
"4. c #E5CEA0",
"6. c #EAD8B6",
"B  c #F0ECB6",
"N  c #F0ECB7",
"c. c #CBB3BD",
"v. c #B1869C",
"#X c #E8D8A7",
"'  c #DBBD89",
"R  c #E6D894",
"*X c #EAA087",
"v  c #72A335",
"@  c #76CDEC",
".. c #EDDFBB",
"Q  c #86B649",
"X. c #7AB141",
"*  c #48BCE6",
"3X c #E3CB9E",
"t. c #E8D5B3",
"O  c #4DC0E9",
"{  c #F0E6C0",
"x  c #A1C45E",
"f  c #1AAEE3",
"'. c #E4D591",
"L. c #EEE6B2",
"a  c #D8E5CB",
"F  c #EEE6B3",
"u  c #99BC78",
"K. c #F3EDC6",
"6  c #D4D4F3",
"m. c #F5F6FC",
";. c #B6E77C",
"<X c #DCBE80",
"}  c #E9DCAA",
"`  c #78AE3E",
",X c #EBD9B6",
"c  c #84B045",
"k. c #DCC18F",
"0. c #96CC5D",
">  c #C0C1EE",
"+. c #DFC887",
"s  c #07A8E2",
"P  c #ECE3B0",
"S  c #EAE39C",
"2. c #B9EB7F",
"E  c #ECE0AD",
"^  c #ECE0AE",
"&X c #F4CBBE",
"2X c #DABB7D",
"|. c #D74415",
"4X c #DABB7E",
"g. c #EFEAB5",
"A. c #F7D8CE",
"H  c #EFEAB6",
"$X c #E7D6A5",
"M. c #DFE0F5",
"j  c #4EBEE6",
"-X c #FAE5DF",
"~. c #E5D693",
"M  c #F4F1C9",
"0  c #53C2EA",
"m  c #C18F36",
"X  c #3688C1",
">. c #DDC283",
"l  c #64C5E8",
"%X c #ECDDB9",
"x. c #FBF8F2",
"p. c #C1BFDF",
"r. c #F6EEE0",
"j. c #ECDDC2",
"C. c #DDC291",
"(  c #EFE4BF",
"$  c #40BCE9",
"P. c #EDE4B0",
"s. c #9498DF",
":X c #E5D0A1",
"]  c #B5997E",
"%  c #12ABE2",
"1X c #DBBC7E",
"l. c #E5D0AB",
"i  c #528D19",
"h  c #71CBEC",
"%. c #E8D7A6",
" . c #E8D7A7",
"n  c #6A8FA6",
"3  c #ABACE8",
"*. c #DEC384",
"V. c #D1D2F1",
"J  c #E9E19B",
"d  c #10ABE2",
".X c #E1CD8B",
"/  c #EBDEAC",
"4  c #B3B4EA",
":. c #E6D4A4",
"C  c #F3EFC7",
"1  c #DEDEF6",
",. c #DCC081",
"#. c #E6D1A2",
"3. c #EBDBB8",
"d. c #C5C7EE",
"G  c #A4CA63",
"_. c #DC562C",
"T. c #D7522B",
"w  c #94D8F0",
"T  c #E7DB96",
"y. c #DCC08D",
"}. c #DF633D",
"{. c #E9D8A7",
"W  c #97BB75",
"+  c #61C6EB",
"9X c #D3A297",
"R. c #E2704D",
"`. c #ECE2AE",
"I. c #ECE2AF",
"F. c #DD663C",
">X c #E4CE9F",
"[. c #E2CE8C",
"Z  c #A2C760",
"[  c #B4E379",
"5X c #DABA7D",
"!  c #76AA3B",
"7X c #DB9E6D",
"e. c #EFE9B4",
"z  c #92D5EF",
"B. c #AAADE5",
"oX c #E7D5A5",
"t  c #8BD4EE",
"=. c #DDC182",
"e  c #7ACEEC",
"K  c #E8DF99",
"-  c #6495D0",
"/. c #EADCAA",
"n. c #D2B5B1",
"O. c #E0CB8A",
"9  c #4CC0E9",
"2  c #BCBDEC",
"5  c #BCBDED",
"$. c #8DC153",
"=X c #ECA48E",
"@X c #EFE3BE",
"q. c #EBE69F",
"OX c #EFB19E",
"]. c #E3D28F",
"7. c #BAEE82",
")  c #BAD1A3",
"-. c #E5CFA0",
"N. c #BFC1EC",
"S. c #D6502A",
"!. c #E6D995",
"J. c #ABAEE6",
"@. c #DEC585",
/* pixels */
"                                                                                                    ",
"              . X X X X X .                                                                         ",
"              X o O + @ # X                                                                         ",
"              X $ % & * = X                                                                         ",
"              X o O + @ # X                                                                         ",
"              - X X X X X -                                                                         ",
"              ; : > , < 1 ;                                                                         ",
"              ; 2 3 4 5 6 ;                                                                         ",
"              ; 2 3 4 5 6 ;                                                                         ",
"              ; 2 3 4 5 6 ;                                                                         ",
"              ; : > , < 1 ;                                                                         ",
"              7 ; ; ; ; ; 7                                                                         ",
"              ; : > , < 1 ;                                                                         ",
"              ; 2 3 4 5 6 ;                           . X X X X X . X X X X X .                     ",
"              ; 2 3 4 5 6 ;                           X o 8 9 0 q X w e r t y X                     ",
"              ; 2 3 4 5 6 ;       u i i p a           X $ s d f g X h j k l z X                     ",
"              ; : > , < 1 ;       i x x c p a         X o 8 9 0 q X w e r t y X                     ",
"              7 ; ; ; ; ; 7       u i v x c p         b X X X X X n X X X X X -                     ",
"              ; : > , < 1 ;           u v x i         m M N B V C m : > , < 1 ;                     ",
"              ; 2 3 4 5 6 ;             i Z i         m N A S D F m 2 3 4 5 6 ;                     ",
"              ; 2 3 4 5 6 ;             i G i         m H J K L P m 2 3 4 5 6 ;                     ",
"              ; 2 3 4 5 6 ;             i I i         m U Y T R E m 2 3 4 5 6 ;                     ",
"              ; : > , < 1 ;             W Q ! u       m ~ P ^ / ( m : > , < 1 ;                     ",
"              7 ; ; ; ; ; 7             ) ! _ ` u     ' m m m m m ] ; ; ; ; ; 7                     ",
"                                          u ` [ i     m { } |  ...m : > , < 1 ;                     ",
"                                        ) ` [ X.u     m o.O.+.@.#.m 2 3 4 5 6 ;                     ",
"              . X X X X X .             W $.X.u       m %.&.*.=.-.m 2 3 4 5 6 ;                     ",
"              X o O + @ # X             i ;.i         m :.>.,.<.1.m 2 3 4 5 6 ;                     ",
"              X $ % & * = X             i 2.i         m 3.4.1.5.6.m : > , < 1 ;                     ",
"              X o O + @ # X             i 7.i         ' m m m m m ] ; ; ; ; ; 7                     ",
"              b X X X X X b           u 8.9.i                                                       ",
"              m M N N N M m       u i 8.9.0.p                                                       ",
"              m N q.q.q.N m       i 7.9.0.p a                                                       ",
"              m N q.q.q.B m       u i i p a                                                         ",
"              m N q.w.A e.m                       r.t.y.u.u.y.i.p.a.s.s.a.d.f.                      ",
"              m M V g.U h.m                     j.k.l.z.x.x.c.v.b.n.m.m.M.N.B.V.                    ",
"              ' m m m m m '                   j.C.Z.    A.S.D.D.D.D.F.G.    H.J.V.                  ",
"              m K.L.P.I.U.m                 r.k.Z.      Y.D.T.R.E.D.D.W.      H.B.f.                ",
"              m Q.!.~.^./.m                 t.l.        (.).    G._.D.D.        N.d.                ",
"              m `.'.].[.{.m                 y.z.        a.M.      }.D.|.        M.a.                ",
"              m /  X.XXXoXm                 u.x.        s.m.    OXD.D.+X        m.s.                ",
"              m @X#X$X:.%Xm                 u.x.        s.m.&X}.D.D.*Xu.        m.s.                ",
"              ' m m m m m '                 y.z.        a.M.=XD.D.-Xz.y.        M.a.                ",
"              m ;X#.:X>X,Xm                 t.l.        d.N.=XD.D.  l.t.        N.d.                ",
"              m :X<X1X2X3Xm                 r.k.Z.      f.B.H.    Z.k.r.      H.B.f.                ",
"              m >X4X5X5X3Xm                   j.C.Z.      V.6XD.D.7Xj.      H.J.V.                  ",
"              m 3X5X5X5X3Xm                     j.k.l.z.x.x.8XD.D.9Xm.m.M.N.B.V.                    ",
"              m 6.3X3X3X6.m                       r.t.y.u.u.y.i.p.a.s.s.a.d.f.                      ",
"              ' m m m m m '                                                                         ",
"                                                                                                    "
};
