/* XPM */
static const char *ex_hash_setop_intersect_all_xpm[] = {
/* columns rows colors chars-per-pixel */
"50 50 199 2",
"7  c Black",
"p. c #C7B4A5",
"F  c #E9E09A",
":  c #CCCDF1",
"o  c #6FCDEE",
"M. c #F2F3FB",
"6. c #E3CC9E",
"P. c #F0E7C1",
"w  c #85D4F0",
"). c #7ECF56",
"n. c #87878B",
"`  c #AEDA71",
"R. c #E4D390",
"N. c #D4D5F2",
"P  c #E7DD97",
" . c #E9DAA8",
"O. c #E9DAA9",
".  c #89B9DB",
"t  c #83D1ED",
"a. c #ACA9D4",
"n  c #7A9EA9",
"*. c #DFC686",
"S  c #EAE49D",
"`. c #E2D08D",
"^  c #F1EBC4",
"<  c #CDCEF2",
"V. c #8E91DD",
"2. c #E4CD9E",
"U  c #A7CD66",
"a  c #90B66C",
"C  c #EFEBB6",
"l  c #5AC1E7",
"u. c #D0AB68",
"Y  c #EFE8B3",
"8  c #A5A8E4",
"&  c #2CB3E4",
";  c #666BD1",
"oX c #ECDEBA",
"0. c #BCF084",
"u  c #ADDFF3",
";X c #9687A4",
"C. c #C1C3EC",
"T  c #E8DE98",
",  c #C6C7EF",
"h  c #5DC5EB",
"#  c #A6DEF2",
"]. c #E0CA89",
"W. c #75A886",
"U. c #EDE5B1",
"e. c #EBE59E",
"=  c #89D3EE",
"   c None",
"9  c #45BEE9",
"9. c #7CB443",
"j. c #F2ECC5",
"S. c #8F92DD",
"-X c #8581BF",
"1. c #DBBD7F",
"5. c #E5CEA0",
"7. c #EAD8B6",
"V  c #F0ECB6",
"B  c #F0ECB7",
"Q. c #A8BC2F",
"y. c #E0C79A",
" X c #E8D8A7",
"I. c #88F626",
"]  c #DBBD89",
"E  c #E6D894",
"l. c #D1AC6A",
"b  c #72A335",
"@  c #76CDEC",
"X. c #EDDFBB",
"!  c #86B649",
"m. c #C2B5B8",
"o. c #7AB141",
"x. c #EDDFC6",
"*  c #48BCE6",
"&X c #E3CB9E",
"O  c #4DC0E9",
"}  c #F0E6C0",
"c  c #A1C45E",
"g  c #1AAEE3",
"~. c #E4D591",
"J. c #EEE6B2",
"s  c #D8E5CB",
"G  c #EEE6B3",
"i  c #99BC78",
"H. c #F3EDC6",
"6  c #D4D4F3",
"}. c #8DEE27",
":. c #B6E77C",
"#X c #DCBE80",
"|  c #E9DCAA",
"'  c #78AE3E",
"@X c #EBD9B6",
"k. c #E6D2AE",
"v  c #84B045",
"q. c #96CC5D",
">  c #C0C1EE",
"@. c #DFC887",
"d  c #07A8E2",
"Z. c #D2AD6C",
"I  c #ECE3B0",
"D  c #EAE39C",
"3. c #B9EB7F",
"W  c #ECE0AD",
"/  c #ECE0AE",
"%X c #DABB7D",
"*X c #DABB7E",
"h. c #EFEAB5",
"J  c #EFEAB6",
".X c #E7D6A5",
"k  c #4EBEE6",
"T. c #E5D693",
"N  c #F4F1C9",
"q  c #53C2EA",
"M  c #C18F36",
"X  c #3688C1",
",. c #DDC283",
"z  c #64C5E8",
"XX c #ECDDB9",
"G. c #D0D1F1",
"s. c #8C90DC",
"v. c #B7B1CA",
")  c #EFE4BF",
"$  c #40BCE9",
"K. c #EDE4B0",
"OX c #E5D0A1",
"[  c #B5997E",
"%  c #12ABE2",
"$X c #DBBC7E",
"p  c #528D19",
"j  c #71CBEC",
"&. c #E8D7A6",
"g. c #E0E1F6",
".. c #E8D7A7",
"m  c #6A8FA6",
"3  c #ABACE8",
"=. c #DEC384",
"K  c #E9E19B",
"f  c #10ABE2",
"'. c #E1CD8B",
"{. c #85EB34",
"t. c #F2E8D6",
"(  c #EBDEAC",
"B. c #A9ACE5",
"4  c #B3B4EA",
"i. c #C59744",
">. c #E6D4A4",
"Z  c #F3EFC7",
"1  c #DEDEF6",
"<. c #DCC081",
"$. c #E6D1A2",
"4. c #EBDBB8",
"c. c #FAF6EE",
"H  c #A4CA63",
"e  c #94D8F0",
"R  c #E7DB96",
"z. c #DCC08E",
"F. c #9AD62B",
"(. c #E9D8A7",
"Q  c #97BB75",
"+  c #61C6EB",
"!. c #ECE2AE",
"L. c #ECE2AF",
"_. c #98D92B",
"+X c #E4CE9F",
"/. c #E2CE8C",
"A  c #A2C760",
"{  c #B4E379",
"=X c #DABA7D",
"~  c #76AA3B",
"r. c #EFE9B4",
"x  c #92D5EF",
"[. c #E7D5A5",
"y  c #8BD4EE",
"-. c #DDC182",
"r  c #7ACEEC",
"L  c #E8DF99",
"-  c #6495D0",
"E. c #EADCAA",
"+. c #E0CB8A",
"0  c #4CC0E9",
"A. c #ECDCC1",
"f. c #B2B5E8",
"2  c #BCBDEC",
"5  c #BCBDED",
"%. c #8DC153",
"|. c #EFE3BE",
"w. c #EBE69F",
"^. c #E3D28F",
"8. c #BAEE82",
"_  c #BAD1A3",
"D. c #7DCB5B",
"b. c #7780A7",
";. c #E5CFA0",
"Y. c #E6D995",
"d. c #7175D4",
"#. c #DEC585",
/* pixels */
"                                                                                                    ",
"              . X X X X X .                                                                         ",
"              X o O + @ # X                                                                         ",
"              X $ % & * = X                                                                         ",
"              X o O + @ # X                                                                         ",
"              - X X X X X -                                                                         ",
"              ; : > , < 1 ;                                                                         ",
"              ; 2 3 4 5 6 ;                                                                         ",
"              ; 2 3 4 5 6 ;                                                                         ",
"              ; 2 3 4 5 6 ;                                                                         ",
"              ; : > , < 1 ;     7 7 7   7     7                                                     ",
"              8 ; ; ; ; ; 8     7   7   7     7                                                     ",
"              ; : > , < 1 ;     7 7 7   7     7                                                     ",
"              ; 2 3 4 5 6 ;     7   7   7 7   7 7     . X X X X X . X X X X X .                     ",
"              ; 2 3 4 5 6 ;                           X o 9 0 q w X e r t y u X                     ",
"              ; 2 3 4 5 6 ;       i p p a s           X $ d f g h X j k l z x X                     ",
"              ; : > , < 1 ;       p c c v a s         X o 9 0 q w X e r t y u X                     ",
"              8 ; ; ; ; ; 8       i p b c v a         n X X X X X m X X X X X -                     ",
"              ; : > , < 1 ;           i b c p         M N B V C Z M : > , < 1 ;                     ",
"              ; 2 3 4 5 6 ;             p A p         M B S D F G M 2 3 4 5 6 ;                     ",
"              ; 2 3 4 5 6 ;             p H p         M J K L P I M 2 3 4 5 6 ;                     ",
"              ; 2 3 4 5 6 ;             p U p         M Y T R E W M 2 3 4 5 6 ;                     ",
"              ; : > , < 1 ;             Q ! ~ i       M ^ I / ( ) M : > , < 1 ;                     ",
"              8 ; ; ; ; ; 8             _ ~ ` ' i     ] M M M M M [ ; ; ; ; ; 8                     ",
"                                          i ' { p     M } |  ...X.M : > , < 1 ;                     ",
"                                        _ ' { o.i     M O.+.@.#.$.M 2 3 4 5 6 ;                     ",
"              . X X X X X .             Q %.o.i       M &.*.=.-.;.M 2 3 4 5 6 ;                     ",
"              X o O + @ # X             p :.p         M >.,.<.1.2.M 2 3 4 5 6 ;                     ",
"              X $ % & * = X             p 3.p         M 4.5.2.6.7.M : > , < 1 ;                     ",
"              X o O + @ # X             p 8.p         ] M M M M M [ ; ; ; ; ; 8                     ",
"              n X X X X X n           i 9.0.p                                                       ",
"              M N B B B N M       i p 9.0.q.a                                                       ",
"              M B w.w.w.B M       p 8.0.q.a s                                                       ",
"              M B w.w.w.V M       i p p a s                                                         ",
"              M B w.e.S r.M                       t.y.u.i.i.u.p.a.s.d.d.s.f.g.                      ",
"              M N C h.Y j.M                     k.l.z.x.c.c.v.b.n.m.M.M.N.B.V.C.                    ",
"              ] M M M M M ]                   k.Z.A.      C.S.D.F.Z.k.      G.S.C.                  ",
"              M H.J.K.L.P.M                 t.l.A.      g.V.D.I.I.F.l.t.      G.V.g.                ",
"              M U.Y.T.R.E.M                 y.z.        f.W.I.I.I.I.Q.y.        B.f.                ",
"              M !.~.^./.(.M                 u.x.        s.).I.I.I.I._.u.        N.s.                ",
"              M ( `.'.].[.M                 i.c.        d.{.I.I.I.I.}.i.        M.d.                ",
"              M |. X.X>.XXM                 i.c.        d.{.I.I.I.I.}.i.        M.d.                ",
"              ] M M M M M ]                 u.x.        s.).I.I.I.I._.u.        N.s.                ",
"              M oX$.OX+X@XM                 y.z.        f.W.I.I.I.I.z.y.        B.f.                ",
"              M OX#X$X%X&XM                 t.l.A.      g.V.D.I.I.F.l.t.      G.V.g.                ",
"              M +X*X=X=X&XM                   k.Z.A.      C.S.D.F.Z.k.      G.S.C.                  ",
"              M &X=X=X=X&XM                     k.l.z.x.c.c.v.-X;Xm.M.M.N.B.V.C.                    ",
"              M 7.&X&X&X7.M                       t.y.u.i.i.u.p.a.s.d.d.s.f.g.                      ",
"              ] M M M M M ]                                                                         ",
"                                                                                                    "
};
