/* XPM */
static char *ex_join_xpm[] = {
/* columns rows colors chars-per-pixel */
"50 50 129 2",
"   c #E7D4A4",
".  c #85B246",
"X  c #ECDDB9",
"o  c #B5E47A",
"O  c #C2C2EE",
"+  c #E5D1A1",
"@  c #EEE2BD",
"#  c #DABA7D",
"$  c #7BB342",
"%  c #E6DA96",
"&  c #DDC182",
"*  c #EAD8B6",
"=  c #F0E9C2",
"-  c #A6CC65",
";  c #DEC585",
":  c #E4CD9E",
">  c #EDE5B1",
",  c #ECE2AF",
"<  c #E2CF8D",
"1  c #EBDEAC",
"2  c #E2D08E",
"3  c #E9E19B",
"4  c #E9DAA9",
"5  c #E8D7A6",
"6  c #DBBC7E",
"7  c #E1CD8B",
"8  c #EADCAA",
"9  c #E9D8A7",
"0  c #EFEBB6",
"q  c #ECE3B0",
"w  c #E5D793",
"e  c #E4D591",
"r  c #DCBE80",
"t  c #EAE39C",
"y  c #E8DF99",
"u  c #E4CE9F",
"i  c #E0CA89",
"p  c #528D19",
"a  c #BCBDEC",
"s  c #F0ECB7",
"d  c #E3CB9E",
"f  c #EBE69F",
"g  c #B3B4EA",
"h  c #ABACE8",
"j  c #BCBDED",
"k  c #D4D4F3",
"l  c #CCCDF1",
"z  c #9295D1",
"x  c #C7AA75",
"c  c #86A964",
"v  c #C6C7EF",
"b  c #CDCEF2",
"n  c #DEDEF6",
"m  c #C0C1EE",
"M  c #75A6C7",
"N  c #F4F1C9",
"B  c #6FCDEE",
"V  c #8BD4EE",
"C  c #53C2EA",
"Z  c #CBCCF1",
"A  c #C5C6F0",
"S  c #4CC0E9",
"D  c #ADDFF3",
"F  c #45BEE9",
"G  c #7FA55B",
"H  c #A7A9E7",
"J  c #AAACE7",
"K  c #7ACEEC",
"L  c #85D4F0",
"P  c #BEBFED",
"I  c #83D1ED",
"U  c #D6D6F4",
"Y  c #AEAFE9",
"T  c #C5C6EF",
"R  c #94D8F0",
"E  c #8E85AB",
"W  c #D8D9F4",
"Q  c #BFC1ED",
"!  c #E0E0F7",
"~  c #7296A1",
"^  c #5C8DC8",
"/  c #D1D1F2",
"(  c #D3D4F3",
")  c #BDBFED",
"_  c #B3C1A6",
"`  c #CECFF2",
"'  c #A1C45E",
"]  c #D4D4F4",
"[  c #EEE6B2",
"{  c #4EBEE6",
"}  c #1AAEE3",
"|  c #64C5E8",
" . c #92D5EF",
".. c #5DC5EB",
"X. c #5AC1E7",
"o. c #E3D28F",
"O. c #07A8E2",
"+. c #71CBEC",
"@. c #10ABE2",
"#. c #40BCE9",
"$. c #78AE3E",
"%. c #F0ECB6",
"&. c #BCF084",
"*. c #EFE8B3",
"=. c #9EB587",
"-. c #72A335",
";. c #76AA3B",
":. c #96CC5D",
">. c #EAE49D",
",. c #E4D390",
"<. c #ECE0AD",
"1. c #84A862",
"2. c #BAEE82",
"3. c #EFE9B4",
"4. c #F2ECC5",
"5. c #F3EEC6",
"6. c #B9EB7F",
"7. c #5B87B8",
"8. c #F0E7C1",
"9. c #8DC153",
"0. c #EBE59E",
"q. c #AEDA71",
"w. c #A2C760",
"e. c #EFE6C0",
"r. c #3688C1",
"t. c #C18F36",
"y. c #666BD1",
"u. c #D0D0D0",
"i. c None",
/* pixels */
"i.i.i.i.i.i.i.i.i.i.i.i.i.i.i.i.i.i.i.i.i.i.i.i.i.i.i.i.i.i.i.i.i.i.i.i.i.i.i.i.i.i.i.i.i.i.i.i.i.i.",
"i.i.i.i.i.i.i.i.i.i.i.i.i.i.i.i.i.i.i.i.i.i.i.i.i.i.i.i.i.i.i.i.i.i.i.i.i.i.i.i.i.i.i.i.i.i.i.i.i.i.",
"i.i.i.i.i.i.i.i.i.i.i.i.i.i.i.i.i.i.i.i.i.i.i.i.i.i.i.i.i.i.i.i.i.i.i.i.i.i.i.i.i.i.i.i.i.i.i.i.i.i.",
"i.i.i.i.i.i.i.i.i.i.i.i.i.i.i.i.i.i.i.i.i.i.i.i.i.i.i.i.i.i.i.i.i.i.i.i.i.i.i.i.i.i.i.i.i.i.i.i.i.i.",
"i.i.i.i.i.i.i.i.i.i.i.i.i.i.i.i.i.i.i.i.i.i.i.i.i.i.i.i.i.i.i.i.i.i.i.i.i.i.i.i.i.i.i.i.i.i.i.i.i.i.",
"i.i.i.i.i.i.i.i.i.i.i.i.i.i.i.i.i.i.i.i.i.i.i.i.i.i.i.i.i.i.i.i.i.i.i.i.i.i.i.i.i.i.i.i.i.i.i.i.i.i.",
"i.i.i.i.i.M r.r.r.r.r.M r.r.r.r.r.M i.i.i.i.i.i.i.i.i.i.i.i.i.i.i.i.i.i.i.i.i.i.i.i.i.i.i.i.i.i.i.i.",
"i.i.i.i.i.r.B F S C L r.R K I V D r.i.i.i.i.i.i.i.i.i.i.i.i.i.M r.r.r.r.r.M r.r.r.r.r.M i.i.i.i.i.i.",
"i.i.i.i.i.r.#.O.@.} ..r.+.{ X.|  .r.i.i.i.i.i.i.i.i.i.i.i.i.i.r.B F S C L r.R K I V D r.i.i.i.i.i.i.",
"i.i.i.i.i.r.B F S C L r.R K I V D r.i.i.i.i.i.i.i.i.i.i.i.i.i.r.#.O.@.} ..r.+.{ X.|  .r.i.i.i.i.i.i.",
"i.i.i.i.i.^ r.r.r.r.r.^ r.r.r.r.r.^ i.i.i.i.i.i.i.i.i.i.i.i.i.r.B F S C L r.R K I V D r.i.i.i.i.i.i.",
"i.i.i.i.i.y.l ) Q O ( y.W ` / ] ! y.i.i.i.i.i.i.i.i.i.i.i.i.i.~ r.r.r.r.r.7.r.r.r.r.r.^ i.i.i.i.i.i.",
"i.i.i.i.i.y.a H J Y T y.Z P O A U y.i.i.i.i.i.i.i.i.i.i.i.i.i.t.N s s s N y.l m v b n y.i.i.i.i.i.i.",
"i.i.i.i.i.y.a H J Y T y.Z P O A U y.i.i.i.i.i.i.i.i.i.i.i.i.i.t.s f f f s y.a h g j k y.i.i.i.i.i.i.",
"i.i.i.i.i.y.a H J Y T y.Z P O A U y.i.i.i.i.i.i.i.i.i.i.i.i.i.t.s f f f s y.a h g j k y.i.i.i.i.i.i.",
"i.i.i.i.i.y.l ) Q O ( y.W ` / ] ! y.i.i.i.i.i.i.i.i.i.i.i.i.i.t.s f f f s y.a h g j k y.i.i.i.i.i.i.",
"i.i.i.i.i.z y.y.y.y.y.z y.y.y.y.y.z i.i.c p p G _ i.i.i.i.i.i.t.N s s s N y.l m v b n y.i.i.i.i.i.i.",
"i.i.i.i.i.y.l ) Q O ( y.W ` / ] ! y.i.i.p ' ' . G _ i.i.i.i.i.x t.t.t.t.t.E y.y.y.y.y.z i.i.i.i.i.i.",
"i.i.i.i.i.y.a H J Y T y.Z P O A U y.i.i.c p -.' . G i.i.i.i.i.t.N s s s N y.l m v b n y.i.i.i.i.i.i.",
"i.i.i.i.i.y.a H J Y T y.Z P O A U y.i.i.i.i.c -.' p i.i.i.i.i.t.s f f f s y.a h g j k y.i.i.i.i.i.i.",
"i.i.i.i.i.y.a H J Y T y.Z P O A U y.i.i.i.i.i.p w.p i.i.i.i.i.t.s f f f %.y.a h g j k y.i.i.i.i.i.i.",
"i.i.i.i.i.y.l ) Q O ( y.W ` / ] ! y.i.i.i.i.i.p - p i.i.i.i.i.t.s f 0.>.3.y.a h g j k y.i.i.i.i.i.i.",
"i.i.i.i.i.z y.y.y.y.y.z y.y.y.y.y.z i.i.i.i.i.p - p i.i.i.i.i.t.N 0 0 *.4.y.l m v b n y.i.i.i.i.i.i.",
"i.i.i.i.i.i.i.i.i.i.i.i.i.i.i.i.i.i.i.i.i.i.i.1.. ;.c i.i.i.i.x t.t.t.t.t.E y.y.y.y.y.z i.i.i.i.i.i.",
"i.i.i.i.i.i.i.i.i.i.i.i.i.i.i.i.i.i.i.i.i.i.i.=.;.q.$.c i.i.i.t.5.[ > , 8.y.l m v b n y.i.i.i.i.i.i.",
"i.i.i.i.i.i.i.i.i.i.i.i.i.i.i.i.i.i.i.i.i.i.i.i.c $.o p i.i.i.t.> % w ,.8 y.a h g j k y.i.i.i.i.i.i.",
"i.i.i.i.i.M r.r.r.r.r.M r.r.r.r.r.M i.i.i.i.i.=.$.o $ c i.i.i.t., e o.< 9 y.a h g j k y.i.i.i.i.i.i.",
"i.i.i.i.i.r.B F S C L r.R K I V D r.i.i.i.i.i.1.9.$ c i.i.i.i.t.1 2 7 i   y.a h g j k y.i.i.i.i.i.i.",
"i.i.i.i.i.r.#.O.@.} ..r.+.{ X.|  .r.i.i.i.i.i.p o p i.i.i.i.i.t.@ 9 5   X y.l m v b n y.i.i.i.i.i.i.",
"i.i.i.i.i.r.B F S C L r.R K I V D r.i.i.i.i.i.p 6.p i.i.i.i.i.x t.t.t.t.t.E y.y.y.y.y.z i.i.i.i.i.i.",
"i.i.i.i.i.~ r.r.r.r.r.~ r.r.r.r.r.~ i.i.i.i.i.p 2.p i.i.i.i.i.t.X + + u * y.l m v b n y.i.i.i.i.i.i.",
"i.i.i.i.i.t.N s %.0 5.t.4.> q , 8.t.i.i.i.i.c $ &.p i.i.i.i.i.t.+ r 6 # d y.a h g j k y.i.i.i.i.i.i.",
"i.i.i.i.i.t.%.>.t 3 *.t.> % w e 1 t.i.i.c p $ &.:.G i.i.i.i.i.t.u # # # d y.a h g j k y.i.i.i.i.i.i.",
"i.i.i.i.i.t.0 t 3 y [ t.q w e o.8 t.i.i.p 2.&.:.G _ i.i.i.i.i.t.d # # # d y.a h g j k y.i.i.i.i.i.i.",
"i.i.i.i.i.t.3.3 y % q t.<.,.o.< 4 t.i.i.c p p G _ i.i.i.i.i.i.t.* d d d * y.l m v b n y.i.i.i.i.i.i.",
"i.i.i.i.i.t.5.[ > q = t.e.8 4 9 @ t.i.i.i.i.i.i.i.i.i.i.i.i.i.x t.t.t.t.t.E y.y.y.y.y.z i.i.i.i.i.i.",
"i.i.i.i.i.x t.t.t.t.t.x t.t.t.t.t.x i.i.i.i.i.i.i.i.i.i.i.i.i.t.* d d d * y.l m v b n y.i.i.i.i.i.i.",
"i.i.i.i.i.t.= , <.1 e.t.@ 5     X t.i.i.i.i.i.i.i.i.i.i.i.i.i.t.d # # # d y.a h g j k y.i.i.i.i.i.i.",
"i.i.i.i.i.t., e o.2 4 t.9 ; ; & + t.i.i.i.i.i.i.i.i.i.i.i.i.i.t.d # # # d y.a h g j k y.i.i.i.i.i.i.",
"i.i.i.i.i.t.1 o.< 7 5 t.  ; & & u t.i.i.i.i.i.i.i.i.i.i.i.i.i.t.d # # # d y.a h g j k y.i.i.i.i.i.i.",
"i.i.i.i.i.t.8 < 7 i   t.+ & r r : t.i.i.i.i.i.i.i.i.i.i.i.i.i.t.* d d d * y.l m v b n y.i.i.i.i.i.i.",
"i.i.i.i.i.t.@ 9 5   X t.X u u : * t.i.i.i.i.i.i.i.i.i.i.i.i.i.x t.t.t.t.t.E y.y.y.y.y.z i.i.i.i.i.i.",
"i.i.i.i.i.x t.t.t.t.t.x t.t.t.t.t.x i.i.i.i.i.i.i.i.i.i.i.i.i.i.i.i.i.i.i.i.i.i.i.i.i.i.i.i.i.i.i.i.",
"i.i.i.i.i.i.i.i.i.i.i.i.i.i.i.i.i.i.i.i.i.i.i.i.i.i.i.i.i.i.i.i.i.i.i.i.i.i.i.i.i.i.i.i.i.i.i.i.i.i.",
"i.i.i.i.i.i.i.i.i.i.i.i.i.i.i.i.i.i.i.i.i.i.i.i.i.i.i.i.i.i.i.i.i.i.i.i.i.i.i.i.i.i.i.i.i.i.i.i.i.i.",
"i.i.i.i.i.i.i.i.i.i.i.i.i.i.i.i.i.i.i.i.i.i.i.i.i.i.i.i.i.i.i.i.i.i.i.i.i.i.i.i.i.i.i.i.i.i.i.i.i.i.",
"i.i.i.i.i.i.i.i.i.i.i.i.i.i.i.i.i.i.i.i.i.i.i.i.i.i.i.i.i.i.i.i.i.i.i.i.i.i.i.i.i.i.i.i.i.i.i.i.i.i.",
"i.i.i.i.i.i.i.i.i.i.i.i.i.i.i.i.i.i.i.i.i.i.i.i.i.i.i.i.i.i.i.i.i.i.i.i.i.i.i.i.i.i.i.i.i.i.i.i.i.i.",
"i.i.i.i.i.i.i.i.i.i.i.i.i.i.i.i.i.i.i.i.i.i.i.i.i.i.i.i.i.i.i.i.i.i.i.i.i.i.i.i.i.i.i.i.i.i.i.i.i.i.",
"i.i.i.i.i.i.i.i.i.i.i.i.i.i.i.i.i.i.i.i.i.i.i.i.i.i.i.i.i.i.i.i.i.i.i.i.i.i.i.i.i.i.i.i.i.i.i.i.i.i."
};
