/* XPM */
static char *ex_limit_xpm[] = {
/* columns rows colors chars-per-pixel */
"50 50 129 2",
"   c #44BDE9",
".  c #DABB7D",
"X  c #EBDEAC",
"o  c #EBE59E",
"O  c #E0CA89",
"+  c #D36B6B",
"@  c #EEE1BD",
"#  c #E3D08E",
"$  c #54C2EA",
"%  c #AAD36B",
"&  c #86D4F0",
"*  c #E6D4A4",
"=  c #EEE6B3",
"-  c #F0E8C2",
";  c #A6CC65",
":  c #82D1ED",
">  c #96D9F1",
",  c #E8DE99",
"<  c #EAD9B6",
"1  c #38B7E5",
"2  c #E9E09A",
"3  c #92D6EF",
"4  c #A6DEF2",
"5  c #E16E6E",
"6  c #E9DAA8",
"7  c #F0ECB7",
"8  c #EADDAA",
"9  c #75CEEF",
"0  c #CD6969",
"q  c #F4F1C8",
"w  c #E4CD9E",
"e  c #1BAEE3",
"r  c #E5D793",
"t  c #E1CC8B",
"y  c #E4CE9F",
"u  c #EFE9B4",
"i  c #E8D7A6",
"p  c #EDDFBB",
"a  c #DFC686",
"s  c #E6D2A3",
"d  c #E97070",
"f  c #E6D894",
"g  c #7BCEED",
"h  c #E2CE8C",
"j  c #EDE4B0",
"k  c #DD6D6D",
"l  c #05A7E1",
"z  c #ECE3B0",
"x  c #DBBE80",
"c  c #E9D8A7",
"v  c #ECE1AE",
"b  c #8ED4EE",
"n  c #E4D491",
"m  c #EAE39C",
"M  c #ECE2AF",
"N  c #DEC485",
"B  c #D96C6C",
"V  c #B1DE75",
"C  c #EFEBB6",
"Z  c #ED7171",
"A  c #E7DB96",
"S  c #B8EA7F",
"D  c #6BC7E8",
"F  c #EFE6C0",
"G  c #B4E379",
"H  c #E5D0A1",
"J  c #DDC283",
"K  c #EFE5C0",
"L  c #EFE8B3",
"P  c #DDC182",
"I  c #E56F6F",
"U  c #DDC384",
"Y  c #528D19",
"T  c #3688C1",
"R  c #86A964",
"E  c #C7AA75",
"W  c #F07272",
"Q  c #B96363",
"!  c #E9DBAA",
"~  c #E6D1A2",
"^  c #75A6C7",
"/  c #EBDFAD",
"(  c #E3CB9E",
")  c #F1EBC4",
"_  c #EFE4BF",
"`  c #E3CC9E",
"'  c #ECDCB8",
"]  c #B6E77C",
"[  c #E7D5A5",
"{  c #F2ECC5",
"}  c #F3EDC6",
"|  c #DCC081",
" . c #E4D390",
".. c #E7DC97",
"X. c #E5D592",
"o. c #F3EFC7",
"O. c #EFEAB5",
"+. c #B9EB80",
"@. c #66C8EC",
"#. c #E76F70",
"$. c #E7D6A6",
"%. c #AED970",
"&. c #ECDDBA",
"*. c #E6D995",
"=. c #AFE1F3",
"-. c #79D0EF",
";. c #A2C660",
":. c #ECE0AD",
">. c #6AC9EC",
",. c #6FCAEB",
"<. c #6FCDEE",
"1. c #DFC887",
"2. c #E6D3A3",
"3. c #50BEE7",
"4. c #62C7EB",
"5. c #E3D28F",
"6. c #E8DD98",
"7. c #EDE5B1",
"8. c #EDE6B2",
"9. c #4DC1E9",
"0. c #E6D1A1",
"q. c #EBDAB7",
"w. c #55C0E7",
"e. c #5BC5EB",
"r. c #59C1E7",
"t. c #A91717",
"y. c #C18F36",
"u. c #D0D0D0",
"i. c None",
/* pixels */
"i.i.i.i.i.i.i.i.i.i.i.i.i.i.i.i.i.i.i.i.i.i.i.i.i.i.i.i.i.i.i.i.i.i.i.i.i.i.i.i.i.i.i.i.i.i.i.i.i.i.",
"i.i.i.i.i.i.i.i.i.i.i.i.i.i.i.i.i.i.i.i.i.i.i.i.i.i.i.i.i.i.i.i.i.i.i.i.i.i.i.i.i.i.i.i.i.i.i.i.i.i.",
"i.i.i.i.i.i.i.i.i.i.i.i.i.i.i.i.i.i.i.i.i.i.i.i.i.i.i.i.i.i.i.i.i.i.i.i.i.i.i.i.i.i.i.i.i.i.i.i.i.i.",
"i.i.i.i.i.i.i.i.i.i.i.i.i.i.i.i.i.i.i.i.i.i.i.i.i.i.i.i.i.i.i.i.i.i.i.i.i.i.i.i.i.i.i.i.i.i.i.i.i.i.",
"i.i.i.i.i.i.i.i.i.i.i.i.i.i.i.i.i.i.i.i.i.i.i.i.i.i.i.i.i.i.i.i.i.i.i.i.i.i.i.i.i.i.i.i.i.i.i.i.i.i.",
"i.i.i.i.i.i.i.i.i.i.i.i.i.i.i.i.i.i.i.i.i.i.i.i.i.i.i.i.i.i.i.i.i.i.i.i.i.i.i.i.i.i.i.i.i.i.i.i.i.i.",
"i.i.i.i.i.i.i.i.i.i.i.i.i.i.i.i.i.i.i.i.i.i.i.i.i.i.i.i.i.i.i.i.i.i.i.i.i.i.i.i.i.i.i.i.i.i.i.i.i.i.",
"i.i.i.i.i.i.i.i.i.i.i.i.i.i.i.i.i.i.i.i.i.i.i.i.i.i.i.i.i.i.i.i.i.i.i.i.i.i.i.i.i.i.i.i.i.i.i.i.i.i.",
"i.i.i.i.i.i.i.i.i.^ T T T T T ^ T T T T T ^ T T T T T ^ T T T T T ^ T T T T T ^ i.i.i.i.i.i.i.i.i.i.",
"i.i.i.i.i.i.i.i.i.T <.      9 T -.$ $ $ & T & @.>.,.> T > g : : 4 T 4 b 3 3 =.T i.i.i.i.i.i.i.i.i.i.",
"i.i.i.i.i.i.i.i.i.T   l l l   T 9.e e e e.T 4.1 1 1 ,.T g 3.w.r.: T b D D ,.3 T i.i.i.i.i.i.i.i.i.i.",
"i.i.i.i.i.i.i.i.i.T <.      9 T -.9.$ r.& T & @.>.,.> T > g : : 4 T 4 b 3 3 =.T i.i.i.i.i.i.i.i.i.i.",
"i.i.i.i.Q t.t.t.t.t.t.t.t.t.t.t.t.t.t.t.t.t.t.t.t.t.t.t.t.t.t.t.t.t.t.t.t.t.t.t.t.t.t.t.Q i.i.i.i.i.",
"i.i.i.i.t.W W W W W W W W W W W W W W W W Z Z Z d Z d d #.I I I 5 5 5 k k k B B B B + + t.i.i.i.i.i.",
"i.i.i.i.Q t.t.t.t.t.t.t.t.t.t.t.t.t.t.t.t.t.t.t.t.t.t.t.t.t.t.t.t.t.t.t.t.t.t.t.t.t.t.t.Q i.i.i.i.i.",
"i.i.i.i.R Y R i.i.y.q 7 7 7 q y.q 7 7 C o.y.o.u u u } y.{ = 8.7.) y.) M v :.- y.i.i.R Y R i.i.i.i.i.",
"i.i.i.i.Y ;.Y i.i.y.7 o o o 7 y.7 o m m O.y.u 2 2 2 = y.= ..A A z y.M r X.X./ y.i.i.Y ;.Y i.i.i.i.i.",
"i.i.i.i.Y ; Y i.i.y.7 o o o 7 y.C m m m u y.u 2 , , = y.7.A *.*.M y.:.X.n  .8 y.i.i.Y ; Y i.i.i.i.i.",
"i.i.i.i.Y ; Y i.i.y.7 o o o 7 y.O.m m m u y.L , , 6.7.y.z *.*.f v y.:.n  .5.8 y.i.i.Y ; Y i.i.i.i.i.",
"i.i.i.i.Y % Y i.i.y.q 7 7 C o.y.o.u u L } y.{ = 7.7.) y.) M v :.- y.F 8 8 8 _ y.i.i.Y % Y i.i.i.i.i.",
"i.i.i.i.Y %.Y i.i.E y.y.y.y.y.E y.y.y.y.y.E y.y.y.y.y.E y.y.y.y.y.E y.y.y.y.y.E i.i.Y %.Y i.i.i.i.i.",
"i.i.R Y Y V Y Y R y.o.C O.u o.y.} L = = { y.) j z z - y.- :./ X F y._ ! 6 6 @ y.R Y Y V Y Y R i.i.i.",
"i.i.Y %.V G ] S Y y.O.m m 2 u y.= , , 6.7.y.z *.f r :.y.:.n  .5.8 y.! h t t c y.Y %.V G ] S Y i.i.i.",
"i.i.R Y G ] +.Y R y.u m 2 2 L y.= 6...A j y.z f r X.:.y.X 5.# # ! y.6 t t O i y.R Y G ] +.Y R i.i.i.",
"i.i.i.R Y +.Y R i.y.u 2 2 , = y.8...A *.z y.v r X.n X y.8 # h h 6 y.c O O O $.y.i.R Y +.Y R i.i.i.i.",
"i.i.i.i.R Y R i.i.y.} L = = { y.) z z z - y.- :./ X F y._ ! 6 6 @ y.@ i $.[ p y.i.i.R Y R i.i.i.i.i.",
"i.i.i.i.Q t.t.t.t.t.t.t.t.t.t.t.t.t.t.t.t.t.t.t.t.t.t.t.t.t.t.t.t.t.t.t.t.t.t.t.t.t.t.t.Q i.i.i.i.i.",
"i.i.i.i.t.d d #.I I I 5 5 5 k k k B B B B + + + + + 0 0 0 0 0 0 0 0 0 0 0 0 0 0 0 0 0 0 t.i.i.i.i.i.",
"i.i.i.i.Q t.t.t.t.t.t.t.t.t.t.t.t.t.t.t.t.t.t.t.t.t.t.t.t.t.t.t.t.t.t.t.t.t.t.t.t.t.t.t.Q i.i.i.i.i.",
"i.i.i.i.i.i.i.i.i.y.) z z M - y.- :./ X F y._ ! 6 6 @ y.@ i $.[ p y.&.s s ~ ' y.i.i.i.i.i.i.i.i.i.i.",
"i.i.i.i.i.i.i.i.i.y.z *.f r :.y./  .5.# 8 y.6 t t t i y.$.1.a a * y.s J P P H y.i.i.i.i.i.i.i.i.i.i.",
"i.i.i.i.i.i.i.i.i.y.M r r X./ y.8 5.# # ! y.6 t O O i y.[ a N N s y.~ P | | H y.i.i.i.i.i.i.i.i.i.i.",
"i.i.i.i.i.i.i.i.i.y.v X.X.n X y.8 # h h 6 y.c O O 1.[ y.* N N U ~ y.H | | x y y.i.i.i.i.i.i.i.i.i.i.",
"i.i.i.i.i.i.i.i.i.y.- / X 8 K y._ 6 6 6 @ y.@ i $.[ p y.&.s ~ ~ ' y.q.H y y q.y.i.i.i.i.i.i.i.i.i.i.",
"i.i.i.i.i.i.i.i.i.E y.y.y.y.y.E y.y.y.y.y.E y.y.y.y.y.E y.y.y.y.y.E y.y.y.y.y.E i.i.i.i.i.i.i.i.i.i.",
"i.i.i.i.i.i.i.i.i.y.F 8 8 ! _ y.@ c i i p y.p * * 2.&.y.' 0.H H q.y.q.y w ` < y.i.i.i.i.i.i.i.i.i.i.",
"i.i.i.i.i.i.i.i.i.y.8 # h h 6 y.c O O 1.[ y.* N U U ~ y.H | | x y y.w . . . ( y.i.i.i.i.i.i.i.i.i.i.",
"i.i.i.i.i.i.i.i.i.y.! h t t c y.i 1.1.a * y.2.U J P 0.y.H x x x y y.` . . . ( y.i.i.i.i.i.i.i.i.i.i.",
"i.i.i.i.i.i.i.i.i.y.6 t t O i y.$.1.a N 2.y.s J P | H y.y x x . w y.` . . . ( y.i.i.i.i.i.i.i.i.i.i.",
"i.i.i.i.i.i.i.i.i.y.@ c i i p y.p * * 2.&.y.' H H H q.y.q.w w ` < y.< ( ( ( < y.i.i.i.i.i.i.i.i.i.i.",
"i.i.i.i.i.i.i.i.i.E y.y.y.y.y.E y.y.y.y.y.E y.y.y.y.y.E y.y.y.y.y.E y.y.y.y.y.E i.i.i.i.i.i.i.i.i.i.",
"i.i.i.i.i.i.i.i.i.i.i.i.i.i.i.i.i.i.i.i.i.i.i.i.i.i.i.i.i.i.i.i.i.i.i.i.i.i.i.i.i.i.i.i.i.i.i.i.i.i.",
"i.i.i.i.i.i.i.i.i.i.i.i.i.i.i.i.i.i.i.i.i.i.i.i.i.i.i.i.i.i.i.i.i.i.i.i.i.i.i.i.i.i.i.i.i.i.i.i.i.i.",
"i.i.i.i.i.i.i.i.i.i.i.i.i.i.i.i.i.i.i.i.i.i.i.i.i.i.i.i.i.i.i.i.i.i.i.i.i.i.i.i.i.i.i.i.i.i.i.i.i.i.",
"i.i.i.i.i.i.i.i.i.i.i.i.i.i.i.i.i.i.i.i.i.i.i.i.i.i.i.i.i.i.i.i.i.i.i.i.i.i.i.i.i.i.i.i.i.i.i.i.i.i.",
"i.i.i.i.i.i.i.i.i.i.i.i.i.i.i.i.i.i.i.i.i.i.i.i.i.i.i.i.i.i.i.i.i.i.i.i.i.i.i.i.i.i.i.i.i.i.i.i.i.i.",
"i.i.i.i.i.i.i.i.i.i.i.i.i.i.i.i.i.i.i.i.i.i.i.i.i.i.i.i.i.i.i.i.i.i.i.i.i.i.i.i.i.i.i.i.i.i.i.i.i.i.",
"i.i.i.i.i.i.i.i.i.i.i.i.i.i.i.i.i.i.i.i.i.i.i.i.i.i.i.i.i.i.i.i.i.i.i.i.i.i.i.i.i.i.i.i.i.i.i.i.i.i.",
"i.i.i.i.i.i.i.i.i.i.i.i.i.i.i.i.i.i.i.i.i.i.i.i.i.i.i.i.i.i.i.i.i.i.i.i.i.i.i.i.i.i.i.i.i.i.i.i.i.i.",
"i.i.i.i.i.i.i.i.i.i.i.i.i.i.i.i.i.i.i.i.i.i.i.i.i.i.i.i.i.i.i.i.i.i.i.i.i.i.i.i.i.i.i.i.i.i.i.i.i.i."
};
