/* XPM */
static char *ex_nested_xpm[] = {
/* columns rows colors chars-per-pixel */
"50 50 129 2",
"   c #D0D0F2",
".  c #7479D6",
"X  c #C4C5EF",
"o  c #DEE798",
"O  c #D2D3F3",
"+  c #CECFF2",
"@  c #CDD37D",
"#  c #E0EA9B",
"$  c #CACBF1",
"%  c #C2C3EE",
"&  c #E2EE9E",
"*  c #D5D5F4",
"=  c #E3F09E",
"-  c #D9DC8F",
";  c #B5B7EA",
":  c #D7D88C",
">  c #CCCD7D",
",  c #D5D991",
"<  c #C3C4EF",
"1  c #E4F1A1",
"2  c #ABAEE6",
"3  c #B8B9EB",
"4  c #AEB1E8",
"5  c #D8E480",
"6  c #D9D9F5",
"7  c #DADE91",
"8  c #E3EBA3",
"9  c #DAE293",
"0  c #D7D68E",
"q  c #D6D6F4",
"w  c #988E2C",
"e  c #D7DA8C",
"r  c #ADAEE8",
"t  c #BFBC70",
"y  c #D4D488",
"u  c #D2D586",
"i  c #D4D4F3",
"p  c #DFE899",
"a  c #CFCF89",
"s  c #D8DB8F",
"d  c #B1AC59",
"f  c #DDE791",
"g  c #A7AAE6",
"h  c #CDCF82",
"j  c #E6F3A7",
"k  c #DEE596",
"l  c #D1D28D",
"z  c #D1CF89",
"x  c #EAF3B7",
"c  c #E5EEAC",
"v  c #D2D88B",
"b  c #D5D58A",
"n  c #C8CA76",
"m  c #BCBEEC",
"M  c #BDBFEC",
"N  c #ABA56C",
"B  c #9699D1",
"V  c #A9A264",
"C  c #9295D1",
"Z  c #C8C6BA",
"A  c #C7C5B7",
"S  c #7F83D1",
"D  c #C3C4D0",
"F  c #9D9445",
"G  c #C1C2D0",
"H  c #7377D1",
"J  c #C0C1ED",
"K  c #D6D78B",
"L  c #C8C9F0",
"P  c #958B2F",
"I  c #BFC0ED",
"U  c #C1C2EE",
"Y  c #C0C1EE",
"T  c #C7C8EF",
"R  c #A6A8D0",
"E  c #B5B087",
"W  c #989BE1",
"Q  c #9295DF",
"!  c #C8CAF0",
"~  c #D5D689",
"^  c #D5D78A",
"/  c #CCCDF2",
"(  c #CDCEF2",
")  c #CBCCF1",
"_  c #C5C6EF",
"`  c #A2A5E4",
"'  c #C6C7EF",
"]  c #C8C9EF",
"[  c #D9DD8F",
"{  c #BBBEEC",
"}  c #E1EC9B",
"|  c #C1C2ED",
" . c #C2BE6D",
".. c #D7DA8E",
"X. c #CDCEF1",
"o. c #CECEF1",
"O. c #E3F0A0",
"+. c #B3B05C",
"@. c #AFA855",
"#. c #B9BBEB",
"$. c #E1EC9C",
"%. c #E2ED9D",
"&. c #CBC884",
"*. c #CECF84",
"=. c #BCB66B",
"-. c #B1B3E9",
";. c #C3C274",
":. c #978D2B",
">. c #DADF92",
",. c #E0E89E",
"<. c #BDBFED",
"1. c #E9EFBA",
"2. c #D4DA8A",
"3. c #B7B8EB",
"4. c #DFE69C",
"5. c #D9DC95",
"6. c #D2DA87",
"7. c #DCE197",
"8. c #D9DF8C",
"9. c #C7C873",
"0. c #D8DB93",
"q. c #C8C479",
"w. c #DDE299",
"e. c #EBF2BD",
"r. c #D7D7F5",
"t. c #8D8119",
"y. c #666BD1",
"u. c #D0D0D0",
"i. c None",
/* pixels */
"i.i.i.i.i.i.i.i.i.i.i.i.i.i.i.i.i.i.i.i.i.i.i.i.i.i.i.i.i.i.i.i.i.i.i.i.i.i.i.i.i.i.i.i.i.i.i.i.i.i.",
"i.i.i.i.i.i.i.i.i.i.i.i.i.i.i.i.i.i.i.i.i.i.i.i.i.i.i.i.i.i.i.i.i.i.i.i.i.i.i.i.i.i.i.i.i.i.i.i.i.i.",
"i.i.i.i.i.i.i.i.i.i.i.i.i.i.i.i.i.i.i.i.i.i.i.i.i.i.i.i.i.i.i.i.i.i.i.i.i.i.i.i.i.i.i.i.i.i.i.i.i.i.",
"i.i.i.i.i.i.i.i.i.i.i.i.i.i.i.i.i.i.i.i.i.i.i.i.i.i.i.i.i.i.i.i.i.i.i.i.i.i.i.i.i.i.i.i.i.i.i.i.i.i.",
"i.i.i.i.i.i.i.i.i.i.i.i.i.i.i.i.i.i.i.i.i.i.i.i.i.i.i.i.i.i.i.i.i.i.i.i.i.i.i.i.i.i.i.i.i.i.i.i.i.i.",
"i.i.i.i.i.i.i.G B S H y.y.y.y.y.y.y.y.y.y.y.y.y.y.y.y.y.y.y.y.y.y.y.y.y.y.y.y.y.y.H S B G i.i.i.i.i.",
"i.i.i.i.i.i.G B ` ; { < J Y U U % < X X _ ' T L ! $ $ ) / ( o.+       O O i i * r.o.X 2 B G i.i.i.i.",
"i.i.i.i.i.i.B ` 4 g 4 ; J Y U U % < X X _ ' T L ! $ $ ) / ( o.+       O O i i * L I #.J 2 B i.i.i.i.",
"i.i.i.i.i.i.S ; g -.Q . y.y.y.y.y.y.y.y.y.y.y.y.y.y.y.y.y.y.y.y.y.y.y.y.y.y.y.y.. W | #.X S i.i.i.i.",
"i.i.i.i.i.i.H #.2 Q R D i.i.i.i.i.i.i.i.i.i.i.i.i.i.i.i.i.i.i.i.i.i.i.i.i.i.i.i.D R W J + H i.i.i.i.",
"i.i.i.i.i.i.y.I m . D i.i.i.i.i.i.i.i.i.i.i.i.i.i.i.i.i.i.i.i.i.i.i.i.i.i.i.i.i.i.D . $ 6 y.i.i.i.i.",
"i.i.i.i.i.i.y.m m y.i.i.i.i.i.i.i.i.i.i.i.i.i.i.i.i.i.i.i.i.i.i.i.i.i.i.i.i.i.i.i.i.y.r.6 y.i.i.i.i.",
"i.i.i.i.i.i.y.m M y.i.i.i.i.i.A N F P t.t.t.t.t.t.t.t.t.t.t.t.t.t.t.t.P F N A i.i.i.y.r.r.y.i.i.i.i.",
"i.i.i.i.i.i.y.m M y.i.i.i.i.A N ;., 4.j 1 O.= = = & %.$.} # # # p o ,.5.l t N A i.i.y.r.r.y.i.i.i.i.",
"i.i.i.i.i.i.y.m M y.i.i.i.i.N ;.v @ 6.9 O.= = = & %.$.} # # # p o o 2.@ n h t N i.i.y.r.r.y.i.i.i.i.",
"i.i.i.i.i.i.y.X.X.y.i.i.i.i.F , @ v +.w t.t.t.t.t.t.t.t.t.t.t.t.t.t.w d *.9.a F i.i.y.r.r.y.i.i.i.i.",
"i.i.i.i.i.i.C y.y.C i.i.i.i.t.j = +.E Z i.i.i.i.i.i.i.i.i.i.i.i.i.i.Z E d 8.w.t.i.i.y.r.r.y.i.i.i.i.",
"i.i.i.i.i.i.i.i.i.i.i.i.i.i.t.1 = w Z i.i.i.i.i.i.i.i.i.i.i.i.i.i.i.i.Z w 8.>.t.i.i.y.r.r.y.i.i.i.i.",
"i.i.i.i.i.i.i.i.i.i.i.i.i.i.t.1 = t.i.i.i.i.i.i.i.i.i.i.i.i.i.i.i.i.i.i.t.7 >.t.i.i.y.r.r.y.i.i.i.i.",
"i.i.i.i.i.i.i.i.i.i.i.i.i.i.t.O.= t.i.i.i.i.i.i.i.i.i.i.i.i.i.i.i.i.i.i.t.7 [ t.i.i.y.r.r.y.i.i.i.i.",
"i.i.i.i.i.i.C y.y.C i.i.i.i.t.x x t.i.i.i.i.i.i.i.i.i.i.i.i.i.i.i.i.i.i.t.[ [ t.i.i.y.r.r.y.i.i.i.i.",
"i.i.i.i.i.C y.] ] y.C i.i.i.V t.t.V i.i.i.i.i.i.i.i.i.i.i.i.i.i.i.i.i.i.t.[ - t.i.i.y.r.r.y.i.i.i.i.",
"i.i.i.i.C y.% r r < y.C i.i.i.i.i.i.i.i.i.i.i.i.i.i.i.i.i.i.i.i.i.i.i.i.t.- s t.i.i.y.r.r.y.i.i.i.i.",
"i.i.i.i.y.O m r r <.* y.i.i.i.i.i.i.i.i.i.i.i.i.i.i.i.i.i.i.i.i.i.i.i.i.t.s e t.i.i.y.r.r.y.i.i.i.i.",
"i.i.i.i.C y.y.3.3 y.y.C i.i.i.i.i.i.i.i.i.i.i.i.i.i.i.i.i.i.i.i.i.i.i.i.t.e e t.i.i.y.r.r.y.i.i.i.i.",
"i.i.i.i.i.i.y.m M y.i.i.i.i.V t.t.V i.i.i.i.i.i.i.i.i.i.i.i.i.i.i.i.i.i.t.e : t.i.i.y.r.r.y.i.i.i.i.",
"i.i.i.i.i.i.y.m M y.i.i.i.V t.c c t.V i.i.i.i.i.i.i.i.i.i.i.i.i.i.i.i.i.t.: : t.i.i.y.r.r.y.i.i.i.i.",
"i.i.i.i.i.i.y.m M y.i.i.V t.8 5 5 8 t.V i.i.i.i.i.i.i.i.i.i.i.i.i.i.i.i.t.: K t.i.i.y.r.r.y.i.i.i.i.",
"i.i.i.i.i.i.y.m M y.i.i.t.e.# 5 5 p 1.t.i.i.i.i.i.i.i.i.i.i.i.i.i.i.i.i.t.K ^ t.i.i.y.r.r.y.i.i.i.i.",
"i.i.i.i.i.i.y.m M y.i.i.V t.t.f f t.t.V i.i.i.i.i.i.i.i.i.i.i.i.i.i.i.i.t.^ ~ t.i.i.y.r.r.y.i.i.i.i.",
"i.i.i.i.i.i.y.m M y.i.i.i.i.t.p o t.i.i.i.i.i.i.i.i.i.i.i.i.i.i.i.i.i.i.t.~ b t.i.i.y.r.r.y.i.i.i.i.",
"i.i.i.i.i.i.y.m M y.i.i.i.i.t.o k t.i.i.i.i.i.i.i.i.i.i.i.i.i.i.i.i.i.i.t.y y t.i.i.y.r.r.y.i.i.i.i.",
"i.i.i.i.i.i.y.m M y.i.i.i.i.t.4.k w Z i.i.i.i.i.i.i.i.i.i.i.i.i.i.i.i.Z :.y K t.i.i.y.r.r.y.i.i.i.i.",
"i.i.i.i.i.i.y.m M y.i.i.i.i.P 0.> d E Z i.i.i.i.i.i.i.i.i.i.i.i.i.i.Z E @.;.z P i.i.y.r.r.y.i.i.i.i.",
"i.i.i.i.i.i.y.m M y.i.i.i.i.F l n *.d w t.t.t.t.t.t.t.t.t.t.t.t.t.t.:.@.q. .&.F i.i.y.r.r.y.i.i.i.i.",
"i.i.i.i.i.i.y.m M y.i.i.i.i.N t h 9.> u >.7 [ - s ..e : : K K ^ ~ b > ;. .q.=.N i.i.y.r.r.y.i.i.i.i.",
"i.i.i.i.i.i.y.m M y.i.i.i.i.A N t a , 7.7 [ - s ..e : : K K ^ ~ b b 0 z &.=.N A i.i.y.r.r.y.i.i.i.i.",
"i.i.i.i.i.i.y.m M y.i.i.i.i.i.A N F P t.t.t.t.t.t.t.t.t.t.t.t.t.t.t.t.P F N A i.i.i.y.r.r.y.i.i.i.i.",
"i.i.i.i.i.i.y.m m y.i.i.i.i.i.i.i.i.i.i.i.i.i.i.i.i.i.i.i.i.i.i.i.i.i.i.i.i.i.i.i.i.y.q r.y.i.i.i.i.",
"i.i.i.i.i.i.y.I m . D i.i.i.i.i.i.i.i.i.i.i.i.i.i.i.i.i.i.i.i.i.i.i.i.i.i.i.i.i.i.D . q 6 y.i.i.i.i.",
"i.i.i.i.i.i.H #.2 Q R D i.i.i.i.i.i.i.i.i.i.i.i.i.i.i.i.i.i.i.i.i.i.i.i.i.i.i.i.D R W I + H i.i.i.i.",
"i.i.i.i.i.i.S ; g -.Q . y.y.y.y.y.y.y.y.y.y.y.y.y.y.y.y.y.y.y.y.y.y.y.y.y.y.y.y.. W | #.X S i.i.i.i.",
"i.i.i.i.i.i.B ` 4 g 4 ; J Y U U % < X X _ ' T L ! $ $ ) / ( o.+       O O i i * L I #.J 2 B i.i.i.i.",
"i.i.i.i.i.i.G B ` ; { < J Y U U % < X X _ ' T L ! $ $ ) / ( o.+       O O i i * r.o.X 2 B G i.i.i.i.",
"i.i.i.i.i.i.i.G B S H y.y.y.y.y.y.y.y.y.y.y.y.y.y.y.y.y.y.y.y.y.y.y.y.y.y.y.y.y.y.H S B G i.i.i.i.i.",
"i.i.i.i.i.i.i.i.i.i.i.i.i.i.i.i.i.i.i.i.i.i.i.i.i.i.i.i.i.i.i.i.i.i.i.i.i.i.i.i.i.i.i.i.i.i.i.i.i.i.",
"i.i.i.i.i.i.i.i.i.i.i.i.i.i.i.i.i.i.i.i.i.i.i.i.i.i.i.i.i.i.i.i.i.i.i.i.i.i.i.i.i.i.i.i.i.i.i.i.i.i.",
"i.i.i.i.i.i.i.i.i.i.i.i.i.i.i.i.i.i.i.i.i.i.i.i.i.i.i.i.i.i.i.i.i.i.i.i.i.i.i.i.i.i.i.i.i.i.i.i.i.i.",
"i.i.i.i.i.i.i.i.i.i.i.i.i.i.i.i.i.i.i.i.i.i.i.i.i.i.i.i.i.i.i.i.i.i.i.i.i.i.i.i.i.i.i.i.i.i.i.i.i.i.",
"i.i.i.i.i.i.i.i.i.i.i.i.i.i.i.i.i.i.i.i.i.i.i.i.i.i.i.i.i.i.i.i.i.i.i.i.i.i.i.i.i.i.i.i.i.i.i.i.i.i."
};
