/* XPM */
static const char *ex_nested_loop_anti_join_xpm[] = {
/* columns rows colors chars-per-pixel */
"50 50 256 2",
"`  c #CCCDF1",
"1  c #D1D1F2",
"g  c #6FCDEE",
">  c #CCCDF2",
"-. c #E3F29D",
"N. c #DBE193",
">. c #D1D689",
"l  c #85D4F0",
"d  c #B8BAEB",
"O  c #797DD7",
"<X c #D6D78A",
"w. c #B3AF5B",
"#X c #E4D390",
"v. c #B34B13",
"o. c #C2C175",
"SX c #C2BE6C",
"U  c #D9D9F5",
"~. c #FFFFFF",
"G. c #D75122",
"%  c #C5C6EF",
"7X c #D2DA78",
"3. c #D4DA8D",
"e  c #89B9DB",
"'. c #C37043",
"c  c #83D1ED",
"T. c #73A537",
"A. c #EAE49D",
"MX c #C5C270",
"K. c #F5E8E1",
"2X c #E2D08D",
"pX c #D4D48B",
"<. c #CDCEF1",
"]  c #CDCEF2",
"9. c #E4F39C",
":X c #D5DE7C",
"E. c #EFEBB6",
"F  c #5AC1E7",
"0  c #BEBFED",
"IX c #CAC680",
"P  c #757AD6",
"W. c #EFE8B3",
"0. c #D1CDA3",
"8. c #A5A8E4",
"+  c #666BD1",
"j. c #EBF4B7",
"4. c #B4B05C",
"ZX c #A0973B",
"eX c #ECDEBA",
"&X c #D7D88C",
"b  c #ADDFF3",
"3  c #D5D6F4",
"/  c #9B9035",
"'  c #C6C7EF",
";. c #E2F09A",
"A  c #5DC5EB",
"N  c #ECEDF9",
"4X c #E0CA89",
"U. c #DADF92",
"!  c #EFEEDF",
"y  c #B2B4E9",
"#  c #B7B8EA",
"}  c #D5DB94",
" X c #EDE5B1",
"Z. c #EBE59E",
"b. c #B5623F",
"c. c #B05E3E",
"   c None",
"%X c #E4EAA9",
".. c #E7F4A9",
"h  c #45BEE9",
"9X c #D5D589",
"uX c #D8DF8A",
"!. c #E25428",
"1. c #CECFF1",
"2  c #D3D3F3",
"FX c #EAD8B6",
"l. c #F0ECB6",
"_  c #F0ECB7",
"k. c #DDE395",
"n  c #BABCEB",
"r. c #E2EAA1",
"^  c #A89F50",
"w  c #BFC0ED",
"qX c #E8D8A7",
"]. c #D8DC8F",
"p. c #DBBD89",
"6  c #ABADE6",
"7. c #D3D58D",
"u  c #9296DF",
"hX c #D3D286",
"M. c #BCB578",
"OX c #7AB141",
"M  c #C2C4ED",
"=  c #C7C8EF",
"zX c #E3CB9E",
">X c #D4DC7A",
"i  c #7478D5",
"q  c #B8B9EC",
"Z  c #1AAEE3",
"|. c #EEE6B2",
"R. c #99BC78",
"6. c #CAD179",
"}. c #F3EDC6",
"%. c #D4D4F3",
"<  c #CFD0F2",
"|  c #DEE79A",
"jX c #DCBE80",
"fX c #EBD9B6",
"s  c #C0C1ED",
"I. c #C5C5EF",
"J  c #C0C1EE",
"(. c #D9DD90",
"V  c #07A8E2",
",X c #DEE49C",
"xX c #D9DD93",
"2. c #CDD57C",
"m  c #ACAEE7",
"yX c #C99586",
"a  c #989BE1",
"aX c #D4D387",
"). c #A7CF67",
"4  c #CDCDF1",
"-  c #C8C9F0",
"_. c #76AB3B",
"lX c #DABB7E",
"7  c #AFB2E8",
"g. c #E4F2A1",
"u. c #F1F0E3",
"p  c #7579D6",
"XX c #D7DA8D",
"D  c #4EBEE6",
"@X c #E5D692",
")  c #F4F1C9",
"k  c #53C2EA",
"E  c #C18F36",
"r  c #3688C1",
"G  c #64C5E8",
"B. c #DEEAD4",
"R  c #A9A07A",
"f. c #DFE898",
"UX c #D5D5F4",
"~  c #C0BA81",
"AX c #C8C57A",
"/. c #BCBEEC",
"q. c #E5E2CB",
"m. c #7066B8",
"8X c #E6E9B5",
"y. c #998F2D",
"B  c #40BCE9",
"P. c #ADAFE9",
"sX c #E5D0A1",
"h. c #DDE596",
"a. c #B5997E",
"I  c #C9CAF0",
",  c #CECEF2",
"GX c #BCB76C",
"kX c #DBBC7E",
"{. c #528D19",
"NX c #D0CD88",
"t  c #B5B7EA",
"S  c #71CBEC",
"s. c #E5F3A2",
"(  c #8D8119",
"gX c #D8DB8D",
"z. c #BF8631",
"5X c #E0C392",
"tX c #B86540",
":. c #CCD37A",
"@. c #ABACE8",
"KX c #BFBB68",
"i. c #E0E999",
"Y  c #D6D6F4",
"C  c #10ABE2",
"nX c #B0A956",
"3X c #E1CD8B",
"1X c #EBDEAC",
"Y. c #81AE42",
"CX c #C9C67E",
"$  c #BDBFEC",
"L. c #C2C3EE",
"K  c #BDBFED",
"^. c #DAA68A",
"#. c #B3B4EA",
"bX c #C7C674",
"{  c #C2C276",
"[  c #DEDEF6",
"Q. c #D39C6C",
"x. c #B78480",
";  c #CACBF0",
";X c #CE925D",
"PX c #D6D58E",
"o  c #8B8EDC",
"LX c #C7C378",
"z  c #94D8F0",
"*X c #8CC052",
"t. c #E6F4A3",
"V. c #97BB75",
" . c #E6F4A6",
"JX c #CFCE7C",
"@  c #A2A5E4",
"cX c #988D2C",
"H. c #E15427",
"D. c #B7601B",
".X c #ECE2AF",
"rX c #BF8C83",
"F. c #C94D1A",
"n. c #C49084",
"T  c #D7D7F5",
"dX c #E4CE9F",
"iX c #D7DC88",
"-X c #E2CE8C",
"5  c #C3C4EE",
"&  c #C3C4EF",
"vX c #DABA7D",
"S. c #E7D59F",
"H  c #92D5EF",
"d. c #E4F1A0",
"e. c #DFEA95",
"9  c #B9B9EB",
"wX c #E7D5A5",
"VX c #C3C06E",
"v  c #8BD4EE",
"x  c #7ACEEC",
"Q  c #748BD5",
":  c #CBCCF1",
"mX c #AFA755",
"j  c #4CC0E9",
"BX c #CDCB87",
"$X c #BF6830",
"W  c #A18E77",
"oX c #B2E076",
"+. c #BCBDEC",
"J. c #975452",
"$. c #BCBDED",
"L  c #7378D5",
"0X c #EFE3BE",
"`. c #B55716",
"5. c #A39C3F",
"O. c #EBE69F",
"=. c #D3DC86",
"X. c #D5D991",
"8  c #A8AAE6",
"HX c #D0CF7F",
"=X c #E3D28F",
"C. c #BAD1A3",
",. c #C1C074",
"*. c #CED580",
"f  c #C4C5EE",
"&. c #D3D98B",
"*  c #C4C5EF",
"6X c #E9EFBA",
".  c #EAEBF9",
"DX c #CBC884",
"+X c #E6D995",
"X  c #ABAEE6",
"[. c #B0DD74",
/* pixels */
"                                                                                                    ",
"                                                                                                    ",
"                                                                                                    ",
"                                                                                                    ",
"                                                                                                    ",
"      . X o O + + + + + + + + + + + + + + O o X .                                                   ",
"    . X @ # $ % & * % = - ; : > , < 1 2 3 4 5 6 X .                                                 ",
"    X @ 7 8 7 9 & * % = - ; : > , < 1 2 = 0 q w 6 X                   e r r r r r e r r r r r e     ",
"    o t 8 y u i + + + + + + + + + + + + p a s d f o                   r g h j k l r z x c v b r     ",
"    O n m u M N                         N M a w , O                   r B V C Z A r S D F G H r     ",
"    + J K L N                             N P I U +                   r g h j k l r z x c v b r     ",
"    + K K +                                 + Y T +                   R E E E E E W + + + + + Q     ",
"    + K 0 +         ! ~ ^ / ( ( ^ ~ !       + Y T +                   E ) _ _ _ ) E ` J ' ] [ +     ",
"    + K 0 +       ! ~ { } |  ...X.o.~ !     + Y T +                   E _ O.O.O._ E +.@.#.$.%.+     ",
"    + K 0 +       ~ { &.*.=.-.;.:.>.,.~     + Y T +                   E _ O.O.O._ E +.@.#.$.%.+     ",
"    + <.1.+       ^ X.2.3.4.5.4.>.6.7.^     + Y T +                   E _ O.O.O._ E +.@.#.$.%.+     ",
"    8.+ + 8.      ( ..9.4.0.q.0.w.e.r.(     + Y T +                   E ) _ _ _ ) E ` J ' ] [ +     ",
"                  ( t.-.y.u.  u.y.e.i.(     + Y T +                   p.E E E E E a.+ + + + + 8.    ",
"                  ( s.d.(       ( f.| (     + Y T +                   E ) _ _ _ ) E ` J ' ] [ +     ",
"                  ( g.d.(       ( | h.(     + Y T +                   E _ O.O.O._ E +.@.#.$.%.+     ",
"    8.+ + 8.      ( j.j.(       ( h.k.(     + Y T +                   E _ O.O.O.l.z.x.c.v.b.n.m.    ",
"  8.+ - I + 8.    M.( ( M.      ( k.N.(     + Y T +     B.V.C.        E _ O.Z.A.S.D.F.G.H.G.F.J.K.  ",
"8.+ L.P.P.I.+ 8.                ( N.U.(     + Y T +     V.Y.T.R.      E ) E.E.W.Q.F.!.!.~.~.!.F.^.  ",
"+ 2 /.P.P.w 3 +                 ( U.(.(     + Y T +     C.T.)._.R.    p.E E E E `.G.!.!.!.~.~.G.'.  ",
"8.+ + q d + + 8.                ( (.].(     + Y T +       R._.[.{.    E }.|. X.Xv.H.~.!.!.!.~.H.v.  ",
"    + K 0 +       M.( ( M.      ( ].XX(     + Y T +     C._.oXOXR.    E  X+X@X#X$XG.~.~.!.!.!.G.'.  ",
"    + K 0 +     M.( %X%X( M.    ( XX&X(     + Y T +     V.*XOXR.      E .X@X=X-X;XF.!.~.~.!.!.F.^.  ",
"    + K 0 +   M.( r.:X>X,X( M.  ( &X<X(     + Y T +     B.V.C.        E 1X2X3X4X5XD.F.G.H.G.F.J.K.  ",
"    + K 0 +   ( 6Xh.>X7XU.8X(   ( <X9X(     + Y T +                   E 0XqXwXwXeXz.rXb.v.tXyXm.    ",
"    + K 0 +   M.( ( uXiX( ( M.  ( 9XpX(     + Y T +                   p.E E E E E a.+ + + + + 8.    ",
"    + K 0 +       ( U.(.(       ( pXaX(     + Y T +                   E eXsXsXdXfXE ` J ' ] [ +     ",
"    + K 0 +       ( (.gX(       ( hXhX(     + Y T +                   E sXjXkXlXzXE +.@.#.$.%.+     ",
"    + K 0 +       ( xX&XcXu.  u.cXhXpX(     + Y T +                   E dXlXvXvXzXE +.@.#.$.%.+     ",
"    + K 0 +       / 7.bXnX0.q.0.mXMXNX/     + Y T +                   E zXvXvXvXzXE +.@.#.$.%.+     ",
"    + K 0 +       ^ BXVXCXmXZXmXAXSXDX^     + Y T +                   E FXzXzXzXFXE ` J ' ] [ +     ",
"    + K 0 +       ~ GXAXSXMXHXJXKXLXGX~     + Y T +                   p.E E E E E a.+ + + + + 8.    ",
"    + K 0 +       ! ~ GXDXNXpXPXIXGX~ !     + Y T +                   E FXzXzXzXFXE ` J ' ] [ +     ",
"    + K 0 +         ! ~ ^ / ( ( ^ ~ !       + Y T +                   E zXvXvXvXzXE +.@.#.$.%.+     ",
"    + K K +                                 + UXT +                   E zXvXvXvXzXE +.@.#.$.%.+     ",
"    + J K L N                             N P UXU +                   E zXvXvXvXzXE +.@.#.$.%.+     ",
"    O n m u M N                         N M a 0 , O                   E FXzXzXzXFXE ` J ' ] [ +     ",
"    o t 8 y u i + + + + + + + + + + + + p a s d f o                   p.E E E E E a.+ + + + + 8.    ",
"    X @ 7 8 7 9 & * % = - ; : > , < 1 2 = 0 q w 6 X                                                 ",
"    . X @ # $ % & * % = - ; : > , < 1 2 3 4 5 6 X .                                                 ",
"      . X o O + + + + + + + + + + + + + + O o X .                                                   ",
"                                                                                                    ",
"                                                                                                    ",
"                                                                                                    ",
"                                                                                                    ",
"                                                                                                    "
};
