/* XPM */
static char * ex_scan_xpm[] = {
"50 50 128 2",
"  	c None",
". 	c #D1E7F2",
"+ 	c #1BAEE3",
"@ 	c #82D1ED",
"# 	c #EFE35F",
"$ 	c #7BCEED",
"% 	c #FEDE29",
"& 	c #56C3EA",
"* 	c #05A7E1",
"= 	c #92D6EF",
"- 	c #CAE3F0",
"; 	c #C2E0EE",
"> 	c #FEEC86",
", 	c #8ED4EE",
"' 	c #45BEE9",
") 	c #FADD29",
"! 	c #D6E9F4",
"~ 	c #C5E1EF",
"{ 	c #BEDEED",
"] 	c #ADD6E9",
"^ 	c #6BC7E8",
"/ 	c #D4E9F4",
"( 	c #41BDE9",
"_ 	c #F2E45F",
": 	c #DBBD89",
"< 	c #F5E55F",
"[ 	c #FBE65F",
"} 	c #F8E65F",
"| 	c #FEE65F",
"1 	c #F7E55F",
"2 	c #F9E65F",
"3 	c #F6E55F",
"4 	c #F1E45F",
"5 	c #FAE65F",
"6 	c #F4E55F",
"7 	c #F0E45F",
"8 	c #F0DC2A",
"9 	c #F6DD2A",
"0 	c #F8DD29",
"a 	c #FDE65F",
"b 	c #F2DC2A",
"c 	c #ECDB2A",
"d 	c #F1DC2A",
"e 	c #F9DD29",
"f 	c #EFE45F",
"g 	c #A5C1E4",
"h 	c #F4DC2A",
"i 	c #EEDB2A",
"j 	c #EDDB2A",
"k 	c #F3E45F",
"l 	c #F7DD2A",
"m 	c #F3DC2A",
"n 	c #EDE360",
"o 	c #F8EB87",
"p 	c #FCDE29",
"q 	c #EADB2A",
"r 	c #FCE65F",
"s 	c #F4EB87",
"t 	c #F7EB87",
"u 	c #E7DA2B",
"v 	c #E9DA2A",
"w 	c #FCEC86",
"x 	c #FAEC87",
"y 	c #EEE360",
"z 	c #EFDB2A",
"A 	c #FDDE29",
"B 	c #EBDB2A",
"C 	c #FDEC86",
"D 	c #FFE65F",
"E 	c #F9EB87",
"F 	c #F5EB87",
"G 	c #89B9DB",
"H 	c #F5DC2A",
"I 	c #FBDE29",
"J 	c #F6EB87",
"K 	c #7A9EA9",
"L 	c #FBEC86",
"M 	c #F8E55F",
"N 	c #F1EA87",
"O 	c #F3EB87",
"P 	c #F5DD2A",
"Q 	c #EFDC2A",
"R 	c #F3E55F",
"S 	c #E8DA2A",
"T 	c #E8DA2B",
"U 	c #F2EA87",
"V 	c #F3EA87",
"W 	c #79D0EF",
"X 	c #C6E2EF",
"Y 	c #CEE6F2",
"Z 	c #CBE4F1",
"` 	c #C0DFEE",
" .	c #D3E8F3",
"..	c #D4E9F3",
"+.	c #C8E3F0",
"@.	c #99DAF1",
"#.	c #6AC9EC",
"$.	c #6FCAEC",
"%.	c #6FCDEE",
"&.	c #E1EFF7",
"*.	c #CEE5F2",
"=.	c #B9DBEC",
"-.	c #F9EC87",
";.	c #50C2EA",
">.	c #65C8EC",
",.	c #89D5F0",
"'.	c #83D3F0",
").	c #94D8F1",
"!.	c #AFE1F3",
"~.	c #D7EAF5",
"{.	c #C7E3F0",
"].	c #A8DEF2",
"^.	c #A4DDF1",
"/.	c #CCE5F1",
"(.	c #75CEEF",
"_.	c #F7DD29",
":.	c #55C0E7",
"<.	c #59C1E7",
"[.	c #5BC5EB",
"}.	c #6FC8E9",
"|.	c #48BFE9",
"1.	c #38B7E5",
"2.	c #95D7EF",
"3.	c #50BEE7",
"4.	c #86D1ED",
"5.	c #6696D1",
"6.	c #3688C1",
"7.	c #C18F36",
"                                                                                                    ",
"                                                                                                    ",
"                                                                                                    ",
"                                                                                                    ",
"                                                                                                    ",
"                                                                                                    ",
"                                                                                                    ",
"                            G 6.6.6.6.6.G 6.6.6.6.6.G 6.6.6.6.6.G 6.6.6.6.6.G 6.6.6.6.6.G           ",
"                            6.%.( ' ' (.6.W ;.& & '.6.,.>.#.$.).6.@.$ @ @ ^.6.]., = = !.6.          ",
"                            6.( * * * |.6.;.+ + + [.6.>.1.1.1.$.6.$ 3.:.<.4.6., ^ ^ }.2.6.          ",
"                            6.%.( ' ' (.6.W ;.& & '.6.,.>.#.$.).6.@.$ @ @ ^.6.]., = = !.6.          ",
"                            K 6.6.6.6.6.K 6.6.6.6.6.K 6.6.6.6.6.K 6.6.6.6.6.K 6.6.6.6.6.K           ",
"              g 5.5.g       7.N n n n N 7.N n y y U 7.V # # f O 7.s 7 7 4 s 7.F _ _ _ J 7.          ",
"              5.&.&.5.      7.n u u u n 7.y T T S # 7.# q q q 7 7.7 c c c _ 7._ i z z R 7.          ",
"              5.~.~.5.      7.n u u u n 7.y S S v # 7.f q q B 7 7.4 c j j _ 7._ z Q 8 6 7.          ",
"              5.! ! 5.      7.n u u T y 7.y v v v f 7.f B B B 4 7._ j j i _ 7.k 8 8 8 < 7.          ",
"              5.! ! 5.      7.N y y y U 7.V # # f O 7.s 7 4 4 s 7.F _ _ _ J 7.t 6 < < o 7.          ",
"              5.! ! 5.      : 7.7.7.7.7.: 7.7.7.7.7.: 7.7.7.7.7.: 7.7.7.7.7.: 7.7.7.7.7.:           ",
"              5./ / 5.      7.U y # # V 7.O f 7 7 s 7.s 4 _ _ F 7.J k R 6 t 7.t < < 3 o 7.          ",
"              5. . .5.      7.y v v v f 7.f B B c 4 7._ j i i _ 7.R 8 8 d < 7.< b m m 1 7.          ",
"              5.. . 5.      7.# v q q f 7.7 B c c _ 7._ i i z k 7.6 8 d d < 7.3 m h h M 7.          ",
"              5.. . 5.      7.# q q q 7 7.4 c c j _ 7._ z z Q 6 7.< d b b 3 7.1 h h H } 7.          ",
"              5.. . 5.      7.O f 7 7 s 7.s _ _ _ F 7.J k 6 6 t 7.t < < 3 o 7.E M } } x 7.          ",
"              5.Y Y 5.      : 7.7.7.7.7.: 7.7.7.7.7.: 7.7.7.7.7.: 7.7.7.7.7.: 7.7.7.7.7.:           ",
"              5.*.*.5.      7.s 4 4 4 F 7.F _ _ k J 7.t < < < o 7.o 3 1 1 E 7.x } 2 2 L 7.          ",
"              5././.5.      7.4 c j j _ 7._ z z 8 6 7.< d b b 3 7.1 h H P } 7.} l l 0 5 7.          ",
"              5.Z Z 5.      7.4 j j i _ 7.k Q 8 8 < 7.< b m m 1 7.1 H P 9 } 7.2 0 0 0 [ 7.          ",
"              5.- - 5.      7._ i i i k 7.6 8 d d < 7.< m m h 1 7.} 9 9 l 2 7.5 0 e e [ 7.          ",
"              5.+.+.5.      7.F _ k k t 7.t < < < o 7.o 1 1 M -.7.x } 2 2 L 7.w [ [ [ w 7.          ",
"              5.{.{.5.      : 7.7.7.7.7.: 7.7.7.7.7.: 7.7.7.7.7.: 7.7.7.7.7.: 7.7.7.7.7.:           ",
"              5.X X 5.      7.J 6 6 < t 7.o < 3 3 E 7.E } } } x 7.x 5 5 [ w 7.w [ r r C 7.          ",
"              5.~ ~ 5.      7.6 8 d d < 7.3 m h h M 7.} 9 9 l 2 7.5 e e e [ 7.r I I p a 7.          ",
"              5.~ ~ 5.      7.< d b b < 7.3 h h H } 7.} l l _.5 7.[ e ) ) [ 7.r p p p | 7.          ",
"              5.; ; 5.      7.< b b m 3 7.1 H P 9 } 7.2 l 0 0 [ 7.[ ) ) ) r 7.a p p A | 7.          ",
"              5.; ; 5.      7.o 3 3 1 E 7.E } } } x 7.L 5 5 [ w 7.w [ r r C 7.C | | | > 7.          ",
"              5.` ` 5.      : 7.7.7.7.7.: 7.7.7.7.7.: 7.7.7.7.7.: 7.7.7.7.7.: 7.7.7.7.7.:           ",
"              5.` ` 5.      7.E 1 M } -.7.x 2 2 5 L 7.w [ [ [ C 7.C a a a > 7.> | | | > 7.          ",
"          g 5.5.=.=.5.5.g   7.1 H P 9 } 7.2 0 0 0 [ 7.[ ) ) I r 7.a p A A | 7.| % % % D 7.          ",
"          5...{ ] ] { ..5.  7.} 9 9 9 2 7.5 0 e e [ 7.[ ) I I a 7.a A A A | 7.| % % % D 7.          ",
"          g 5.; ] ] ; 5.g   7.} 9 l l 5 7.5 e e ) [ 7.r I p p a 7.| A % % | 7.D % % % D 7.          ",
"            g 5.+.+.5.g     7.x 2 2 5 L 7.w [ [ [ C 7.C a a | > 7.> | | | > 7.> D D D > 7.          ",
"              g 5.5.g       : 7.7.7.7.7.: 7.7.7.7.7.: 7.7.7.7.7.: 7.7.7.7.7.: 7.7.7.7.7.:           ",
"                                                                                                    ",
"                                                                                                    ",
"                                                                                                    ",
"                                                                                                    ",
"                                                                                                    ",
"                                                                                                    ",
"                                                                                                    ",
"                                                                                                    "};

