/* XPM */
static const char *ex_window_aggregate_xpm[] = {
/* columns rows colors chars-per-pixel */
"50 50 256 2",
"k  c #C6E2EF",
"#. c #C9ECF0",
"UX c #DFF6F6",
"IX c #C9E9F0",
"n. c #DAEFF4",
",. c #5A5A5A",
"Z. c #AAACAC",
"N  c #BADAEB",
"h. c #DCE0E0",
"E  c #BFDEED",
"v. c #D2D5D5",
"x  c #C9E6F0",
"w. c #AFB0B1",
"rX c #F5FAFC",
".  c #A5B7E4",
"W. c #A9D1E6",
"_. c #AED5E8",
"6. c #A9D1E7",
"SX c #B8DDEB",
"P. c #AED5E9",
"G  c #C7E9EF",
"nX c #D1F1F2",
"J. c #DDF3F5",
"t. c #353535",
"x. c #B8DAEB",
":. c #7B7C7C",
"=  c #C2E2ED",
"I  c #CCEAF0",
"d  c #CAF0EF",
"-  c #C2E2EE",
"]  c #D8ECF4",
"9  c #CAF0F0",
"2X c #F3FAFC",
"f. c #D0D2D3",
"h  c #C2DFEE",
"|. c #2E2E2E",
"T  c #B1D6E9",
"AX c #B6DAEB",
"xX c #BBDEEC",
";  c #C0E2ED",
"]. c #DBF0F4",
"R. c #CFEEF1",
"[  c #D6ECF3",
"VX c #D4F2F3",
"'. c #DBF0F5",
"Y. c #E0F4F6",
"$X c #D4EFF2",
"q  c #CDF1F0",
"1  c #C3E9EE",
"`. c #F6FBFC",
"H. c #E5F5F8",
"*. c #C9CBCB",
"oX c #A5CEE6",
"u. c #AAD2E7",
"HX c #B4DAEA",
"ZX c #AFD6E9",
"6X c #AAD2E8",
"(. c #CDEEF0",
"i  c #C3E6EE",
" X c #272727",
"G. c #D9F0F4",
"k. c #CDEEF1",
"p. c #5E5F5F",
"sX c #DEF1F5",
"#  c #D4E9F3",
"M. c #C2C4C5",
"j  c #C3E0EE",
"zX c #D0F2F1",
"XX c #CBEEF0",
"}  c #D2ECF2",
"LX c #DCF4F5",
"Q. c #E3F2F7",
"@. c #F9FCFD",
"   c None",
"`  c #ADD3E8",
"o. c #B2D7EA",
"yX c #D0EFF1",
"%X c #D7EDF3",
"1. c #575858",
"v  c #C6E7EF",
"t  c #D2E9F2",
"{. c #D0EFF2",
"a. c #6B6B6C",
"V  c #BCDCEC",
"e. c #C5C8C8",
"n  c #C4EAEE",
"a  c #C9EEEF",
"&  c #C6E4EF",
"3X c #F7FCFC",
"V. c #A6CFE6",
"L. c #ABD3E8",
"[. c #DAF1F4",
"{  c #D5EDF3",
"U  c #C9EBF0",
"C  c #D0E9F2",
"s. c #EBF7F9",
"<. c #555555",
"Y  c #B0D4E9",
"D  c #C9E8EF",
"~. c #DFF2F5",
"@  c #D0E6F2",
"=X c #DFF2F6",
"=. c #919191",
"f  c #BFDDED",
"aX c #CCEFF0",
"*X c #C4E1EF",
"3  c #C7EBEF",
".X c #D8F1F4",
"qX c #FAFDFD",
"S. c #FAFDFE",
"@X c #212121",
"<X c #AED4E8",
"$. c #A9D0E7",
"%. c #AED4E9",
"PX c #C2E4EE",
"y  c #CEE6F1",
"8X c #D8EEF4",
"M  c #B8D9EB",
"|  c #D1EDF1",
"8  c #CAEFF0",
"7X c #BCBEBE",
"9X c #E4E7E8",
"C. c #A7D0E6",
"JX c #B6DCEB",
"^  c #CAECEF",
"z  c #CCE6F1",
"vX c #D6EEF4",
"j. c #DBF2F5",
"R  c #B6D9EA",
" . c #CFEDF1",
"(  c #C8EFEF",
"+X c #DBEFF5",
"#X c #F1F9FB",
"-. c #9C9D9D",
"<  c #C3E8ED",
"/  c #C8ECEF",
"P  c #CFEAF1",
"g  c #C0DEEE",
"I. c #ECEFF0",
"wX c #AFD5E8",
".. c #AAD1E7",
"X. c #AFD5E9",
"w  c #C5DFEF",
"o  c #CAE3F0",
"K  c #D4EBF3",
"$  c #CFE7F2",
"jX c #DEF3F6",
">. c #686969",
"0  c #CBF0EF",
"4  c #C6ECEF",
";X c #EFF3F4",
",X c #A8D1E6",
"4. c #CBEDF0",
">  c #C1E5EE",
"%  c #C8E3F0",
")  c #C9F0EF",
"5X c #DCF0F5",
"m. c #898B8B",
"&. c #EDF6FA",
"q. c #757575",
"1X c #A7A9A9",
"A. c #B6B8B9",
"X  c #6684D1",
"r. c #C5C7C8",
"A  c #CBE7F0",
"gX c #CEF1F1",
"Q  c #D0EBF2",
"O. c #F7FBFD",
"E. c #A6CEE6",
"8. c #B0D6E9",
"_  c #ABD2E8",
"r  c #CBE4F0",
"MX c #D3F2F2",
"D. c #DAF0F4",
"B. c #CEEEF1",
"F. c #DAF0F5",
"3. c #414141",
"!. c #505050",
"B  c #BADBEC",
"p  c #C7EDEE",
"FX c #D8F3F3",
"0X c #969797",
"T. c #D3EFF2",
"!  c #CEEBF1",
"5  c #C7EDEF",
"DX c #D8F3F4",
"c. c #F0F7FB",
"iX c #A9D2E7",
",  c #C2E6ED",
"K. c #CCEEF0",
"Z  c #CEE8F1",
"u  c #C9E4F0",
"mX c #D1F2F2",
"^. c #D8F0F4",
"g. c #3A3A3A",
"b. c #494949",
"H  c #B3D7EA",
"+  c #CEE5F1",
"CX c #D6F3F3",
";. c #9E9F9F",
"s  c #CAEEEF",
"2  c #C5EAEE",
"lX c #CFF2F1",
"). c #CAEEF0",
"/. c #D6F0F3",
"N. c #E7F6F8",
"+. c #F8FCFD",
"l. c #A7CFE6",
"y. c #A7CFE7",
"b  c #C5E7EE",
"O  c #CCE5F1",
"bX c #DBF1F5",
"2. c #515152",
"&X c #929494",
"S  c #CAE8F0",
"6  c #C8EEEF",
"GX c #D9F4F4",
"fX c #D4F0F3",
"l  c #D6EAF4",
"eX c #CDEFF0",
"e  c #C5E1EF",
"KX c #DEF5F5",
">X c #ECEEEF",
"-X c #D9F1F4",
"tX c #1D1D1D",
"'  c #AFD4E8",
"J  c #B4D8EA",
"hX c #BEE0ED",
":X c #636464",
"~  c #CDECF0",
"*  c #C3E4EE",
"pX c #D2F0F2",
"F  c #C8E8F0",
"U. c #EFF8FA",
"0. c #818282",
"}. c #9FA0A0",
"OX c #BEDDED",
"c  c #C8E5EF",
"cX c #CDE9F1",
"uX c #CBEFF0",
"BX c #D2EDF3",
"dX c #D7F1F4",
"d. c #F9FDFD",
"z. c #A8D0E6",
"NX c #B2D8E9",
"7. c #ADD4E8",
"5. c #A8D0E7",
":  c #C1E4ED",
"kX c #D0F0F1",
"L  c #D2EAF2",
"i. c #616161",
"m  c #C9EFEF",
"4X c #7F7F7F",
"W  c #D7EBF4",
"7  c #C9EFF0",
"9. c #B1B3B4",
/* pixels */
"                                                                                                    ",
"                                                                                                    ",
"                                                                                                    ",
"                                                                                                    ",
"                                                                                                    ",
"                                                                                                    ",
"            . X X X X X X X X X X X X X X X X X X X X X X X X X X X X X X X X X X X X .             ",
"            X o o o o O + @ # # $ O % & * = - ; ; : : > > , < 1 1 2 3 4 5 6 7 8 9 0 q X             ",
"            X w e e e % o r @ # t y r u & & * * * * * , , i < 1 1 2 2 4 5 p a s 8 d 0 X             ",
"            X f f f g h j k r $ l t y z x c c c & v v b b b 2 1 n 2 2 4 p p 6 a m d 0 X             ",
"            X M N N B V f h k O t l t C Z y A A A S S D F F G 2 2 2 3 4 p p 6 a m d 0 X             ",
"            X H H H J M B V h % y # l K L t C C C P P I I I U U 3 3 3 4 p p 6 a m d 0 X             ",
"            X Y Y Y T H R N E e r t l W K K K K L L Q Q Q ! ~ ^ U 3 3 / 5 p 6 a ( ) d X             ",
"            X _ ` ` ' T J M V j % $ # ] ] [ [ [ [ { { { } } |  .^ ^ / / 5 p 6 a ( ) d X             ",
"            X .._ _ ` X.o.R V h % O.+.@.@.@.@.@.@.@.@.@.@.@.+.+.+.^ #./ 5 p 6 a ( ) d X             ",
"            X $....._ %.T J B h &.*.=.-.;.=.:.>.,.<.1.,.,.,.2.3.+. .4.a 5 6 6 a ( ) d X             ",
"            X 5.6.6._ 7.8.H B g k O.9.:.0.q.w.*.e.r.e.e.e.;.3.t.+. .4.4.5 6 6 a ( ) d X             ",
"            X y.5.5.u.` X.H B g k W +.:.i.p.a.@.s.s.s.s.s.d.f.g.h.j.k.4.a 6 6 a ( ) d X             ",
"            X l.z.5...` X.H x.E k O c.v.b.3.g.=.@.n.n.n.n.n.d.m.M.N.B.4.a 6 a a ( ) d X             ",
"            X V.C.z.6.` X.H x.E k O $ +.Z.t.t.t.A.S.n.D.F.G.H.f.h.J.B.K.s a a a ( ) d X             ",
"            X V.C.C.6.L.P.H x.E e O $ L +.0.t.t.3.I.U.D.F.D.G.H.Y.T.R.K.s a 7 a ( ) d X             ",
"            X E.l.C.W.L.P.H x.E e O $ t Q.I.!.g.g.>.S.~.F.D.G.^./.T.R.(.).a 7 a ( ) d X             ",
"            X E.l.C.W.L._.H x.E e r $ t K `.f.g.t.t.-.S.'.].[.^./.T.{.k.).a 7 a m ) d X             ",
"            X E.l.C.W.L._.T x.E e r $ t K [ @.}.t.|. Xf.N.'.[..X/.T.{.k.XXa 7 a m ) d X             ",
"            X oXl.C.W.L._.T x.OXe r $ t K [ +X+.q. X@X9.#X'.[..X/.$X{.k.XXa 7 a m ) d X             ",
"            X oXl.C.W.L._.T x.OXe r $ t K [ %X@.M.@X&XS.'.'.[..X/.$X{.k.XXa 7 a m ) d X             ",
"            X oXl.C.W._ _.T x.OX*Xr $ t K [ #XI.g.>.S.=X'.'.[.-X/.$X{.k.XXa 7 a m ) d X             ",
"            X oXl.C.W._ _.T x.OX*Xr $ t K Q.;X:X1.>Xs.'.'.'.[.-X/.$X{.k.XXa 7 a m ) d X             ",
"            X oXl.l.,X_ <XT R OX*Xr $ t ] @.1X1.v.2X'.'.'.'.[.-XH.3X/.k.XXs 7 a m ) d X             ",
"            X oXl.l.,X_ 7.T R OXj u y t +.*.4Xr.@.+X5X5X'.'.[.N.h.w.3Xk.XXs 7 a m d 0 X             ",
"            X oXl.l.,X6X7.T R V j % z O.h.=.7X@.8X+X5X5X'.'.[.d.}.*.N.B.XXs 7 s m d 0 X             ",
"            X oXV.l.,X6X7.X.J V h % 2X9X0X}.@.O.+.+.+.+.+.+.qXh.b.d.T.B.XXs 7 8 m d 0 X             ",
"            X oXV.l.,X6X7.X.J B E &.;X=.q.Z.Z.Z.Z.9.7XM.M.7X&Xb.!.d.{.B.K.s 8 8 8 d 0 X             ",
"            X oXV.l.,Xu.7.wXH x.t `.4X<.3.g.t.t.t.g.b.!.b.g.t.|.p.d.T.eXK.XX8 8 9 0 0 X             ",
"            X oXV.l.,Xu.` <Xo.R rXm.t.|. X@XtXtX@X@X X X X@XtXtX&X3XT.yXeXuXuXuX9 0 q X             ",
"            X E.l.l.,XiXL.<XT R $ rX`.O.O.+.+.+.@.@.d.d.S.S.S.S.d.j.pXyXeXaXaXaX0 q q X             ",
"            X E.l.l.,XiXL.7.8.J x.V - & x y C L K %X8Xn.'.sX~.J.[.dXfX{.eXeXq eXq q gXX             ",
"            X E.l.l.,XiXL.` wXo.R B hX- & x A C L } { 8Xn.'.~.jXj..X/.pXkXkXgXgXgXlXzXX             ",
"            X V.C.C.,XiXL.` _.T J x.xXhX- & x A cXQ } { vXn.bXjXJ.j.dXfXpXnXnXnXmXmXMXX             ",
"            X V.C.C.,XiXL.` _.8.NXR x.xXhX= * c x cXP Q BXvX^.bXjXJ.j.dX/.VXVXVXVXCXCXX             ",
"            X l.z.z.W.u.L.` <XZXo.J AXSXxXhX; * & F S I ! } $X^.j.Y.J.j.DXFXDXDXGXGXGXX             ",
"            X y.5.5.6.6XL.` _.ZXo.NXHXJXSXxXhX; : * v D I ! | $X-XjXY.KXLXLXLXLXLXLXKXX             ",
"            X $.6.6.u.L.7.7._.8.o.NXHXJXSXxXxXhX; PXi v IXI  .T./.j.Y.Y.KXKXKXKXUXUXUXX             ",
"            . X X X X X X X X X X X X X X X X X X X X X X X X X X X X X X X X X X X X .             ",
"                                                                                                    ",
"                                                                                                    ",
"                                                                                                    ",
"                                                                                                    ",
"                                                                                                    ",
"                                                                                                    "
};
