/* XPM */
static const char * exclude_xpm[] = {
"16 16 112 2",
"  	c None",
". 	c #86D8F2",
"+ 	c #76A5B5",
"@ 	c #4FC6EC",
"# 	c #43A4C1",
"$ 	c #41C3EB",
"% 	c #2E88AA",
"& 	c #4FA4BE",
"* 	c #FFFFFF",
"= 	c #4EA5C5",
"- 	c #5CCBED",
"; 	c #40C3EB",
"> 	c #205F80",
", 	c #3494B4",
"' 	c #A9CCD8",
") 	c #F3E8E9",
"! 	c #DE9494",
"~ 	c #D46868",
"{ 	c #D46A6A",
"] 	c #E09A9A",
"^ 	c #FAEFEF",
"/ 	c #ECF2F5",
"( 	c #62B5D2",
"_ 	c #25799C",
": 	c #44C4EB",
"< 	c #194969",
"[ 	c #5A92AC",
"} 	c #C0D2DC",
"| 	c #CD6161",
"1 	c #E57575",
"2 	c #EB6565",
"3 	c #E57878",
"4 	c #D06464",
"5 	c #DBE5EB",
"6 	c #2D83A6",
"7 	c #196E91",
"8 	c #194A6A",
"9 	c #98B7C7",
"0 	c #C0858A",
"a 	c #E47171",
"b 	c #FEFAFA",
"c 	c #F4B0B0",
"d 	c #F3A4A4",
"e 	c #FEFDFD",
"f 	c #E37C7C",
"g 	c #C49296",
"h 	c #1A6E92",
"i 	c #18779C",
"j 	c #255B7B",
"k 	c #ADC8D4",
"l 	c #BF4D4E",
"m 	c #DE5959",
"n 	c #EA9E9E",
"o 	c #FEFEFE",
"p 	c #ECA8A8",
"q 	c #BC595B",
"r 	c #187498",
"s 	c #1986AC",
"t 	c #266788",
"u 	c #AECDD9",
"v 	c #B74243",
"w 	c #CA4646",
"x 	c #E19494",
"y 	c #E5A1A1",
"z 	c #B64F50",
"A 	c #1982A8",
"B 	c #1994BC",
"C 	c #196C90",
"D 	c #9BC7D7",
"E 	c #B57074",
"F 	c #C05151",
"G 	c #FDFBFB",
"H 	c #D89595",
"I 	c #D58C8C",
"J 	c #FEFCFC",
"K 	c #C15757",
"L 	c #B57D81",
"M 	c #1991B8",
"N 	c #19A1CA",
"O 	c #3FC2E9",
"P 	c #197BA0",
"Q 	c #61AFCB",
"R 	c #C8D2DA",
"S 	c #AB3132",
"T 	c #BA4F4F",
"U 	c #AE2D2D",
"V 	c #B94C4C",
"W 	c #AB3D3E",
"X 	c #BAD0DB",
"Y 	c #1EA0C8",
"Z 	c #19ACD6",
"` 	c #3EBCE2",
" .	c #1C8CB3",
"..	c #3FB0D4",
"+.	c #DCF1F8",
"@.	c #EFD9D9",
"#.	c #BE6363",
"$.	c #A72B2B",
"%.	c #A82D2D",
"&.	c #C16C6C",
"*.	c #E3DBDD",
"=.	c #92C7D8",
"-.	c #2BACD3",
";.	c #1BB6E0",
">.	c #3CA7C9",
",.	c #2BA4CC",
"'.	c #77A7B5",
").	c #25BBE4",
"!.	c #508EA0",
"~.	c #65CEEE",
"{.	c #3AB1D6",
"].	c #26738A",
"                                ",
"  . +                           ",
"  @ #                           ",
"  $ % &     * * *         = -   ",
"  ; > , ' ) ! ~ { ] ^ / ( _ :   ",
"  ; < [ } | 1 2 2 3 4 5 6 7 ;   ",
"  ; 8 9 0 a b c d e f g h i ;   ",
"  ; j k l m n o o p m q r s ;   ",
"  ; t u v w x o o y w z A B ;   ",
"  ; C D E F G H I J K L M N ;   ",
"  O P Q R S T U U V W X Y Z ;   ",
"  `  ...+.@.#.$.%.&.*.=.-.;.;   ",
"  >.,..     * * * *   '.>.).;   ",
"  !.~.                  !.{.;   ",
"                          ].;   ",
"                                "};
