/* XPM */
static const char * exttables_xpm[] = {
"16 16 94 2",
"  	c None",
". 	c #2195E7",
"+ 	c #8ACEFE",
"@ 	c #94CFF9",
"# 	c #ADD5F2",
"$ 	c #CADCEA",
"% 	c #DEE3E7",
"& 	c #E6E7E7",
"* 	c #E6E6E6",
"= 	c #C5D8E6",
"- 	c #76B9E8",
"; 	c #309CE8",
"> 	c #88CDFE",
", 	c #52B0F2",
"' 	c #B3D5ED",
") 	c #DDDDDD",
"! 	c #83CBFE",
"~ 	c #7AC6FB",
"{ 	c #6FC0F9",
"] 	c #63B9F6",
"^ 	c #56B2F3",
"/ 	c #49ABF0",
"( 	c #3DA5ED",
"_ 	c #319EEB",
": 	c #2799E9",
"< 	c #DEDEDE",
"[ 	c #83CBFD",
"} 	c #4AABF0",
"| 	c #3DA4ED",
"1 	c #3198E9",
"2 	c #2899E9",
"3 	c #DFDFDF",
"4 	c #4651B2",
"5 	c #3C3E9A",
"6 	c #D4D4D7",
"7 	c #E2E2E2",
"8 	c #E3E3E3",
"9 	c #6155CD",
"0 	c #302BD2",
"a 	c #7CB1D5",
"b 	c #E0E0E0",
"c 	c #C5C5D2",
"d 	c #3638B0",
"e 	c #2629B7",
"f 	c #777792",
"g 	c #CAC7DE",
"h 	c #362DCC",
"i 	c #302ACE",
"j 	c #8E88AF",
"k 	c #E9E9E9",
"l 	c #E1E1E1",
"m 	c #A6A6A6",
"n 	c #585A97",
"o 	c #262ACB",
"p 	c #433FB1",
"q 	c #2C2BD5",
"r 	c #3529AA",
"s 	c #98989A",
"t 	c #AFAFAF",
"u 	c #EAEAEA",
"v 	c #90CAF3",
"w 	c #463CC1",
"x 	c #282BD6",
"y 	c #2929B9",
"z 	c #CFD0D6",
"A 	c #EBEBEB",
"B 	c #BFBBD7",
"C 	c #332CCF",
"D 	c #322ACA",
"E 	c #ACA8C3",
"F 	c #4B4DA9",
"G 	c #262ACF",
"H 	c #8183B8",
"I 	c #F1F1F1",
"J 	c #EDEDED",
"K 	c #6D63BB",
"L 	c #2B2BD6",
"M 	c #4135B0",
"N 	c #A8A8A8",
"O 	c #E5E5E5",
"P 	c #7A7B98",
"Q 	c #2528BB",
"R 	c #3234A3",
"S 	c #D6D6DF",
"T 	c #382EC6",
"U 	c #8278BB",
"V 	c #E4E4E4",
"W 	c #ECECEC",
"X 	c #E2E2E4",
"Y 	c #3F41A7",
"Z 	c #2B2EBB",
"` 	c #7BC6FB",
" .	c #6FC0F8",
"..	c #2380D0",
". . . . . . . . . . .           ",
". + @ # $ % & * * = - ;         ",
". > , . . . . . . . . . .       ",
". > . + @ # $ % & * * = - ;     ",
". ' . > , . . . . . . . . . .   ",
". ) . > . + @ # $ % & * * = - ; ",
". ) . ' . > ! ~ { ] ^ / ( _ : . ",
". < . ) . > [ ~ { ] ^ } | 1 2 . ",
". 3 . ) . 4 5 6 < 3 7 8 9 0 a . ",
". b . < . c d e f b g h i j k . ",
". l . 3 . ) m n o p q r s t u . ",
"v v . b . < 3 < w x y z k u A . ",
"    . l . 3 B C D E F G H I J . ",
"    v v . K L M N O k P Q R S . ",
"        . T U V O * A W X Y Z . ",
"        v > ! `  .] ^ } | _ ... "};
