/* XPM */
static const char * foreignkeybad_xpm[] = {
"16 16 86 1",
" 	c None",
".	c #BCBCBC",
"+	c #8F8F8F",
"@	c #909090",
"#	c #D1D0D1",
"$	c #F9F8F9",
"%	c #F5F1F2",
"&	c #858585",
"*	c #B4B4B4",
"=	c #D1CACE",
"-	c #D76262",
";	c #C50000",
">	c #D05759",
",	c #B495A1",
"'	c #C5474B",
")	c #DD6969",
"!	c #E1E1E1",
"~	c #BAB1B7",
"{	c #CA5154",
"]	c #F67777",
"^	c #C3474B",
"/	c #9B868F",
"(	c #BD3D42",
"_	c #F15757",
":	c #D5D5D5",
"<	c #E0E0E0",
"[	c #7C747A",
"}	c #F67676",
"|	c #F67272",
"1	c #F56E6E",
"2	c #BC3B40",
"3	c #F15656",
"4	c #EF4F4F",
"5	c #EE4849",
"6	c #DFDFDF",
"7	c #7A7679",
"8	c #F56D6D",
"9	c #F46868",
"0	c #F36262",
"a	c #F05555",
"b	c #EF4E4F",
"c	c #EE4848",
"d	c #D3D2D3",
"e	c #D0C8CC",
"f	c #F36161",
"g	c #F15B5B",
"h	c #F05454",
"i	c #EF4D4E",
"j	c #EE4747",
"k	c #B3B3B3",
"l	c #D2D2D2",
"m	c #D0CFCF",
"n	c #C3C2C3",
"o	c #DA6565",
"p	c #F05354",
"q	c #EF4D4D",
"r	c #EE4646",
"s	c #AA2C33",
"t	c #8E8E8E",
"u	c #B7B0B3",
"v	c #D66262",
"w	c #F05353",
"x	c #EF4C4C",
"y	c #EE4545",
"z	c #EC3E3F",
"A	c #EB3838",
"B	c #BB4345",
"C	c #F05252",
"D	c #EF4B4B",
"E	c #ED4445",
"F	c #EB3737",
"G	c #EA3131",
"H	c #E92B2B",
"I	c #F05151",
"J	c #EE4A4A",
"K	c #ED4344",
"L	c #99434A",
"M	c #E92A2B",
"N	c #E82525",
"O	c #E72020",
"P	c #ED4243",
"Q	c #C4464A",
"R	c #678392",
"S	c #99444B",
"T	c #E71F20",
"U	c #836C7C",
"                ",
"                ",
"                ",
"                ",
"  .+@#$%        ",
" &*#=-;>  ,';)  ",
".*!~{;];^/(;_;) ",
"+:<[;}|1;2;345; ",
"+:67{;890;abc;) ",
".*6de-;fghij;)  ",
" &klmno;pqr;s   ",
"  .tuv;wxyzA;)  ",
"    B;CDE;FGH;) ",
"    ;IJK;L;MNO; ",
"    {;P;QRS;T;) ",
"    Us;s  Us;)  "};
