/* XPM */
const char * gqbDown_xpm[] = {
"13 8 38 1",
" 	c None",
".	c #8BB161",
"+	c #5A9B13",
"@	c #CEE0A7",
"#	c #BAD381",
"$	c #B2CE71",
"%	c #B0CD6C",
"&	c #AECB67",
"*	c #ADCB62",
"=	c #ABC95E",
"-	c #AAC85A",
";	c #A9C856",
">	c #AFCC63",
",	c #C5DA8D",
"'	c #BAD485",
")	c #9FC353",
"!	c #97BD40",
"~	c #95BB39",
"{	c #92BA33",
"]	c #90B82C",
"^	c #8EB726",
"/	c #94BB2F",
"(	c #AFCC64",
"_	c #BAD483",
":	c #9FC251",
"<	c #96BD3E",
"[	c #94BB38",
"}	c #92B931",
"|	c #97BC38",
"1	c #B1CD69",
"2	c #BAD383",
"3	c #9EC24F",
"4	c #96BC3D",
"5	c #9BBF43",
"6	c #B4CF70",
"7	c #A5C55A",
"8	c #B6D178",
"9	c #CCDFA3",
".+++++++++++.",
"+@#$%&*=-;>,+",
".+')!~{]^/(+.",
" .+_:<[}|1+. ",
"  .+23456+.  ",
"   .+#78+.   ",
"    .+9+.    ",
"     .+.     "};
