/* XPM */
const char * gqbOrderRemoveAll_xpm[] = {
"13 9 18 1",
" 	c None",
".	c #8BB161",
"+	c #5A9B13",
"@	c #CEE0A7",
"#	c #BAD485",
"$	c #BAD381",
"%	c #BAD483",
"&	c #9FC353",
"*	c #B2CE71",
"=	c #9FC251",
"-	c #97BD40",
";	c #B0CD6C",
">	c #B1CD69",
",	c #94BB2F",
"'	c #A9C856",
")	c #AFCC64",
"!	c #AFCC63",
"~	c #C5DA8D",
"    .+.   .+.",
"   .+@+  .+@+",
"  .+#$+ .+#$+",
" .+%&*+.+%&*+",
".+$=-;++$=-;+",
" .+>,'+.+>,'+",
"  .+)!+ .+)!+",
"   .+~+  .+~+",
"    .+.   .+."};
