/* XPM */
const char * gqbRemoveRest_xpm[] = {
"19 15 108 2",
"  	c None",
". 	c #9597B5",
"+ 	c #787AB4",
"@ 	c #7073B4",
"# 	c #B9BAD9",
"$ 	c #8183BD",
"% 	c #F0F1F3",
"& 	c #F0E6FF",
"* 	c #E5D8FB",
"= 	c #DDD3F4",
"- 	c #D9CDF2",
"; 	c #D3C9EC",
"> 	c #D0C2EC",
", 	c #C9BCE7",
"' 	c #C5BCE1",
") 	c #EAE7F3",
"! 	c #7088B4",
"~ 	c #D5BDFA",
"{ 	c #CDB1F9",
"] 	c #C6AFEE",
"^ 	c #C3A7F2",
"/ 	c #B79CE8",
"( 	c #AD92E1",
"_ 	c #A68BDB",
": 	c #9E83D5",
"< 	c #967CCE",
"[ 	c #9075C9",
"} 	c #9983CC",
"| 	c #888AA8",
"1 	c #5A7AAA",
"2 	c #BBA7E3",
"3 	c #AB97D8",
"4 	c #8E73C8",
"5 	c #CA8D9E",
"6 	c #C2191A",
"7 	c #A96776",
"8 	c #DE6C6C",
"9 	c #C92121",
"0 	c #DF7777",
"a 	c #856BC2",
"b 	c #AF4B61",
"c 	c #D93D3E",
"d 	c #C72425",
"e 	c #C52828",
"f 	c #DC2E2E",
"g 	c #D23B3B",
"h 	c #C3B5E1",
"i 	c #7D63BC",
"j 	c #B82A36",
"k 	c #D4363A",
"l 	c #FF8787",
"m 	c #E84141",
"n 	c #C02325",
"o 	c #BB272A",
"p 	c #DF3131",
"q 	c #F95A5B",
"r 	c #D72323",
"s 	c #6F55B0",
"t 	c #B6A8D7",
"u 	c #AE384A",
"v 	c #E14747",
"w 	c #FE7A7A",
"x 	c #DD393A",
"y 	c #DF3333",
"z 	c #FB5E5F",
"A 	c #DE2929",
"B 	c #D13535",
"C 	c #BBADDB",
"D 	c #AFA2D2",
"E 	c #8471A2",
"F 	c #C00B0C",
"G 	c #E03536",
"H 	c #F45D5D",
"I 	c #F25151",
"J 	c #DC2A2A",
"K 	c #CF3434",
"L 	c #8272A4",
"M 	c #BE0D0E",
"N 	c #DF2E2E",
"O 	c #F14646",
"P 	c #DB2222",
"Q 	c #D03535",
"R 	c #E4E4E4",
"S 	c #AC374C",
"T 	c #DE3839",
"U 	c #FC5C5C",
"V 	c #DC2929",
"W 	c #DB2223",
"X 	c #F53C3C",
"Y 	c #DB1717",
"Z 	c #D13333",
"` 	c #ABADD3",
" .	c #B60506",
"..	c #D5201F",
"+.	c #FD5858",
"@.	c #D91C1C",
"#.	c #B92629",
"$.	c #BE2C2F",
"%.	c #DC1515",
"&.	c #F02424",
"*.	c #D20F0F",
"=.	c #9E3435",
"-.	c #C42D2D",
";.	c #DA2020",
">.	c #C42828",
",.	c #C92B2C",
"'.	c #D31010",
").	c #D23A3A",
". + @ @ @ @ @ @ @ @ @ @ @ @ @ @ @ #   ",
"$ % & * * * * = - - ; > > , ' ; ) $   ",
"! $ * ~ { ] ^ / / ( _ : < [ } ' $ #   ",
"  | $ = ~ ^ / / ( _ : < [ } ' $ 1     ",
"    . $ = ] / ( _ : < [ } ' $ !       ",
"      . $ - 2 _ : < [ } ' $ 1         ",
"        1 $ ; 3 < 4 < 5 6 7     8 9 0 ",
"          | $ 2 4 a 3 b c d     e f g ",
"            @ h a i j k l m n o p q r ",
"            @ h i s t u v w x y z A B ",
"            @ C s s D E F G H I J K   ",
"            @ t s s D L M N I O P Q   ",
"            @ ) D D R S T U V W X Y Z ",
"            ` @ @ @  ...+.@.#.$.%.&.*.",
"                    =.-.;.>.    ,.'.)."};
