/* XPM */
const char * gqbRemove_xpm[] = {
"19 15 2 1",
" 	c None",
".	c #FB033D",
"                   ",
"                   ",
"                   ",
"                   ",
"                   ",
"  ...............  ",
"  ...............  ",
"  ...............  ",
"  ...............  ",
"  ...............  ",
"                   ",
"                   ",
"                   ",
"                   ",
"                   "};
