/* XPM */
static char * groups_xpm[] = {
"16 16 108 2",
"  	c None",
". 	c #C5C5C5",
"+ 	c #7F7F7F",
"@ 	c #8A877D",
"# 	c #CDC7AF",
"$ 	c #CCC7AF",
"% 	c #8A887D",
"& 	c #717171",
"* 	c #797673",
"= 	c #D0C5BC",
"- 	c #D0C5BE",
"; 	c #8B8785",
"> 	c #F3EDCD",
", 	c #F3EDCE",
"' 	c #CBC8B0",
") 	c #7B7168",
"! 	c #AC967F",
"~ 	c #AF977E",
"{ 	c #7E7367",
"] 	c #C0B7B1",
"^ 	c #F7EAE4",
"/ 	c #CFC5C4",
"( 	c #7D7D7D",
"_ 	c #F2EECE",
": 	c #CBC8B1",
"< 	c #5F5F5F",
"[ 	c #CCAD8C",
"} 	c #CFAF8C",
"| 	c #B49B7E",
"1 	c #7D7A78",
"2 	c #F7EAE8",
"3 	c #CFC5C7",
"4 	c #5A5A58",
"5 	c #A3A192",
"6 	c #62625F",
"7 	c #555555",
"8 	c #908070",
"9 	c #D3B28B",
"0 	c #B79D7E",
"a 	c #726F6F",
"b 	c #8B8788",
"c 	c #585A5A",
"d 	c #B7B7B7",
"e 	c #9D927D",
"f 	c #C5B28F",
"g 	c #716B62",
"h 	c #8B8782",
"i 	c #948370",
"j 	c #817567",
"k 	c #585A56",
"l 	c #71777A",
"m 	c #9EB3BC",
"n 	c #819097",
"o 	c #808080",
"p 	c #D4BE97",
"q 	c #FFDFA7",
"r 	c #7F7667",
"s 	c #F8EAE1",
"t 	c #5D5F57",
"u 	c #727F5A",
"v 	c #879D5C",
"w 	c #616656",
"x 	c #65696B",
"y 	c #9AB1BC",
"z 	c #9FBBCA",
"A 	c #5B5B5B",
"B 	c #F9DAA4",
"C 	c #C5AE84",
"D 	c #5F5C58",
"E 	c #73716F",
"F 	c #C0B7B3",
"G 	c #717D5A",
"H 	c #A1C260",
"I 	c #92ABB8",
"J 	c #A1A1A1",
"K 	c #595959",
"L 	c #A59FA0",
"M 	c #6F7B58",
"N 	c #565656",
"O 	c #5C5E5F",
"P 	c #6F767A",
"Q 	c #BEE0F1",
"R 	c #9CB6C4",
"S 	c #89887E",
"T 	c #5A5957",
"U 	c #595A5A",
"V 	c #B3D8EB",
"W 	c #8AA0AC",
"X 	c #7F7769",
"Y 	c #C5AB7D",
"Z 	c #9D8B6B",
"` 	c #8C9597",
" .	c #A9B7BB",
"..	c #73797B",
"+.	c #72797C",
"@.	c #FFDC9D",
"#.	c #FFD791",
"$.	c #FFD488",
"%.	c #D4B174",
"&.	c #B4C4C8",
"*.	c #D0E8F0",
"=.	c #CAE6F1",
"-.	c #C4E3F1",
";.	c #FFD17F",
">.	c #F9C974",
",.	c #CCE3EB",
"'.	c #B8DEF2",
").	c #B1D7EC",
"    . + + .         . + + .     ",
"  . @ # $ % . . + & * = - ; .   ",
"  + # > , ' & ) ! ~ { ] ^ / +   ",
"  ( $ , _ : < ! [ } | 1 2 3 (   ",
"  4 % ' 5 6 7 8 } 9 0 a 3 b c   ",
"d e f g h = - ; i 0 j k l m n d ",
"o p q r = s ^ / t u v w x y z o ",
"A B C D E F 2 3 G H @ # $ % I A ",
"J K h = - ; L b c M # > , ' N J ",
"  + = s ^ / O m n 7 $ , _ : (   ",
"  ( - ^ 2 3 P Q R 4 % ' : S T   ",
"  U ; / 3 b c V W e f X r Y Z d ",
"d `  ...+.m n 7 N p q @.#.$.%.o ",
"o &.*.=.-.Q z o A B @.#.$.;.>.A ",
"A ,.=.-.Q '.).A J A 7 7 7 7 A J ",
"J A 7 7 7 7 A J                 "};
