/* XPM */
static char *hint_xpm[] = {
/* columns rows colors chars-per-pixel */
"32 32 129 2",
"   c #F7D1CB",
".  c #E5C4BA",
"X  c #929292",
"o  c #F1F1F1",
"O  c #D7B6AA",
"+  c #B9B9B9",
"@  c gray80",
"#  c #838383",
"$  c #C8C8C8",
"%  c #A7BDC6",
"&  c #DE9986",
"*  c gray69",
"=  c #E3A9A7",
"-  c #DF9E93",
";  c gray63",
":  c #EDB793",
">  c #CD7D7D",
",  c #78929C",
"<  c #D0C1C1",
"1  c #C1C1C1",
"2  c #F4CABC",
"3  c #EAB196",
"4  c #CD8585",
"5  c #B0AEAE",
"6  c #D5D5D5",
"7  c #BEA395",
"8  c #F8D5D2",
"9  c gray61",
"0  c gray60",
"q  c #E2BCA8",
"w  c #978080",
"e  c #C6C6C6",
"r  c #B4B4B4",
"t  c #D1AE9C",
"y  c #A29696",
"u  c #F2C3AD",
"i  c #F5CDC1",
"p  c #F5CEC4",
"a  c gray81",
"s  c #B59B8A",
"d  c #EFBA9B",
"f  c #F3C6B2",
"g  c #E2B2B1",
"h  c #AAA9AA",
"j  c #DAB29B",
"k  c gray92",
"l  c #EDBCBA",
"z  c #A7A19B",
"x  c #A9A6A3",
"c  c #898989",
"v  c #B49E9A",
"b  c #EEEEEE",
"n  c #AF918D",
"m  c #D18281",
"M  c #ECBAB4",
"N  c #B88E8E",
"B  c gray90",
"V  c #E1A299",
"C  c #E4A89B",
"Z  c #D78C83",
"A  c #D99390",
"S  c #ABADB2",
"D  c #DDDDDD",
"F  c #ECBEA7",
"G  c #AF9285",
"H  c #AF998D",
"J  c #EEB897",
"K  c #908E8E",
"L  c gray65",
"P  c #BCBCBC",
"I  c #F4CDC9",
"U  c #D0807E",
"Y  c #A7958C",
"T  c #C5BCBC",
"R  c #778F97",
"E  c #E8CECD",
"W  c #F3C8B7",
"Q  c #9AD9EF",
"!  c #EEF8FC",
"~  c #E2E2E2",
"^  c #C2DEE8",
"/  c #628D9E",
"(  c #70ABC0",
")  c #808F95",
"_  c #90B3BF",
"`  c #7DB0C2",
"'  c #AFC3CA",
"]  c #7BC3DD",
"[  c #E5EBEE",
"{  c #A9D5E4",
"}  c #6E8992",
"|  c #6F92A0",
" . c #F8F8F8",
".. c #CFA3A3",
"X. c #CE8F8F",
"o. c #DFC8C8",
"O. c #C68B8B",
"+. c #D1C8C8",
"@. c #D0BBBB",
"#. c #9F9090",
"$. c #E8C8BF",
"%. c #E5C9C9",
"&. c #D5ABAB",
"*. c #D09696",
"=. c #DD9A9A",
"-. c #8C8682",
";. c #A18981",
":. c #808080",
">. c #F0C6B9",
",. c #C29F9F",
"<. c #E4A58B",
"1. c #E09D8A",
"2. c #D2AA91",
"3. c #E0B599",
"4. c #EAAF91",
"5. c #F1C6C0",
"6. c #E5BFAF",
"7. c #ACACAD",
"8. c #F6D0C7",
"9. c #F7D3CF",
"0. c #F2C8C5",
"q. c #D78F8C",
"w. c #E1B08F",
"e. c #A9A8A7",
"r. c #E5A892",
"t. c #E8C9C5",
"y. c #E1B9A2",
"u. c #D0D0D0",
"i. c None",
/* pixels */
"i.i.i.i.i.i.i.i.i.i.i.i.i.i.i.i.i.i.i.i.i.i.i.i.i.i.i.i.i.i.i.i.",
"i.i.i.i.i.i.i.i.i.i.i.i.@...X.U U X...@.i.i.i.i.i.i.i.i.i.i.i.i.",
"i.i.i.i.i.i.i.i.i.1 5 N A = l I p M = q.N 5 1 i.i.i.i.i.i.i.i.i.",
"i.i.i.i.i.i.$ * 0 #.m = I 9.9.  8.p i >.V m #.0 * $ i.i.i.i.i.i.",
"i.i.i.i.i.r c * +.m g 8 8 9.    8.p i 2 2 C m +.* c r i.i.i.i.i.",
"i.i.i.$ ; 7.6  .g = 8 8 9.    8.p i 2 2 W f V g  .6 h L e i.i.i.",
"i.i.a 1 + b o %.=.8 8 9.9.  8.p i 2 2 W f u u A %.o b + 1 a i.i.",
"i.i.+ 9 k k k > l E S , , S $.i i . x , R x q C > k k k 9 + i.i.",
"i.i.0 e B B o.A E | ' [ [ ' | . . | ' [ [ ' | y.Z o.B B e 0 i.i.",
"i.i.c a D D &.= S % ! ! ! ! % h e.% ! ! ! ! % z 1.&.D D a c i.i.",
"i.i.:.6 6 6 *.l , ^ % ) ) % ^ , , ^ % ) ) % ^ R r.*.6 6 6 # i.i.",
"i.i.# @ a a 4 0., { _ } } _ { , , { _ } } _ { R 3 4 a a @ # i.i.",
"i.i.c P $ $ >   S ` Q Q Q Q ` x x ` Q Q Q Q ` z J > $ $ P c i.i.",
"i.i.0 7.1 1 >   t./ ( ] ] ( / 6.6./ ( ] ] ( / 3.: > 1 1 7.0 i.i.",
"i.i.+ K + + 4 5.8.$.h , , e.6.f u q z R R z 3.J 4.4 + + K + i.i.",
"i.i.a 1 0 * O.M p p i >.O O f u u F t j d d J J <.O.* 0 1 a i.i.",
"i.i.i.$ ; K N = p $.v # 9 9 # v H # ; 0 -.s J : & N K ; $ i.i.i.",
"i.i.i.i.i.r w A O # r B k k B ; r k k k D L s w.Z w r i.i.i.i.i.",
"i.i.i.i.i.i.$ > :.+ $ L X 0 ; r r ; X X 7.@ e.G > $ i.i.i.i.i.i.",
"i.i.i.i.i.i.i.y 9 0 :.7 O t 7 Y Y 7 2.2.H # ; X v i.i.i.i.i.i.i.",
"i.i.i.i.i.i.@ :.# n 6.u u F 7 K H j J : : 2.;.# :.a i.i.i.i.i.i.",
"i.i.i.i.i.i.i.@ T m C u j Y P B $ K s : : 1.U T a i.i.i.i.i.i.i.",
"i.i.i.i.i.i.i.i.i.< U - Y @  . . .o ; G & U < i.i.i.i.i.i.i.i.i.",
"i.i.i.i.i.i.i.i.i.i.+.v L b b b b b k X ,.+.i.i.i.i.i.i.i.i.i.i.",
"i.i.i.i.i.i.i.i.i.i.i.0 e ~ ~ ~ ~ ~ ~ + ; i.i.i.i.i.i.i.i.i.i.i.",
"i.i.i.i.i.i.i.i.i.i.i.; * 6 6 6 6 6 6 * ; i.i.i.i.i.i.i.i.i.i.i.",
"i.i.i.i.i.i.i.i.i.i.i.1 c 1 $ $ $ $ $ X P i.i.i.i.i.i.i.i.i.i.i.",
"i.i.i.i.i.i.i.i.i.i.i.i.L K + P P P L 9 i.i.i.i.i.i.i.i.i.i.i.i.",
"i.i.i.i.i.i.i.i.i.i.i.i.i.; X * * e.# P i.i.i.i.i.i.i.i.i.i.i.i.",
"i.i.i.i.i.i.i.i.i.i.i.i.i.i.X 9 ; # 7.i.i.i.i.i.i.i.i.i.i.i.i.i.",
"i.i.i.i.i.i.i.i.i.i.i.i.i.i.r c # h i.i.i.i.i.i.i.i.i.i.i.i.i.i.",
"i.i.i.i.i.i.i.i.i.i.i.i.i.i.i.+ $ i.i.i.i.i.i.i.i.i.i.i.i.i.i.i."
};
