/* XPM */
static char *operatorfamily_xpm[] = {
/* columns rows colors chars-per-pixel */
"16 16 39 1",
"u c #D2E4F3",
"2 c #E1EDF7",
"o c #FFFFFF",
"p c #CEE1F2",
"e c #3CC3B8",
"> c #A4A6A9",
"5 c #53DACF",
"% c #F4F8FC",
"  c None",
"6 c #9DA2A7",
"1 c #5BE2D7",
"r c #D7E7F4",
"+ c #FCFDFE",
"0 c #45CCC1",
"i c #D0E3F3",
"4 c #DFECF7",
"; c #E7F1F9",
"a c #CCE0F2",
"$ c #F6FAFD",
"t c #9AA0A6",
"- c #EAF2F9",
"8 c #4ED5CA",
"y c #D4E5F4",
"# c #F9FBFD",
"& c #F2F7FC",
"7 c #DCEAF6",
"q c #40C7BC",
". c #AAAAAA",
"@ c #FAFCFE",
", c #E4EFF8",
"3 c #57DED3",
"X c #6F6F6F",
"= c #ECF4FA",
"< c #5FE6DB",
"9 c #49D0C5",
"* c #EFF5FB",
"w c #D9E8F5",
"O c #FEFEFF",
": c #A7A8A9",
/* pixels */
"                ",
" .XXXXXXXXXXXX. ",
" XoO+@#$%&*=-;X ",
" XO+@#:XX>=-;,X ",
" X+@#$X<1X-;,2X ",
" X@#$%X13X;,24X ",
" X#:XXX35XXX67X ",
" X$X<135890qXwX ",
" X%X135890qeXrX ",
" X&>XXX90XXXtyX ",
" X*=-;X0qXwryuX ",
" X=-;,XqeXryuiX ",
" X-;,26XXtyuipX ",
" X;,247wryuipaX ",
" .XXXXXXXXXXXX. ",
"                "
};
