/* XPM */
static char *operatorfamilies_xpm[] = {
/* columns rows colors chars-per-pixel */
"16 16 30 1",
"o c #FFFFFF",
"2 c #DDEAF6",
"& c #ECF3FA",
"8 c #D6E6F4",
"; c #A4A6A9",
"X c None",
"0 c #D0E3F3",
"1 c #9EA3A7",
"9 c #D3E4F3",
"O c #FDFEFF",
", c #E0EDF7",
"= c #A9A9AA",
"@ c #F9FBFD",
"q c #CDE1F2",
"$ c #F2F7FC",
"7 c #9BA1A6",
"  c #AAAAAA",
"> c #5EE5DA",
": c #E4EFF8",
". c #6F6F6F",
"# c #F6F9FD",
"+ c #FBFDFE",
"4 c #49D0C5",
"< c #58DFD4",
"% c #EFF5FB",
"6 c #D9E8F5",
"* c #E8F1F9",
"5 c #42C9BE",
"- c #A7A8A9",
"3 c #51D8CD",
/* pixels */
" ......... XXXXX",
".oO+@#$%&*.XXXXX",
".O=......... XXX",
".+.oO+@#$%&*.XXX",
".@.O=......... X",
".#.+.oO+@#$%&*.X",
".$.@.O+@-.;&*:.X",
".%.#.+@#.>.*:,.X",
".&.$.@-..<..12.X",
".*.%.#.><345.6.X",
" ..&.$;..4..78.X",
"XX.*.%&*.5.689.X",
"XX ..&*:1.7890.X",
"XXXX.*:,26890q.X",
"XXXX ......... X",
"XXXXXXXXXXXXXXXX"
};
