/* XPM */
static const char *pgAdmin3_32_xpm[] = {
/* columns rows colors chars-per-pixel */
"32 32 186 2",
"o  c #122535",
"   c None",
"J  c #000001",
"U  c #31658E",
"7  c #31658F",
"R. c #0D1B26",
"d. c #1F405B",
"d  c #2C5B80",
"E. c #1A364C",
"r  c #2C5B81",
"Z. c #081118",
"p. c #1A364D",
"#  c #081119",
"I  c #275173",
"O  c #152C3E",
"k  c #152C3F",
"T  c #03070B",
"x. c #224764",
"t  c #102230",
"l. c #2F628B",
",. c #1D3D56",
"2  c #1D3D57",
"*. c #183348",
"). c #183349",
"H  c #010406",
"v  c #0E1C28",
"W  c #2D5C82",
"j. c #1B374E",
"w  c #2D5C83",
"@. c #09121A",
"9. c #162D3F",
",  c #285274",
"C. c #285275",
"&. c #04080B",
"E  c #04080C",
"(. c #234865",
"T. c #112331",
"g. c #234866",
"^. c #234867",
"M  c #112332",
"v. c #112333",
"6. c #1E3E57",
"4. c #30638C",
"`. c #1E3E58",
"#. c #30638D",
"V  c #0C1923",
"3. c #193449",
"W. c #070F15",
"a. c #19344A",
"_  c #264F6F",
"Y. c #264F70",
"|  c #142A3B",
"X. c #142A3C",
">  c #264F71",
"$  c #020507",
"7. c #020508",
"t. c #214562",
"g  c #0F202D",
"3  c #0F202E",
"$. c #0A161F",
"m. c #295679",
"G  c #173146",
"K. c #000202",
"u. c #172E42",
"}  c #31648D",
"e  c #31648E",
"i  c #1F3F5A",
">. c #2C5A7F",
"/. c #1A354B",
"q  c #2C5A80",
"i. c #081017",
")  c #081018",
"[. c #275071",
".X c #030609",
"h. c #152B3E",
":  c #224663",
"e. c #224664",
"@  c #10212F",
"8. c #102130",
"0  c #2F6189",
"c. c #1D3C55",
"8  c #2F618A",
"A. c #1D3C56",
"h  c #0B1721",
"N  c #2A577B",
" . c #060D12",
"n  c #2A577C",
"*  c #183247",
";. c #183248",
"1  c #254D6D",
"'. c #254D6E",
"!. c #132839",
"f. c #010304",
"Q. c #010305",
"<. c #20435E",
"y  c #20435F",
"%  c #0E1E2B",
"_. c #1B3950",
"-. c #09141C",
"N. c #040A0E",
"V. c #112231",
"u  c #30628A",
"~  c #30628B",
"]. c #30628C",
"~. c #2B587C",
"P. c #2B587D",
"(  c #193349",
"B  c #070E14",
"L. c #070E15",
"D  c #264E6E",
"B. c #020405",
"+  c #14293A",
"%. c #14293B",
"c  c #020406",
"b  c #214460",
"K  c #0F1F2C",
"o. c #2E5F86",
"k. c #2E5F87",
"f  c #1C3A52",
"F. c #1C3A53",
"5. c #0A151E",
"Z  c #295578",
"s. c #295579",
"P  c #050B0F",
"=  c #173044",
"{  c #050B10",
"9  c #244B6A",
"4  c #000101",
"-  c #122636",
"x  c #000102",
"U. c #0D1C27",
"s  c #1F415C",
"j  c #0D1C28",
"n. c #0D1C29",
"]  c #081219",
"+. c #08121A",
"b. c #152D3F",
"<  c #275274",
"D. c #2C5980",
"r. c #03080B",
"R  c #2F6088",
"y. c #1D3B54",
"X  c #0B1620",
"M. c #2A567A",
":. c #060C11",
";  c #183146",
"A  c #060C12",
"^  c #254C6C",
"p  c #132737",
"z. c #132738",
".  c #010203",
"!  c #010204",
"L  c #20425D",
"q. c #0E1D29",
"Q  c #0E1D2A",
"H. c #2D5D83",
"G. c #1B384F",
"1. c #2D5D84",
".. c #1B3850",
"S  c #09131B",
"Y  c #09131C",
"}. c #04090C",
"2. c #285376",
"a  c #162E41",
"`  c #04090D",
"&  c #162E42",
"S. c #04090E",
"J. c #234967",
"C  c #234968",
"'  c #30648D",
"z  c #1E3F59",
"m  c #0C1A25",
" X c #071016",
"[  c #19354B",
"I. c #020608",
"/  c #142B3D",
"F  c #2E5E85",
"0. c #1C3951",
"6  c #2E5E86",
"w. c #0A141D",
"O. c #295477",
"{. c #050A0E",
"5  c #172F43",
"|. c #244A68",
"=. c #122534",
"l  c #244A69",
/* pixels */
"        . X o O + @ # .   $ % & * = - ; : > , < 1 2 3 .         ",
"    4 5 6 7 7 7 7 7 7 8 9 0 7 7 7 7 7 7 7 8 q w e 7 7 r t       ",
"    y 7 u i p % t a s d 7 0 f g h j k l e z # x c v b e n m     ",
"  M 7 N B           V C Z A             S D F G H   J K F L P   ",
"  I U Y           T R R A                 E b W Q x   ! - ~ m   ",
"c e ^             / 7 (                     ) I _ `     h ' *   ",
"] 7 [             C U {                       ( } | x    .7 ..  ",
"V 7 X.            o.O.  +.h P               @.* #.N .   $.7 (   ",
"V 7 %.          &.7 b *.U 7 #.%.          z 7 7 7 7 @.  =.7 -   ",
"-.7 ;.          :.7 7 >.,.<.1.[ x       @.7 W 2.3.4.5.  6.7 S   ",
"7.7 y           :.7 b . 8.>.i I         K 7 9.f 5.7 P   q o.4   ",
"  w N           { 7 0.  T . M ~ 4       q.7 |   = 4.J w.7 <.    ",
"  e.7 r.        ` 7 0.      f 7 `        .7 t.  t.0   y.7 @     ",
"  u.7 g         i.7 p.      a.7  .        s.4.{ d.7 c O.F f.    ",
"  h 7 f         h 7 k       g.U $         h.U ..5 7 S 1.j.      ",
"  x k.n         h 7 O     &.l.s.          c q ~ o 7 z.4.{       ",
"    <.7 ]       B 7 x.x   & 7 *             %.' _ } _ c.        ",
"    v.7 [ J       I U b.n.m.4.`             . M.7 4.R N.        ",
"    B.k.d f.      V.n 7 0 7 C.5.B             ; k.7 5 Z.A.9 s f.",
"      ,.7 - x   S.D.7 F.G.0 ~ } M             H.U r ~ 4.7 7 J.K.",
"      L.4.P.{ I.I 7 s U.l k.Z.Y.3.          K.7 :  .T.* , 8 R.  ",
"        G.R 9 D 7 P.6 R x.w.k e E.           .7 7 U 7 8 <.W.    ",
"        Q.!.D e x.5.R ~.^.Z u >./.          V 7 a.@.B x         ",
"          x . K.  x A T.a - N.(.[           o 7 T.              ",
"                            ` ~ p.          ).7 X               ",
"                            ` 7 _.          d.7 `               ",
"                            $ 7 `.          '.R                 ",
"                              ].g.        $ 8 [.                ",
"                              M.H.Q.    J f 7 E.                ",
"                              f U ,.a p.O.7 1.{.                ",
"                              }.2 r 7 7 U |. X                  ",
"                                Q..XV R.E                       "
};
