/* XPM */
static char * pgAdmin3_xpm[] = {
"16 16 154 2",
"  	c None",
". 	c #676767",
"+ 	c #818181",
"@ 	c #7A7A7A",
"# 	c #797979",
"$ 	c #838383",
"% 	c #777777",
"& 	c #838688",
"* 	c #7A838A",
"= 	c #828587",
"- 	c #626262",
"; 	c #8A959E",
"> 	c #46759B",
", 	c #356891",
"' 	c #3D6E95",
") 	c #7B9CB7",
"! 	c #93ADC2",
"~ 	c #366992",
"{ 	c #326690",
"] 	c #3C6D95",
"^ 	c #7598B4",
"/ 	c #4E799D",
"( 	c #3D6D94",
"_ 	c #4E7B9F",
": 	c #858D93",
"< 	c #717171",
"[ 	c #3B6D95",
"} 	c #3F6F96",
"| 	c #497599",
"1 	c #83A2BB",
"2 	c #346791",
"3 	c #386A92",
"4 	c #5983A4",
"5 	c #5E85A4",
"6 	c #437297",
"7 	c #3B6C95",
"8 	c #727272",
"9 	c #808386",
"0 	c #4C779B",
"a 	c #5B82A1",
"b 	c #507DA0",
"c 	c #3C6D94",
"d 	c #3F6F95",
"e 	c #417096",
"f 	c #406F96",
"g 	c #85A4BB",
"h 	c #4D789B",
"i 	c #376992",
"j 	c #7E7E7E",
"k 	c #7E8285",
"l 	c #427197",
"m 	c #537C9E",
"n 	c #7695AF",
"o 	c #9BB4C8",
"p 	c #91ABC2",
"q 	c #7497B1",
"r 	c #487599",
"s 	c #4A769A",
"t 	c #A5BCCD",
"u 	c #BCCCD9",
"v 	c #507B9D",
"w 	c #3D6E96",
"x 	c #6E6E6E",
"y 	c #7C7C7C",
"z 	c #537C9D",
"A 	c #7897B1",
"B 	c #457398",
"C 	c #5881A2",
"D 	c #9DB5C8",
"E 	c #517B9D",
"F 	c #6086A5",
"G 	c #6A8EAB",
"H 	c #7597B1",
"I 	c #3D6D95",
"J 	c #6289A9",
"K 	c #4B4B4B",
"L 	c #5D5D5D",
"M 	c #4C7A9E",
"N 	c #4B779A",
"O 	c #6F91AD",
"P 	c #4E799B",
"Q 	c #96AFC2",
"R 	c #5980A0",
"S 	c #5C83A1",
"T 	c #5D83A2",
"U 	c #83A1B8",
"V 	c #7797B1",
"W 	c #336790",
"X 	c #8595A1",
"Y 	c #7A97AF",
"Z 	c #346891",
"` 	c #6E92AE",
" .	c #9CB3C6",
"..	c #6186A3",
"+.	c #6589A5",
"@.	c #6689A5",
"#.	c #92ACC0",
"$.	c #7696B0",
"%.	c #5E87A7",
"&.	c #82898F",
"*.	c #336791",
"=.	c #3F7097",
"-.	c #698CAA",
";.	c #567F9F",
">.	c #9FB5C7",
",.	c #678AA6",
"'.	c #6E8EA9",
").	c #6F8FA9",
"!.	c #6B8CA7",
"~.	c #D6DFE7",
"{.	c #9BA8B2",
"].	c #5F5F5F",
"^.	c #4B799E",
"/.	c #ACB7C0",
"(.	c #ABB7C1",
"_.	c #A7BCCC",
":.	c #6A8CA7",
"<.	c #7291AB",
"[.	c #7593AC",
"}.	c #6D8EA8",
"|.	c #B9C9D6",
"1.	c #969696",
"2.	c #868687",
"3.	c #94AABB",
"4.	c #8A8D8F",
"5.	c #879FB3",
"6.	c #6B90AE",
"7.	c #6F90AA",
"8.	c #708FA9",
"9.	c #6C8CA7",
"0.	c #A8BDCE",
"a.	c #809FB8",
"b.	c #98A2AB",
"c.	c #555555",
"d.	c #505050",
"e.	c #82868A",
"f.	c #848E97",
"g.	c #8D8D8E",
"h.	c #688BA7",
"i.	c #6789A6",
"j.	c #6B8DA9",
"k.	c #646464",
"l.	c #6287A4",
"m.	c #7293AD",
"n.	c #5B5B5B",
"o.	c #6287A6",
"p.	c #547D9E",
"q.	c #83A0B8",
"r.	c #88A3B8",
"s.	c #4A779A",
"t.	c #4C789A",
"u.	c #919BA4",
"v.	c #80868B",
"w.	c #838485",
"    . + @     # $ % & * = -     ",
"  ; > , ' ) ! ~ { ] ^ / ( _ :   ",
"< [ , } | 1 { 2 ~ 3 3 4 5 6 7 8 ",
"9 { ( 0 a b 3 c d e e f g h i j ",
"k 2 l m n o p q r s s t u v w x ",
"y , l z A B C D E m F G H I J K ",
"L M c N O s P Q R S T U V W X   ",
"  Y Z d ` N m  ...+.@.#.$.%..   ",
"  &.{ *.=.-.;.>.,.'.).!.~.{.    ",
"  ].^.{ { /.(._.:.<.[.}.|.1.2.].",
"    ; W 3.4.5.6.7.'.8.9.0.a.b.c.",
"      @ d.e.f.g.h.@.i.j.k.      ",
"              y l.T T m.n.      ",
"                o.p.p.q.        ",
"                r.s.t.u.        ",
"                k.v.w.          "};
