/* XPM */
static char *pgAdmin3_32_xpm[] = {
/* columns rows colors chars-per-pixel */
"32 32 177 2",
"g  c #31658D",
"H. c #47636B",
"L. c #4E6478",
".  c #F2F3F5",
"m  c #316591",
"j. c #6587A1",
"9. c #31628D",
"+  c #E1EAF0",
"e  c #315F86",
"~. c #88A6BB",
"=. c #8DAABC",
"C  c #2F6894",
"_  c #4F7A9C",
"h  c #3B6484",
"2. c #5E7D83",
"Q  c #365D81",
"$  c #BCC8D1",
"o. c #6A8299",
"T. c #BCC5CB",
"n  c #405F77",
"V. c #A1B7C8",
"(  c #8396A5",
"@  c #C9DADC",
"Q. c #86A3B8",
"E  c #597694",
"!  c #3B5E8F",
";. c #7C92A3",
".. c #6B8CA4",
"r. c #ECF3F2",
">. c #98B3B8",
"F. c #AEC0CA",
"N  c #3C6277",
"D. c #C7D7DD",
"*  c #ACC3C7",
"3. c #325A7E",
"N. c #4B6B7D",
"a  c #506F81",
"q  c #96B3BA",
":. c #648293",
"Y. c #D1DCE8",
"K. c #2E668D",
"%. c #879EA2",
"J  c #BBCCD8",
"). c #738EA2",
";  c #F4F8F9",
"a. c #EAEDEE",
"d  c #EAEDF1",
"E. c #C5CECD",
"<. c #7D9098",
"6. c #355B81",
"t. c #6789A5",
"X. c #F2F8FB",
"U  c #2C638D",
"b. c #83A4AE",
"D  c #5B7B8A",
"v. c #B2CBDA",
"t  c #BCD3DC",
"M  c #386290",
"0. c #5B7E99",
"_. c #94AABB",
"f. c #4C6672",
"R. c #EBF4FA",
"8  c #3B637C",
"x. c #8A99A5",
" . c #5984A5",
"Z. c #607F9E",
"Y  c #638CA8",
"c  c #95BAC7",
"J. c #839BAA",
"I  c #8BAFC3",
"*. c #365F8B",
"!. c #4F7393",
"2  c #B5C9D0",
"A. c #A1B6C5",
"c. c #77939E",
"H  c #2F6499",
"S  c #86A5B6",
"s. c #95B4C4",
"y  c #A4C3D1",
"o  c #CBD3DA",
"(. c #9CAFBE",
"G  c #547189",
"&. c #D3E4EA",
"W  c #436B88",
"#  c #BFCED6",
"   c None",
"}  c #41718E",
"~  c #326896",
"7  c #325F7A",
"^. c #5C7FA1",
"U. c #ABAFB3",
",  c #708992",
"T  c #557B94",
"l  c #41657D",
"3  c #D1DEE1",
"i  c #305F7E",
"P  c #2E6889",
"+. c #A2B4BB",
"4  c #A0BDC5",
"/  c #2E6589",
"q. c #3F6886",
"u. c #ADD2DB",
"-. c #E0E4E7",
"x  c #355D7D",
"^  c #2E6591",
"l. c #4E7493",
"b  c #829CB2",
"k  c #C5D3DF",
"@. c #C3D9E3",
"p. c #788EA5",
"k. c #3A5E85",
"h. c #D9DDDF",
"'  c #6C8697",
"1  c #8FA8B4",
"R  c #CBE4EC",
"X  c #D2DFE4",
"y. c #BCD5E1",
":  c #CBE1E4",
"{  c #7494AA",
"Z  c #4C6B84",
"B  c #ABC9D3",
"g. c #62758A",
"v  c #3B688B",
"6  c #366182",
"O. c #BFDCE5",
"s  c #9CB7C1",
"j  c #607B8E",
"8. c #ABC6D5",
"L  c #638599",
"P. c #607586",
"%  c #DFE8EB",
"e. c #CBD2D4",
"F  c #C2E0E7",
"4. c #C2E0EB",
"r  c #7C99AC",
",. c #ACD0D7",
"p  c #326484",
"m. c #52707E",
"W. c #345E90",
"z  c #376586",
"B. c #526D7C",
"9  c #436483",
"w. c #5A8196",
"$. c #C2D1D4",
">  c #708B9C",
"-  c #E0EFF0",
"I. c #869299",
"=  c #CCDCE4",
"w  c #466B84",
"i. c #57718C",
"`  c #C0DAE8",
"A  c #375974",
"<  c #7392A0",
"d. c #6E91AB",
"G. c #D1DADF",
"K  c #DBE5EB",
"n. c #466274",
"S. c #8EA0AC",
"[  c #9BBBCE",
"M. c #DBDFE0",
"]  c #7198AB",
"O  c #E5EAEC",
"5. c #B2D8E1",
"1. c #8FB3BE",
"/. c #7D97AA",
"z. c #73868A",
"V  c #3A5D74",
"|  c #85A8B8",
"7. c #496C89",
")  c #ADCED9",
"&  c #B9CDD4",
"0  c #697B8F",
"C. c #DEE3E4",
"f  c #91A1AF",
"5  c #4C738D",
"#. c #7EA4B6",
"u  c #5B829C",
/* pixels */
"                                            . X o O             ",
"        + @ # $ o O         % & * * = - ; : > , < 1 2 +         ",
"    3 4 5 6 7 7 8 9 0 & O q w e 6 6 6 9 r t y u i p i a s d     ",
"  d f 8 g g g g g h j k < l e z g e g h x a c t v e z h 9 b ;   ",
"  # n h g m M g M N B q V e g M g e g m C h x b B Z h e M A f ; ",
"% S x g M M g m M D F G e m g g g M g m H M h 8 J q e g m M j K ",
"= L g H g g g e P c I h U U g g g g M P m H m g D J Y g m g T K ",
"R E M C g m g g W k L x e Q g ! g g g e g ~ ^ / V ( ) v g g _ O ",
"3 E m C g m ^ g T ` ' ] [ [ { W g m g g g g } | t J %  .^ g ..X.",
"3 o.M U m m ^ g u R O.B q +.@.#.e m m m m e c $.4 %.&. .m *.=.  ",
"-.;.g g m m ^ g u R :.N < @.>.,.e g M m g W O.<.1.2.R _ ^ Q J   ",
"  f ! U g m ^ g u @.l 3.W u j ) M g M m e Z 4.D 6 D 5.} P 9 O   ",
"  & 6.m m ^ ^ g T ` W g g g 7.8.W M g g v 8 t ] / L t v e <     ",
"  &.7.9.^ ^ C g 0.` q.g m M 9 y Z ! m ^ M N | y 3.w.5.7.Z e.    ",
"  r.t.h ^ ^ ^ g ..y.8 e g g Z y 9 M m m m M G u.9 a F i.p.X.    ",
"  a.s.h m ^ ^ g d.t 6 g g h G t e m m m H m h =.r f.: g.#       ",
"  h.y.7.m ^ ^ g j.@.9 e P k.b B i H g g m H g l.@.z.@ x.X.      ",
"    k o.g ^ m g 5 J c.Q h h v.b./ H g M m m m M 2 J e.e.        ",
"    h.+.x h g C e ..@.> n.T @.m.M m m M M H C g L &.M.h.        ",
"    . X W g m m e N.= K e.& : c.g M M M m m m g B.2             ",
"      a.V.h U g Z #       C.* J Z.k.m g P C g Q A.2 S.D.C.C.    ",
"        K L e h F.    a.G.& H.J.S k.m P P K.g e & f L.P.I.U.    ",
"          Y.o.S     O T.x.B., : b k.m m K.K.g k.X ; R.R.        ",
"            .         T.+.& G.E.b W.m H K.K.m W G.              ",
"                      a.C.O   e.S ! m H m P W.7.K               ",
"                              M.Q.g g m P P m !.X.              ",
"                                ~.*./ m g P W.^.r.              ",
"                                =.h g g g P g t.O               ",
"                                s l m g g C e /.a.              ",
"                                & l m g m m h (.                ",
"                                X > 3.e e 6 ).%                 ",
"                                a.D.o.G o._.+                   "
};
