/* XPM */
static char *plugins_xpm[] = {
/* columns rows colors chars-per-pixel */
"32 32 129 2",
"   c #E4F79A",
".  c #BCC58D",
"X  c #C8CCAC",
"o  c #E1F67D",
"O  c #A7BD4D",
"+  c #E5F79E",
"@  c #DBF37A",
"#  c #D9F36E",
"$  c #E2F68D",
"%  c #DCF37E",
"&  c #D8F367",
"*  c #D9F369",
"=  c #D7F26A",
"-  c #DCF572",
";  c #EEF9BF",
":  c #EBF9AA",
">  c #D7F26D",
",  c #E8F8A2",
"<  c #DEF486",
"1  c #E3F699",
"2  c #C6D781",
"3  c #DCF46E",
"4  c #D9F270",
"5  c #D7F265",
"6  c #D0F059",
"7  c #E3F787",
"8  c #9AB337",
"9  c #EAF9A7",
"0  c #E2F697",
"q  c #E0F590",
"w  c #DFEE9F",
"e  c #DFF58E",
"r  c #DEF582",
"t  c #DFF57A",
"y  c #D3F061",
"u  c #CDEE55",
"i  c #C1D27B",
"p  c #E7F7A1",
"a  c #D7F267",
"s  c #D5F165",
"d  c #CCDC8D",
"f  c #AEC35A",
"g  c #AFBE6D",
"h  c #D4F15F",
"j  c #D3F15E",
"k  c #A1B842",
"l  c #DAF46B",
"z  c #CEEF56",
"x  c #D4F160",
"c  c #DBF46B",
"v  c #DBF46C",
"b  c #DCF46D",
"n  c #CCCFB6",
"m  c #A1B64B",
"M  c #DAF46A",
"N  c #AEBD6B",
"B  c #B7C280",
"V  c #D1D2C2",
"C  c #C1D27C",
"Z  c #CFEF57",
"A  c #E0F494",
"S  c #CFEF58",
"D  c #9DB340",
"F  c #B3C078",
"G  c #A5B856",
"H  c #B7C382",
"J  c #D5F262",
"K  c #E0F595",
"L  c #D5F161",
"P  c #D2F15E",
"I  c #E1F596",
"U  c #DFF493",
"Y  c #A7BE4E",
"T  c #C2D27D",
"R  c #C4CAA2",
"E  c #AABB60",
"W  c #D4F264",
"Q  c #CDCFB8",
"!  c #D1D1C0",
"~  c #D6F263",
"^  c #C4CAA0",
"/  c #E0F29A",
"(  c #CFDD93",
")  c #E1F68A",
"_  c #DDF191",
"`  c #D1E190",
"'  c #EEF9C4",
"]  c #C0C898",
"[  c #D3E58E",
"{  c #B2C076",
"}  c #D2F15D",
"|  c #DBF478",
" . c #E6F1BD",
".. c #C0D277",
"X. c #E8F89C",
"o. c #D3E198",
"O. c #D5F162",
"+. c #CEDD8F",
"@. c #BBCD71",
"#. c #E4F68E",
"$. c #D6F166",
"%. c #BFD173",
"&. c #DCED91",
"*. c #E7F5A9",
"=. c #D8E69E",
"-. c #E1F29E",
";. c #DAEA9C",
":. c #CCDC89",
">. c #E0F583",
",. c #EEFAB9",
"<. c #DDF47F",
"1. c #C7D787",
"2. c #E0ECB1",
"3. c #D3F160",
"4. c #DDEBA0",
"5. c #DEECA3",
"6. c #DAF377",
"7. c #EBF9AD",
"8. c #D9F377",
"9. c #DBF374",
"0. c #E0F586",
"q. c #E1F58A",
"w. c #E4F695",
"e. c #E3F688",
"r. c #D2E194",
"t. c #DFEEA0",
"y. c #94AE2B",
"u. c #D5D4CB",
"i. c None",
/* pixels */
"i.i.i.i.i.i.i.i.i.i.i.i.i.i.i.i.i.i.i.i.i.i.i.i.i.i.i.i.i.i.i.i.",
"i.i.i.i.i.i.i.i.i.i.i.i.i.i.i.i.i.i.i.i.i.i.i.i.i.i.i.i.i.i.i.i.",
"i.i.i.i.i.i.i.i.i.i.i.^ B m y.y.y.y.y.N B V i.i.i.i.i.i.i.i.i.i.",
"i.i.i.i.i.i.i.i.i.. m f T 4.: , , , 7.:.C y.g V i.i.i.i.i.i.i.i.",
"i.i.i.i.i.i.i.i.g Y 5.X.e.t 3 c l M # t ) 9 C G ] i.i.i.i.i.i.i.",
"i.i.i.i.i.i.i.F Y : o 3 b v c l M * * & & # q.=.G R i.i.i.i.i.i.",
"i.i.i.i.i.i.X k *.o b b v c l M * * & & 5 5 a r o.E i.i.i.i.i.i.",
"i.i.i.i.i.i.N +.7 3 b v c l M * * & & 5 5 ~ J $.0 O X i.i.i.i.i.",
"i.i.i.i.i.! 8 9 - b v c l - 0.  + $ 9.5 ~ J L x <.1.{ i.i.i.i.i.",
"i.i.i.i.i.B T #.b v c l - w.i y.y.Y &.# J L x h 6.d N i.i.i.i.i.",
"i.i.i.i.i.N ( e.v c l M >...g V i.B %.| L x h j 8.d N i.i.i.i.i.",
"i.i.i.i.i.. @.,., , , p ; Y X i.R G [ 4 x h j j < i B i.i.i.i.i.",
"i.i.i.i.i.i.g y.y.y.y.y.y.g i.H 8 ` r s h j P > w 8 ! i.i.i.i.i.",
"i.i.i.i.i.i.i.i.i.i.i.i.i.V g Y w % s h j P > / O H i.i.i.i.i.i.",
"i.i.i.i.i.i.i.i.i.i.i.i.V g C   4 O.h j 3.4 -.O F i.i.i.i.i.i.i.",
"i.i.i.i.i.i.i.i.i.i.i.i.g C q = x h j W % ;.k F i.i.i.i.i.i.i.i.",
"i.i.i.i.i.i.i.i.i.i.i.^ f   = x h j W < 2 m . i.i.i.i.i.i.i.i.i.",
"i.i.i.i.i.i.i.i.i.i.i.E r.6.x h j P @ 2 g Q i.i.i.i.i.i.i.i.i.i.",
"i.i.i.i.i.i.i.i.i.i.i.D t.= h j } y _ 8 Q i.i.i.i.i.i.i.i.i.i.i.",
"i.i.i.i.i.i.i.i.i.i.i.D  .p 1 1 1 + 2.m i.i.i.i.i.i.i.i.i.i.i.i.",
"i.i.i.i.i.i.i.i.i.i.i.H D y.y.y.y.y.m . i.i.i.i.i.i.i.i.i.i.i.i.",
"i.i.i.i.i.i.i.i.i.i.i.i.i.i.i.i.i.i.i.i.i.i.i.i.i.i.i.i.i.i.i.i.",
"i.i.i.i.i.i.i.i.i.i.i.g y.y.y.y.y.y.y.g i.i.i.i.i.i.i.i.i.i.i.i.",
"i.i.i.i.i.i.i.i.i.i.n k ; 0 0 0 I I ' y.i.i.i.i.i.i.i.i.i.i.i.i.",
"i.i.i.i.i.i.i.i.i.i.n k q 6 6 S Z z K y.i.i.i.i.i.i.i.i.i.i.i.i.",
"i.i.i.i.i.i.i.i.i.i.n k q 6 S Z z z A y.i.i.i.i.i.i.i.i.i.i.i.i.",
"i.i.i.i.i.i.i.i.i.i.n k e S Z z z u A y.i.i.i.i.i.i.i.i.i.i.i.i.",
"i.i.i.i.i.i.i.i.i.i.n k e Z z z u u U y.i.i.i.i.i.i.i.i.i.i.i.i.",
"i.i.i.i.i.i.i.i.i.i.n k ; K K A A U ' y.i.i.i.i.i.i.i.i.i.i.i.i.",
"i.i.i.i.i.i.i.i.i.i.i.g y.y.y.y.y.y.y.g i.i.i.i.i.i.i.i.i.i.i.i.",
"i.i.i.i.i.i.i.i.i.i.i.i.i.i.i.i.i.i.i.i.i.i.i.i.i.i.i.i.i.i.i.i.",
"i.i.i.i.i.i.i.i.i.i.i.i.i.i.i.i.i.i.i.i.i.i.i.i.i.i.i.i.i.i.i.i."
};
