/* XPM */
static char * plugins_xpm[] = {
"32 32 256 2",
"  	c None",
". 	c #5CAB69",
"+ 	c #7A6D2E",
"@ 	c #456E2C",
"# 	c #3AA951",
"$ 	c #9A8F5D",
"% 	c #BAB391",
"& 	c #9ABA99",
"* 	c #3E7B3C",
"= 	c #846D16",
"- 	c #278633",
"; 	c #146315",
"> 	c #125E11",
", 	c #266A25",
"' 	c #296E28",
") 	c #105B0E",
"! 	c #6A5B12",
"~ 	c #3EBB5D",
"{ 	c #1A6016",
"] 	c #826C19",
"^ 	c #1B6319",
"/ 	c #115C0F",
"( 	c #E6D9B2",
"_ 	c #E3D5A9",
": 	c #E8DDBA",
"< 	c #E0D1A1",
"[ 	c #DDCC98",
"} 	c #89D89D",
"| 	c #EBE1C2",
"1 	c #EEE5CA",
"2 	c #90DAA3",
"3 	c #AAE3B9",
"4 	c #F0E9D2",
"5 	c #7CD493",
"6 	c #82D698",
"7 	c #9DDFAE",
"8 	c #A3E1B3",
"9 	c #96DDA8",
"0 	c #B7E7C3",
"a 	c #75D28D",
"b 	c #B0E5BE",
"c 	c #DAC890",
"d 	c #F3ECD9",
"e 	c #BFB899",
"f 	c #6FD088",
"g 	c #F7F3E6",
"h 	c #C2A446",
"i 	c #BDE9C8",
"j 	c #F5F0E0",
"k 	c #D8C487",
"l 	c #68CE83",
"m 	c #C3EBCE",
"n 	c #D5BF7E",
"o 	c #D2BB76",
"p 	c #62CC7D",
"q 	c #56C873",
"r 	c #C0A03F",
"s 	c #5CCA78",
"t 	c #40C061",
"u 	c #50C66F",
"v 	c #CAAF5D",
"w 	c #CDB365",
"x 	c #F9F6EC",
"y 	c #3BBF5D",
"z 	c #CFB76D",
"A 	c #C9EDD2",
"B 	c #97B896",
"C 	c #407C3E",
"D 	c #D5F1DC",
"E 	c #C5A74D",
"F 	c #AAA179",
"G 	c #45C266",
"H 	c #CFEFD7",
"I 	c #DFDCCC",
"J 	c #807337",
"K 	c #9E9567",
"L 	c #4BC46A",
"M 	c #C7AB55",
"N 	c #FBF8F2",
"O 	c #A89757",
"P 	c #165E13",
"Q 	c #887C43",
"R 	c #816B15",
"S 	c #2C923D",
"T 	c #76C185",
"U 	c #C0A44F",
"V 	c #8F7F39",
"W 	c #8A7D33",
"X 	c #2D722D",
"Y 	c #84783D",
"Z 	c #66560D",
"` 	c #A89C6C",
" .	c #395E14",
"..	c #AEE3BC",
"+.	c #B0C9B0",
"@.	c #72BA7E",
"#.	c #3F6E2B",
"$.	c #9D9363",
"%.	c #B6AB7E",
"&.	c #8E7B33",
"*.	c #5F783B",
"=.	c #5ABB70",
"-.	c #F0ECDE",
";.	c #3E803F",
">.	c #82763A",
",.	c #70AC76",
"'.	c #488247",
").	c #356A25",
"!.	c #24631B",
"~.	c #867329",
"{.	c #DAD3B9",
"].	c #CCC7AE",
"^.	c #286D27",
"/.	c #58844B",
"(.	c #77B17D",
"_.	c #68AB70",
":.	c #8B782C",
"<.	c #5A8952",
"[.	c #9D8633",
"}.	c #9EC9A3",
"|.	c #709D6E",
"1.	c #AAC4A9",
"2.	c #AFA881",
"3.	c #B69C47",
"4.	c #1D6219",
"5.	c #68580D",
"6.	c #196A1B",
"7.	c #186E1D",
"8.	c #90D7A1",
"9.	c #369242",
"0.	c #8A7421",
"a.	c #A08F4F",
"b.	c #649563",
"c.	c #176D1C",
"d.	c #337633",
"e.	c #8A721C",
"f.	c #CFC08F",
"g.	c #C2D5C2",
"h.	c #E7E1CB",
"i.	c #8DC999",
"j.	c #C0A654",
"k.	c #5E9A62",
"l.	c #C8C1A0",
"m.	c #C6C1A5",
"n.	c #C1AC69",
"o.	c #BED3BE",
"p.	c #91B490",
"q.	c #447E42",
"r.	c #4E631E",
"s.	c #619E66",
"t.	c #509254",
"u.	c #B8A052",
"v.	c #5A985E",
"w.	c #83B688",
"x.	c #938855",
"y.	c #B4A46A",
"z.	c #63AD6E",
"A.	c #4D7A3C",
"B.	c #367B37",
"C.	c #736D25",
"D.	c #776928",
"E.	c #786821",
"F.	c #957E27",
"G.	c #BDB696",
"H.	c #467434",
"I.	c #F1EAD6",
"J.	c #6C6D1C",
"K.	c #5F915D",
"L.	c #36BD59",
"M.	c #B3E1BD",
"N.	c #AD923B",
"O.	c #BE9D39",
"P.	c #339A45",
"Q.	c #3F954A",
"R.	c #56A662",
"S.	c #56A964",
"T.	c #6C9A6B",
"U.	c #958545",
"V.	c #90844E",
"W.	c #9A8843",
"X.	c #7BB181",
"Y.	c #7EA67D",
"Z.	c #408F48",
"`.	c #498248",
" +	c #316720",
".+	c #7E7D3A",
"++	c #BBB493",
"@+	c #71BF80",
"#+	c #96CCA0",
"$+	c #ADD5B4",
"%+	c #FCFBF7",
"&+	c #B7E4C1",
"*+	c #AD9A58",
"=+	c #435D14",
"-+	c #565004",
";+	c #C2E8CB",
">+	c #7FD395",
",+	c #7D7030",
"'+	c #9C915D",
")+	c #93D6A3",
"!+	c #1B7724",
"~+	c #286720",
"{+	c #927922",
"]+	c #917A27",
"^+	c #967C22",
"/+	c #84B387",
"(+	c #2B7B30",
"_+	c #84BA8B",
":+	c #C8C3A8",
"<+	c #416722",
"[+	c #8FC196",
"}+	c #C0BA9C",
"|+	c #C4BEA2",
"1+	c #A1D0AA",
"2+	c #A5D5AE",
"3+	c #938135",
"4+	c #D9D0B3",
"5+	c #98CDA1",
"6+	c #D2CDB7",
"7+	c #AB9752",
"8+	c #34833A",
"9+	c #827731",
"0+	c #A6C2A5",
"a+	c #675810",
"b+	c #ADA47B",
"c+	c #50874E",
"d+	c #A2996D",
"e+	c #B59941",
"f+	c #528F54",
"g+	c #4ABC66",
"h+	c #186518",
"i+	c #1E651C",
"j+	c #6B5A0B",
"k+	c #6F5C09",
"l+	c #388D42",
"m+	c #3F8E47",
"n+	c #5C975F",
"o+	c #988B50",
"p+	c #1A6A1D",
"q+	c #1C691D",
"r+	c #76C587",
"s+	c #2D8F3C",
"t+	c #6B5D16",
"u+	c #369745",
"v+	c #A69D73",
"w+	c #7D6711",
"x+	c #7F6A16",
"y+	c #558B54",
"z+	c #897526",
"A+	c #A18F4B",
"B+	c #396D29",
"C+	c #629360",
"D+	c #80A87F",
"E+	c #166818",
"F+	c #69A870",
"G+	c #5E4E01",
"                                                                ",
"                                                                ",
"                x.a+>.6+                                        ",
"              F b+-.l.t+                      0+y+&             ",
"              }+$ g h.Z                     1.f+[+v.T.          ",
"                + {.` 2.                    g.;.i (.q.          ",
"  J d+e ].I I G.G+I.%.K                       * #+d.            ",
"  G+% $.V.,+,+'+4+4 1 o+G+G+! E.%             ) ..X             ",
"  G+%+N x g j d 4 1 | : ( _ < a.{ ) ) * i+) ' F+3 _.^ C C ) )   ",
"  G+N x g j d 4 1 | : ( _ < [ O ).}.A 1+M.0 b 3 8 7 8.T @+>+)   ",
"  G+x g j d 4 1 | : ( _ < [ c *+@ w.m i 0 b 3 8 7 9 2 } 6 5 )   ",
"  G+g j d 4 1 | : ( f.U.-+5.W.7+@ X.i 0 b 3 8 7 9 2 } 6 5 a )   ",
"  G+j d 4 1 | : ( _ .+~+^.{ *.W !.2+0 b 3 8 7 9 2 r+Z./ h+Q.)   ",
"  G+d 4 1 | : ( _ y. +/+D $+n+) s.0 b 3 8 7 9 2 } m+B     b.)   ",
"  G+4 1 | : ( _ < 9+^ D H A m &+0 b 3 8 7 9 2 } . C+        p.  ",
"  G+1 | : ( _ < [ C.^.H A m i 0 b 3 8 7 9 2 } 6 8++.            ",
"  G+| : ( _ < [ c V P ;+m i 5+t.i.8 7 9 2 } 6 5 (+o.            ",
"  G+: ( _ < [ c k n. .k._+,.B.r.4.)+9 2 } 6 5 a l+&             ",
"  G+( _ < [ c k n o 3+=+#.<+J.F.B+@.2 } 6 5 a f =.^.      B d.  ",
"  G+_ < [ c k n o z w j.[.N.h {+H.z.} 6 5 a f l p 9., |.'.- )   ",
"  G+< [ c k n o z w v M E h r e.A.. 6 5 a f l p s q g+P.# t )   ",
"  G+[ c k n o z w v M E h r O.w+/.R.5 a f l p s q u L G t y )   ",
"  G+O A+&.~.:.u.v 3.0.] ] = = k+<.S.a f l p s q u L G t y L.)   ",
"  Y K v+e :+e z+U ! ++m.|+e e e K.q+> ) ) p+u+u s+; ) / ; ; /   ",
"              G+e+D.                        6.# c+              ",
"            Q ]+h e.F                       ) S D+              ",
"            j+h r ^+$                     Y.- ~ E+              ",
"            J x+R G+                      > ~ y !+              ",
"                                          `.7.c.X               ",
"                                                                ",
"                                                                ",
"                                                                "};
