/* XPM */
static char *procedures_xpm[] = {
"16 16 16 2",
"00 c None",
"01 c #C65252",
"02 c #CE5A5A",
"03 c #D66B6B",
"04 c #D67373",
"05 c #D67B7B",
"06 c #D68484",
"07 c #DE8C8C",
"08 c #DE9494",
"09 c #DE9C9C",
"10 c #E7ADAD",
"11 c #EFBDBD",
"12 c #EFCECE",
"13 c #FFF7F7",
"14 c gray100",
"15 c gray100",
"00000009010101090000000000000000",
"00000001111111010900000000000000",
"00000009010801010103000000000000",
"09010101010111111101030000000000",
"01121212120601080101010200000000",
"01100401010101011111110103000000",
"01060112121212060113131301030000",
"09010110040101010101131313010900",
"00000106011212121212121212120109",
"00000901011010101010101010101001",
"00000009010606060606060606060109",
"00000000090101010101040404010900",
"00000000000901010105050501090000",
"00000000000000010808080109000000",
"00000000000000090101010900000000",
"00000000000000000000000000000000"
};
