/* XPM */
static char *properties_xpm[] = {
/* columns rows colors chars-per-pixel */
"32 32 129 2",
"   c #FDFD93",
".  c #FEFDBE",
"X  c #FDFD9E",
"o  c #FDFDA5",
"O  c #FDFDA1",
"+  c #FDFD97",
"@  c #FDFD9A",
"#  c #FDFDA8",
"$  c #FEFDB0",
"%  c #FDFDAC",
"&  c #FEFDB3",
"*  c #DECE63",
"=  c #FEFDB7",
"-  c #FEFDBA",
";  c #FEFDC1",
":  c #FDFD8D",
">  c #FDFD90",
",  c #FDFD99",
"<  c #FEFDC4",
"1  c #EEDE71",
"2  c #FEFDC8",
"3  c #FDFD8A",
"4  c #FEFDCB",
"5  c #FDFEBC",
"6  c #FDFEBF",
"7  c #FCFD85",
"8  c #FEFECB",
"9  c #FDFEBE",
"0  c #FCFD82",
"q  c #FDFEC2",
"w  c #FDFEC3",
"e  c #FDFEBD",
"r  c #FDFEC0",
"t  c #FEFEC9",
"y  c #EBD753",
"u  c #FCFD87",
"i  c #FEFECC",
"p  c #EFE050",
"a  c #FCFD80",
"s  c #FEFCCE",
"d  c #FEFEC4",
"f  c #FFFCD3",
"g  c #FEFEC7",
"h  c #FCFD7D",
"j  c #FEFED0",
"k  c #FEFED2",
"l  c #D9D19E",
"z  c #FFFCD1",
"x  c #FEFED5",
"c  c #FEFECE",
"v  c #FEFEDB",
"b  c #DECE66",
"n  c #FEFED3",
"m  c #FEFED7",
"M  c #FFFCD6",
"N  c #FEFEBF",
"B  c #FCFD7B",
"V  c #FEFEAD",
"C  c #FEFEC8",
"Z  c #FFFFF2",
"A  c #FFFFF5",
"S  c #FFFFEE",
"D  c #FFFDEE",
"F  c #FEFEC6",
"G  c #FEFDD6",
"H  c #E4CB1C",
"J  c #FEFEE0",
"K  c #FEFEE1",
"L  c #FFFCD8",
"P  c #FEFEE3",
"I  c #FFFDEF",
"U  c #FEFEE5",
"Y  c #FFFCDB",
"T  c #FFFCDD",
"R  c #FEFDE6",
"E  c #FEFEDE",
"W  c #FEFDD7",
"Q  c #FFFDE1",
"!  c #EEDF43",
"~  c #E8D341",
"^  c #FFFDDD",
"/  c #FFFDE8",
"(  c #FDFDB5",
")  c #FFFEF6",
"_  c #FFFDE0",
"`  c #F6EDA3",
"'  c #9A9B51",
"]  c #CBCB7C",
"[  c #FEFEE9",
"{  c #DADA88",
"}  c #B7B76F",
"|  c #9B9B56",
" . c #CBCB6D",
".. c #F6EDAA",
"X. c #B7B768",
"o. c #DADA77",
"O. c #9B9B5C",
"+. c #FFFCDE",
"@. c #FFFDE9",
"#. c #FFFEEE",
"$. c #FEFDB6",
"%. c #E4CA1D",
"&. c #FEFDC5",
"*. c #FFFDEA",
"=. c #F6EDA9",
"-. c #FFFEF2",
";. c #FDFDB6",
":. c #FFFCDA",
">. c #FEFEDC",
",. c #FEFDCD",
"<. c #FFFDED",
"1. c #FFFFFB",
"2. c #F5EDA1",
"3. c #B6B761",
"4. c #DADA7F",
"5. c #CBCB74",
"6. c #FFFDEB",
"7. c gray63",
"8. c #E4CA1B",
"9. c #D5D4CB",
"0. c black",
"q. c black",
"w. c black",
"e. c black",
"r. c black",
"t. c black",
"y. c black",
"u. c black",
"i. c None",
/* pixels */
"i.i.i.i.i.i.i.i.i.i.i.i.i.i.i.i.i.i.i.i.i.i.i.i.i.i.i.i.i.i.i.i.",
"i.i.i.i.i.i.i.i.i.i.i.i.i.i.i.i.i.i.i.i.i.i.i.i.i.i.i.i.i.i.i.i.",
"i.i.i.i.i.i.i.i.i.i.i.i.i.i.i.i.i.i.i.i.i.i.i.i.i.i.i.i.i.i.i.i.",
"i.i.i.i.i.i.i.i.i.i.i.i.i.b %.8.8.8.8.8.8.8.8.8.8.8.* i.i.i.i.i.",
"i.i.i.i.i.i.i.i.i.i.i.i.b 1 G C t 8 i c j k n x m A 8.i.i.i.i.i.",
"i.i.i.i.i.i.i.i.i.i.i.b 1 . ,   + @ X O o # % $ & v 8.i.i.i.i.i.",
"i.* 8.8.8.8.8.8.8.8.8.1 . ,   p H 8.8.8.8.8.8.8.8.8.8.8.* i.i.i.",
"i.8.S 5 e 9 6 r q w N V ,   p 1 G C t 8 i c j k n x m A 8.i.i.i.",
"i.8.5 B h a 0 7 u 3 : >   p 1 . ,   + @ X O o # % $ & v 8.i.i.i.",
"i.8.e ! 8.8.8.8.8.8.8.8.8.1 . ,   p H 8.8.8.8.8.8.8.8.8.8.8.* i.",
"i.8.9 8.S 5 e 9 6 r q w N V ,   p 1 G C t 8 i c j k n x m A 8.i.",
"i.8.6 8.5 B h a 0 7 u 3 : >   p 1 . ,   + @ X O o # % $ & v 8.i.",
"i.8.r 8.e ! 8.8.8.8.8.8.8.8.8.1 . ,   + @ X O o # % $ & = >.8.i.",
"i.8.q 8.9 8.S 5 e 9 6 r q w N V ,   + @ X O o # % $ & = - E 8.i.",
"i.8.w 8.6 8.5 B h a 0 7 u 3 : >   + @ X O o # % $ & = - . J 8.i.",
"i.8.d 8.r 8.e h a 0 7 u 3 : >   + @ X O o # % $ & = - . ; K 8.i.",
"i.8.F 8.q 8.9 a 0 ' 3.3 : >   7.7.7.7.7.7.7.7.7.7.7.7.; < P 8.i.",
"i.8.g 8.w 8.6 0 7  .o.: >   + @ X O o # % $ & = - . ; < 2 U 8.i.",
"i.8.t 8.d 8.r 7 u 3 : >   + @ X O o # % $ & = - . ; < 2 4 R 8.i.",
"i.8.8 8.F 8.q u 3 | X.  + @ X 7.7.7.7.7.7.7.7.7.7.7.7.4 s / 8.i.",
"i.8.i 8.g 8.w 3 : 5.4.+ @ X O o # % $ & = - . ; < 2 4 s z @.8.i.",
"i.8.Z 8.t 8.d : >   + @ X O o # % $ & = - . ; < 2 4 s z f *.8.i.",
"i.* 8.8.8 8.F >   O.} X O o # 7.7.7.7.7.7.7.7.7.7.7.7.f M 6.8.i.",
"i.i.i.8.i 8.g   + ] { O o # % $ & = - . ; < 2 4 s z f M L <.8.i.",
"i.i.i.8.Z 8.t + @ X O o # % $ & = - . ; < 2 4 s z f M L Y D 8.i.",
"i.i.i.* 8.8.8 @ X o ( d g . $.= - . ; < 2 ,.W _ Q ^ :.Y T D 8.i.",
"i.i.i.i.i.8.i X O ;.2.y y ` &.- . ; < 2 4 W =.y y ..Q T +.I 8.i.",
"i.i.i.i.i.8.Z j k [ ~ l l ~ #.E J K P U R -.y l l y ) D I 1.8.i.",
"i.i.i.i.i.* 8.8.8.8.* i.i.* 8.8.8.8.8.8.8.8.* i.i.* 8.8.8.8.* i.",
"i.i.i.i.i.i.i.i.i.i.i.i.i.i.i.i.i.i.i.i.i.i.i.i.i.i.i.i.i.i.i.i.",
"i.i.i.i.i.i.i.i.i.i.i.i.i.i.i.i.i.i.i.i.i.i.i.i.i.i.i.i.i.i.i.i.",
"i.i.i.i.i.i.i.i.i.i.i.i.i.i.i.i.i.i.i.i.i.i.i.i.i.i.i.i.i.i.i.i."
};
