/* XPM */
static char *query_execfile_xpm[] = {
/* columns rows colors chars-per-pixel */
"16 16 129 2",
"   c #7092C5",
".  c #F2F9FC",
"X  c #E4F5FB",
"o  c #BAD381",
"O  c #D2EEF8",
"+  c #81AAE6",
"@  c #E3F3F9",
"#  c #B1B1B1",
"$  c #C8EBF7",
"%  c #9FC251",
"&  c #3D79C9",
"*  c #DBF1F8",
"=  c #B2CE71",
"-  c #7FB2E1",
";  c #B4CF70",
":  c #EAF6FB",
">  c #7EB4E0",
",  c #A5C55A",
"<  c #5595D9",
"1  c #5497D7",
"2  c #5692DB",
"3  c #3C7DC6",
"4  c #9BBF43",
"5  c #539CD4",
"6  c #539AD5",
"7  c #3B7FC4",
"8  c #9FC353",
"9  c #AAC85A",
"0  c #C5DA8D",
"q  c #BAD485",
"w  c #94BB2F",
"e  c #51A1D0",
"r  c #6E98B2",
"t  c #8EB726",
"y  c #7CBADB",
"u  c #A9C856",
"i  c #97BC38",
"p  c #96BD3E",
"a  c #DAF2FA",
"s  c #96BC3D",
"d  c #80B0E3",
"f  c #3C7BC8",
"g  c #E0F2F9",
"h  c #92B931",
"j  c #B1CD69",
"k  c #90B82C",
"l  c #ABC95E",
"z  c #97BD40",
"x  c #DCF3FA",
"c  c #AECB67",
"v  c #9BD0E1",
"b  c #80AEE3",
"n  c #529FD2",
"m  c #7CBCDA",
"M  c #7DB9DC",
"N  c #9DC8E6",
"B  c #BAD483",
"V  c #BAD383",
"C  c #7BBED8",
"Z  c #A0BEED",
"A  c #93C3E3",
"S  c #B6D178",
"D  c #CEE0A7",
"F  c #5690DC",
"G  c #80ACE5",
"H  c #95BB39",
"J  c #B0CD6C",
"K  c #ECF7FC",
"L  c #92BA33",
"P  c #7ABFD7",
"I  c #AFCC63",
"U  c #ADCB62",
"Y  c #94BB38",
"T  c #9EC24F",
"R  c #AFCC64",
"E  c #8BB161",
"W  c #5A9B13",
"Q  c #2C66BD",
"!  c #D0D0D0",
"~  c black",
"^  c black",
"/  c black",
"(  c black",
")  c black",
"_  c black",
"`  c black",
"'  c black",
"]  c black",
"[  c black",
"{  c black",
"}  c black",
"|  c black",
" . c black",
".. c black",
"X. c black",
"o. c black",
"O. c black",
"+. c black",
"@. c black",
"#. c black",
"$. c black",
"%. c black",
"&. c black",
"*. c black",
"=. c black",
"-. c black",
";. c black",
":. c black",
">. c black",
",. c black",
"<. c black",
"1. c black",
"2. c black",
"3. c black",
"4. c black",
"5. c black",
"6. c black",
"7. c black",
"8. c black",
"9. c black",
"0. c black",
"q. c black",
"w. c black",
"e. c black",
"r. c black",
"t. c black",
"y. c black",
"u. c black",
"i. c None",
/* pixels */
"E W E i.i.i.i.i.i.i.i.i.i.i.i.i.",
"W 0 W E i.i.i.i.i.i.i.i.i.i.i.i.",
"W I R W E i.i.i.i.i.i.i.i.i.i.i.",
"W u w j W E i.i.i.i.i.i.i.i.i.i.",
"W 9 t i ; W E i.i.i.i.i.i.i.i.i.",
"W l k h 4 S W E i.i.i.i.i.i.i.i.",
"W U L Y s , r Q Q Q Q Q Q Q Q   ",
"W c H p T o Q v Q . @ * X Q N Q ",
"W J z % V W Q P Q @ # # $ Q > Q ",
"W = 8 B W E Q C Q : O $ a Q - Q ",
"W o q W E i.Q m 7 Q Q Q Q f d Q ",
"W D W E i.i.Q y e n 5 6 1 < b Q ",
"E W E i.i.i.Q M 3 Q Q Q & 2 G Q ",
"i.i.i.i.i.i.Q A Q . g X Q F + Q ",
"i.i.i.i.i.i.  Q Q K O x Q + Z Q ",
"i.i.i.i.i.i.i.  Q Q Q Q Q Q Q   "
};
