/* XPM */
static char * reload_xpm[] = {
"24 24 10 1",
" 	c None",
".	c #D6D3CE",
"+	c #6365CE",
"@	c #313063",
"#	c #C6C3C6",
"$	c #9C9AFF",
"%	c #212021",
"&	c #000084",
"*	c #CECFFF",
"=	c #848284",
"........................",
"........................",
".......++++++++@........",
"......+#+$+$++%&@@......",
".....+#$$$$$+%%%&@@.....",
".+#****$*$*$*$$$+%%@....",
"..+#**$*$*$*$*$%%%@@....",
"...+#**$*$*$*$%@&&@@....",
"....+#******+%@&&&@@....",
".....+#****+%@&&&&@@....",
"......+#**+%@+&&&&@@....",
".......+#+%@.+&&&&@@....",
"........@@@..+&&&%@@....",
".............+&&&%@@.=..",
"....*********$$&%%@@.==.",
"....*$$$$$$$$$+%&%@@===.",
"....*$$$$$$$$$+%%%@@++..",
"....*$+$+$+$+$++%@+@+=..",
".....$++++++++++++@+==..",
"......$++@@@@@&@@@+==...",
".........===========....",
"........................",
"........................",
"........................"};
