/* XPM */
static char *restore_xpm[] = {
/* columns rows colors chars-per-pixel */
"16 16 129 2",
"   c #93CD32",
".  c #DBF2F9",
"X  c #C1AD64",
"o  c #EDE9BE",
"O  c #ABBC6A",
"+  c #84A32B",
"@  c #7FB3E1",
"#  c #97B83E",
"$  c #FFF8F3",
"%  c #539BD5",
"&  c #759316",
"*  c #3D7AC9",
"=  c #3169B1",
"-  c #B6DD7B",
";  c #FFFAF4",
":  c #F2E8D9",
">  c #D1C38D",
",  c #C3B06A",
"<  c #B7A14C",
"1  c #FAF9F4",
"2  c #D3C591",
"3  c #E6DEC0",
"4  c #F2F9FC",
"5  c #FFF9EE",
"6  c #FFFDEE",
"7  c #E3F3F8",
"8  c #B1B1B1",
"9  c #E4F5FB",
"0  c #83A5D8",
"q  c #D2EEF8",
"w  c #C8EBF7",
"e  c #81AAE6",
"r  c #B29B3B",
"t  c #9DC8E6",
"y  c #B3DF62",
"u  c #FFFDE3",
"i  c #F6F4E2",
"p  c #F2F2C2",
"a  c #B0983B",
"s  c #E5E5AB",
"d  c #EDEDBB",
"f  c #AAD958",
"g  c #DFDA84",
"h  c #BCAD52",
"j  c #B1D652",
"k  c #F0EDD2",
"l  c #A5B759",
"z  c #ECE9B2",
"x  c #E4E196",
"c  c #A4D846",
"v  c #ACD54F",
"b  c #DDD099",
"n  c #A7B565",
"m  c #F2EAD9",
"M  c #557F59",
"N  c #A3D357",
"B  c #E6DCA9",
"V  c #B2DB5A",
"C  c #FCF9F2",
"Z  c #F3E9DA",
"A  c #B2E049",
"S  c #5691DC",
"D  c #7B9A1D",
"F  c #DBC694",
"G  c #B09939",
"H  c #7E9DB7",
"J  c #3F728E",
"K  c #9EBF45",
"L  c #ACBC64",
"P  c #9DD04B",
"I  c #C7BC6A",
"U  c #CABD6D",
"Y  c #C3E77C",
"T  c #E0DA7B",
"R  c #D6CE88",
"E  c #CBBC82",
"W  c #DACB8E",
"Q  c #619879",
"!  c #B4DB53",
"~  c #ACBE73",
"^  c #E2E5C2",
"/  c #ECE9C4",
"(  c #5497D7",
")  c #B4D55D",
"_  c #E4E1A0",
"`  c #A1C44E",
"'  c #E8E3AB",
"]  c #A5C852",
"[  c #AEDC48",
"{  c #83AB67",
"}  c #78971A",
"|  c #DFDF9B",
" . c #FEF4D3",
".. c #EDEDCA",
"X. c #ECF7FC",
"o. c #E3DBBD",
"O. c #80B0E3",
"+. c #B2DF59",
"@. c #2E67B8",
"#. c #627A86",
"$. c #A3B057",
"%. c #C5CC85",
"&. c #A8B85C",
"*. c #EDDDB5",
"=. c #487778",
"-. c #A8D756",
";. c #F4EAD8",
":. c #F3E6BE",
">. c #5595D9",
",. c #E4DFA2",
"<. c #EAE2BA",
"1. c #C6B469",
"2. c #EFECB7",
"3. c #F1EEBC",
"4. c #B6DD58",
"5. c #E9E1B7",
"6. c #80AEE3",
"7. c #80ACE5",
"8. c #AF9836",
"9. c #A0BEED",
"0. c #346BAA",
"q. c #88A82C",
"w. c #AF9637",
"e. c #E5DDC2",
"r. c #AC9230",
"t. c #729113",
"y. c #2C66BD",
"u. c gray100",
"i. c None",
/* pixels */
"1 3 2 , < w.w.w.w.< , 2 3 1 i.i.",
"> r 1.W B o p 2.,.R U h 8.> i.i.",
"X b 6 u L t.&.3.z s _ | I X i.i.",
"a 5.6 O t.- t.l d o ..i C < i.i.",
"r.o.$.t.N   f t.~ i k / <.r.i.i.",
"r.e.t.- P   c Y t.T g x ' r.i.i.",
"r.e.n t.t.-.q.t.M y.y.y.y.y.y.0 ",
"r.e.: $ t.y ` { y.4 7 . 9 y.t y.",
"r.e.: ; & +.v } = 7 8 8 w y.@ y.",
"r.e.: ; + V [ # t.7 q w . y.@ y.",
"r.e.: $ O ] A j q.& @.y.y.* O.y.",
"r.e.Z ; ^ + 4.! K Q % % ( >.6.y.",
"r.e.m ; 5 %.# ) } = y.y.* S 7.y.",
"r.E ;.$ 5  .=.D J 4 7 9 y.S e y.",
"> G X F *.:.H 0.y.X.q . y.e 9.y.",
"1 3 2 , < w.w.#.y.y.y.y.y.y.y.0 "
};
