/* XPM */
static char *schedules_xpm[] = {
/* columns rows colors chars-per-pixel */
"16 16 129 2",
"   c #E5736B",
".  c #1E50AD",
"X  c #F4C1BD",
"o  c #E3A499",
"O  c #E47870",
"+  c #E27C71",
"@  c #E43734",
"#  c #EDCBC5",
"$  c #EFB5AF",
"%  c #EDCAC5",
"&  c #F9D7D6",
"*  c #E7BEB8",
"=  c #E2897D",
"-  c #E2887D",
";  c #D17B7F",
":  c #E43E3A",
">  c #E8BFB8",
",  c #E44D47",
"<  c #E38B7F",
"1  c #E4544E",
"2  c #E96764",
"3  c #E39A90",
"4  c #F9DFDC",
"5  c #E44541",
"6  c #E77670",
"7  c #E6A599",
"8  c #E7827B",
"9  c #F8E7E4",
"0  c #E5433F",
"q  c #E39B90",
"w  c #F18C8B",
"e  c #E7A398",
"r  c #E95C59",
"t  c #E9504F",
"y  c #EEC3BC",
"u  c #E7988F",
"i  c #E3645C",
"p  c #F09C99",
"a  c #F9CECD",
"s  c #EED6D1",
"d  c #D2EDF6",
"f  c #F4DAD5",
"g  c #C2E0EC",
"h  c #F0F9FC",
"j  c #DA9191",
"k  c #EEF3F7",
"l  c #E39F9C",
"z  c #7FA9D7",
"x  c #C5B7C0",
"c  c #E8F6FA",
"v  c #EFF8FC",
"b  c #BFDEEB",
"n  c #E5D1D2",
"m  c #DBECF4",
"M  c #CEBEC6",
"N  c #88ADD9",
"B  c #F5F8F9",
"V  c #D1C0C7",
"C  c #F1DAD7",
"Z  c #DD9392",
"A  c #E8D2D2",
"S  c #D7EFF7",
"D  c #C9E9F4",
"F  c #D9F0F8",
"G  c #E19D9B",
"H  c #C4B6C0",
"J  c #E2F3F9",
"K  c #C6E8F4",
"L  c #7FA9D6",
"P  c #E7F5FA",
"I  c #F0D9D7",
"U  c #E0F2F9",
"Y  c #D5EAF3",
"T  c #F6B2B2",
"R  c #CEEBF5",
"E  c #DEF2F9",
"W  c #B9DEEC",
"Q  c #F0F4F7",
"!  c #89AED9",
"~  c #E37369",
"^  c #F5C7C4",
"/  c #E27A70",
"(  c #E28176",
")  c #E2887C",
"_  c #EBB4AD",
"`  c #E28E81",
"'  c gray100",
"]  c black",
"[  c black",
"{  c black",
"}  c black",
"|  c black",
" . c black",
".. c black",
"X. c black",
"o. c black",
"O. c black",
"+. c black",
"@. c black",
"#. c black",
"$. c black",
"%. c black",
"&. c black",
"*. c black",
"=. c black",
"-. c black",
";. c black",
":. c black",
">. c black",
",. c black",
"<. c black",
"1. c black",
"2. c black",
"3. c black",
"4. c black",
"5. c black",
"6. c black",
"7. c black",
"8. c black",
"9. c black",
"0. c black",
"q. c black",
"w. c black",
"e. c black",
"r. c black",
"t. c black",
"y. c black",
"u. c black",
"i. c None",
/* pixels */
"i.i.9 y e < u $ 4 i.i.i.i.i.i.i.",
"i.f 7 ` ) ( / ~ 8 ^ i.i.i.i.i.i.",
"9 7 ` _ # > q = + O X i.i.i.i.i.",
"y ` _ s o ` ) ( / ~   ^ i.i.i.i.",
"e ) % o ` _ # > q = + O X i.i.i.",
"< ( * ` _ s o ` ) ( / ~   ^ i.i.",
"u / 3 ) % o ` _ C Q A l i 6 & i.",
"$ ~ - ( * ` _ B h . J m Z 1 p i.",
"4 8 + / 3 ) I v c . F d V , 2 i.",
"i.^ O ~ - ( k P U . ! D g 5 0 i.",
"i.i.X   + / n E S N . z x : r i.",
"i.i.i.^ O ~ G Y R K L W ; @ w i.",
"i.i.i.i.X   i j M b H ; @ t a i.",
"i.i.i.i.i.^ 6 1 , 5 : @ t T i.i.",
"i.i.i.i.i.i.& p 2 0 r w a i.i.i.",
"i.i.i.i.i.i.i.i.i.i.i.i.i.i.i.i."
};
