/* XPM */
static char * sequences_xpm[] = {
"16 16 21 1",
" 	c None",
".	c #B7A7DC",
"+	c #8469C4",
"@	c #FAFCFC",
"#	c #FCFCFE",
"$	c #FFFBFF",
"%	c #FDFBFF",
"&	c #EEEAF8",
"*	c #B09ED9",
"=	c #AD97DC",
"-	c #947CCF",
";	c #9E86D7",
">	c #9E88D7",
",	c #F0EAF8",
"'	c #9D85D6",
")	c #DAD0F0",
"!	c #A58FD8",
"~	c #C2B2E5",
"{	c #C1B1E6",
"]	c #AB97DE",
"^	c #AD97DE",
"  .+.           ",
" .+@+.          ",
" +#$%++.        ",
" .+&*+@+.       ",
"  .++#$%++.     ",
"   .++&*+@+.    ",
"  .+=-++#$%+.   ",
" .+;;>+++&&,+.  ",
" +'''++=-+)))+. ",
" .+!++;;>++~{{+.",
"  .++'''++=]^+. ",
"    .+!++;;>+.  ",
"     .++'''+.   ",
"       .+!+.    ",
"        .+.     ",
"                "};
