/* XPM */
static char * slpath_xpm[] = {
"16 16 64 1",
" 	c None",
".	c #B94A86",
"+	c #E5BCD2",
"@	c #B94986",
"#	c #BE5690",
"$	c #D994C3",
"%	c #CD78AC",
"&	c #C972A2",
"*	c #E6BDD3",
"=	c #CB73A6",
"-	c #D48AB7",
";	c #E2B3CC",
">	c #D07FB2",
",	c #ECBCEC",
"'	c #E8AEE8",
")	c #E0A1D2",
"!	c #C5669E",
"~	c #D38CB3",
"{	c #F0D7E4",
"]	c #C5649B",
"^	c #DA95C5",
"/	c #DE99D0",
"(	c #E2A5D2",
"_	c #CC76A8",
":	c #D694B8",
"<	c #CD77AC",
"[	c #E5ABDE",
"}	c #E5A7E3",
"|	c #E5A8E1",
"1	c #D891C1",
"2	c #BE558F",
"3	c #BE548F",
"4	c #D68DBD",
"5	c #DF9BD3",
"6	c #DC94CE",
"7	c #DC98C9",
"8	c #CA71A3",
"9	c #DDA6C4",
"0	c #BA4A87",
"a	c #D488B8",
"b	c #E5A9E0",
"c	c #E19EDB",
"d	c #E19DD8",
"e	c #DF9AD5",
"f	c #DD95D1",
"g	c #DF9CD1",
"h	c #D181B0",
"i	c #BF5892",
"j	c #D88EC0",
"k	c #DB8DD2",
"l	c #D98ACE",
"m	c #D589BB",
"n	c #BF5790",
"o	c #EDD1E0",
"p	c #DD96D2",
"q	c #DD96CD",
"r	c #DB94CA",
"s	c #DA91C7",
"t	c #DB93C8",
"u	c #D990C5",
"v	c #BD548D",
"w	c #E1A5CB",
"x	c #E0A3C8",
"y	c #DA9FBF",
"                ",
"                ",
"  .+        +@  ",
" #$%&*     &=-# ",
";>,')!~{ ~]^/(_;",
" :<[}|12345678: ",
"  90abcdefgh09  ",
"    :ijklmn:    ",
"     o@p6@      ",
"      @/q@      ",
"      @qr@      ",
"      @rs@      ",
"      @tu@      ",
"      vwxv      ",
"       vvy      ",
"                "};
