/* XPM */
static char *sortfilter_xpm[] = {
/* columns rows colors chars-per-pixel */
"16 16 65 1",
"  c #977CD0",
". c #C5BCE0",
"X c #9076CA",
"o c #A085D6",
"O c #9983CC",
"+ c #6B51AD",
"@ c #A88DDD",
"# c #B095E3",
"$ c #AFA2D2",
"% c #856BC2",
"& c #7C62BB",
"* c #9899C0",
"= c #8E74C9",
"- c #AB9ECF",
"; c #745AB4",
": c #7B7EB7",
"> c #BDA6E8",
", c #D1C9EB",
"< c #ECECF5",
"1 c #C1B4E0",
"2 c #DFD7F5",
"3 c #B6A8D8",
"4 c #D3C5EE",
"5 c #B99EE9",
"6 c #C7ABF4",
"7 c #E6E2F0",
"8 c #D5CCEA",
"9 c #6249A7",
"0 c #D7CFEF",
"q c #CFC1EA",
"w c #E4D6FB",
"e c #957FCA",
"r c #DCD3F3",
"t c #AD95DB",
"y c #CAB2F2",
"u c #DED0F7",
"i c #A98FDE",
"p c #BCAAE1",
"a c #E2D4F9",
"s c #BCAFDC",
"d c #B4A6D5",
"f c #EAE6F3",
"g c #BFA3EF",
"h c #AA99D3",
"j c #EDEEF6",
"k c #D7C9F1",
"l c #C3BADF",
"z c #C4B6E3",
"x c #B8ABD9",
"c c #E8DAFE",
"v c #C7BAE4",
"b c #B89CE9",
"n c #F0E6FF",
"m c #D4BCF9",
"M c #CABCE7",
"N c #DBCDF4",
"B c #8083BD",
"V c #8183BD",
"C c #A3A4C3",
"Z c #7073B4",
"A c #D0D0D0",
"S c black",
"D c black",
"F c black",
"G c None",
/* pixels */
"GGGGGGGGGGGGGGGG",
"C:ZZZZZZZZZZZZ:C",
"VjncwauNk4qMv8<B",
"CV2m6gb#@o XO.BC",
"GCVry5#@o XO.BCG",
"GGCV0>io XO.BCGG",
"GGGCV,t =elBCGGG",
"GGGGCVp=%hBCGGGG",
"GGGGGZz%&3ZGGGGG",
"GGGGGZ1&;dZGGGGG",
"GGGGGZs;+$ZGGGGG",
"GGGGGZx+9-ZGGGGG",
"GGGGGZf$-7ZGGGGG",
"GGGGG*ZZZZ*GGGGG",
"GGGGGGGGGGGGGGGG",
"GGGGGGGGGGGGGGGG"
};
