/* XPM */
static char *sql_32_xpm[] = {
"32 32 256 3",
"000 c #2B2D2E",
"001 c #2C2E30",
"002 c #2F3033",
"003 c #333434",
"004 c #31323A",
"005 c #373837",
"006 c #3D3A34",
"007 c gray23",
"008 c #343640",
"009 c #3F4040",
"010 c #47403E",
"011 c #4C4338",
"012 c #72653E",
"013 c #434343",
"014 c #46474F",
"015 c #4B4B4B",
"016 c #535252",
"017 c gray36",
"018 c #625641",
"019 c #64615E",
"020 c #7D6240",
"021 c gray38",
"022 c #676666",
"023 c #696766",
"024 c #6C6C6C",
"025 c #7A756E",
"026 c #717172",
"027 c #767575",
"028 c #797979",
"029 c #797A7D",
"030 c #8B6B4A",
"031 c #997D46",
"032 c #A47B44",
"033 c #B17D44",
"034 c #8D887E",
"035 c #AE835A",
"036 c #BF995E",
"037 c #AE8C61",
"038 c #AA986E",
"039 c #A09379",
"040 c #BC936A",
"041 c #B89964",
"042 c #B79473",
"043 c #B19C77",
"044 c #AFA177",
"045 c #BAA56F",
"046 c #B3A27C",
"047 c #BAAB70",
"048 c #C39857",
"049 c #DB944E",
"050 c #D19153",
"051 c #C48F61",
"052 c #C6A75F",
"053 c #CAAB5D",
"054 c #D0A050",
"055 c #D3AC5A",
"056 c #DAAC55",
"057 c #DBAC58",
"058 c #DBB25C",
"059 c #DEBB5C",
"060 c #C1A160",
"061 c #CEA46D",
"062 c #CAAF6C",
"063 c #C6A575",
"064 c #C3A973",
"065 c #C6AA79",
"066 c #C9A373",
"067 c #CEAC71",
"068 c #CAB578",
"069 c #CEBA72",
"070 c #D2AF60",
"071 c #D0B46D",
"072 c #DCB666",
"073 c #D9BD6B",
"074 c #E99E4D",
"075 c #F79E4C",
"076 c #E3A650",
"077 c #E1A75E",
"078 c #E4A953",
"079 c #E2AB5E",
"080 c #EFA354",
"081 c #EFA654",
"082 c #E1B157",
"083 c #E1B758",
"084 c #E5BA57",
"085 c #E5BA59",
"086 c #EDB455",
"087 c #EDB359",
"088 c #EDB45B",
"089 c #EBB957",
"090 c #E8BB58",
"091 c #EFBE5D",
"092 c #F6A24E",
"093 c #F0A854",
"094 c #F7A950",
"095 c #F6AD51",
"096 c #F6B053",
"097 c #F6B254",
"098 c #F6B555",
"099 c #F2B956",
"100 c #F7B956",
"101 c #F6BC57",
"102 c #F3BF58",
"103 c #F0BE5C",
"104 c #F6BE58",
"105 c #E1B862",
"106 c #DBC25E",
"107 c #DAC560",
"108 c #DFCA60",
"109 c #E4CA5D",
"110 c #EECF5E",
"111 c #F3C159",
"112 c #F6C159",
"113 c #F6C45A",
"114 c #F6C65C",
"115 c #F0CB5F",
"116 c #F6C95C",
"117 c #F5CD5D",
"118 c #F2D05F",
"119 c #F5D05E",
"120 c #E1C065",
"121 c #EFC660",
"122 c #ECCB62",
"123 c #E9D261",
"124 c #F6CB66",
"125 c #F6CE63",
"126 c #F6CE68",
"127 c #F4D461",
"128 c #F1D862",
"129 c #F4D962",
"130 c #F4DC63",
"131 c #F4DE65",
"132 c #F4DC6B",
"133 c #F5D772",
"134 c #F5DA74",
"135 c #F3E266",
"136 c #F3E86A",
"137 c #F4E47C",
"138 c #F3EC79",
"139 c #828383",
"140 c #8A8A8B",
"141 c #8D8E90",
"142 c #8F9293",
"143 c #908E87",
"144 c #92908D",
"145 c #99938A",
"146 c #929292",
"147 c #959799",
"148 c #97999A",
"149 c #999794",
"150 c gray60",
"151 c gray62",
"152 c #9F9FA0",
"153 c #A99E84",
"154 c #AF9F93",
"155 c #ACA588",
"156 c #AEA293",
"157 c #ABA599",
"158 c #AEA999",
"159 c #B7A985",
"160 c #BDA68A",
"161 c #BAAD86",
"162 c #B6AA97",
"163 c #BFAF94",
"164 c #BEB18C",
"165 c #BFB094",
"166 c #BFB490",
"167 c #BEB596",
"168 c #BEB39C",
"169 c #A3A3A4",
"170 c #A4A6A8",
"171 c #AEA9A3",
"172 c #ACACAC",
"173 c #AFB0B1",
"174 c #B4AFA5",
"175 c #B5B0A7",
"176 c #B3B1AE",
"177 c #BFB5A0",
"178 c #B2B3B3",
"179 c #B5B6B8",
"180 c #B7B8B9",
"181 c #B8B6B2",
"182 c #B9B9B9",
"183 c #BABABC",
"184 c #BCBABA",
"185 c #BEBEBE",
"186 c #BEBFC0",
"187 c #C1AA84",
"188 c #C1AA88",
"189 c #C0AA8C",
"190 c #C0AF8A",
"191 c #C0AD8D",
"192 c #C0B38A",
"193 c #C0B295",
"194 c #C0B29B",
"195 c #C0B39D",
"196 c #C8BD9E",
"197 c #D5BF8E",
"198 c #C1B5A0",
"199 c #C1B6A5",
"200 c #C2BAAA",
"201 c #C2BCA8",
"202 c #C4BCAD",
"203 c #C3BBB0",
"204 c #C5BEB2",
"205 c #C0BFBD",
"206 c #CBC7BF",
"207 c #D5C7A4",
"208 c #D2C7A9",
"209 c #F4EF85",
"210 c #F5E691",
"211 c #F5E993",
"212 c #F5EE90",
"213 c #F5F096",
"214 c #C4C3C4",
"215 c #C7C7C8",
"216 c #C7C8C8",
"217 c #CBC6C0",
"218 c #C8C7C7",
"219 c #CBCAC6",
"220 c #CDCAC3",
"221 c #CECCC5",
"222 c #CCCBCC",
"223 c #CFCFD0",
"224 c #D0CEC8",
"225 c #D0CECF",
"226 c #D0CFD0",
"227 c #D4D2CD",
"228 c #D4D3D3",
"229 c #D6D7D8",
"230 c #D8D7D3",
"231 c #DADADB",
"232 c #DBDBDC",
"233 c #DCDBDC",
"234 c #DEDEDB",
"235 c #DDDDDD",
"236 c #E1E1E1",
"237 c #E3E3E4",
"238 c #E5E4E3",
"239 c gray90",
"240 c #E7E7E8",
"241 c #E7E8E8",
"242 c gray91",
"243 c #ECECEB",
"244 c #ECEDED",
"245 c #EFEFF0",
"246 c #EFF0F1",
"247 c #F1F1F1",
"248 c #F2F2F4",
"249 c gray96",
"250 c #F7F7F8",
"251 c gray98",
"252 c #FAFBFC",
"253 c None",
"254 c black",
"255 c black",
"253253253253253253253253253253253253253253253253253253253253253253253253253253253253253253253253",
"253253253253253253253253253251239220200167164192192192167201221239251253253253253253253253253253",
"253253253253253253253233167071115117117119127129129129130129129127069168236252253253253253253253",
"253253253253253242190121119116114116117119127129129129130130130129129127122166243253253253253253",
"253253253253228072116116116113113116117119110109107107108123128129127127119117073230253253253253",
"253253253234105113114116113112113090062159158172176178176171155047106110117116116120234253253253",
"253253251065112113113116112089064174182180183214214214214215222222181044059116114113068251253253",
"253253230102104112113113058162185179205229228225225225225223222215228239175052111113116224253253",
"253253199101104112112055174214173228239229231233231228229228228228228222245205060102113193253253",
"253253160100101104082157216173232235222241244245244228223232233229226232225242176055113065253253",
"253253160096100099043183186214169009013016239236017013013022232146027236237222237153086066253253",
"253253177092098056149218172239021140239140222139026245244017151146026242240236228184050187253253",
"253253195092095036140222172247178007013139243017180251251152026150027248246247222222040164253253",
"253253160096075037029226173249219236183016148021172249236141028150027249249250226226046063253253",
"253253160095095035139216178244017139214016169172015169009003185150017178179228222222042066252253",
"253253199092098048141179228222231026017141247250170019022017140180024024026170214186051188253253",
"253253177092094078145170235186243253251252252253251252252250239251250251252228226171049164253253",
"253253160097075096041170178241214243252253252252252252252252252251252252236215185042099063253253",
"253253160095096092076039180231247226228251253253252253252253251252250228214214154078100066253253",
"253253168092076020011025236236172228240218222239250251252250241226214216214156056104075188253253",
"253253160033010002000009028034144148169216236229214214214186216228222184046085101092092177253253",
"253239019004001000000000003031056038143142147179229241243244240219164070102098094075096163253253",
"178014004000000000000000012084112112090053045161196208207197071082111104100094092095092199253253",
"008002001003005003006032099119130135131132134133128127127127127119113100095094098094092228253253",
"005007015015013018054098100100112117127137210210137135129119114104100098098104095075061251253253",
"015021017016030074100113113112113113116116116117116116116114113112113114104095075080227253253253",
"027022019180203081094100116127127127119119119119119127119119119119116100096092093204253253253253",
"023028235253253217077097098104117129136209213212138136135129117112100097096079206253253253253253",
"150249253253253253242189087104112113113114124126125116114113112104101087191242253253253253253253",
"252253253253253253253253238195067103114117119119119119116114091067198239253253253253253253253253",
"253253253253253253253253253253251242221200194165163195202224242252253253253253253253253253253253",
"253253253253253253253253253253253253253253253253253253253253253253253253253253253253253253253253"
};
