/* XPM */
static const char *sql_16_xpm[] = {
"16 16 256 3",
"000 c #2F3132",
"001 c #303132",
"002 c #303134",
"003 c #333335",
"004 c #4E4435",
"005 c #484847",
"006 c gray31",
"007 c #525150",
"008 c #56585C",
"009 c #756C5C",
"010 c #6E6D6D",
"011 c gray45",
"012 c #747475",
"013 c #7B7B7B",
"014 c gray49",
"015 c gray",
"016 c #866947",
"017 c #836F5B",
"018 c #937D5C",
"019 c #AB9C7B",
"020 c #BF9B71",
"021 c #BBA176",
"022 c #D3964C",
"023 c #D69C57",
"024 c #D79F56",
"025 c #CFAA52",
"026 c #CFA266",
"027 c #CFA669",
"028 c #CDA373",
"029 c #CEA370",
"030 c #CEA371",
"031 c #CEA471",
"032 c #CDAB75",
"033 c #CEA874",
"034 c #CDB278",
"035 c #CEB77B",
"036 c #CBBB7F",
"037 c #D8A666",
"038 c #D9AD66",
"039 c #D0AF70",
"040 c #D6B269",
"041 c #D4B46E",
"042 c #D4B76F",
"043 c #DCB569",
"044 c #DBBD6B",
"045 c #D6BB70",
"046 c #D5BF72",
"047 c #ECB556",
"048 c #F5A350",
"049 c #F2A951",
"050 c #F1AB55",
"051 c #F1AE56",
"052 c #F7A951",
"053 c #F6AC51",
"054 c #F7AF52",
"055 c #F0B456",
"056 c #F7B956",
"057 c #F7BB57",
"058 c #F6BF58",
"059 c #F7BE58",
"060 c #E1B461",
"061 c #E9BA60",
"062 c #EABB60",
"063 c #D3C06F",
"064 c #D7C177",
"065 c #EECF5F",
"066 c #F2C45B",
"067 c #F7C259",
"068 c #F6C35A",
"069 c #F6C55A",
"070 c #F6C55B",
"071 c #F7C55B",
"072 c #F6C75C",
"073 c #F5CA5D",
"074 c #F6C85C",
"075 c #F7CA5C",
"076 c #F5CF5E",
"077 c #F6CC5D",
"078 c #F6CE5E",
"079 c #F6CE5F",
"080 c #F5D05F",
"081 c #F6D05E",
"082 c #E7C361",
"083 c #E6C861",
"084 c #E4CC7D",
"085 c #F6CF63",
"086 c #F5D366",
"087 c #F5D461",
"088 c #F5D661",
"089 c #F3D863",
"090 c #F4D862",
"091 c #F4DB63",
"092 c #F5DA63",
"093 c #F5D868",
"094 c #F4DE68",
"095 c #F4DE6C",
"096 c #F6D977",
"097 c #F5E079",
"098 c #808081",
"099 c #818182",
"100 c gray51",
"101 c #878788",
"102 c #8B8B8B",
"103 c #8F9090",
"104 c #A69E8F",
"105 c #A2A4A2",
"106 c #A4A4A5",
"107 c #A6A6A7",
"108 c #A7A7A7",
"109 c #A7A7A8",
"110 c #A7A9A9",
"111 c #A9A9A9",
"112 c #ACACAD",
"113 c #B3AEA4",
"114 c #BAB3A4",
"115 c #BDB3AA",
"116 c gray71",
"117 c #B9B9B9",
"118 c #BBBAB8",
"119 c #BFBBB8",
"120 c #C6AE87",
"121 c #C6AF87",
"122 c #C8A780",
"123 c #C6BB88",
"124 c #CABE84",
"125 c #C4BA9F",
"126 c #C5BA9E",
"127 c #C4B8A2",
"128 c #C6BBAD",
"129 c #C5BDAA",
"130 c #C7BCAC",
"131 c #C6C0AD",
"132 c #C7C4BE",
"133 c #C8C4B9",
"134 c #E0CC84",
"135 c #C0C1C2",
"136 c #C2C2C3",
"137 c #C5C5C5",
"138 c #C6C6C6",
"139 c gray78",
"140 c #CDCAC0",
"141 c #CDCBC0",
"142 c #C9C9CA",
"143 c #CAC9CA",
"144 c #CACACA",
"145 c #CBCACB",
"146 c #CDCECF",
"147 c #CECECE",
"148 c #CFCECF",
"149 c #D2CFC9",
"150 c #D0CFD0",
"151 c #D4D0CA",
"152 c #D4D2CC",
"153 c #D4D3CD",
"154 c #D0D0D0",
"155 c #D0D0D1",
"156 c #D1D0D0",
"157 c #D2D2D3",
"158 c #D3D2D3",
"159 c #D3D3D2",
"160 c #D5D5D5",
"161 c #D5D5D6",
"162 c #D6D5D6",
"163 c #D6D6D7",
"164 c #D7D7D8",
"165 c #DAD9D9",
"166 c #DBDBDC",
"167 c #DEDCDA",
"168 c #DEDDDA",
"169 c #DFDEDB",
"170 c gainsboro",
"171 c #DDDDDE",
"172 c #DFDEDF",
"173 c #E0DFDF",
"174 c #E0E1E1",
"175 c #E5E5E6",
"176 c #E6E6E6",
"177 c #EBEAEA",
"178 c #ECECEC",
"179 c #F3F4F4",
"180 c #F5F5F6",
"181 c #F6F6F6",
"182 c gray97",
"183 c #F9F9F9",
"184 c gray98",
"185 c #FAFAFB",
"186 c #FBFBFC",
"187 c gray99",
"188 c #FEFEFE",
"189 c None",
"190 c black",
"191 c black",
"192 c black",
"193 c black",
"194 c black",
"195 c black",
"196 c black",
"197 c black",
"198 c black",
"199 c black",
"200 c black",
"201 c black",
"202 c black",
"203 c black",
"204 c black",
"205 c black",
"206 c black",
"207 c black",
"208 c black",
"209 c black",
"210 c black",
"211 c black",
"212 c black",
"213 c black",
"214 c black",
"215 c black",
"216 c black",
"217 c black",
"218 c black",
"219 c black",
"220 c black",
"221 c black",
"222 c black",
"223 c black",
"224 c black",
"225 c black",
"226 c black",
"227 c black",
"228 c black",
"229 c black",
"230 c black",
"231 c black",
"232 c black",
"233 c black",
"234 c black",
"235 c black",
"236 c black",
"237 c black",
"238 c black",
"239 c black",
"240 c black",
"241 c black",
"242 c black",
"243 c black",
"244 c black",
"245 c black",
"246 c black",
"247 c black",
"248 c black",
"249 c black",
"250 c black",
"251 c black",
"252 c black",
"253 c black",
"254 c black",
"255 c black",
"189189189189188177153140141152177188189189189189",
"189189184129045073081088092091089046131184189189",
"189182034075071066044036123124063065078035181189",
"189127067071043114136142143144145133042069125189",
"189032059040118154166175170161163158165039041189",
"189030055113137011100138098014109112172132026189",
"189029023110155107012103160136101116179148021189",
"189028024106150102099147015006108013111139020189",
"189031049104146176187187186185180185171115027189",
"189029022018160156173178187186178162119038037189",
"183017003000009019105135157164159126060052033189",
"008002001004025080083064134084082058054053122189",
"005007016047059070086096093076068059056048151189",
"010117128051070087095097094090077057050130189189",
"174189189167120062074085079072061121168189189189",
"189189189189189183168149149169184189189189189189"
};
