/* XPM */
static char * steps_xpm[] = {
"16 16 49 1",
" 	c None",
".	c #A5A5A5",
"+	c #F28282",
"@	c #F17F80",
"#	c #EF7C7C",
"$	c #EE7878",
"%	c #EC7474",
"&	c #EA6F70",
"*	c #E86A6B",
"=	c #E56565",
"-	c #E35F60",
";	c #E05A5A",
">	c #DE5454",
",	c #DB4D4E",
"'	c #D84747",
")	c #D54141",
"!	c #FFFFFF",
"~	c #FDFEFF",
"{	c #F9FDFE",
"]	c #F6FBFD",
"^	c #F2FAFC",
"/	c #EDF8FC",
"(	c #E9F6FB",
"_	c #E4F4FA",
":	c #DEF2F9",
"<	c #D9F0F8",
"[	c #D33B3B",
"}	c #1E50AD",
"|	c #D3EDF6",
"1	c #D03535",
"2	c #CEEBF5",
"3	c #CD2E2F",
"4	c #CB2829",
"5	c #C9E9F4",
"6	c #C3E7F3",
"7	c #C82323",
"8	c #BEE5F2",
"9	c #C61D1D",
"0	c #BAE3F1",
"a	c #C31818",
"b	c #C11313",
"c	c #B5E1F1",
"d	c #B1DFF0",
"e	c #BF0E0E",
"f	c #AEDEEF",
"g	c #BD0A0A",
"h	c #AADDEE",
"i	c #BC0606",
"j	c #BA0303",
" .............. ",
" +@#$%&*=-;>,') ",
" @.!~{]^/(_:<.[ ",
" #.~}]}}}}}}|.1 ",
" $.{]^/(_:<|2.3 ",
" %&*=-;>,')[134 ",
" &.^/(_:<|256.7 ",
" *./}_}}}}}}8.9 ",
" =.(_:<|25680.a ",
" -;>,')[13479ab ",
" ;.:<|25680cd.e ",
" >.<}2}}}}}}f.g ",
" ,.|25680cdfh.i ",
" ')[13479abegij ",
" .............. ",
"                "};
