/* XPM */
static char *synonyms_xpm[] = {
/* columns rows colors chars-per-pixel */
"16 16 42 1",
"a c #5AD6F2",
"% c #75A9B9",
"4 c #70DDF4",
"= c #A8F0FB",
"1 c #C4E2F4",
"3 c #AED2ED",
"5 c #62D8F3",
"O c #C1F8FE",
"; c #71B2E5",
": c #357FD3",
"i c #76DFF5",
"@ c #AEF2FC",
"y c #3CA0DF",
"$ c #86C0CE",
"d c #41CDEF",
"  c None",
"p c #68DAF3",
"6 c #66AEE4",
"# c #A3EEFB",
"+ c #B9F5FD",
"t c #58A9E2",
"f c #36C9ED",
"8 c #5DD6F2",
"* c #B7F5FD",
". c #9DC2CE",
"> c #5BAAE2",
"w c #98C1E7",
"q c #A2C9EA",
"s c #4DD1F0",
"- c #96EAF9",
"2 c #B9DAF1",
"u c #3ACBEE",
"7 c #4BA5E1",
"9 c #50D2F0",
"r c #3FCCEE",
"< c #CBE7F6",
"& c #C3F9FE",
"o c #C8FAFF",
"0 c #43CEEF",
"X c #5997AB",
"e c #4BD0F0",
", c #83E3F7",
/* pixels */
"                ",
".XXXXXXX.       ",
"XoooO+@#X.      ",
"Xo$XXXXXXX%     ",
"X&XoooO+@#X%    ",
"X*Xo$XXXXXXX%   ",
"X=X&XoooO+@#X%  ",
"X-X*Xo;::::>,X. ",
"X,X=X&:<123:45X.",
".XX-X*6::::7890X",
"  X,X=:23qw:erX.",
"  .XX-t::::yuX. ",
"    X,ipasdfX.  ",
"    .XXXXXXX.   ",
"                ",
"                "
};
