/* XPM */
static const char * terminate_backend_xpm[] = {
"16 16 30 1",
" 	c None",
".	c #C68D5F",
"+	c #D51717",
"@	c #E9D0A6",
"#	c #E3C086",
"$	c #E4BF83",
"%	c #E6BE7E",
"&	c #E8BC7A",
"*	c #E9BA75",
"=	c #ECB970",
"-	c #F2C88F",
";	c #E3C085",
">	c #F1B464",
",	c #E5BF81",
"'	c #F3B25D",
")	c #E6BD7D",
"!	c #F5B057",
"~	c #E9BB77",
"{	c #F8AD51",
"]	c #ECB971",
"^	c #FBAC4C",
"/	c #EEB66B",
"(	c #FCAA47",
"_	c #F4C78B",
":	c #F2B35F",
"<	c #F5B059",
"[	c #F7AF54",
"}	c #F9AD4F",
"|	c #FBAB4A",
"1	c #FEBD71",
"                ",
"                ",
"                ",
"   .++++++++.   ",
"   +@#$%&*=-+   ",
"   +;++++++>+   ",
"   +,++++++'+   ",
"   +)++++++!+   ",
"   +~++++++{+   ",
"   +]++++++^+   ",
"   +/++++++(+   ",
"   +_:<[}|(1+   ",
"   .++++++++.   ",
"                ",
"                ",
"                "};
