/* XPM */
static const char *textsearch[] = {
/* columns rows colors chars-per-pixel */
"16 16 128 2",
"e  c #A9DDF5",
"F  c #73BBD7",
"g  c #445358",
"q  c #C4EBFD",
"4  c #D2D8DA",
"8. c #B4B7B8",
"1. c #F0F6F8",
">  c #86AFC5",
"]  c #76BFD6",
"M  c #D2D2D2",
"y  c #8A949B",
"7  c #99A3A8",
"b  c #9BD5E6",
"2. c #E4EEF2",
"}  c #8A8E91",
"y. c #8F8F8F",
"-. c #C4D0D5",
".. c #E7EFF2",
"z  c #85BCD9",
"%  c #B0B1B2",
"$  c #A6A6A6",
"<  c #A3DAF7",
"|  c #D3D3D3",
"D  c #97D2E3",
"<. c #909090",
"A  c #C1E9F2",
"#  c #B8B9B9",
")  c #757F85",
"w. c #BDBDBD",
"X  c None",
"f  c #CBEEF9",
"r  c #88B4C8",
"_  c #9FD7EF",
"8  c #77AECA",
"+  c #E8EAEC",
"o  c #F7F9FA",
"n  c #75AEC5",
"   c #AAB1B6",
"`  c #A2D8EA",
"i  c #7CA6BD",
"*  c #E1E6E7",
"6  c #E6EAEB",
"r. c #AFAFAF",
"I  c #31494F",
"[  c #5F95A9",
"+. c #78AFC6",
"d  c #4C575C",
"$. c #999999",
"j  c #7599AA",
" . c #D5D5D5",
"~  c #2A454D",
"3. c #E2EDF1",
"(  c #D8E2E6",
"P  c #A3D9E5",
"{  c #636E73",
"N  c #929292",
"W  c #BEE7F5",
"0. c #8B979F",
"=. c #D6E5EA",
":  c #9AA6AD",
"B  c #9ED5F4",
"5. c #DBE6E9",
"/  c #777B7E",
"4. c #E0EAEE",
":. c #686969",
";. c #7C7F81",
"'  c #8BCCDE",
"1  c #9ECCE5",
"o. c #707A7F",
"w  c #BCE7FB",
"@  c #CCCECE",
"6. c #D9E6E9",
"&. c #D6D6D6",
"X. c #1B1B1B",
"Z  c #CBEDF6",
"m  c #75787A",
"v  c #BAE4EF",
"V  c #D5F2FD",
"t  c #788287",
".  c #8C98A0",
"3  c #879197",
"H  c #CFCFCF",
"0  c #BFE8FC",
">. c #91999C",
"^  c #5E8797",
"R  c #83A3B5",
"2  c #92B2C4",
"C  c #D3F2FA",
"#. c #7D7D7D",
"u. c #8C8C8C",
"s  c #D3F2FE",
"S  c #B1E0EB",
"E  c #ACDFF6",
"@. c #76BDD9",
"9  c #96D2F0",
"K  c #98C6DF",
"e. c #949494",
"J  c #9E9FA0",
"U  c #67A5BB",
"=  c #F3F8F9",
"-  c #8D99A1",
"Q  c #B4E1EC",
"Y  c #6F7274",
";  c #515151",
"*. c #E7F0F3",
"G  c #6F6F6F",
"t. c #ABABAB",
"a  c #48565A",
"p  c #92CFEE",
"!  c #90CFDE",
"q. c #9A9C9E",
"&  c #C2C5C6",
"x  c #D7F4FD",
"u  c #C7C9CA",
"%. c #B3B3B3",
"L  c #415255",
"5  c #8E9AA1",
"O. c #7195A6",
",  c #92C6E2",
"7. c #D9E5E9",
",. c #989FA1",
"k  c #7F8589",
"c  c #4B575A",
"T  c #B6BABB",
"h  c #3A4E54",
"l  c #ACACAD",
"9. c #BBBBBB",
"O  c #F2F6F8",
/* pixels */
"  . . . . . . . . . .   X X X X ",
". o O + @ # $ % & * = - X X X X ",
". O ; : > , < 1 2 3 4 5 X X X X ",
". 6 7 8 9 0 q w e r t y X X X X ",
". u i p a s d f g h j k X X X X ",
". l z w d x c a v b n m M X X X ",
". N B q V C Z A S D F G H X X X ",
". J K 0 c a A L P I U Y H X X X ",
". T R E W g Q h ! ~ ^ / H X X X ",
". ( ) > _ ` b ' ] [ { } |  .X X ",
". ..X.o.O.+.@.U ^ { #.$.%.&. .X ",
". *.=.-.7 ;.:./ >.,.<.%.$.%.&. .",
". 1.2.3.4.5.( ( 6.7.8.N 9.$.%.&.",
"  . . . . . . . . 0.0.q.N w.e.r.",
"X X X X X X X X X X X M t.y.w.y.",
"X X X X X X X X X X X X M t.u.$ "
};
