/* XPM */
static const char * triggerbad_xpm[] = {
"16 16 83 1",
" 	c None",
".	c #85BEC9",
"+	c #2F91A3",
"@	c #74F2E2",
"#	c #CAFFF8",
"$	c #FDFFFF",
"%	c #F7F8F8",
"&	c #FAFAFB",
"*	c #F8F7F8",
"=	c #FCFEFE",
"-	c #CAEAE7",
";	c #D76262",
">	c #C50000",
",	c #D05759",
"'	c #C4C4C8",
")	c #C6FDF6",
"!	c #9394A1",
"~	c #C5474B",
"{	c #DD6969",
"]	c #438799",
"^	c #C55B5D",
"/	c #F67777",
"(	c #C4474B",
"_	c #A5A9B0",
":	c #BE3D42",
"<	c #F15757",
"[	c #587E8F",
"}	c #F67676",
"|	c #F67272",
"1	c #F56E6E",
"2	c #BC3B40",
"3	c #F15656",
"4	c #EF4F4F",
"5	c #EE4849",
"6	c #5E7B8C",
"7	c #CA5154",
"8	c #F56D6D",
"9	c #F46868",
"0	c #F36262",
"a	c #F05555",
"b	c #EF4E4F",
"c	c #EE4848",
"d	c #388C9E",
"e	c #98BEBC",
"f	c #F36161",
"g	c #F15B5B",
"h	c #F05454",
"i	c #EF4D4E",
"j	c #EE4747",
"k	c #36AFA0",
"l	c #A3C0BD",
"m	c #DA6565",
"n	c #F05354",
"o	c #EF4D4D",
"p	c #EE4646",
"q	c #AA2C33",
"r	c #8FC2BE",
"s	c #D66262",
"t	c #F05353",
"u	c #EF4C4C",
"v	c #EE4545",
"w	c #EC3E3F",
"x	c #EB3838",
"y	c #4D8394",
"z	c #BA4446",
"A	c #F05252",
"B	c #EF4B4B",
"C	c #ED4445",
"D	c #EB3737",
"E	c #EA3131",
"F	c #E92B2B",
"G	c #836C7C",
"H	c #F05151",
"I	c #EE4A4A",
"J	c #ED4344",
"K	c #99434A",
"L	c #E92A2B",
"M	c #E82525",
"N	c #E72020",
"O	c #ED4243",
"P	c #C4464A",
"Q	c #99444B",
"R	c #E71F20",
"                ",
"   .+++.        ",
"   +@@@+        ",
"   +####+       ",
"   +$%&*=+      ",
"   +-;>,')!~>{  ",
"   ]^>/>(_:><>{ ",
"   [>}|1>2>345> ",
"   67>890>abc>{ ",
"   de;>fghij>{  ",
"   +klm>nop>q   ",
"   +rs>tuvwx>{  ",
"   yz>ABC>DEF>{ ",
"   G>HIJ>K>LMN> ",
"   G7>O>P Q>R>{ ",
"     q>qG  q>{  "};
