/* XPM */
static char * trigger_xpm[] = {
"16 16 14 1",
" 	c None",
".	c #85BEC9",
"+	c #2F91A3",
"@	c #74F2E2",
"#	c #CAFFF8",
"$	c #FDFFFF",
"%	c #C7FFF8",
"&	c #7DFBEB",
"*	c #65E3D3",
"=	c #4AC8B8",
"-	c #34B2A2",
";	c #31AF9F",
">	c #42C0B0",
",	c #5BD9C9",
"                ",
"   .+++.        ",
"   +@@@+        ",
"   +####+       ",
"   +$$$$$+      ",
"   +%%%%%%+.    ",
"   +&&&&&&&+.   ",
"   +********+   ",
"   +=======+.   ",
"   +------+     ",
"   +;;;;;+.     ",
"   +>>>>+       ",
"   +,,,+        ",
"    +++         ",
"                ",
"                "};
