/* XPM */
static char *viewfiltereddata_xpm[] = {
/* columns rows colors chars-per-pixel */
"32 32 129 2",
"   c gray86",
".  c #E5D8FB",
"X  c #CACACA",
"o  c #B3DBF2",
"O  c #E4E4E4",
"+  c #FBFBFB",
"@  c #71ABCD",
"#  c gray97",
"$  c #DAEEF6",
"%  c #6F55B0",
"&  c #EAE7F3",
"*  c #ABADD3",
"=  c #C3C3C3",
"-  c gray92",
";  c #D3C9EC",
":  c #B79CE8",
">  c #9597B5",
",  c #84C4EA",
"<  c #54A1D2",
"1  c #95CCEC",
"2  c #E3F1F7",
"3  c #8BC8EB",
"4  c #BADEEF",
"5  c #A8D6ED",
"6  c #B6B6B6",
"7  c #A4D4ED",
"8  c #72BCE9",
"9  c #99CFEC",
"0  c #98BFD3",
"q  c #888AA8",
"w  c #C5BCE1",
"e  c #B0DAEE",
"r  c #6BB4E1",
"t  c #7088B4",
"y  c #C3A7F2",
"u  c #9DD1ED",
"i  c #539CCA",
"p  c #A1D2ED",
"a  c #BEE0F0",
"s  c #7DC1EA",
"d  c #DDD3F4",
"f  c #967CCE",
"g  c #D2EAF5",
"h  c #CFE8F3",
"j  c #C8E5F4",
"k  c #5A7AAA",
"l  c #AFA2D2",
"z  c #B9DEF3",
"x  c #C1E2F0",
"c  c #BBA7E3",
"v  c #AB97D8",
"b  c #7CBBE1",
"n  c #ACD8EE",
"m  c #A5D4F1",
"M  c #91C5E4",
"N  c #AED8F2",
"B  c #DFF0F6",
"V  c #89C2E3",
"C  c #BBADDB",
"Z  c #C0E1F4",
"A  c #B9B9B9",
"S  c #4D8BA9",
"D  c gray84",
"F  c #B6DCEF",
"G  c #D9CDF2",
"H  c #C9E5F0",
"J  c #D0D0D0",
"K  c #8183BD",
"L  c #88C6EB",
"P  c #A9D6F2",
"I  c #C6E4F0",
"U  c #51AAE2",
"Y  c #75B8E2",
"T  c #79BFE9",
"R  c #5090AF",
"E  c #91CBEC",
"W  c #C3B5E1",
"Q  c #A68BDB",
"!  c #6AB8E8",
"~  c #84BFE2",
"^  c #CCE7F1",
"/  c #8FC9EB",
"(  c #C4E3F0",
")  c #97CEF0",
"_  c #CCE7F5",
"`  c #C4E3F4",
"'  c gainsboro",
"]  c #9983CC",
"[  c #9E83D5",
"{  c #9075C9",
"}  c #AD92E1",
"|  c #C6E4F4",
" . c #93CCEC",
".. c #856BC2",
"X. c #B9BAD9",
"o. c #F0F1F3",
"O. c #8E73C8",
"+. c #D5EBF5",
"@. c #D6ECF5",
"#. c #7D63BC",
"$. c #F0E6FF",
"%. c #CECED6",
"&. c #D0C2EC",
"*. c #787AB4",
"=. c #6FB6E0",
"-. c #5D99BD",
";. c #C9BCE7",
":. c #A1CFEA",
">. c #F2F9FB",
",. c #D5BDFA",
"<. c #4992BF",
"1. c #C6AFEE",
"2. c #98C7E5",
"3. c #CBE6F8",
"4. c #97CBEC",
"5. c #97CCE8",
"6. c #CDB1F9",
"7. c #DFF0F9",
"8. c #B3DBEE",
"9. c #B6A8D7",
"0. c #88B5D2",
"q. c #62B0E1",
"w. c #FDFDFD",
"e. c #7073B4",
"r. c gray85",
"t. c #5192B2",
"y. c gray100",
"u. c gray100",
"i. c None",
/* pixels */
"i.i.i.i.i.i.i.i.i.i.i.i.i.i.i.i.i.i.i.i.i.i.i.i.i.i.i.i.i.i.i.i.",
"i.0 t.t.t.t.t.t.t.t.t.t.t.t.t.t.t.t.t.t.t.t.t.t.t.t.t.t.t.t.0 i.",
"i.t.>.2 2 2 2 2 B B B $ $ $ @.@.+.g g g h _ _ j j | ` Z Z 7.t.i.",
"i.t.2 h h ^ ^ H H I ( x x a 4 4 F 8.e n n 5 7 p u u 9 1  .a t.i.",
"i.t.2 h   ' O # I   ' r.r.r.r.r.r.r.O # 5   ' r.r.r.O # E z t.i.",
"i.t.2 ^ - + y.y.( - + y.y.y.y.y.y.y.y.y.7 - + y.y.y.y.y.3 z t.i.",
"i.t.2 ^ w.y.y.y.x w.y.y.y.y.y.y.y.y.y.y.p w.y.y.y.y.y.y.L z t.i.",
"i.t.B H I I ( x a 4 4 F F 8.e n 5 5 7 p u 9 9 1 E / 3 L L o t.i.",
"i.t.B I   ' O # 4   ' r.r.r.r.r.r.r.O # 9   ' r.r.r.O # , o t.i.",
"i.t.B ( - + y.y.4 - + y.y.y.y.y.y.y.y.y.9 - + y.y.y.y.y.s o t.i.",
"i.t.$ ( w.y.y.y.F w.y.y.y.y.y.y.y.y.y.y.1 w.y.y.y.y.y.y.s N t.i.",
"i.t.$ x a 4 4 F 8.e e n 5 5 p p u 9 9  .E / 3 L , , s s T N t.i.",
"i.t.$ a   ' O # e   ' r.r.r.r.r.r.r.O # /   ' r.r.r.O # 8 N t.i.",
"i.t.@.4 - + y.y.n - + y.y.y.y.y.y.y.y.y.3 - + y.y.y.y.y.8 P t.i.",
"i.t.@.4 w.y.y.y.n w.y.y.y.w.w.w.w.w.w.y., + w.w.w.w.w.w.8 m t.i.",
"i.t.+.F 8.e n n 5 7 p u 9 5.M M V V ~ ~ b b b Y Y =.=.r r :.R i.",
"i.t.g 8.  ' O # 7   ' r.D J = A A 6 = J @ A A 6 6 6 = J i 0 S w.",
"i.t.g e - + y.y.p - + w.# O > *.e.e.e.e.e.e.e.e.e.e.e.e.e.e.e.X.",
"i.t.h n w.y.y.y.u w.y.+ # %.K o.$.. . . . d G G ; &.&.;.w ; & K ",
"i.t.h n 5 7 p u 9 9 1 / V @ t K . ,.6.1.y : : } Q [ f { ] w K X.",
"i.t._ 5   ' O # 9   ' r.D X 6 q K d ,.y : : } Q [ f { ] w K k + ",
"i.t._ 7 - + y.y.1 - + y.w.# - X > K d 1.: } Q [ f { ] w K t S w.",
"i.t.j p w.y.y.y.E w.y.y.y.w.# - X > K G c Q [ f { ] w K k 0.R i.",
"i.t.| u 9 9  .E / 3 L , , s T Y @ -.k K ; v f O.f w K k <.M R i.",
"i.t.` 9   ' O # 3   ' r.r.r.r.D D = A q K c O...v K q X < 4.t.i.",
"i.t.` 1 - + y.y.L - + y.y.y.y.y.w.# O = e.W ..#.9.e.= O U ) t.i.",
"i.t.Z  .w.y.y.y., w.y.y.y.y.y.y.y.w.o.D e.W #.% 9.e.D o.U ) t.i.",
"i.t.Z E / L L , , s s T 8 8 8 ! ! ! q.< e.C % % l e.i U U ) t.i.",
"i.t.7.z z z F o o N N N P P P m m m p 2.e.9.% % l e.V 1 ) 3.t.i.",
"i.0 t.t.t.t.t.t.t.t.t.t.t.t.t.t.t.t.t.R e.& l l O e.R t.t.t.0 i.",
"i.i.i.i.i.i.i.i.i.i.i.i.i.i.i.i.i.i.i.i.* e.e.e.e.* i.i.i.i.i.i.",
"i.i.i.i.i.i.i.i.i.i.i.i.i.i.i.i.i.i.i.i.i.i.i.i.i.i.i.i.i.i.i.i."
};
