/* XPM */
static char *viewdata_xpm[] = {
/* columns rows colors chars-per-pixel */
"32 32 129 2",
"   c #B2DBF2",
".  c #6DBAE9",
"X  c #B5DCEF",
"o  c #C9E5F0",
"O  c #61B4E8",
"+  c #6AB8E8",
"@  c #BBDFF3",
"#  c #C6E4F0",
"$  c #B6DDF3",
"%  c #DCEEF6",
"&  c #72BCE9",
"*  c #94CCEC",
"=  c #88C6EB",
"-  c #A5D5F1",
";  c #98CEEC",
":  c #55AFE7",
">  c #A4D4ED",
",  c #90CAEC",
"<  c #8CC8EB",
"1  c #AAD6EE",
"2  c #BEE0EF",
"3  c #BADEEF",
"4  c #AED8EE",
"5  c #84C5EB",
"6  c #DFF0F6",
"7  c #9CD0ED",
"8  c #B2DBEE",
"9  c #A1D2ED",
"0  c #9ED1ED",
"q  c #97CEF0",
"w  c #9ACFEC",
"e  c #66B6E8",
"r  c #D3EAF5",
"t  c #CCE7F1",
"y  c #7FC2EA",
"u  c #52ADE6",
"i  c #7CC1EA",
"p  c #C3E2F0",
"a  c #B0DAEE",
"s  c #AAD6F2",
"d  c #A0D2F1",
"f  c #9CD0F1",
"g  c #83C4EA",
"h  c #7BC0EA",
"j  c #78BFEA",
"k  c #76BEE9",
"l  c #A7D5ED",
"z  c #A2D3ED",
"x  c #96CEF0",
"c  c #DEF0F6",
"v  c #8AC8EB",
"b  c #D8EDF5",
"n  c #86C6EB",
"m  c #CBE6F4",
"M  c #81C3EA",
"N  c #C8E5F4",
"B  c #C4E3F0",
"V  c #70BBE9",
"C  c #ADD8F2",
"Z  c #A2D3F1",
"A  c #9ACFF1",
"S  c #96CDEC",
"D  c #64B6E8",
"F  c #5FB3E7",
"G  c #5DB2E7",
"H  c #5BB1E7",
"J  c #D0E8F5",
"K  c #CEE8F5",
"L  c #CCE7F5",
"P  c #C5E3F4",
"I  c #C3E2F4",
"U  c #B8DDEF",
"Y  c #A8D6EE",
"T  c gray86",
"R  c #E4E4E4",
"E  c gray92",
"W  c gainsboro",
"Q  c gray97",
"!  c #FDFDFD",
"~  c #FBFBFB",
"^  c #99BFD2",
"/  c #93CCEC",
"(  c #BCDFEF",
")  c #8EC9EB",
"_  c #E2F1F7",
"`  c #ADD8EE",
"'  c #E4F2F7",
"]  c #C6E4F4",
"[  c #8FCAEB",
"{  c #DBEEF6",
"}  c #C1E2F0",
"|  c #58B0E7",
" . c #D5EBF5",
".. c #D6ECF5",
"X. c #97CEEC",
"o. c #AFD9F2",
"O. c #CFE8F1",
"+. c #89C7EB",
"@. c #74BDE9",
"#. c #75BEE9",
"$. c #9ED1F1",
"%. c #C0E1F4",
"&. c #A8D6F2",
"*. c #91CBEC",
"=. c #D9EDF6",
"-. c #B4DBF2",
";. c #B9DEEF",
":. c #67B7E8",
">. c #F2F9FB",
",. c #CBE6F8",
"<. c #E3F2F7",
"1. c #ABD7EE",
"2. c #9BD0EC",
"3. c #A8D5ED",
"4. c #A8D6ED",
"5. c #BFE1F4",
"6. c #AFD9EE",
"7. c #85C5EB",
"8. c #9FD2F1",
"9. c #C0E1F0",
"0. c #90CAEB",
"q. c #9BD0F1",
"w. c #DFF0F9",
"e. c #63B5E8",
"r. c gray85",
"t. c #5192B2",
"y. c gray100",
"u. c gray100",
"i. c None",
/* pixels */
"i.i.i.i.i.i.i.i.i.i.i.i.i.i.i.i.i.i.i.i.i.i.i.i.i.i.i.i.i.i.i.i.",
"i.^ t.t.t.t.t.t.t.t.t.t.t.t.t.t.t.t.t.t.t.t.t.t.t.t.t.t.t.t.^ i.",
"i.t.>.' ' _ _ _ 6 c % % { =.b .. .r r J J L L N N ] P I %.w.t.i.",
"i.t.' O.O.t t o o # B p 9.2 ( U X 8 a ` 1.4.> z 0 7 w S / @ t.i.",
"i.t.<.O.T W R Q # T W r.r.r.r.r.r.r.R Q 3.T W r.r.r.R Q 0.@ t.i.",
"i.t._ t E ~ y.y.B E ~ y.y.y.y.y.y.y.y.y.> E ~ y.y.y.y.y.< @ t.i.",
"i.t._ t ! y.y.y.} ! y.y.y.y.y.y.y.y.y.y.9 ! y.y.y.y.y.y.+.$ t.i.",
"i.t.6 o # # B } 2 ( 3 U X 8 6.` 1 l > 9 0 w ; S *.[ < +.7.-.t.i.",
"i.t.6 # T W R Q ( T W r.r.r.r.r.r.r.R Q w T W r.r.r.R Q g   t.i.",
"i.t.c B E ~ y.y.3 E ~ y.y.y.y.y.y.y.y.y.; E ~ y.y.y.y.y.y   t.i.",
"i.t.% p ! y.y.y.U ! y.y.y.y.y.y.y.y.y.y.* ! y.y.y.y.y.y.i o.t.i.",
"i.t.{ 9.2 ( ;.U X a 6.1.1 l z 9 7 w X.* *.) < = 7.g y i j C t.i.",
"i.t.=.2 T W R Q a T W r.r.r.r.r.r.r.R Q ) T W r.r.r.R Q k C t.i.",
"i.t.b ( E ~ y.y.4 E ~ y.y.y.y.y.y.y.y.y.v E ~ y.y.y.y.y.& s t.i.",
"i.t...U ! y.y.y.1.! y.y.y.y.y.y.y.y.y.y.= ! y.y.y.y.y.y.V &.t.i.",
"i.t. .X 8 a 4 1.Y > z 0 7 w S / , ) +.= 5 M y h j #.& V . - t.i.",
"i.t.r 8 T W R Q > T W r.r.r.r.r.r.r.R Q M T W r.r.r.R Q + - t.i.",
"i.t.r 6.E ~ y.y.z E ~ y.y.y.y.y.y.y.y.y.i E ~ y.y.y.y.y.:.Z t.i.",
"i.t.J ` ! y.y.y.0 ! y.y.y.y.y.y.y.y.y.y.h ! y.y.y.y.y.y.e Z t.i.",
"i.t.K 1.l > 9 0 2.; S *.[ < +.n g M i h j @.& V . + :.D O d t.i.",
"i.t.L l T W R Q ; T W r.r.r.r.r.r.r.R Q @.T W r.r.r.R Q F $.t.i.",
"i.t.m > E ~ y.y.* E ~ y.y.y.y.y.y.y.y.y.& E ~ y.y.y.y.y.G $.t.i.",
"i.t.N 9 ! y.y.y.*.! y.y.y.y.y.y.y.y.y.y.. ! y.y.y.y.y.y.H f t.i.",
"i.t.] 0 w X.* *.) < = 7.g y i j k @.V . + + e e.O F G H | A t.i.",
"i.t.P w T W R Q < T W r.r.r.r.r.r.r.R Q :.T W r.r.r.R Q : A t.i.",
"i.t.I S E ~ y.y.= E ~ y.y.y.y.y.y.y.y.y.e E ~ y.y.y.y.y.: q t.i.",
"i.t.%./ ! y.y.y.5 ! y.y.y.y.y.y.y.y.y.y.e.! y.y.y.y.y.y.u q t.i.",
"i.t.5., ) +.= 5 M y h j #.& V . + :.e e.O F G H | : : u u q t.i.",
"i.t.w.@ @ $ $ -.  o.o.C s s &.- - Z Z d 8.$.$.q.A A q q x ,.t.i.",
"i.^ t.t.t.t.t.t.t.t.t.t.t.t.t.t.t.t.t.t.t.t.t.t.t.t.t.t.t.t.^ i.",
"i.i.i.i.i.i.i.i.i.i.i.i.i.i.i.i.i.i.i.i.i.i.i.i.i.i.i.i.i.i.i.i.",
"i.i.i.i.i.i.i.i.i.i.i.i.i.i.i.i.i.i.i.i.i.i.i.i.i.i.i.i.i.i.i.i."
};
