/* XPM */
static char * closeddatabase_xpm[] = {
"16 16 5 1",
" 	c None",
".	c #808080",
"+	c #FF0101",
"@	c #000000",
"#	c #C0C0C0",
"       .        ",
" ++@@@@@@@@@ ++ ",
" +++#######@+++ ",
"  +++######+++  ",
"  #+++####+++   ",
"  ##+++@@+++#   ",
"  ###++++++##   ",
"  ####++++###   ",
"  ####++++###   ",
"  ###++++++##   ",
"  ##+++##+++#   ",
"  #+++####+++   ",
"  +++######+++  ",
" +++########+++ ",
" ++  ######  ++ ",
"                "};
