/* XPM */
static char *event[] = {
/* columns rows colors chars-per-pixel */
"32 32 29 1",
"  c opaque",
". c #333300",
"X c #004400",
"o c #005500",
"O c #007700",
"+ c #440000",
"@ c #550000",
"# c #770000",
"$ c #663300",
"% c #444444",
"& c #555555",
"* c #777777",
"= c #008800",
"- c #00aa00",
"; c #00cc33",
": c green",
"> c #993300",
", c #993366",
"< c #cc3366",
"1 c #ff3366",
"2 c #cc6600",
"3 c #ff9900",
"4 c #ffcc00",
"5 c gray60",
"6 c #a0a0a4",
"7 c gray80",
"8 c #fffbf0",
"9 c white",
"0 c None",
/* pixels */
"00000000000000000000000000000000",
"00000000000000000000000000000000",
"                                ",
" 999999999999999999999999999999 ",
" 876666666666666666666666666676 ",
" 86%%%%%%%%%%%%%%%%%%%%%%%%%%86 ",
" 86%                 :      %86 ",
" 86%                : :     %86 ",
" 86%               :   :   :%86 ",
" 86%              :     : : %86 ",
" 86%: : : : : : :        :  %86 ",
" 86%                        %86 ",
" 86%%%%%%%%%%%%%%%%%%%%%%%%%%86 ",
" 878888888888888888888888888876 ",
" 8777&&&&77777&&&&77777&&&&7776 ",
" 877&++++&777&....&777&XXXX&776 ",
" 87&@@9@@@&7&$$9$$$&7&oo9ooo&76 ",
" 87&######&7&>>>>>>&7&OOOOOO&76 ",
" 87&,,,,,,&7&222222&7&======&76 ",
" 87&<<<<<<&7&333333&7&------&76 ",
" 877&1111&777&4444&777&;;;;&776 ",
" 8777&&&&77777&&&&77777&&&&7776 ",
" 877777777777777777888888888776 ",
" 86666666667777777***********76 ",
" 85&&&&&&&&97777777888888888776 ",
" 85&999999&9777777***********76 ",
" 85&966665&97777777888888888776 ",
" 85&&&&&&&&9777777***********76 ",
" 555555555555555555555555555555 ",
"                                ",
"00000000000000000000000000000000",
"00000000000000000000000000000000"
};
