/* XPM */
static char *graveyard.xpm[] = {
/* columns rows colors chars-per-pixel */
"32 32 8 1",
"  c opaque",
". c navy",
"X c #800080",
"o c #808080",
"O c #c0c0c0",
"+ c #c0dcc0",
"@ c white",
"# c None",
/* pixels */
"####oooooooooooooooooooo########",
"####oOOOOOOOOOOOOOOOOOOoo#######",
"####oO@@@@@@@@@@@@@@@@@oOo######",
"####oO@@@@o        @@@@oOOo#####",
"####oO@@             @@oOOOo####",
"####oO@@ +o+ooo      @@oOOOOo###",
"####oO@oo@@@o+@o     @@ooooooo##",
"####oO@o+@@@@@++@@@+ @@@@@@@Oo##",
"####oO@# @@@@+o@+XX@ @@@@@@@Oo##",
"####oO@#@XXXX@@XXXXoo @@@@@@Oo##",
"####oO@ @XXXo@@@+oo@oo@@@@@@Oo##",
"####oO@o +@@@+o@@+@@@ @@@@@@Oo##",
"####oO@@@   @+o@@@o  @@@@@@@Oo##",
"####oO@@@@o@@@@@@ @ @@@@@@@@Oo##",
"####oO@@@@o@@@@@@@@ @@@@@@@@Oo##",
"####oO@@@@o@@+@@+@@ @@@@@@@@Oo##",
"####oO@@@@ @o@@+@@oo@@@@@@@@Oo##",
"####oO@@@@ o@@ oooo @@@@@@@@Oo##",
"####oO@@@@@ oo    @@@@@@@@@@Oo##",
"####oO@@@@@@@@@@@@@@@@@@@@@@Oo##",
"####oO@@@@@@@@@@@@@@@@@@@@@@Oo##",
"####oO@@@@@.@@@.@.@@@@@@.@@@Oo##",
"####oO@@@@@.@@@.@@@@@@@@.@@@Oo##",
"####oO@@@@@.@@@.@.@...@...@@Oo##",
"####oO@@@@@.....@.@.@@.@.@@@Oo##",
"####oO@@@@@.@@@.@.@@.@@@.@@@Oo##",
"####oO@@@@@.@@@.@.@@@.@@.@@@Oo##",
"####oO@@@@@.@@@.@.@.@@.@.@@@Oo##",
"####oO@@@@@.@@@.@.@@..@@..@@Oo##",
"####oO@@@@@@@@@@@@@@@@@@@@@@Oo##",
"####oOOOOOOOOOOOOOOOOOOOOOOOOo##",
"####oooooooooooooooooooooooooo##"
};
