/* XPM */
static char * history_xpm[] = {
"32 32 12 1",
" 	c None",
".	c #808080",
"+	c #C0C0C0",
"@	c #FFFFFF",
"#	c #000000",
"$	c #16C9BA",
"%	c #9090FF",
"&	c #7C2800",
"*	c #9B0000",
"=	c #BA0000",
"-	c #800000",
";	c #0B3AE5",
"    ....................        ",
"    .++++++++++++++++++..       ",
"    .+@@@@@@@@@@@@@@@@@.+.      ",
"    .+@@@@@@@@@##@@@@@@.++.     ",
"    .+@@@@@@@##$$##@@@@.+++.    ",
"    .+@@@@@@#%@%$$$#@@@.++++.   ",
"    .+@@@@@@#@@%$$$#@@@.......  ",
"    .+@@@@@#$%%%$$$$#@@@@@@@+.  ",
"    .+@@@@@#$$$$$$$$#@@@@@@@+.  ",
"    .+@@@@@@#$$$$$$#@@@@@@@@+.  ",
"    .+@@@@@&#$$$$$$#@@@@@@@@+.  ",
"    .+@@@@&&*##$$##@@@@@@@@@+.  ",
"    .+@@@&&*=@@##@@@@@@@@@@@+.  ",
"    .+@@&&*=@@@@@@@@@@@@@@@@+.  ",
"    .+@&&*=@@@@@@@@@@@@@@@@@+.  ",
"    .+&&*=@@@@@@@@@@@@@@@@@@+.  ",
"    .+-*=@@@@@@@@@@@@@@@@@@@+.  ",
"    .+*=@@@@@@@@@@@@@@@@@@@@+.  ",
"    .+=@@@@@@@@@@@@@@@@@@@@@+.  ",
"    .+@@@@@@@@@@@@@@@@@@@@@@+.  ",
"    .+@@@@@@@@@@@@@@@@@@@@@@+.  ",
"    .+@@@@@;@@@;@;@@@@@@;@@@+.  ",
"    .+@@@@@;@@@;@@@@@@@@;@@@+.  ",
"    .+@@@@@;@@@;@;@;;;@;;;@@+.  ",
"    .+@@@@@;;;;;@;@;@@;@;@@@+.  ",
"    .+@@@@@;@@@;@;@@;@@@;@@@+.  ",
"    .+@@@@@;@@@;@;@@@;@@;@@@+.  ",
"    .+@@@@@;@@@;@;@;@@;@;@@@+.  ",
"    .+@@@@@;@@@;@;@@;;@@;;@@+.  ",
"    .+@@@@@@@@@@@@@@@@@@@@@@+.  ",
"    .++++++++++++++++++++++++.  ",
"    ..........................  "};
