/* XPM */
static char *index[] = {
/* columns rows colors chars-per-pixel */
"16 16 5 1",
"  c #040404",
". c #800000",
"X c #c0c0c0",
"o c white",
"O c None",
/* pixels */
"OOOOOOOOOOOOOOOO",
"OOOOOOOOOOOOOOOO",
"OOOOooooOOOOOOOO",
"OOOOo  oOOOOOOOO",
"OO..ooooOOOOOOOO",
"OO...ooo..OOOOOO",
"OO...    ..OOOOO",
"OO...ooooo..OOOO",
"OO...      .OOOO",
"OO....ooooo.OOOO",
"OO.....    .OOOO",
"OO.....ooXo.OOOO",
"OO......  ...OOO",
"OOOO....OOO.OOOO",
"OOOOOOOOOOOOOOOO",
"OOOOOOOOOOOOOOOO"
};
