/* XPM */
static char *namespace.xpm[] = {
/* columns rows colors chars-per-pixel */
"32 32 13 1",
"  c opaque",
". c #500000",
"X c #730000",
"o c #626262",
"O c gray48",
"+ c #800000",
"@ c #b90000",
"# c #dc0000",
"$ c #fe0000",
"% c #ff5500",
"& c #dc9200",
"* c gray76",
"= c None",
/* pixels */
"================================",
"================================",
"================================",
"===              ====        *==",
"== .$@@$@@@@@@@@@XXX.@@@@@@@@ *=",
"=O $$@$XX@@$$$@X@@*O.XXX$X$$$@ =",
"= .@X$@$$@X@$$$$X@*O.$@X$@$@@$ =",
"= .$$@@@X@XX@@@$$X*O.@X@@$$@X@ =",
"== .@@@X@$@@@@X$@@*O.$@@@X@@@ *=",
"===...........X+@%*OO.....@X *==",
"=== OOOOOOOOOOOOO***OOOOOOOO ===",
"=== ************************ *==",
"==.@@@@@@%**%@@@@@@@@@@@$@@$@ ==",
"= .$$$XXX@*O.@X@$$X$$@@XX$@$$ *=",
"= .@@$@@$@*O.X$$$XX$@X@$$@$X@@ =",
"= .X@$$X@@*O.$$@@$@@XX@X@@@$$@ =",
"== .@@X@$@*O.@$X@@@@@@$@X@@@@ *=",
"=== X@X@@&*O#......XXXXXXX@@ ===",
"=== $OOOO**OOOOOOOOOOOOOOOOO ===",
"=== ************************  *=",
"== .@XXX@X$@$X@@@%**%@@@@$$@@$ =",
"== .XXX@@$X@X@X$X@*o.@$$@$@$@$ =",
"== .$$@$@@X@X$$$$@*o.$$@$@$$$$ =",
"== .X@XX@$@X@XX@@@*o.$@$$$@@$$ =",
"=== X@@$X$@X@X$@@@*o.@X@$@@@. *=",
"=== .............@XXX........ ==",
"====              ===        *==",
"================================",
"================================",
"================================",
"================================",
"================================"
};
