/* XPM */
static char *ok.xpm[] = {
/* columns rows colors chars-per-pixel */
"32 32 14 1",
"  c opaque",
". c #501900",
"X c #503200",
"o c #505000",
"O c #734a00",
"+ c #737300",
"@ c #966200",
"# c #b97a00",
"$ c #dc4900",
"% c #ff5500",
"& c #969600",
"* c #dc9200",
"= c #dcdc00",
"- c None",
/* pixels */
"------------------------ooooo---",
"---------------ooooooooo+&+++o--",
"------ooo--oooo+&&&&&&&&&=&+++o-",
"--oooo+&+oo+&&&&===========&++o-",
"-o++&&&=&++&===============&++o-",
"-o+&=====&&========&=&%&===&++o-",
"-o&===============&$$$&$&==&++o-",
"-o&==============&$$$&=&===&++o-",
"-o&=============&$&$&======&++o-",
"-o&============&$$$&=======&++o-",
"-o&===========&$$$&========&++o-",
"-o&===========$$$&=========&++o-",
"-o&==========&$$&==========&++o-",
"-o&==========$$$===========&++o-",
"-o&=========&$$&===========&++o-",
"-o&=&$&====&$$$============&++o-",
"-o&==&$&===$$$&===========&+oo--",
"-o&===$$=&&$$&===========&+oooo-",
"-o&===&$&$$$$==============&++o-",
"-o&====$$$$&===============&++o-",
"-o&====$$$$===============&+oo--",
"-o&====&$&&================&++o-",
"-o&=====&==================&++o-",
"-o+&===========&&&&&&&&&&&&+oo--",
"-o++&&&&&&&&&&++oooooooooooo----",
"--oooooooooooooo...-------------",
"-----------XXXXOX..-------------",
"-----------XO@@@@X.-------------",
"-----------O@@##@X.-------------",
"-----------@@#**#X.-------------",
"-----------@#****X.-------------",
"-----------@#****X.-------------"
};
