/* XPM */
static char * pgAdmin3_xpm[] = {
"16 16 3 1",
" 	c None",
".	c #6585A2",
"+	c #CCDEEB",
"................",
".++++.++++.++++.",
".++++.++++.++++.",
".++++.++++.++++.",
".++++.++++.++++.",
"................",
".++++.++++.++++.",
".++++.++++.++++.",
".++++.++++.++++.",
".++++.++++.++++.",
"................",
".++++.++++.++++.",
".++++.++++.++++.",
".++++.++++.++++.",
".++++.++++.++++.",
"................"};
