/* XPM */
static char *public_xpm[] = {
/* columns rows colors chars-per-pixel */
"16 16 3 1",
"  c None",
". c blue",
"X c None",
/* pixels */
"XXXXXXXXXXXXXXXX",
"XXXXXX...XXXXXXX",
"XXXXXX...XXXXXXX",
"X.XXXX...XXXX.XX",
"....XX...XX....X",
"X.............XX",
"XX...........XXX",
"XXXX.......XXXXX",
"XXXX.......XXXXX",
"XX...........XXX",
"X........X....XX",
"....XX...XX....X",
"X.XXXX...XXXX.XX",
"XXXXXX...XXXXXXX",
"XXXXXX...XXXXXXX",
"XXXXXXXXXXXXXXXX"
};
