/* XPM */
static char *rule.xpm[] = {
/* columns rows colors chars-per-pixel */
"16 16 5 1",
"  c opaque",
". c #800000",
"X c #808080",
"o c white",
"O c None",
/* pixels */
"OOOOOOOOOOOOOOOO",
"OOOOOOOOOOOOOOOO",
"OOOOOOOOOOOOOOOO",
"OOOOOOOOOOOOOOOO",
"...............O",
".o.o.o.o.o.o.o.X",
".o.o.o.o.o.o.o.X",
".o.o.o.o.o.o.o.X",
".o.o.o.o.o.o.o.X",
"...............X",
"OOXXXXXXXXXXXXXX",
"OOOOOOOOOOOOOOOO",
"OOOOOOOOOOOOOOOO",
"OOOOOOOOOOOOOOOO",
"OOOOOOOOOOOOOOOO",
"OOOOOOOOOOOOOOOO"
};
