/* XPM */
static char *server[] = {
/* columns rows colors chars-per-pixel */
"16 16 6 1",
"  c opaque",
". c green",
"X c red",
"o c #808080",
"O c #c0c0c0",
"+ c None",
/* pixels */
"++++++++++++++++",
"+++++++++      +",
"+++++++ooooooo +",
"+++++oooooooOo +",
"+++ooooooOOOOo +",
"+++oOOOOoOOOOo +",
"+++oOooXoOOOOo +",
"+++oOOOOoOOOOo +",
"+++oOoo.oOOOOo +",
"+++oOOOOoOOOOo +",
"+++ooooooOOOOo +",
"+++ooooooOOooo +",
"+++oooooooo   ++",
"+++oooooo   ++++",
"++++++++++++++++",
"++++++++++++++++"
};
