/* XPM */
static char *storage.xpm[] = {
/* columns rows colors chars-per-pixel */
"32 32 110 2",
"   c opaque",
".  c #111111",
"X  c #000022",
"o  c #003333",
"O  c #220000",
"+  c #222222",
"@  c gray20",
"#  c #006666",
"$  c #336666",
"%  c #663300",
"&  c #663333",
"*  c #663366",
"=  c #666600",
"-  c #666633",
";  c #444444",
":  c #555555",
">  c gray40",
",  c #777777",
"<  c #333399",
"1  c blue",
"2  c #0033ff",
"3  c #3300ff",
"4  c #3333cc",
"5  c #006699",
"6  c #0066cc",
"7  c #6600ff",
"8  c #339966",
"9  c #33cc66",
"0  c #669966",
"q  c #009999",
"w  c #339999",
"e  c #0099ff",
"r  c #3399cc",
"t  c #33cc99",
"y  c #00cccc",
"u  c #00ffcc",
"i  c #33cccc",
"p  c #33ffcc",
"a  c #669999",
"s  c #6699cc",
"d  c #66cc99",
"f  c #66cccc",
"g  c #996600",
"h  c #996633",
"j  c #996666",
"k  c #cc3333",
"l  c #cc3366",
"z  c #ff3366",
"x  c #ff6600",
"c  c #ff6633",
"v  c #cc6666",
"b  c #ff6666",
"n  c #9900ff",
"m  c #cc3399",
"M  c #ff0099",
"N  c #ff3399",
"B  c #cc00ff",
"V  c #ff00cc",
"C  c magenta",
"Z  c #ff33cc",
"A  c #ff33ff",
"S  c #ff6699",
"D  c #cc66cc",
"F  c #ff66cc",
"G  c #ff66ff",
"H  c #999900",
"J  c #999933",
"K  c #999966",
"L  c #99cc00",
"P  c #99cc33",
"I  c #99cc66",
"U  c #cc9900",
"Y  c #cc9933",
"T  c #ff9900",
"R  c #ff9933",
"E  c #cc9966",
"W  c #ff9966",
"Q  c #cccc00",
"!  c #cccc33",
"~  c #ccff33",
"^  c #ffcc00",
"/  c #ffcc33",
"(  c yellow",
")  c #ffff33",
"_  c #cccc66",
"`  c #ccff66",
"'  c #ffcc66",
"]  c #ffff66",
"[  c gray60",
"{  c #a0a0a4",
"}  c #9999cc",
"|  c #99cc99",
" . c #99cccc",
".. c #99ffcc",
"X. c #cc9999",
"o. c #ff9999",
"O. c #cc99cc",
"+. c #ff99cc",
"@. c #cccc99",
"#. c #ffcc99",
"$. c #ffff99",
"%. c #c0c0c0",
"&. c gray80",
"*. c #ccffff",
"=. c #ffcccc",
"-. c #ffccff",
";. c #ffffcc",
":. c #fffbf0",
">. c white",
",. c None",
/* pixels */
",.,.,.,.,.,.,.,.,.,.,.,.                ,.,.,.,.,.,.,.,.,.,.,.,.",
",.,.,.,.,.,.,.,.,.      #.=.#.' #.' ] $.      ,.,.,.,.,.,.,.,.,.",
",.,.,.,.,.,.,.    ;.=.=./ =.#.R R W W W R / #.    ,.,.,.,.,.,.,.",
",.,.,.,.,.,.    R #.>.=./ =.=.W W ' ' W W b W W     ,.,.,.,.,.,.",
",.,.,.,.,.  E R c c >.-.' $.=.' ' W ' W W W W c c #.  ,.,.,.,.,.",
",.,.,.,.  X.b x R c #.*.#.$.:.' ' ' ' ' W W W W b z _   ,.,.,.,.",
",.,.,.  @.v k l c R b *.=.' :.#.' ' ' W ' ' W b c S V '   ,.,.,.",
",.,.    ! Y v v v R c #.-.' :.#./ ' ' ' ' W W c N A B <     ,.,.",
",.,.  E ! _ _ K v W R b >.#.;.#.' ' ' ' ' ' R N A 7 2 q Q   ,.,.",
",.  #._ E _ ` _ K j R R o.;.;.;./ ' ' ' ] R N C 3 6 K / / !   ,.",
",.  @.K _ _ | _ _ { j R b %.d s | 8 K ] / N B 1 w ! ) ! ! /   ,.",
",.  ! _ I E _ I I I { E f $ : : X X , 9 M 7 1 0 / ` E I K K   ,.",
"  #.U J ! ! E E _ ` ` i . @ ; ; , { :.&.s 4 Y ) ` @.@.&.O.[ ^   ",
"  _ H J Y J ! U Y T ..@ ; > , [ =.>.%.[ [ @.$.=.{ E K - h - Q   ",
"  Q = g H H J H U U r , [ %.: O   + : : : a ! L J H J L L H Q   ",
"  X.K X.E K E E K E } > , [       O , [ %.[ H J J J J h h g g   ",
"  K J P P ! P ~ ` ` 5 + @ ;         >.>.>.a K X.X.X.X.X.X.{ E   ",
"  J H J E X.X.X.K Y q : [ { ,     { >.{ { a g J H H g g g % g   ",
"  j { { [ 0 0 J J J u =.>.>.>.:.&.{ [ , [ | Y J , , , h h & H   ",
"  { + ; : - , , a e 1 t &.{ [ , , , [ [  .Q ( / ! Y K J , g Y   ",
",.  : 0 > , , t e 3 C J w : : > > ; @ $ D E ! / / ~ ! _ I J   ,.",
",.  [ * , a p 2 n M ! ] ' d 5 # o #  .c z Z K E ! / / ! ! !   ,.",
",.  =.0 i y 1 B m ~ ] ] ' R / R #.>.;.x c S Z K E Y / / / _   ,.",
",.,.   .6 1 V v ` ] ] ' ' ' ' ' W >.;.o.c c S G j K J U U   ,.,.",
",.,.    7 M E ` ] ] ] ' ' ' ' W W >.] -.c W c b F l k k     ,.,.",
",.,.,.  +.E ~ ] ` ] ] ' ' ' ' ' R >.' >.o.c W c S F l X.  ,.,.,.",
",.,.,.,.  $.] ] ] ] ' ' ' ' ' W ' :.$.$.=.c W W c z +.  ,.,.,.,.",
",.,.,.,.,.  ' ] ] ' ' ' ' ' ' ' W #.=.' :.o.c b W o.  ,.,.,.,.,.",
",.,.,.,.,.,.    ] ' / ' ' ' W W R #.>./ =.#.c R     ,.,.,.,.,.,.",
",.,.,.,.,.,.,.    #.$.' R / / W R W -./ #.=.$.    ,.,.,.,.,.,.,.",
",.,.,.,.,.,.,.,.,.      #.' #.' ' #.;.$.      ,.,.,.,.,.,.,.,.,.",
",.,.,.,.,.,.,.,.,.,.,.,.                ,.,.,.,.,.,.,.,.,.,.,.,."
};
