/* XPM */
static char * table_xpm[] = {
"16 16 11 1",
" 	c None",
".	c #976B18",
"+	c #DEDEDE",
"@	c #2F0000",
"#	c #B8B8B8",
"$	c #0F0000",
"%	c #3D0000",
"&	c #C8C8C8",
"*	c #000000",
"=	c #0C0000",
"-	c #B2B2B2",
"                ",
"                ",
"                ",
"                ",
"         ..     ",
"      .......   ",
"   ............ ",
" ............   ",
"  .......+@#$   ",
"   ...++++++%&+ ",
" ++*&=-++++++   ",
"  ++&$+++       ",
"    ++          ",
"                ",
"                ",
"                "};
