/* XPM */
static char *table.xpm[] = {
/* columns rows colors chars-per-pixel */
"16 16 5 1",
"  c opaque",
". c #800000",
"X c #808000",
"o c gray87",
"O c None",
/* pixels */
"OOOOOOOOOOOOOOOO",
"OOOOOOOOOOOOOOOO",
"OOOOOOOOOOOOOOOO",
"OOOOOOOOOOOOOOOO",
"OOOOOOOOOXXOOOOO",
"OOOOOOXXXXXXXOOO",
"OOOXXXXXXXXXXXXO",
"OXXXXXXXXXXXXOOO",
"OOXXXXXXXo.o.OOO",
"OOOXXXoooooo.ooO",
"Ooo.o.oooooooOOO",
"OOooo.oooOOOOOOO",
"OOOOooOOOOOOOOOO",
"OOOOOOOOOOOOOOOO",
"OOOOOOOOOOOOOOOO",
"OOOOOOOOOOOOOOOO"
};
