/* XPM */
static char *trigger.xpm[] = {
/* columns rows colors chars-per-pixel */
"16 16 6 1",
"  c opaque",
". c #800000",
"X c #808080",
"o c #c0c0c0",
"O c white",
"+ c None",
/* pixels */
"++++++++++++++++",
"++++++++++++++++",
"++++++++++++++++",
"++++  ++++++XX++",
"+++XXXXXXXXXXXX+",
"++ XoooooooooXX+",
"++.XoXXXXXXXXXX+",
"+.... O ++++++++",
"+....   ++++++++",
"+.....++++++++++",
"+.....++++++++++",
"+.....++++++++++",
"++...+++++++++++",
"++++++++++++++++",
"++++++++++++++++",
"++++++++++++++++"
};
