/* XPM */
static char *type.xpm[] = {
/* columns rows colors chars-per-pixel */
"16 16 11 1",
"  c #040404",
". c blue",
"X c #3333ff",
"o c #6666ff",
"O c red",
"+ c #ff3333",
"@ c #ff5050",
"# c yellow",
"$ c #ccccff",
"% c #ffcccc",
"& c None",
/* pixels */
"OOOOO&&&&&&&&&&&",
"O+++O&&&&&&&&&&&",
"+OOO+&&&&&&&&&&&",
"+O@%@&&&&&&&&&&&",
"O+@%@&XXX&&&&&&&",
"OOOOOXXXXX&&&&&&",
"&&&&XX...XX&&&&&",
"&&&&XX.oooX&#&&&",
"&&&&XX.o$oX&#&&&",
"&&&&&XXooo&###&&",
"&&&&&&XXX&&###&&",
"&&&&&&&&&&&###&&",
"&&&&&&&&&&#####&",
"&&&&&&&&&&#####&",
"&&&&&&&&&&&&&&&&",
"&&&&&&&&&&&&&&&&"
};
