/* XPM */
static char * unknown_xpm[] = {
"32 32 27 1",
" 	c None",
".	c #818181",
"+	c #7A7A7A",
"@	c #929292",
"#	c #AAAAAA",
"$	c #9E9E9E",
"%	c #6E6E6E",
"&	c #B6B6B6",
"*	c #C1C1C1",
"=	c #000000",
"-	c #FFFFFF",
";	c #FFD4FF",
">	c #DADADA",
",	c #FFB1FF",
"'	c #800080",
")	c #FF8EFF",
"!	c #FF6BFF",
"~	c #E6E6E6",
"{	c #FE00FE",
"]	c #DC00DC",
"^	c #F2F2F2",
"/	c #B900B9",
"(	c #960096",
"_	c #730073",
":	c #500050",
"<	c #F0D4FF",
"[	c #B848FF",
"           ......+.             ",
"        ...++..@@#$...          ",
"      ..%%++.@@@$$##&*..        ",
"     +%%%++@.@@$$##&&&&*.       ",
"    .%%%++..@@$$##&&&&***=      ",
"   .%%%++@.@-;-;-;-*&****>=     ",
"  .%%%++..@;,''';,;,****>>>=    ",
" .%%%++..@@))##&&)))'**>>>>*=   ",
" .%%++..@@$!!!'&&!!!'*>>>>~~=.  ",
".%%++.@@@#${{{'&*{{{'>>>>~~~*=. ",
".%++..@@$$#*''*&]]]'*>>>~~~~^=. ",
".++..@@$$##&&&&*//'*>>>~~~~^^=..",
".+..@@$$##&&&&*(('*>>>~~~~^^^=..",
"...@@#$##&&&&**_'*>>>~~~~^^^^=..",
"..@@#$##&&&&***:'>>>~~~~^^^^-=.+",
".@@#$##&&&&****>'>>~~~~^^^^-*=..",
" .$##&&&&&*****<;*~~~~^^^^--=..+",
" +$##&&&&****>-)[/~~~^^^^--*=...",
"  .#&&&&****>><[/:~~^^^^---=+.. ",
"   =&&&****>>>*/:*~^^^^---=+... ",
"    =&****>>>>~~~~^^^^---=....  ",
"     =***>>>>~~~~^^^^--*=....   ",
"      ==*>>>~~~~^^^^-*==...+    ",
"       .===*~~~^^^*===...+.     ",
"        ...===*^^^=...+...      ",
"          ....=^^-=+....        ",
"             .=^--=..           ",
"               =--=..           ",
"                =-=..           ",
"                 ==..           ",
"                  .+.           ",
"                   ..           "};
